%TF.GenerationSoftware,KiCad,Pcbnew,(6.0.4)*%
%TF.CreationDate,2023-08-29T14:34:22+02:00*%
%TF.ProjectId,big_black_box_pcb_cad,6269675f-626c-4616-936b-5f626f785f70,rev?*%
%TF.SameCoordinates,Original*%
%TF.FileFunction,Paste,Top*%
%TF.FilePolarity,Positive*%
%FSLAX46Y46*%
G04 Gerber Fmt 4.6, Leading zero omitted, Abs format (unit mm)*
G04 Created by KiCad (PCBNEW (6.0.4)) date 2023-08-29 14:34:22*
%MOMM*%
%LPD*%
G01*
G04 APERTURE LIST*
G04 Aperture macros list*
%AMRoundRect*
0 Rectangle with rounded corners*
0 $1 Rounding radius*
0 $2 $3 $4 $5 $6 $7 $8 $9 X,Y pos of 4 corners*
0 Add a 4 corners polygon primitive as box body*
4,1,4,$2,$3,$4,$5,$6,$7,$8,$9,$2,$3,0*
0 Add four circle primitives for the rounded corners*
1,1,$1+$1,$2,$3*
1,1,$1+$1,$4,$5*
1,1,$1+$1,$6,$7*
1,1,$1+$1,$8,$9*
0 Add four rect primitives between the rounded corners*
20,1,$1+$1,$2,$3,$4,$5,0*
20,1,$1+$1,$4,$5,$6,$7,0*
20,1,$1+$1,$6,$7,$8,$9,0*
20,1,$1+$1,$8,$9,$2,$3,0*%
G04 Aperture macros list end*
%ADD10RoundRect,0.075000X-0.700000X-0.075000X0.700000X-0.075000X0.700000X0.075000X-0.700000X0.075000X0*%
%ADD11RoundRect,0.075000X-0.075000X-0.700000X0.075000X-0.700000X0.075000X0.700000X-0.075000X0.700000X0*%
%ADD12RoundRect,0.225000X-0.250000X0.225000X-0.250000X-0.225000X0.250000X-0.225000X0.250000X0.225000X0*%
%ADD13RoundRect,0.200000X-0.275000X0.200000X-0.275000X-0.200000X0.275000X-0.200000X0.275000X0.200000X0*%
%ADD14RoundRect,0.150000X0.150000X-0.587500X0.150000X0.587500X-0.150000X0.587500X-0.150000X-0.587500X0*%
%ADD15RoundRect,0.225000X0.225000X0.250000X-0.225000X0.250000X-0.225000X-0.250000X0.225000X-0.250000X0*%
%ADD16RoundRect,0.225000X0.335876X0.017678X0.017678X0.335876X-0.335876X-0.017678X-0.017678X-0.335876X0*%
%ADD17RoundRect,0.200000X0.200000X0.275000X-0.200000X0.275000X-0.200000X-0.275000X0.200000X-0.275000X0*%
%ADD18RoundRect,0.200000X0.275000X-0.200000X0.275000X0.200000X-0.275000X0.200000X-0.275000X-0.200000X0*%
%ADD19RoundRect,0.218750X0.256250X-0.218750X0.256250X0.218750X-0.256250X0.218750X-0.256250X-0.218750X0*%
%ADD20RoundRect,0.087500X0.187500X0.087500X-0.187500X0.087500X-0.187500X-0.087500X0.187500X-0.087500X0*%
%ADD21RoundRect,0.087500X0.087500X0.187500X-0.087500X0.187500X-0.087500X-0.187500X0.087500X-0.187500X0*%
%ADD22RoundRect,0.150000X-0.512500X-0.150000X0.512500X-0.150000X0.512500X0.150000X-0.512500X0.150000X0*%
%ADD23RoundRect,0.218750X-0.218750X-0.256250X0.218750X-0.256250X0.218750X0.256250X-0.218750X0.256250X0*%
%ADD24RoundRect,0.218750X0.218750X0.256250X-0.218750X0.256250X-0.218750X-0.256250X0.218750X-0.256250X0*%
%ADD25R,1.450000X0.600000*%
%ADD26R,1.450000X0.300000*%
%ADD27R,2.000000X2.000000*%
%ADD28R,2.400000X0.740000*%
%ADD29RoundRect,0.225000X0.250000X-0.225000X0.250000X0.225000X-0.250000X0.225000X-0.250000X-0.225000X0*%
%ADD30RoundRect,0.200000X-0.200000X-0.275000X0.200000X-0.275000X0.200000X0.275000X-0.200000X0.275000X0*%
%ADD31R,1.300000X1.000000*%
%ADD32RoundRect,0.225000X-0.225000X-0.250000X0.225000X-0.250000X0.225000X0.250000X-0.225000X0.250000X0*%
G04 APERTURE END LIST*
D10*
%TO.C,U101*%
X150825000Y-91250000D03*
X150825000Y-91750000D03*
X150825000Y-92250000D03*
X150825000Y-92750000D03*
X150825000Y-93250000D03*
X150825000Y-93750000D03*
X150825000Y-94250000D03*
X150825000Y-94750000D03*
X150825000Y-95250000D03*
X150825000Y-95750000D03*
X150825000Y-96250000D03*
X150825000Y-96750000D03*
X150825000Y-97250000D03*
X150825000Y-97750000D03*
X150825000Y-98250000D03*
X150825000Y-98750000D03*
D11*
X152750000Y-100675000D03*
X153250000Y-100675000D03*
X153750000Y-100675000D03*
X154250000Y-100675000D03*
X154750000Y-100675000D03*
X155250000Y-100675000D03*
X155750000Y-100675000D03*
X156250000Y-100675000D03*
X156750000Y-100675000D03*
X157250000Y-100675000D03*
X157750000Y-100675000D03*
X158250000Y-100675000D03*
X158750000Y-100675000D03*
X159250000Y-100675000D03*
X159750000Y-100675000D03*
X160250000Y-100675000D03*
D10*
X162175000Y-98750000D03*
X162175000Y-98250000D03*
X162175000Y-97750000D03*
X162175000Y-97250000D03*
X162175000Y-96750000D03*
X162175000Y-96250000D03*
X162175000Y-95750000D03*
X162175000Y-95250000D03*
X162175000Y-94750000D03*
X162175000Y-94250000D03*
X162175000Y-93750000D03*
X162175000Y-93250000D03*
X162175000Y-92750000D03*
X162175000Y-92250000D03*
X162175000Y-91750000D03*
X162175000Y-91250000D03*
D11*
X160250000Y-89325000D03*
X159750000Y-89325000D03*
X159250000Y-89325000D03*
X158750000Y-89325000D03*
X158250000Y-89325000D03*
X157750000Y-89325000D03*
X157250000Y-89325000D03*
X156750000Y-89325000D03*
X156250000Y-89325000D03*
X155750000Y-89325000D03*
X155250000Y-89325000D03*
X154750000Y-89325000D03*
X154250000Y-89325000D03*
X153750000Y-89325000D03*
X153250000Y-89325000D03*
X152750000Y-89325000D03*
%TD*%
D12*
%TO.C,C111*%
X164499999Y-87225000D03*
X164499999Y-88775000D03*
%TD*%
D13*
%TO.C,R116*%
X149500000Y-111155000D03*
X149500000Y-112805000D03*
%TD*%
D14*
%TO.C,Q101*%
X152800000Y-112937500D03*
X154700000Y-112937500D03*
X153750000Y-111062500D03*
%TD*%
D12*
%TO.C,C116*%
X164000000Y-111225000D03*
X164000000Y-112775000D03*
%TD*%
D15*
%TO.C,C112*%
X148025000Y-97490000D03*
X146475000Y-97490000D03*
%TD*%
D16*
%TO.C,C113*%
X151048008Y-88548008D03*
X149951992Y-87451992D03*
%TD*%
D17*
%TO.C,R104*%
X162075000Y-84750000D03*
X160425000Y-84750000D03*
%TD*%
D18*
%TO.C,R114*%
X150250000Y-107825000D03*
X150250000Y-106175000D03*
%TD*%
D15*
%TO.C,C104*%
X148025000Y-96000000D03*
X146475000Y-96000000D03*
%TD*%
D12*
%TO.C,C114*%
X140500000Y-100975000D03*
X140500000Y-102525000D03*
%TD*%
D18*
%TO.C,R115*%
X150250000Y-104575000D03*
X150250000Y-102925000D03*
%TD*%
D13*
%TO.C,R107*%
X162500000Y-111175000D03*
X162500000Y-112825000D03*
%TD*%
D19*
%TO.C,D102*%
X153250000Y-104537500D03*
X153250000Y-102962500D03*
%TD*%
D20*
%TO.C,U102*%
X157725000Y-85000000D03*
X157725000Y-84500000D03*
X157725000Y-84000000D03*
X157725000Y-83500000D03*
X157725000Y-83000000D03*
D21*
X157000000Y-82775000D03*
X156500000Y-82775000D03*
X156000000Y-82775000D03*
D20*
X155275000Y-83000000D03*
X155275000Y-83500000D03*
X155275000Y-84000000D03*
X155275000Y-84500000D03*
X155275000Y-85000000D03*
D21*
X156000000Y-85225000D03*
X156500000Y-85225000D03*
X157000000Y-85225000D03*
%TD*%
D18*
%TO.C,R105*%
X148000000Y-94325000D03*
X148000000Y-92675000D03*
%TD*%
D15*
%TO.C,C103*%
X164025000Y-101500000D03*
X162475000Y-101500000D03*
%TD*%
D22*
%TO.C,U103*%
X142362500Y-100800000D03*
X142362500Y-101750000D03*
X142362500Y-102700000D03*
X144637500Y-102700000D03*
X144637500Y-100800000D03*
%TD*%
D19*
%TO.C,D104*%
X158000000Y-104537500D03*
X158000000Y-102962500D03*
%TD*%
%TO.C,D106*%
X161000000Y-104537500D03*
X161000000Y-102962500D03*
%TD*%
D17*
%TO.C,R102*%
X164825000Y-107750000D03*
X163175000Y-107750000D03*
%TD*%
D12*
%TO.C,C115*%
X146500000Y-100975000D03*
X146500000Y-102525000D03*
%TD*%
D17*
%TO.C,R103*%
X162075000Y-83250000D03*
X160425000Y-83250000D03*
%TD*%
D15*
%TO.C,C110*%
X150525000Y-101000000D03*
X148975000Y-101000000D03*
%TD*%
D23*
%TO.C,FB101*%
X146462500Y-99000000D03*
X148037500Y-99000000D03*
%TD*%
D19*
%TO.C,D105*%
X159500000Y-104537500D03*
X159500000Y-102962500D03*
%TD*%
D24*
%TO.C,D101*%
X160287500Y-107750000D03*
X158712500Y-107750000D03*
%TD*%
D22*
%TO.C,U104*%
X158362500Y-111050000D03*
X158362500Y-112000000D03*
X158362500Y-112950000D03*
X160637500Y-112950000D03*
X160637500Y-111050000D03*
%TD*%
D13*
%TO.C,R109*%
X151750000Y-106175000D03*
X151750000Y-107825000D03*
%TD*%
D18*
%TO.C,R106*%
X151000000Y-112805000D03*
X151000000Y-111155000D03*
%TD*%
D25*
%TO.C,J101*%
X167455000Y-111750000D03*
X167455000Y-110950000D03*
D26*
X167455000Y-110250000D03*
X167455000Y-109250000D03*
X167455000Y-107750000D03*
X167455000Y-106750000D03*
D25*
X167455000Y-106050000D03*
X167455000Y-105250000D03*
X167455000Y-105250000D03*
X167455000Y-106050000D03*
D26*
X167455000Y-107250000D03*
X167455000Y-108250000D03*
X167455000Y-108750000D03*
X167455000Y-109750000D03*
D25*
X167455000Y-110950000D03*
X167455000Y-111750000D03*
%TD*%
D27*
%TO.C,SW101*%
X141250000Y-84000000D03*
X147250000Y-84000000D03*
%TD*%
D28*
%TO.C,J102*%
X171450000Y-98810000D03*
X167550000Y-98810000D03*
X171450000Y-97540000D03*
X167550000Y-97540000D03*
X171450000Y-96270000D03*
X167550000Y-96270000D03*
X171450000Y-95000000D03*
X167550000Y-95000000D03*
X171450000Y-93730000D03*
X167550000Y-93730000D03*
X171450000Y-92460000D03*
X167550000Y-92460000D03*
X171450000Y-91190000D03*
X167550000Y-91190000D03*
%TD*%
D29*
%TO.C,C117*%
X156500000Y-112775000D03*
X156500000Y-111225000D03*
%TD*%
D30*
%TO.C,R108*%
X158675000Y-109250000D03*
X160325000Y-109250000D03*
%TD*%
D13*
%TO.C,R111*%
X154750000Y-106175000D03*
X154750000Y-107825000D03*
%TD*%
D31*
%TO.C,Y101*%
X144600000Y-92600000D03*
X142400000Y-92600000D03*
X142400000Y-94400000D03*
X144600000Y-94400000D03*
%TD*%
D16*
%TO.C,C109*%
X149987348Y-89608668D03*
X148891332Y-88512652D03*
%TD*%
D15*
%TO.C,C101*%
X153025000Y-84750000D03*
X151475000Y-84750000D03*
%TD*%
D13*
%TO.C,R110*%
X153250000Y-106175000D03*
X153250000Y-107825000D03*
%TD*%
D17*
%TO.C,R101*%
X164825000Y-109250000D03*
X163175000Y-109250000D03*
%TD*%
D12*
%TO.C,C106*%
X146500000Y-92725000D03*
X146500000Y-94275000D03*
%TD*%
D29*
%TO.C,C105*%
X140500000Y-94275000D03*
X140500000Y-92725000D03*
%TD*%
D15*
%TO.C,C102*%
X153025000Y-83250000D03*
X151475000Y-83250000D03*
%TD*%
D19*
%TO.C,D103*%
X154750000Y-104537500D03*
X154750000Y-102962500D03*
%TD*%
D12*
%TO.C,C108*%
X163000000Y-87225000D03*
X163000000Y-88775000D03*
%TD*%
D32*
%TO.C,C107*%
X162475000Y-100000000D03*
X164025000Y-100000000D03*
%TD*%
D18*
%TO.C,R113*%
X163250000Y-104575000D03*
X163250000Y-102925000D03*
%TD*%
D17*
%TO.C,R112*%
X160325000Y-106250000D03*
X158675000Y-106250000D03*
%TD*%
M02*
