M48
; DRILL file {KiCad (6.0.4)} date Tue Aug 29 14:34:24 2023
; FORMAT={-:-/ absolute / metric / decimal}
; #@! TF.CreationDate,2023-08-29T14:34:24+02:00
; #@! TF.GenerationSoftware,Kicad,Pcbnew,(6.0.4)
; #@! TF.FileFunction,Plated,1,4,PTH
FMAT,2
METRIC
; #@! TA.AperFunction,Plated,PTH,ViaDrill
T1C0.300
; #@! TA.AperFunction,Plated,PTH,ViaDrill
T2C0.400
; #@! TA.AperFunction,Plated,PTH,ComponentDrill
T3C0.600
; #@! TA.AperFunction,Plated,PTH,ComponentDrill
T4C0.800
%
G90
G05
T1
X140.5Y-103.75
X143.0Y-91.0
X143.4Y-83.0
X143.4Y-98.5
X144.0Y-96.0
X145.25Y-96.0
X145.25Y-97.49
X147.25Y-86.75
X147.75Y-100.975
X147.75Y-102.525
X148.007Y-89.397
X149.103Y-90.493
X149.5Y-109.98
X150.25Y-83.25
X150.25Y-84.75
X150.5Y-99.75
X150.836Y-86.568
X151.0Y-109.98
X151.75Y-101.0
X151.932Y-87.664
X152.5Y-91.0
X152.5Y-94.25
X152.5Y-96.75
X152.5Y-98.5
X153.0Y-86.75
X153.025Y-81.5
X153.25Y-109.0
X155.25Y-87.5
X155.75Y-91.0
X155.75Y-92.1
X155.75Y-93.2
X155.75Y-94.3
X155.75Y-95.4
X155.75Y-96.5
X155.75Y-98.7
X156.0Y-81.5
X156.5Y-84.0
X156.5Y-86.5
X156.5Y-110.0
X156.5Y-114.0
X157.5Y-106.25
X157.5Y-107.75
X158.2Y-95.2
X159.0Y-81.5
X159.0Y-83.0
X160.5Y-91.75
X160.5Y-94.25
X160.5Y-99.0
X161.25Y-101.0
X161.75Y-87.225
X161.75Y-88.775
X163.175Y-106.5
X163.5Y-83.25
X163.5Y-84.75
X164.0Y-91.25
X164.0Y-97.0
X165.5Y-92.46
X165.5Y-100.0
X165.5Y-101.5
X165.5Y-102.925
X165.5Y-104.5
X165.5Y-106.05
X165.5Y-110.95
X165.5Y-112.5
X165.75Y-87.225
X165.75Y-88.775
X169.5Y-92.46
X169.5Y-95.0
X169.5Y-96.27
X169.5Y-97.54
T2
X165.25Y-114.0
T4
X140.43Y-106.25
X148.05Y-106.25
T3
X167.82Y-104.18G85X168.92Y-104.18
G05
X167.82Y-112.82G85X168.92Y-112.82
G05
X172.25Y-104.18G85X172.85Y-104.18
G05
X172.25Y-112.82G85X172.85Y-112.82
G05
T0
M30
