%TF.GenerationSoftware,KiCad,Pcbnew,(6.0.4)*%
%TF.CreationDate,2023-08-29T14:34:22+02:00*%
%TF.ProjectId,big_black_box_pcb_cad,6269675f-626c-4616-936b-5f626f785f70,rev?*%
%TF.SameCoordinates,Original*%
%TF.FileFunction,Copper,L1,Top*%
%TF.FilePolarity,Positive*%
%FSLAX46Y46*%
G04 Gerber Fmt 4.6, Leading zero omitted, Abs format (unit mm)*
G04 Created by KiCad (PCBNEW (6.0.4)) date 2023-08-29 14:34:22*
%MOMM*%
%LPD*%
G01*
G04 APERTURE LIST*
G04 Aperture macros list*
%AMRoundRect*
0 Rectangle with rounded corners*
0 $1 Rounding radius*
0 $2 $3 $4 $5 $6 $7 $8 $9 X,Y pos of 4 corners*
0 Add a 4 corners polygon primitive as box body*
4,1,4,$2,$3,$4,$5,$6,$7,$8,$9,$2,$3,0*
0 Add four circle primitives for the rounded corners*
1,1,$1+$1,$2,$3*
1,1,$1+$1,$4,$5*
1,1,$1+$1,$6,$7*
1,1,$1+$1,$8,$9*
0 Add four rect primitives between the rounded corners*
20,1,$1+$1,$2,$3,$4,$5,0*
20,1,$1+$1,$4,$5,$6,$7,0*
20,1,$1+$1,$6,$7,$8,$9,0*
20,1,$1+$1,$8,$9,$2,$3,0*%
G04 Aperture macros list end*
%TA.AperFunction,SMDPad,CuDef*%
%ADD10RoundRect,0.075000X-0.700000X-0.075000X0.700000X-0.075000X0.700000X0.075000X-0.700000X0.075000X0*%
%TD*%
%TA.AperFunction,SMDPad,CuDef*%
%ADD11RoundRect,0.075000X-0.075000X-0.700000X0.075000X-0.700000X0.075000X0.700000X-0.075000X0.700000X0*%
%TD*%
%TA.AperFunction,SMDPad,CuDef*%
%ADD12RoundRect,0.225000X-0.250000X0.225000X-0.250000X-0.225000X0.250000X-0.225000X0.250000X0.225000X0*%
%TD*%
%TA.AperFunction,SMDPad,CuDef*%
%ADD13R,1.500000X1.000000*%
%TD*%
%TA.AperFunction,SMDPad,CuDef*%
%ADD14RoundRect,0.200000X-0.275000X0.200000X-0.275000X-0.200000X0.275000X-0.200000X0.275000X0.200000X0*%
%TD*%
%TA.AperFunction,SMDPad,CuDef*%
%ADD15RoundRect,0.150000X0.150000X-0.587500X0.150000X0.587500X-0.150000X0.587500X-0.150000X-0.587500X0*%
%TD*%
%TA.AperFunction,SMDPad,CuDef*%
%ADD16RoundRect,0.225000X0.225000X0.250000X-0.225000X0.250000X-0.225000X-0.250000X0.225000X-0.250000X0*%
%TD*%
%TA.AperFunction,SMDPad,CuDef*%
%ADD17RoundRect,0.225000X0.335876X0.017678X0.017678X0.335876X-0.335876X-0.017678X-0.017678X-0.335876X0*%
%TD*%
%TA.AperFunction,SMDPad,CuDef*%
%ADD18RoundRect,0.200000X0.200000X0.275000X-0.200000X0.275000X-0.200000X-0.275000X0.200000X-0.275000X0*%
%TD*%
%TA.AperFunction,SMDPad,CuDef*%
%ADD19RoundRect,0.200000X0.275000X-0.200000X0.275000X0.200000X-0.275000X0.200000X-0.275000X-0.200000X0*%
%TD*%
%TA.AperFunction,SMDPad,CuDef*%
%ADD20RoundRect,0.218750X0.256250X-0.218750X0.256250X0.218750X-0.256250X0.218750X-0.256250X-0.218750X0*%
%TD*%
%TA.AperFunction,SMDPad,CuDef*%
%ADD21RoundRect,0.087500X0.187500X0.087500X-0.187500X0.087500X-0.187500X-0.087500X0.187500X-0.087500X0*%
%TD*%
%TA.AperFunction,SMDPad,CuDef*%
%ADD22RoundRect,0.087500X0.087500X0.187500X-0.087500X0.187500X-0.087500X-0.187500X0.087500X-0.187500X0*%
%TD*%
%TA.AperFunction,ComponentPad*%
%ADD23R,1.600000X1.600000*%
%TD*%
%TA.AperFunction,ComponentPad*%
%ADD24O,1.600000X1.600000*%
%TD*%
%TA.AperFunction,SMDPad,CuDef*%
%ADD25RoundRect,0.150000X-0.512500X-0.150000X0.512500X-0.150000X0.512500X0.150000X-0.512500X0.150000X0*%
%TD*%
%TA.AperFunction,SMDPad,CuDef*%
%ADD26RoundRect,0.218750X-0.218750X-0.256250X0.218750X-0.256250X0.218750X0.256250X-0.218750X0.256250X0*%
%TD*%
%TA.AperFunction,SMDPad,CuDef*%
%ADD27RoundRect,0.218750X0.218750X0.256250X-0.218750X0.256250X-0.218750X-0.256250X0.218750X-0.256250X0*%
%TD*%
%TA.AperFunction,ComponentPad*%
%ADD28O,2.100000X1.000000*%
%TD*%
%TA.AperFunction,ComponentPad*%
%ADD29O,1.600000X1.000000*%
%TD*%
%TA.AperFunction,SMDPad,CuDef*%
%ADD30R,1.450000X0.600000*%
%TD*%
%TA.AperFunction,SMDPad,CuDef*%
%ADD31R,1.450000X0.300000*%
%TD*%
%TA.AperFunction,SMDPad,CuDef*%
%ADD32R,2.000000X2.000000*%
%TD*%
%TA.AperFunction,SMDPad,CuDef*%
%ADD33R,2.400000X0.740000*%
%TD*%
%TA.AperFunction,SMDPad,CuDef*%
%ADD34RoundRect,0.225000X0.250000X-0.225000X0.250000X0.225000X-0.250000X0.225000X-0.250000X-0.225000X0*%
%TD*%
%TA.AperFunction,SMDPad,CuDef*%
%ADD35RoundRect,0.200000X-0.200000X-0.275000X0.200000X-0.275000X0.200000X0.275000X-0.200000X0.275000X0*%
%TD*%
%TA.AperFunction,SMDPad,CuDef*%
%ADD36R,1.300000X1.000000*%
%TD*%
%TA.AperFunction,SMDPad,CuDef*%
%ADD37RoundRect,0.225000X-0.225000X-0.250000X0.225000X-0.250000X0.225000X0.250000X-0.225000X0.250000X0*%
%TD*%
%TA.AperFunction,ViaPad*%
%ADD38C,0.700000*%
%TD*%
%TA.AperFunction,ViaPad*%
%ADD39C,0.800000*%
%TD*%
%TA.AperFunction,Conductor*%
%ADD40C,0.200000*%
%TD*%
%TA.AperFunction,Conductor*%
%ADD41C,0.500000*%
%TD*%
%TA.AperFunction,Conductor*%
%ADD42C,0.300000*%
%TD*%
G04 APERTURE END LIST*
%TO.C,JP102*%
G36*
X167850000Y-88250000D02*
G01*
X167250000Y-88250000D01*
X167250000Y-87750000D01*
X167850000Y-87750000D01*
X167850000Y-88250000D01*
G37*
%TO.C,JP101*%
G36*
X171750000Y-88250000D02*
G01*
X171150000Y-88250000D01*
X171150000Y-87750000D01*
X171750000Y-87750000D01*
X171750000Y-88250000D01*
G37*
%TD*%
D10*
%TO.P,U101,1,VBAT*%
%TO.N,MCU_VBAT*%
X150825000Y-91250000D03*
%TO.P,U101,2,PC13*%
%TO.N,USER_BTN_IRQ*%
X150825000Y-91750000D03*
%TO.P,U101,3,PC14*%
%TO.N,unconnected-(U101-Pad3)*%
X150825000Y-92250000D03*
%TO.P,U101,4,PC15*%
%TO.N,unconnected-(U101-Pad4)*%
X150825000Y-92750000D03*
%TO.P,U101,5,PH0*%
%TO.N,Net-(C105-Pad1)*%
X150825000Y-93250000D03*
%TO.P,U101,6,PH1*%
%TO.N,Net-(R105-Pad1)*%
X150825000Y-93750000D03*
%TO.P,U101,7,NRST*%
%TO.N,JTAG_NRST*%
X150825000Y-94250000D03*
%TO.P,U101,8,PC0*%
%TO.N,unconnected-(U101-Pad8)*%
X150825000Y-94750000D03*
%TO.P,U101,9,PC1*%
%TO.N,unconnected-(U101-Pad9)*%
X150825000Y-95250000D03*
%TO.P,U101,10,PC2*%
%TO.N,unconnected-(U101-Pad10)*%
X150825000Y-95750000D03*
%TO.P,U101,11,PC3*%
%TO.N,unconnected-(U101-Pad11)*%
X150825000Y-96250000D03*
%TO.P,U101,12,VSSA*%
%TO.N,GND*%
X150825000Y-96750000D03*
%TO.P,U101,13,VDDA*%
%TO.N,MCU_VREF+*%
X150825000Y-97250000D03*
%TO.P,U101,14,PA0*%
%TO.N,BAT_SENSE*%
X150825000Y-97750000D03*
%TO.P,U101,15,PA1*%
%TO.N,unconnected-(U101-Pad15)*%
X150825000Y-98250000D03*
%TO.P,U101,16,PA2*%
%TO.N,unconnected-(U101-Pad16)*%
X150825000Y-98750000D03*
D11*
%TO.P,U101,17,PA3*%
%TO.N,unconnected-(U101-Pad17)*%
X152750000Y-100675000D03*
%TO.P,U101,18,VSS*%
%TO.N,GND*%
X153250000Y-100675000D03*
%TO.P,U101,19,VDD*%
%TO.N,MCU_VBAT*%
X153750000Y-100675000D03*
%TO.P,U101,20,PA4*%
%TO.N,unconnected-(U101-Pad20)*%
X154250000Y-100675000D03*
%TO.P,U101,21,PA5*%
%TO.N,unconnected-(U101-Pad21)*%
X154750000Y-100675000D03*
%TO.P,U101,22,PA6*%
%TO.N,SD_CMD*%
X155250000Y-100675000D03*
%TO.P,U101,23,PA7*%
%TO.N,SD_CD*%
X155750000Y-100675000D03*
%TO.P,U101,24,PC4*%
%TO.N,LED_1*%
X156250000Y-100675000D03*
%TO.P,U101,25,PC5*%
%TO.N,LED_2*%
X156750000Y-100675000D03*
%TO.P,U101,26,PB0*%
%TO.N,LED_3*%
X157250000Y-100675000D03*
%TO.P,U101,27,PB1*%
%TO.N,LED_4*%
X157750000Y-100675000D03*
%TO.P,U101,28,PB2*%
%TO.N,LED_5*%
X158250000Y-100675000D03*
%TO.P,U101,29,PB10*%
%TO.N,unconnected-(U101-Pad29)*%
X158750000Y-100675000D03*
%TO.P,U101,30,VCAP_1*%
%TO.N,Net-(C103-Pad2)*%
X159250000Y-100675000D03*
%TO.P,U101,31,VSS*%
%TO.N,GND*%
X159750000Y-100675000D03*
%TO.P,U101,32,VDD*%
%TO.N,MCU_VBAT*%
X160250000Y-100675000D03*
D10*
%TO.P,U101,33,PB12*%
%TO.N,unconnected-(U101-Pad33)*%
X162175000Y-98750000D03*
%TO.P,U101,34,PB13*%
%TO.N,unconnected-(U101-Pad34)*%
X162175000Y-98250000D03*
%TO.P,U101,35,PB14*%
%TO.N,unconnected-(U101-Pad35)*%
X162175000Y-97750000D03*
%TO.P,U101,36,PB15*%
%TO.N,unconnected-(U101-Pad36)*%
X162175000Y-97250000D03*
%TO.P,U101,37,PC6*%
%TO.N,unconnected-(U101-Pad37)*%
X162175000Y-96750000D03*
%TO.P,U101,38,PC7*%
%TO.N,unconnected-(U101-Pad38)*%
X162175000Y-96250000D03*
%TO.P,U101,39,PC8*%
%TO.N,SD_D0*%
X162175000Y-95750000D03*
%TO.P,U101,40,PC9*%
%TO.N,SD_D1*%
X162175000Y-95250000D03*
%TO.P,U101,41,PA8*%
%TO.N,unconnected-(U101-Pad41)*%
X162175000Y-94750000D03*
%TO.P,U101,42,PA9*%
%TO.N,SD_D2*%
X162175000Y-94250000D03*
%TO.P,U101,43,PA10*%
%TO.N,unconnected-(U101-Pad43)*%
X162175000Y-93750000D03*
%TO.P,U101,44,PA11*%
%TO.N,unconnected-(U101-Pad44)*%
X162175000Y-93250000D03*
%TO.P,U101,45,PA12*%
%TO.N,unconnected-(U101-Pad45)*%
X162175000Y-92750000D03*
%TO.P,U101,46,PA13*%
%TO.N,JTAG_SWDIO*%
X162175000Y-92250000D03*
%TO.P,U101,47,VSS*%
%TO.N,GND*%
X162175000Y-91750000D03*
%TO.P,U101,48,VDD*%
%TO.N,MCU_VBAT*%
X162175000Y-91250000D03*
D11*
%TO.P,U101,49,PA14*%
%TO.N,JTAG_SWCLK*%
X160250000Y-89325000D03*
%TO.P,U101,50,PA15*%
%TO.N,unconnected-(U101-Pad50)*%
X159750000Y-89325000D03*
%TO.P,U101,51,PC10*%
%TO.N,JTAG_UART_TX*%
X159250000Y-89325000D03*
%TO.P,U101,52,PC11*%
%TO.N,JTAG_UART_RX*%
X158750000Y-89325000D03*
%TO.P,U101,53,PC12*%
%TO.N,SD_CLK*%
X158250000Y-89325000D03*
%TO.P,U101,54,PD2*%
%TO.N,unconnected-(U101-Pad54)*%
X157750000Y-89325000D03*
%TO.P,U101,55,PB3*%
%TO.N,unconnected-(U101-Pad55)*%
X157250000Y-89325000D03*
%TO.P,U101,56,PB4*%
%TO.N,unconnected-(U101-Pad56)*%
X156750000Y-89325000D03*
%TO.P,U101,57,PB5*%
%TO.N,SD_D3*%
X156250000Y-89325000D03*
%TO.P,U101,58,PB6*%
%TO.N,GYRO_SCL*%
X155750000Y-89325000D03*
%TO.P,U101,59,PB7*%
%TO.N,GYRO_SDA*%
X155250000Y-89325000D03*
%TO.P,U101,60,BOOT0*%
%TO.N,GND*%
X154750000Y-89325000D03*
%TO.P,U101,61,PB8*%
%TO.N,GYRO_IRQ1*%
X154250000Y-89325000D03*
%TO.P,U101,62,PB9*%
%TO.N,GYRO_IRQ2*%
X153750000Y-89325000D03*
%TO.P,U101,63,VSS*%
%TO.N,GND*%
X153250000Y-89325000D03*
%TO.P,U101,64,VDD*%
%TO.N,MCU_VBAT*%
X152750000Y-89325000D03*
%TD*%
D12*
%TO.P,C111,1*%
%TO.N,MCU_VBAT*%
X164499999Y-87225000D03*
%TO.P,C111,2*%
%TO.N,GND*%
X164499999Y-88775000D03*
%TD*%
D13*
%TO.P,JP102,1,A*%
%TO.N,Net-(J102-Pad14)*%
X167550000Y-88650000D03*
%TO.P,JP102,2,B*%
%TO.N,JTAG_UART_TX*%
X167550000Y-87350000D03*
%TD*%
D14*
%TO.P,R116,1*%
%TO.N,+5V*%
X149500000Y-111155000D03*
%TO.P,R116,2*%
%TO.N,Net-(Q101-Pad1)*%
X149500000Y-112805000D03*
%TD*%
D15*
%TO.P,Q101,1,G*%
%TO.N,Net-(Q101-Pad1)*%
X152800000Y-112937500D03*
%TO.P,Q101,2,S*%
%TO.N,CEL+*%
X154700000Y-112937500D03*
%TO.P,Q101,3,D*%
%TO.N,Net-(Q101-Pad3)*%
X153750000Y-111062500D03*
%TD*%
D12*
%TO.P,C116,1*%
%TO.N,+5V*%
X164000000Y-111225000D03*
%TO.P,C116,2*%
%TO.N,GND*%
X164000000Y-112775000D03*
%TD*%
D16*
%TO.P,C112,1*%
%TO.N,MCU_VREF+*%
X148025000Y-97490000D03*
%TO.P,C112,2*%
%TO.N,GND*%
X146475000Y-97490000D03*
%TD*%
D17*
%TO.P,C113,1*%
%TO.N,MCU_VBAT*%
X151048008Y-88548008D03*
%TO.P,C113,2*%
%TO.N,GND*%
X149951992Y-87451992D03*
%TD*%
D18*
%TO.P,R104,1*%
%TO.N,MCU_VBAT*%
X162075000Y-84750000D03*
%TO.P,R104,2*%
%TO.N,GYRO_SCL*%
X160425000Y-84750000D03*
%TD*%
D19*
%TO.P,R114,1*%
%TO.N,CEL+*%
X150250000Y-107825000D03*
%TO.P,R114,2*%
%TO.N,BAT_SENSE*%
X150250000Y-106175000D03*
%TD*%
D16*
%TO.P,C104,1*%
%TO.N,JTAG_NRST*%
X148025000Y-96000000D03*
%TO.P,C104,2*%
%TO.N,GND*%
X146475000Y-96000000D03*
%TD*%
D12*
%TO.P,C114,1*%
%TO.N,VBAT*%
X140500000Y-100975000D03*
%TO.P,C114,2*%
%TO.N,GND*%
X140500000Y-102525000D03*
%TD*%
D19*
%TO.P,R115,1*%
%TO.N,BAT_SENSE*%
X150250000Y-104575000D03*
%TO.P,R115,2*%
%TO.N,GND*%
X150250000Y-102925000D03*
%TD*%
D14*
%TO.P,R107,1*%
%TO.N,Net-(R107-Pad1)*%
X162500000Y-111175000D03*
%TO.P,R107,2*%
%TO.N,GND*%
X162500000Y-112825000D03*
%TD*%
D20*
%TO.P,D102,1,K*%
%TO.N,Net-(D102-Pad1)*%
X153250000Y-104537500D03*
%TO.P,D102,2,A*%
%TO.N,LED_1*%
X153250000Y-102962500D03*
%TD*%
D21*
%TO.P,U102,1,VDD_IO*%
%TO.N,MCU_VBAT*%
X157725000Y-85000000D03*
%TO.P,U102,2,NC*%
%TO.N,unconnected-(U102-Pad2)*%
X157725000Y-84500000D03*
%TO.P,U102,3,NC*%
%TO.N,unconnected-(U102-Pad3)*%
X157725000Y-84000000D03*
%TO.P,U102,4,SCL_SPC*%
%TO.N,GYRO_SCL*%
X157725000Y-83500000D03*
%TO.P,U102,5,GND*%
%TO.N,GND*%
X157725000Y-83000000D03*
D22*
%TO.P,U102,6,SDA/SDI/SDO*%
%TO.N,GYRO_SDA*%
X157000000Y-82775000D03*
%TO.P,U102,7,SDO/SA0*%
%TO.N,GND*%
X156500000Y-82775000D03*
%TO.P,U102,8,CS*%
%TO.N,MCU_VBAT*%
X156000000Y-82775000D03*
D21*
%TO.P,U102,9,INT2*%
%TO.N,GYRO_IRQ2*%
X155275000Y-83000000D03*
%TO.P,U102,10,RES*%
%TO.N,GND*%
X155275000Y-83500000D03*
%TO.P,U102,11,INT1*%
%TO.N,GYRO_IRQ1*%
X155275000Y-84000000D03*
%TO.P,U102,12,GND*%
%TO.N,GND*%
X155275000Y-84500000D03*
%TO.P,U102,13,ADC3*%
%TO.N,MCU_VBAT*%
X155275000Y-85000000D03*
D22*
%TO.P,U102,14,VDD*%
X156000000Y-85225000D03*
%TO.P,U102,15,ADC2*%
X156500000Y-85225000D03*
%TO.P,U102,16,ADC1*%
X157000000Y-85225000D03*
%TD*%
D19*
%TO.P,R105,1*%
%TO.N,Net-(R105-Pad1)*%
X148000000Y-94325000D03*
%TO.P,R105,2*%
%TO.N,Net-(C106-Pad1)*%
X148000000Y-92675000D03*
%TD*%
D16*
%TO.P,C103,1*%
%TO.N,GND*%
X164025000Y-101500000D03*
%TO.P,C103,2*%
%TO.N,Net-(C103-Pad2)*%
X162475000Y-101500000D03*
%TD*%
D23*
%TO.P,SW102,1*%
%TO.N,Net-(Q101-Pad3)*%
X148050000Y-106250000D03*
D24*
%TO.P,SW102,2*%
%TO.N,VBAT*%
X140430000Y-106250000D03*
%TD*%
D25*
%TO.P,U103,1,VIN*%
%TO.N,VBAT*%
X142362500Y-100800000D03*
%TO.P,U103,2,GND*%
%TO.N,GND*%
X142362500Y-101750000D03*
%TO.P,U103,3,~{SHDN}*%
%TO.N,VBAT*%
X142362500Y-102700000D03*
%TO.P,U103,4,NC*%
%TO.N,unconnected-(U103-Pad4)*%
X144637500Y-102700000D03*
%TO.P,U103,5,VOUT*%
%TO.N,MCU_VBAT*%
X144637500Y-100800000D03*
%TD*%
D20*
%TO.P,D104,1,K*%
%TO.N,Net-(D104-Pad1)*%
X158000000Y-104537500D03*
%TO.P,D104,2,A*%
%TO.N,LED_3*%
X158000000Y-102962500D03*
%TD*%
%TO.P,D106,1,K*%
%TO.N,Net-(D106-Pad1)*%
X161000000Y-104537500D03*
%TO.P,D106,2,A*%
%TO.N,LED_5*%
X161000000Y-102962500D03*
%TD*%
D18*
%TO.P,R102,1*%
%TO.N,/CC2*%
X164825000Y-107750000D03*
%TO.P,R102,2*%
%TO.N,GND*%
X163175000Y-107750000D03*
%TD*%
D12*
%TO.P,C115,1*%
%TO.N,MCU_VBAT*%
X146500000Y-100975000D03*
%TO.P,C115,2*%
%TO.N,GND*%
X146500000Y-102525000D03*
%TD*%
D18*
%TO.P,R103,1*%
%TO.N,MCU_VBAT*%
X162075000Y-83250000D03*
%TO.P,R103,2*%
%TO.N,GYRO_SDA*%
X160425000Y-83250000D03*
%TD*%
D16*
%TO.P,C110,1*%
%TO.N,MCU_VBAT*%
X150525000Y-101000000D03*
%TO.P,C110,2*%
%TO.N,GND*%
X148975000Y-101000000D03*
%TD*%
D26*
%TO.P,FB101,1*%
%TO.N,MCU_VBAT*%
X146462500Y-99000000D03*
%TO.P,FB101,2*%
%TO.N,MCU_VREF+*%
X148037500Y-99000000D03*
%TD*%
D20*
%TO.P,D105,1,K*%
%TO.N,Net-(D105-Pad1)*%
X159500000Y-104537500D03*
%TO.P,D105,2,A*%
%TO.N,LED_4*%
X159500000Y-102962500D03*
%TD*%
D27*
%TO.P,D101,1,K*%
%TO.N,Net-(D101-Pad1)*%
X160287500Y-107750000D03*
%TO.P,D101,2,A*%
%TO.N,+5V*%
X158712500Y-107750000D03*
%TD*%
D25*
%TO.P,U104,1,STAT*%
%TO.N,Net-(R108-Pad1)*%
X158362500Y-111050000D03*
%TO.P,U104,2,VSS*%
%TO.N,GND*%
X158362500Y-112000000D03*
%TO.P,U104,3,VBAT*%
%TO.N,CEL+*%
X158362500Y-112950000D03*
%TO.P,U104,4,VDD*%
%TO.N,+5V*%
X160637500Y-112950000D03*
%TO.P,U104,5,PROG*%
%TO.N,Net-(R107-Pad1)*%
X160637500Y-111050000D03*
%TD*%
D14*
%TO.P,R109,1*%
%TO.N,Net-(D102-Pad1)*%
X151750000Y-106175000D03*
%TO.P,R109,2*%
%TO.N,GND*%
X151750000Y-107825000D03*
%TD*%
D19*
%TO.P,R106,1*%
%TO.N,Net-(Q101-Pad1)*%
X151000000Y-112805000D03*
%TO.P,R106,2*%
%TO.N,GND*%
X151000000Y-111155000D03*
%TD*%
D28*
%TO.P,J101,S1,SHIELD*%
%TO.N,GND*%
X168370000Y-112820000D03*
D29*
X172550000Y-112820000D03*
D28*
X168370000Y-104180000D03*
D29*
X172550000Y-104180000D03*
D30*
%TO.P,J101,B12,GND*%
X167455000Y-111750000D03*
%TO.P,J101,B9,VBUS*%
%TO.N,+5V*%
X167455000Y-110950000D03*
D31*
%TO.P,J101,B8,SBU2*%
%TO.N,unconnected-(J101-PadB8)*%
X167455000Y-110250000D03*
%TO.P,J101,B7,D-*%
%TO.N,unconnected-(J101-PadB7)*%
X167455000Y-109250000D03*
%TO.P,J101,B6,D+*%
%TO.N,unconnected-(J101-PadB6)*%
X167455000Y-107750000D03*
%TO.P,J101,B5,CC2*%
%TO.N,/CC2*%
X167455000Y-106750000D03*
D30*
%TO.P,J101,B4,VBUS*%
%TO.N,+5V*%
X167455000Y-106050000D03*
%TO.P,J101,B1,GND*%
%TO.N,GND*%
X167455000Y-105250000D03*
%TO.P,J101,A12,GND*%
X167455000Y-105250000D03*
%TO.P,J101,A9,VBUS*%
%TO.N,+5V*%
X167455000Y-106050000D03*
D31*
%TO.P,J101,A8,SBU1*%
%TO.N,unconnected-(J101-PadA8)*%
X167455000Y-107250000D03*
%TO.P,J101,A7,D-*%
%TO.N,unconnected-(J101-PadA7)*%
X167455000Y-108250000D03*
%TO.P,J101,A6,D+*%
%TO.N,unconnected-(J101-PadA6)*%
X167455000Y-108750000D03*
%TO.P,J101,A5,CC1*%
%TO.N,/CC1*%
X167455000Y-109750000D03*
D30*
%TO.P,J101,A4,VBUS*%
%TO.N,+5V*%
X167455000Y-110950000D03*
%TO.P,J101,A1,GND*%
%TO.N,GND*%
X167455000Y-111750000D03*
%TD*%
D32*
%TO.P,SW101,1,1*%
%TO.N,USER_BTN_IRQ*%
X141250000Y-84000000D03*
%TO.P,SW101,2,2*%
%TO.N,MCU_VBAT*%
X147250000Y-84000000D03*
%TD*%
D33*
%TO.P,J102,1,Pin_1*%
%TO.N,unconnected-(J102-Pad1)*%
X171450000Y-98810000D03*
%TO.P,J102,2,Pin_2*%
%TO.N,unconnected-(J102-Pad2)*%
X167550000Y-98810000D03*
%TO.P,J102,3,Pin_3*%
%TO.N,MCU_VBAT*%
X171450000Y-97540000D03*
%TO.P,J102,4,Pin_4*%
%TO.N,JTAG_SWDIO*%
X167550000Y-97540000D03*
%TO.P,J102,5,Pin_5*%
%TO.N,GND*%
X171450000Y-96270000D03*
%TO.P,J102,6,Pin_6*%
%TO.N,JTAG_SWCLK*%
X167550000Y-96270000D03*
%TO.P,J102,7,Pin_7*%
%TO.N,GND*%
X171450000Y-95000000D03*
%TO.P,J102,8,Pin_8*%
%TO.N,unconnected-(J102-Pad8)*%
X167550000Y-95000000D03*
%TO.P,J102,9,Pin_9*%
%TO.N,unconnected-(J102-Pad9)*%
X171450000Y-93730000D03*
%TO.P,J102,10,Pin_10*%
%TO.N,unconnected-(J102-Pad10)*%
X167550000Y-93730000D03*
%TO.P,J102,11,Pin_11*%
%TO.N,GND*%
X171450000Y-92460000D03*
%TO.P,J102,12,Pin_12*%
%TO.N,JTAG_NRST*%
X167550000Y-92460000D03*
%TO.P,J102,13,Pin_13*%
%TO.N,Net-(J102-Pad13)*%
X171450000Y-91190000D03*
%TO.P,J102,14,Pin_14*%
%TO.N,Net-(J102-Pad14)*%
X167550000Y-91190000D03*
%TD*%
D34*
%TO.P,C117,1*%
%TO.N,CEL+*%
X156500000Y-112775000D03*
%TO.P,C117,2*%
%TO.N,GND*%
X156500000Y-111225000D03*
%TD*%
D35*
%TO.P,R108,1*%
%TO.N,Net-(R108-Pad1)*%
X158675000Y-109250000D03*
%TO.P,R108,2*%
%TO.N,Net-(D101-Pad1)*%
X160325000Y-109250000D03*
%TD*%
D14*
%TO.P,R111,1*%
%TO.N,Net-(D104-Pad1)*%
X154750000Y-106175000D03*
%TO.P,R111,2*%
%TO.N,GND*%
X154750000Y-107825000D03*
%TD*%
D36*
%TO.P,Y101,1,1*%
%TO.N,Net-(C106-Pad1)*%
X144600000Y-92600000D03*
%TO.P,Y101,2,2*%
%TO.N,GND*%
X142400000Y-92600000D03*
%TO.P,Y101,3,3*%
%TO.N,Net-(C105-Pad1)*%
X142400000Y-94400000D03*
%TO.P,Y101,4,4*%
%TO.N,GND*%
X144600000Y-94400000D03*
%TD*%
D17*
%TO.P,C109,1*%
%TO.N,MCU_VBAT*%
X149987348Y-89608668D03*
%TO.P,C109,2*%
%TO.N,GND*%
X148891332Y-88512652D03*
%TD*%
D16*
%TO.P,C101,1*%
%TO.N,MCU_VBAT*%
X153025000Y-84750000D03*
%TO.P,C101,2*%
%TO.N,GND*%
X151475000Y-84750000D03*
%TD*%
D14*
%TO.P,R110,1*%
%TO.N,Net-(D103-Pad1)*%
X153250000Y-106175000D03*
%TO.P,R110,2*%
%TO.N,GND*%
X153250000Y-107825000D03*
%TD*%
D18*
%TO.P,R101,1*%
%TO.N,/CC1*%
X164825000Y-109250000D03*
%TO.P,R101,2*%
%TO.N,GND*%
X163175000Y-109250000D03*
%TD*%
D12*
%TO.P,C106,1*%
%TO.N,Net-(C106-Pad1)*%
X146500000Y-92725000D03*
%TO.P,C106,2*%
%TO.N,GND*%
X146500000Y-94275000D03*
%TD*%
D34*
%TO.P,C105,1*%
%TO.N,Net-(C105-Pad1)*%
X140500000Y-94275000D03*
%TO.P,C105,2*%
%TO.N,GND*%
X140500000Y-92725000D03*
%TD*%
D16*
%TO.P,C102,1*%
%TO.N,MCU_VBAT*%
X153025000Y-83250000D03*
%TO.P,C102,2*%
%TO.N,GND*%
X151475000Y-83250000D03*
%TD*%
D20*
%TO.P,D103,1,K*%
%TO.N,Net-(D103-Pad1)*%
X154750000Y-104537500D03*
%TO.P,D103,2,A*%
%TO.N,LED_2*%
X154750000Y-102962500D03*
%TD*%
D12*
%TO.P,C108,1*%
%TO.N,MCU_VBAT*%
X163000000Y-87225000D03*
%TO.P,C108,2*%
%TO.N,GND*%
X163000000Y-88775000D03*
%TD*%
D37*
%TO.P,C107,1*%
%TO.N,MCU_VBAT*%
X162475000Y-100000000D03*
%TO.P,C107,2*%
%TO.N,GND*%
X164025000Y-100000000D03*
%TD*%
D13*
%TO.P,JP101,1,A*%
%TO.N,JTAG_UART_RX*%
X171450000Y-87350000D03*
%TO.P,JP101,2,B*%
%TO.N,Net-(J102-Pad13)*%
X171450000Y-88650000D03*
%TD*%
D19*
%TO.P,R113,1*%
%TO.N,Net-(D106-Pad1)*%
X163250000Y-104575000D03*
%TO.P,R113,2*%
%TO.N,GND*%
X163250000Y-102925000D03*
%TD*%
D18*
%TO.P,R112,1*%
%TO.N,Net-(D105-Pad1)*%
X160325000Y-106250000D03*
%TO.P,R112,2*%
%TO.N,GND*%
X158675000Y-106250000D03*
%TD*%
D38*
%TO.N,MCU_VBAT*%
X158200000Y-95200000D03*
%TO.N,SD_CD*%
X155750000Y-98700000D03*
%TO.N,SD_D0*%
X155750000Y-96500000D03*
%TO.N,GND*%
X155750000Y-95400000D03*
%TO.N,SD_CLK*%
X155750000Y-94300000D03*
%TO.N,MCU_VBAT*%
X155750000Y-93200000D03*
%TO.N,SD_CMD*%
X155750000Y-92100000D03*
%TO.N,SD_D3*%
X155750000Y-91000000D03*
%TO.N,SD_D2*%
X160500000Y-94250000D03*
%TO.N,SD_D1*%
X164000000Y-97000000D03*
%TO.N,GND*%
X160500000Y-91750000D03*
X169500000Y-96270000D03*
X153250000Y-109000000D03*
X148007449Y-89396537D03*
X150250000Y-83250000D03*
X152500000Y-98500000D03*
X161750000Y-88775000D03*
X150835877Y-86568109D03*
X165500000Y-101500000D03*
X144000000Y-96000000D03*
X150250000Y-84750000D03*
X157500000Y-106250000D03*
X165500000Y-112500000D03*
X143400000Y-83000000D03*
X143000000Y-91000000D03*
X165500000Y-104500000D03*
X145250000Y-96000000D03*
X145250000Y-97490000D03*
X163175000Y-106500000D03*
X156500000Y-110000000D03*
X165500000Y-102925000D03*
X151000000Y-109980000D03*
X143400000Y-98500000D03*
X150500000Y-99750000D03*
X160500000Y-99000000D03*
X140500000Y-103750000D03*
X152500000Y-91000000D03*
X165749999Y-88775000D03*
X165500000Y-100000000D03*
D39*
X165250000Y-114000000D03*
D38*
X159000000Y-83000000D03*
X147750000Y-102525000D03*
X156500000Y-84000000D03*
X169500000Y-92460000D03*
X169500000Y-95000000D03*
X152500000Y-96750000D03*
%TO.N,+5V*%
X157500000Y-107750000D03*
X165500000Y-106050000D03*
X165500000Y-110950000D03*
X149500000Y-109980000D03*
%TO.N,JTAG_NRST*%
X165500000Y-92460000D03*
X152500000Y-94250000D03*
%TO.N,GYRO_SDA*%
X155250000Y-87500000D03*
X159000000Y-81500000D03*
%TO.N,MCU_VBAT*%
X147250000Y-86750000D03*
X153025000Y-81500000D03*
X161749999Y-87225001D03*
X147750000Y-100975000D03*
X164000000Y-91250000D03*
X149103463Y-90492551D03*
X169500000Y-97540000D03*
X151931891Y-87664123D03*
X161250000Y-101000000D03*
X153000000Y-86750000D03*
X163500000Y-84750000D03*
X156000000Y-81500000D03*
X165749999Y-87225001D03*
X156500000Y-86500000D03*
X151750000Y-101000000D03*
X163500000Y-83250000D03*
%TO.N,CEL+*%
X156500000Y-114000000D03*
%TD*%
D40*
%TO.N,SD_CD*%
X155750000Y-98700000D02*
X155750000Y-100675000D01*
%TO.N,SD_CMD*%
X153250000Y-97750000D02*
X155250000Y-99750000D01*
X155250000Y-99750000D02*
X155250000Y-100675000D01*
%TO.N,SD_D2*%
X162175000Y-94250000D02*
X160500000Y-94250000D01*
%TO.N,BAT_SENSE*%
X149750000Y-100558217D02*
X149750000Y-101441783D01*
%TO.N,SD_CMD*%
X155750000Y-92100000D02*
X154900000Y-92100000D01*
X153250000Y-93750000D02*
X153250000Y-97750000D01*
X154900000Y-92100000D02*
X153250000Y-93750000D01*
%TO.N,SD_D1*%
X164000000Y-97000000D02*
X164000000Y-96125000D01*
%TO.N,SD_D0*%
X158000000Y-96500000D02*
X155750000Y-96500000D01*
X158750000Y-95750000D02*
X158000000Y-96500000D01*
%TO.N,SD_CLK*%
X155750000Y-94300000D02*
X155800000Y-94250000D01*
X155800000Y-94300000D02*
X156450000Y-94300000D01*
%TO.N,SD_D3*%
X155750000Y-91000000D02*
X156250000Y-90500000D01*
X156250000Y-90500000D02*
X156250000Y-89325000D01*
%TO.N,SD_D1*%
X164000000Y-96125000D02*
X163125000Y-95250000D01*
%TO.N,SD_D0*%
X162175000Y-95750000D02*
X158750000Y-95750000D01*
%TO.N,SD_CLK*%
X156450000Y-94300000D02*
X158250000Y-92500000D01*
X158250000Y-92500000D02*
X158250000Y-89325000D01*
%TO.N,SD_D1*%
X163125000Y-95250000D02*
X162175000Y-95250000D01*
D41*
%TO.N,GND*%
X142400000Y-92600000D02*
X142400000Y-91600000D01*
X167455000Y-111750000D02*
X166250000Y-111750000D01*
D40*
X153250000Y-100675000D02*
X153250000Y-99250000D01*
D41*
X153250000Y-109000000D02*
X153575000Y-109000000D01*
X149850000Y-102525000D02*
X150250000Y-102925000D01*
X165500000Y-102925000D02*
X163250000Y-102925000D01*
D40*
X154750000Y-89325000D02*
X154750000Y-90250000D01*
D41*
X148975000Y-101000000D02*
X148975000Y-101775000D01*
D40*
X153250000Y-89325000D02*
X153250000Y-90250000D01*
D41*
X148891331Y-88512652D02*
X148007449Y-89396537D01*
D40*
X159750000Y-99750000D02*
X160500000Y-99000000D01*
D41*
X141275000Y-101750000D02*
X140500000Y-102525000D01*
X152925000Y-109000000D02*
X151750000Y-107825000D01*
X163175000Y-107750000D02*
X163175000Y-106500000D01*
D40*
X154000000Y-91000000D02*
X152500000Y-91000000D01*
X155275000Y-84500000D02*
X156000000Y-84500000D01*
D41*
X165225000Y-112775000D02*
X165500000Y-112500000D01*
X171450000Y-95000000D02*
X169500000Y-95000000D01*
D40*
X156000000Y-83500000D02*
X156500000Y-84000000D01*
X154750000Y-90250000D02*
X154000000Y-91000000D01*
D41*
X156500000Y-111225000D02*
X156500000Y-110000000D01*
X165500000Y-100000000D02*
X164025000Y-100000000D01*
X148975000Y-101775000D02*
X148225000Y-102525000D01*
D40*
X159750000Y-100675000D02*
X159750000Y-99750000D01*
D41*
X166250000Y-111750000D02*
X165500000Y-112500000D01*
X151000000Y-109980000D02*
X151000000Y-111155000D01*
X158362500Y-112000000D02*
X157275000Y-112000000D01*
X161750000Y-88775000D02*
X162999999Y-88775001D01*
X146500000Y-94275000D02*
X144725000Y-94275000D01*
X165500000Y-101500000D02*
X164025000Y-101500000D01*
D40*
X162175000Y-91750000D02*
X160500000Y-91750000D01*
X159000000Y-83000000D02*
X157725000Y-83000000D01*
D41*
X144600000Y-94400000D02*
X144600000Y-95400000D01*
X149951992Y-87451991D02*
X150835877Y-86568109D01*
X148225000Y-102525000D02*
X147750000Y-102525000D01*
X167455000Y-105250000D02*
X166250000Y-105250000D01*
X144600000Y-95400000D02*
X144000000Y-96000000D01*
D40*
X155275000Y-83500000D02*
X156000000Y-83500000D01*
D41*
X171450000Y-92460000D02*
X169500000Y-92460000D01*
D40*
X156500000Y-82775000D02*
X156500000Y-84000000D01*
D41*
X153250000Y-109000000D02*
X152925000Y-109000000D01*
X153575000Y-109000000D02*
X154750000Y-107825000D01*
X157275000Y-112000000D02*
X156500000Y-111225000D01*
X171450000Y-96270000D02*
X169500000Y-96270000D01*
X151475000Y-83250000D02*
X150250000Y-83250000D01*
X147750000Y-102525000D02*
X149850000Y-102525000D01*
X164499999Y-88775001D02*
X165749999Y-88775000D01*
X142362500Y-101750000D02*
X141275000Y-101750000D01*
D40*
X153250000Y-90250000D02*
X152500000Y-91000000D01*
D41*
X164000000Y-112775000D02*
X162550000Y-112775000D01*
X146475000Y-96000000D02*
X145250000Y-96000000D01*
X147750000Y-102525000D02*
X146500000Y-102525000D01*
X163175000Y-109250000D02*
X163175000Y-107750000D01*
D40*
X150825000Y-96750000D02*
X152500000Y-96750000D01*
D41*
X140500000Y-92725000D02*
X142275000Y-92725000D01*
X153250000Y-107825000D02*
X153250000Y-109000000D01*
X142400000Y-91600000D02*
X143000000Y-91000000D01*
D40*
X153250000Y-99250000D02*
X152500000Y-98500000D01*
X156000000Y-84500000D02*
X156500000Y-84000000D01*
D41*
X158675000Y-106250000D02*
X157500000Y-106250000D01*
X166250000Y-105250000D02*
X165500000Y-104500000D01*
X151475000Y-84750000D02*
X150250000Y-84750000D01*
X146475000Y-97490000D02*
X145250000Y-97490000D01*
X164000000Y-112775000D02*
X165225000Y-112775000D01*
X140500000Y-103750000D02*
X140500000Y-102525000D01*
%TO.N,+5V*%
X158712500Y-107750000D02*
X157500000Y-107750000D01*
X149500000Y-111155000D02*
X149500000Y-109980000D01*
X167455000Y-110950000D02*
X165500000Y-110950000D01*
D42*
X161587500Y-112000000D02*
X160637500Y-112950000D01*
D41*
X164275000Y-110950000D02*
X164000000Y-111225000D01*
D42*
X164000000Y-111225000D02*
X163225000Y-112000000D01*
D41*
X167455000Y-106050000D02*
X165500000Y-106050000D01*
D42*
X163225000Y-112000000D02*
X161587500Y-112000000D01*
D41*
X165500000Y-110950000D02*
X164275000Y-110950000D01*
D40*
%TO.N,/CC1*%
X165750000Y-109750000D02*
X165250000Y-109250000D01*
X165250000Y-109250000D02*
X164825000Y-109250000D01*
X167455000Y-109750000D02*
X165750000Y-109750000D01*
%TO.N,/CC2*%
X167455000Y-106750000D02*
X166250000Y-106750000D01*
X166250000Y-106750000D02*
X165250000Y-107750000D01*
X165250000Y-107750000D02*
X164825000Y-107750000D01*
%TO.N,JTAG_SWDIO*%
X164250000Y-95750000D02*
X166040000Y-97540000D01*
X166040000Y-97540000D02*
X167550000Y-97540000D01*
X162175000Y-92250000D02*
X162979651Y-92250000D01*
X164250000Y-93520349D02*
X164250000Y-95750000D01*
X162979651Y-92250000D02*
X164250000Y-93520349D01*
%TO.N,JTAG_SWCLK*%
X160250000Y-89325000D02*
X160925000Y-90000000D01*
X163750000Y-90000000D02*
X164750000Y-91000000D01*
X166020000Y-96270000D02*
X167550000Y-96270000D01*
X164750000Y-95000000D02*
X166020000Y-96270000D01*
X164750000Y-91000000D02*
X164750000Y-95000000D01*
X160925000Y-90000000D02*
X163750000Y-90000000D01*
%TO.N,JTAG_NRST*%
X152500000Y-94250000D02*
X150825000Y-94250000D01*
X167550000Y-92460000D02*
X165500000Y-92460000D01*
X148025000Y-96000000D02*
X149775000Y-94250000D01*
X149775000Y-94250000D02*
X150825000Y-94250000D01*
%TO.N,JTAG_UART_RX*%
X169850000Y-85750000D02*
X161250000Y-85750000D01*
X158750000Y-88250000D02*
X158750000Y-89325000D01*
X171450000Y-87350000D02*
X169850000Y-85750000D01*
X161250000Y-85750000D02*
X158750000Y-88250000D01*
%TO.N,JTAG_UART_TX*%
X166450000Y-86250000D02*
X167550000Y-87350000D01*
X159250000Y-88520349D02*
X161520349Y-86250000D01*
X161520349Y-86250000D02*
X166450000Y-86250000D01*
X159250000Y-89325000D02*
X159250000Y-88520349D01*
%TO.N,GYRO_SDA*%
X157750000Y-81500000D02*
X157000000Y-82250000D01*
X157000000Y-82250000D02*
X157000000Y-82775000D01*
X160425000Y-82925000D02*
X159000000Y-81500000D01*
X159000000Y-81500000D02*
X157750000Y-81500000D01*
X155250000Y-89325000D02*
X155250000Y-87500000D01*
%TO.N,GYRO_SCL*%
X158581452Y-83500000D02*
X159831452Y-84750000D01*
X159250000Y-84750000D02*
X160425000Y-84750000D01*
X155750000Y-88250000D02*
X159250000Y-84750000D01*
X159831452Y-84750000D02*
X160425000Y-84750000D01*
X155750000Y-89325000D02*
X155750000Y-88250000D01*
X157725000Y-83500000D02*
X158581452Y-83500000D01*
%TO.N,GYRO_IRQ2*%
X154952672Y-83000000D02*
X153774520Y-84178152D01*
X153774520Y-84178152D02*
X153774520Y-89300480D01*
X155275000Y-83000000D02*
X154952672Y-83000000D01*
%TO.N,GYRO_IRQ1*%
X154250000Y-89325000D02*
X154250000Y-84702672D01*
X154952672Y-84000000D02*
X155275000Y-84000000D01*
X154250000Y-84702672D02*
X154952672Y-84000000D01*
%TO.N,Net-(C103-Pad2)*%
X159250000Y-101479651D02*
X159596309Y-101825960D01*
X159596309Y-101825960D02*
X162149040Y-101825960D01*
X159250000Y-100675000D02*
X159250000Y-101479651D01*
X162149040Y-101825960D02*
X162475000Y-101500000D01*
%TO.N,Net-(C105-Pad1)*%
X143300000Y-93500000D02*
X149394988Y-93500000D01*
X142400000Y-94400000D02*
X143300000Y-93500000D01*
X149394988Y-93500000D02*
X149644988Y-93250000D01*
X149644988Y-93250000D02*
X150825000Y-93250000D01*
D41*
X140500000Y-94275000D02*
X142275000Y-94275000D01*
%TO.N,Net-(C106-Pad1)*%
X146500000Y-92725000D02*
X147950000Y-92725000D01*
X146500000Y-92725000D02*
X144725000Y-92725000D01*
%TO.N,VBAT*%
X143474520Y-102275480D02*
X143474520Y-103205480D01*
X143050000Y-100800000D02*
X142362500Y-100800000D01*
X143474520Y-102275480D02*
X143474520Y-101224520D01*
X143050000Y-102700000D02*
X143474520Y-102275480D01*
X143474520Y-103205480D02*
X140430000Y-106250000D01*
X142362500Y-102700000D02*
X143050000Y-102700000D01*
X142362500Y-100800000D02*
X140675000Y-100800000D01*
X143474520Y-101224520D02*
X143050000Y-100800000D01*
D40*
%TO.N,MCU_VBAT*%
X152750000Y-89325000D02*
X151825000Y-89325000D01*
X152000000Y-102000000D02*
X151750000Y-101750000D01*
D41*
X163500000Y-84750000D02*
X162075000Y-84750000D01*
X162250000Y-100000000D02*
X162475000Y-100000000D01*
X145200000Y-100800000D02*
X144637500Y-100800000D01*
D40*
X161250000Y-101000000D02*
X160575000Y-101000000D01*
D41*
X144637500Y-100800000D02*
X146325000Y-100800000D01*
D40*
X162175000Y-91250000D02*
X164000000Y-91250000D01*
D41*
X150525000Y-101000000D02*
X151750000Y-101000000D01*
D40*
X156000000Y-85225000D02*
X157000000Y-85225000D01*
D41*
X161749999Y-87225001D02*
X163000000Y-87225000D01*
X163500000Y-83250000D02*
X162075000Y-83250000D01*
X164499999Y-87225000D02*
X165749999Y-87225001D01*
D40*
X153507503Y-102000000D02*
X152000000Y-102000000D01*
D41*
X153025000Y-86725000D02*
X153025000Y-84750000D01*
X146500000Y-100975000D02*
X147750000Y-100975000D01*
X171450000Y-97540000D02*
X169500000Y-97540000D01*
X146462500Y-99000000D02*
X146462500Y-99537500D01*
D40*
X153750000Y-101757503D02*
X153507503Y-102000000D01*
D41*
X147250000Y-86750000D02*
X147250000Y-84000000D01*
D40*
X151750000Y-101750000D02*
X151750000Y-101000000D01*
X150825000Y-91250000D02*
X150825000Y-90446320D01*
D41*
X161250000Y-101000000D02*
X162250000Y-100000000D01*
X149987348Y-89608669D02*
X149103463Y-90492551D01*
D40*
X156000000Y-85225000D02*
X155500000Y-85225000D01*
X155500000Y-85225000D02*
X155275000Y-85000000D01*
X157500000Y-85225000D02*
X157725000Y-85000000D01*
X153750000Y-100675000D02*
X153750000Y-101757503D01*
D41*
X151048009Y-88548008D02*
X151931891Y-87664123D01*
X153025000Y-83250000D02*
X153025000Y-84750000D01*
X153025000Y-83250000D02*
X153025000Y-81500000D01*
D40*
X151825000Y-89325000D02*
X151048008Y-88548008D01*
X157000000Y-85225000D02*
X157500000Y-85225000D01*
D41*
X153000000Y-86750000D02*
X153025000Y-86725000D01*
X146462500Y-99537500D02*
X145200000Y-100800000D01*
D40*
X156500000Y-86500000D02*
X156500000Y-85225000D01*
X160575000Y-101000000D02*
X160250000Y-100675000D01*
X156000000Y-82775000D02*
X156000000Y-81500000D01*
X150825000Y-90446320D02*
X149987348Y-89608668D01*
D41*
%TO.N,MCU_VREF+*%
X148025000Y-97490000D02*
X148025000Y-98987500D01*
D40*
X150825000Y-97250000D02*
X148265000Y-97250000D01*
D41*
%TO.N,Net-(Q101-Pad3)*%
X153198329Y-114124520D02*
X149124520Y-114124520D01*
X149124520Y-114124520D02*
X148050000Y-113050000D01*
X148050000Y-113050000D02*
X148050000Y-106250000D01*
X153750000Y-113572849D02*
X153198329Y-114124520D01*
X153750000Y-111062500D02*
X153750000Y-113572849D01*
D40*
%TO.N,Net-(R105-Pad1)*%
X150825000Y-93750000D02*
X149709994Y-93750000D01*
X149709994Y-93750000D02*
X149209994Y-94250000D01*
X149209994Y-94250000D02*
X148075000Y-94250000D01*
D41*
%TO.N,Net-(D101-Pad1)*%
X160325000Y-109250000D02*
X160325000Y-107787500D01*
%TO.N,Net-(J102-Pad13)*%
X171450000Y-91190000D02*
X171450000Y-88650000D01*
%TO.N,Net-(J102-Pad14)*%
X167550000Y-91190000D02*
X167550000Y-88650000D01*
D40*
%TO.N,BAT_SENSE*%
X149250000Y-100058217D02*
X149750000Y-100558217D01*
X149750000Y-97750000D02*
X149250000Y-98250000D01*
X149750000Y-101441783D02*
X150082737Y-101774520D01*
X150082737Y-101774520D02*
X150280947Y-101774520D01*
X150250000Y-106175000D02*
X150250000Y-104575000D01*
X151024520Y-103800480D02*
X150250000Y-104575000D01*
X149250000Y-98250000D02*
X149250000Y-100058217D01*
X150280947Y-101774520D02*
X151024520Y-102518093D01*
X150825000Y-97750000D02*
X149750000Y-97750000D01*
X151024520Y-102518093D02*
X151024520Y-103800480D01*
%TO.N,Net-(D102-Pad1)*%
X151750000Y-106037500D02*
X153250000Y-104537500D01*
%TO.N,Net-(D103-Pad1)*%
X153250000Y-106037500D02*
X154750000Y-104537500D01*
%TO.N,Net-(D104-Pad1)*%
X158000000Y-104537500D02*
X156387500Y-104537500D01*
X156387500Y-104537500D02*
X154750000Y-106175000D01*
%TO.N,Net-(D105-Pad1)*%
X159500000Y-104537500D02*
X159500000Y-105425000D01*
X159500000Y-105425000D02*
X160325000Y-106250000D01*
%TO.N,Net-(D106-Pad1)*%
X161000000Y-104537500D02*
X163212500Y-104537500D01*
%TO.N,USER_BTN_IRQ*%
X149000000Y-91750000D02*
X141250000Y-84000000D01*
X150825000Y-91750000D02*
X149000000Y-91750000D01*
%TO.N,LED_1*%
X156250000Y-100675000D02*
X156250000Y-101479651D01*
X153987020Y-102225480D02*
X153250000Y-102962500D01*
X156250000Y-101479651D02*
X155504171Y-102225480D01*
X155504171Y-102225480D02*
X153987020Y-102225480D01*
%TO.N,LED_2*%
X156750000Y-102250000D02*
X156750000Y-100675000D01*
X154750000Y-102962500D02*
X156037500Y-102962500D01*
X156037500Y-102962500D02*
X156750000Y-102250000D01*
%TO.N,LED_3*%
X157250000Y-100675000D02*
X157250000Y-102212500D01*
X157250000Y-102212500D02*
X158000000Y-102962500D01*
%TO.N,LED_4*%
X158225480Y-102225480D02*
X158762980Y-102225480D01*
X157750000Y-100675000D02*
X157750000Y-101750000D01*
X158762980Y-102225480D02*
X159500000Y-102962500D01*
X157750000Y-101750000D02*
X158225480Y-102225480D01*
%TO.N,LED_5*%
X158575960Y-101825960D02*
X158928467Y-101825961D01*
X159327986Y-102225480D02*
X160262980Y-102225480D01*
X158250000Y-100675000D02*
X158250000Y-101500000D01*
X160262980Y-102225480D02*
X161000000Y-102962500D01*
X158250000Y-101500000D02*
X158575960Y-101825960D01*
X158928467Y-101825961D02*
X159327986Y-102225480D01*
%TO.N,CEL+*%
X154000000Y-109750000D02*
X154700000Y-110450000D01*
D41*
X154700000Y-112937500D02*
X156337500Y-112937500D01*
X158362500Y-112950000D02*
X156675000Y-112950000D01*
X156500000Y-112775000D02*
X156500000Y-114000000D01*
D40*
X150250000Y-107825000D02*
X152175000Y-109750000D01*
X152175000Y-109750000D02*
X154000000Y-109750000D01*
X154700000Y-110450000D02*
X154700000Y-112937500D01*
D41*
%TO.N,Net-(Q101-Pad1)*%
X151000000Y-112805000D02*
X149500000Y-112805000D01*
X151000000Y-112805000D02*
X152667500Y-112805000D01*
X152667500Y-112805000D02*
X152800000Y-112937500D01*
%TO.N,Net-(R107-Pad1)*%
X160637500Y-111050000D02*
X162375000Y-111050000D01*
%TO.N,Net-(R108-Pad1)*%
X158675000Y-109250000D02*
X158675000Y-110737500D01*
X158675000Y-110737500D02*
X158362500Y-111050000D01*
%TD*%
%TA.AperFunction,Conductor*%
%TO.N,GND*%
G36*
X171970018Y-80510000D02*
G01*
X171984851Y-80512310D01*
X171984855Y-80512310D01*
X171993724Y-80513691D01*
X172008981Y-80511696D01*
X172034302Y-80510953D01*
X172203285Y-80523039D01*
X172221064Y-80525596D01*
X172411392Y-80566999D01*
X172428641Y-80572063D01*
X172611150Y-80640136D01*
X172627502Y-80647604D01*
X172798458Y-80740952D01*
X172813582Y-80750672D01*
X172969514Y-80867402D01*
X172983100Y-80879175D01*
X173120825Y-81016900D01*
X173132598Y-81030486D01*
X173249328Y-81186418D01*
X173259048Y-81201542D01*
X173352396Y-81372498D01*
X173359864Y-81388850D01*
X173427937Y-81571359D01*
X173433001Y-81588607D01*
X173474404Y-81778936D01*
X173476961Y-81796715D01*
X173487773Y-81947883D01*
X173488540Y-81958601D01*
X173487793Y-81976565D01*
X173487692Y-81984845D01*
X173486309Y-81993724D01*
X173488771Y-82012552D01*
X173490436Y-82025283D01*
X173491500Y-82041621D01*
X173491500Y-112950633D01*
X173490000Y-112970018D01*
X173487690Y-112984851D01*
X173487690Y-112984855D01*
X173486309Y-112993724D01*
X173488136Y-113007693D01*
X173488304Y-113008976D01*
X173489047Y-113034302D01*
X173477947Y-113189511D01*
X173476962Y-113203279D01*
X173474404Y-113221064D01*
X173439971Y-113379352D01*
X173433001Y-113411392D01*
X173427937Y-113428641D01*
X173359864Y-113611150D01*
X173352396Y-113627502D01*
X173259048Y-113798458D01*
X173249328Y-113813582D01*
X173132598Y-113969514D01*
X173120825Y-113983100D01*
X172983100Y-114120825D01*
X172969514Y-114132598D01*
X172813582Y-114249328D01*
X172798458Y-114259048D01*
X172627502Y-114352396D01*
X172611150Y-114359864D01*
X172428641Y-114427937D01*
X172411393Y-114433001D01*
X172221064Y-114474404D01*
X172203285Y-114476961D01*
X172041395Y-114488540D01*
X172023435Y-114487793D01*
X172015155Y-114487692D01*
X172006276Y-114486309D01*
X171974714Y-114490436D01*
X171958379Y-114491500D01*
X157416406Y-114491500D01*
X157348285Y-114471498D01*
X157301792Y-114417842D01*
X157291688Y-114347568D01*
X157296573Y-114326564D01*
X157342325Y-114185754D01*
X157342325Y-114185753D01*
X157344365Y-114179475D01*
X157349130Y-114134145D01*
X157362539Y-114006565D01*
X157363229Y-114000000D01*
X157347218Y-113847670D01*
X157359990Y-113777833D01*
X157408492Y-113725986D01*
X157472528Y-113708500D01*
X157566246Y-113708500D01*
X157601398Y-113713503D01*
X157739989Y-113753767D01*
X157739993Y-113753768D01*
X157746169Y-113755562D01*
X157752574Y-113756066D01*
X157752579Y-113756067D01*
X157781042Y-113758307D01*
X157781050Y-113758307D01*
X157783498Y-113758500D01*
X158941502Y-113758500D01*
X158943950Y-113758307D01*
X158943958Y-113758307D01*
X158972421Y-113756067D01*
X158972426Y-113756066D01*
X158978831Y-113755562D01*
X159123601Y-113713503D01*
X159130988Y-113711357D01*
X159130990Y-113711356D01*
X159138601Y-113709145D01*
X159167411Y-113692107D01*
X159274980Y-113628491D01*
X159274983Y-113628489D01*
X159281807Y-113624453D01*
X159399453Y-113506807D01*
X159401706Y-113502998D01*
X159457996Y-113462345D01*
X159528888Y-113458494D01*
X159590609Y-113493582D01*
X159597276Y-113501276D01*
X159600547Y-113506807D01*
X159718193Y-113624453D01*
X159725017Y-113628489D01*
X159725020Y-113628491D01*
X159832589Y-113692107D01*
X159861399Y-113709145D01*
X159869010Y-113711356D01*
X159869012Y-113711357D01*
X159876399Y-113713503D01*
X160021169Y-113755562D01*
X160027574Y-113756066D01*
X160027579Y-113756067D01*
X160056042Y-113758307D01*
X160056050Y-113758307D01*
X160058498Y-113758500D01*
X161216502Y-113758500D01*
X161218950Y-113758307D01*
X161218958Y-113758307D01*
X161247421Y-113756067D01*
X161247426Y-113756066D01*
X161253831Y-113755562D01*
X161398601Y-113713503D01*
X161405988Y-113711357D01*
X161405990Y-113711356D01*
X161413601Y-113709145D01*
X161442411Y-113692107D01*
X161549980Y-113628491D01*
X161549983Y-113628489D01*
X161556807Y-113624453D01*
X161674453Y-113506807D01*
X161678489Y-113499983D01*
X161678491Y-113499980D01*
X161755108Y-113370427D01*
X161759145Y-113363601D01*
X161764841Y-113343997D01*
X161782124Y-113284505D01*
X161805562Y-113203831D01*
X161806467Y-113192339D01*
X161808307Y-113168958D01*
X161808307Y-113168950D01*
X161808500Y-113166502D01*
X161808500Y-112784500D01*
X161828502Y-112716379D01*
X161882158Y-112669886D01*
X161934500Y-112658500D01*
X163142944Y-112658500D01*
X163154800Y-112659059D01*
X163154803Y-112659059D01*
X163162537Y-112660788D01*
X163233369Y-112658562D01*
X163237327Y-112658500D01*
X163266432Y-112658500D01*
X163270832Y-112657944D01*
X163282664Y-112657012D01*
X163328831Y-112655562D01*
X163349421Y-112649580D01*
X163368782Y-112645570D01*
X163375770Y-112644688D01*
X163382204Y-112643875D01*
X163382205Y-112643875D01*
X163390064Y-112642882D01*
X163397429Y-112639966D01*
X163397433Y-112639965D01*
X163433021Y-112625874D01*
X163444231Y-112622035D01*
X163488600Y-112609145D01*
X163507065Y-112598225D01*
X163524805Y-112589534D01*
X163544756Y-112581635D01*
X163582129Y-112554482D01*
X163592048Y-112547967D01*
X163624977Y-112528493D01*
X163624981Y-112528490D01*
X163631807Y-112524453D01*
X163646971Y-112509289D01*
X163662005Y-112496448D01*
X163672943Y-112488501D01*
X163679357Y-112483841D01*
X163708803Y-112448247D01*
X163716792Y-112439468D01*
X163935855Y-112220405D01*
X163998167Y-112186379D01*
X164024950Y-112183500D01*
X164298732Y-112183500D01*
X164301978Y-112183163D01*
X164301982Y-112183163D01*
X164336083Y-112179625D01*
X164401019Y-112172887D01*
X164480910Y-112146233D01*
X164556324Y-112121073D01*
X164556326Y-112121072D01*
X164563268Y-112118756D01*
X164594546Y-112099401D01*
X164702485Y-112032606D01*
X164708713Y-112028752D01*
X164829552Y-111907702D01*
X164836457Y-111896501D01*
X164915429Y-111768384D01*
X164968201Y-111720891D01*
X165022689Y-111708500D01*
X165066133Y-111708500D01*
X165117382Y-111719393D01*
X165205218Y-111758500D01*
X165233248Y-111770980D01*
X165292678Y-111783612D01*
X165403311Y-111807128D01*
X165403315Y-111807128D01*
X165409768Y-111808500D01*
X165590232Y-111808500D01*
X165596685Y-111807128D01*
X165596689Y-111807128D01*
X165707322Y-111783612D01*
X165766752Y-111770980D01*
X165794783Y-111758500D01*
X165882618Y-111719393D01*
X165933867Y-111708500D01*
X166481487Y-111708500D01*
X166525716Y-111716518D01*
X166612289Y-111748973D01*
X166612291Y-111748973D01*
X166619684Y-111751745D01*
X166627532Y-111752598D01*
X166627534Y-111752598D01*
X166678469Y-111758131D01*
X166681866Y-111758500D01*
X168076013Y-111758500D01*
X168144134Y-111778502D01*
X168187470Y-111825736D01*
X168201734Y-111852791D01*
X168201738Y-111852797D01*
X168204922Y-111858836D01*
X168209327Y-111864049D01*
X168209330Y-111864053D01*
X168317406Y-111991943D01*
X168317410Y-111991947D01*
X168321813Y-111997157D01*
X168327237Y-112001304D01*
X168327238Y-112001305D01*
X168460257Y-112103006D01*
X168460261Y-112103009D01*
X168465678Y-112107150D01*
X168549492Y-112146233D01*
X168623631Y-112180805D01*
X168623634Y-112180806D01*
X168629808Y-112183685D01*
X168636456Y-112185171D01*
X168636459Y-112185172D01*
X168742421Y-112208857D01*
X168806543Y-112223190D01*
X168812088Y-112223500D01*
X168945244Y-112223500D01*
X169080037Y-112208857D01*
X169198190Y-112169094D01*
X169245204Y-112153272D01*
X169245206Y-112153271D01*
X169251675Y-112151094D01*
X169406905Y-112057823D01*
X169411862Y-112053135D01*
X169411865Y-112053133D01*
X169533527Y-111938082D01*
X169533529Y-111938080D01*
X169538485Y-111933393D01*
X169542317Y-111927755D01*
X169542320Y-111927751D01*
X169636442Y-111789255D01*
X169640277Y-111783612D01*
X169707530Y-111615466D01*
X169708644Y-111608738D01*
X169708645Y-111608734D01*
X169735993Y-111443539D01*
X169735993Y-111443536D01*
X169737108Y-111436802D01*
X169735653Y-111409027D01*
X169727987Y-111262766D01*
X169727630Y-111255953D01*
X169679539Y-111081359D01*
X169595078Y-110921164D01*
X169590673Y-110915951D01*
X169590670Y-110915947D01*
X169482594Y-110788057D01*
X169482590Y-110788053D01*
X169478187Y-110782843D01*
X169472762Y-110778695D01*
X169339743Y-110676994D01*
X169339739Y-110676991D01*
X169334322Y-110672850D01*
X169197614Y-110609102D01*
X169176369Y-110599195D01*
X169176366Y-110599194D01*
X169170192Y-110596315D01*
X169163544Y-110594829D01*
X169163541Y-110594828D01*
X169036184Y-110566361D01*
X168993457Y-110556810D01*
X168987912Y-110556500D01*
X168854756Y-110556500D01*
X168828108Y-110559395D01*
X168758226Y-110546867D01*
X168706210Y-110498547D01*
X168688500Y-110434132D01*
X168688500Y-110051866D01*
X168688071Y-110047911D01*
X168684605Y-110016013D01*
X168684344Y-110013606D01*
X168684344Y-109986393D01*
X168688131Y-109951533D01*
X168688131Y-109951529D01*
X168688500Y-109948134D01*
X168688500Y-109551866D01*
X168684344Y-109513606D01*
X168684344Y-109486393D01*
X168688131Y-109451533D01*
X168688131Y-109451529D01*
X168688500Y-109448134D01*
X168688500Y-109051866D01*
X168684344Y-109013606D01*
X168684344Y-108986393D01*
X168688131Y-108951533D01*
X168688131Y-108951529D01*
X168688500Y-108948134D01*
X168688500Y-108551866D01*
X168684344Y-108513606D01*
X168684344Y-108486393D01*
X168688131Y-108451533D01*
X168688131Y-108451529D01*
X168688500Y-108448134D01*
X168688500Y-108051866D01*
X168684344Y-108013606D01*
X168684344Y-107986393D01*
X168688131Y-107951533D01*
X168688131Y-107951529D01*
X168688500Y-107948134D01*
X168688500Y-107551866D01*
X168684344Y-107513606D01*
X168684344Y-107486393D01*
X168684826Y-107481961D01*
X168688500Y-107448134D01*
X168688500Y-107051866D01*
X168688008Y-107047332D01*
X168684344Y-107013607D01*
X168684344Y-106986393D01*
X168688131Y-106951533D01*
X168688131Y-106951529D01*
X168688500Y-106948134D01*
X168688500Y-106569500D01*
X168708502Y-106501379D01*
X168762158Y-106454886D01*
X168814500Y-106443500D01*
X168945244Y-106443500D01*
X169080037Y-106428857D01*
X169198190Y-106389094D01*
X169245204Y-106373272D01*
X169245206Y-106373271D01*
X169251675Y-106371094D01*
X169406905Y-106277823D01*
X169411862Y-106273135D01*
X169411865Y-106273133D01*
X169533527Y-106158082D01*
X169533529Y-106158080D01*
X169538485Y-106153393D01*
X169542317Y-106147755D01*
X169542320Y-106147751D01*
X169636442Y-106009255D01*
X169640277Y-106003612D01*
X169707530Y-105835466D01*
X169708644Y-105828738D01*
X169708645Y-105828734D01*
X169735993Y-105663539D01*
X169735993Y-105663536D01*
X169737108Y-105656802D01*
X169735453Y-105625206D01*
X169728301Y-105488758D01*
X169727630Y-105475953D01*
X169724582Y-105464885D01*
X169681352Y-105307941D01*
X169679539Y-105301359D01*
X169595078Y-105141164D01*
X169590673Y-105135951D01*
X169590670Y-105135947D01*
X169482594Y-105008057D01*
X169482590Y-105008053D01*
X169478187Y-105002843D01*
X169472762Y-104998695D01*
X169339743Y-104896994D01*
X169339739Y-104896991D01*
X169334322Y-104892850D01*
X169209246Y-104834526D01*
X169176369Y-104819195D01*
X169176366Y-104819194D01*
X169170192Y-104816315D01*
X169163544Y-104814829D01*
X169163541Y-104814828D01*
X168998494Y-104777936D01*
X168998495Y-104777936D01*
X168993457Y-104776810D01*
X168987912Y-104776500D01*
X168854756Y-104776500D01*
X168719963Y-104791143D01*
X168636609Y-104819195D01*
X168554796Y-104846728D01*
X168554794Y-104846729D01*
X168548325Y-104848906D01*
X168393095Y-104942177D01*
X168388138Y-104946865D01*
X168388135Y-104946867D01*
X168272928Y-105055814D01*
X168261515Y-105066607D01*
X168257683Y-105072245D01*
X168257680Y-105072249D01*
X168180155Y-105186323D01*
X168125322Y-105231421D01*
X168075943Y-105241500D01*
X166681866Y-105241500D01*
X166678469Y-105241869D01*
X166627534Y-105247402D01*
X166627532Y-105247402D01*
X166619684Y-105248255D01*
X166612291Y-105251027D01*
X166612289Y-105251027D01*
X166525716Y-105283482D01*
X166481487Y-105291500D01*
X165933867Y-105291500D01*
X165882618Y-105280607D01*
X165772783Y-105231705D01*
X165772781Y-105231705D01*
X165766752Y-105229020D01*
X165672000Y-105208880D01*
X165596689Y-105192872D01*
X165596685Y-105192872D01*
X165590232Y-105191500D01*
X165409768Y-105191500D01*
X165403315Y-105192872D01*
X165403311Y-105192872D01*
X165328000Y-105208880D01*
X165233248Y-105229020D01*
X165227219Y-105231704D01*
X165227217Y-105231705D01*
X165074416Y-105299737D01*
X165074414Y-105299738D01*
X165068386Y-105302422D01*
X165063045Y-105306302D01*
X165063044Y-105306303D01*
X164927731Y-105404613D01*
X164927729Y-105404615D01*
X164922387Y-105408496D01*
X164917966Y-105413406D01*
X164917965Y-105413407D01*
X164855093Y-105483234D01*
X164801633Y-105542607D01*
X164798332Y-105548325D01*
X164717373Y-105688550D01*
X164711401Y-105698893D01*
X164709359Y-105705178D01*
X164657750Y-105864017D01*
X164655635Y-105870525D01*
X164636771Y-106050000D01*
X164655635Y-106229475D01*
X164711401Y-106401107D01*
X164714704Y-106406829D01*
X164714705Y-106406830D01*
X164758914Y-106483402D01*
X164801633Y-106557393D01*
X164806052Y-106562301D01*
X164809060Y-106566441D01*
X164832918Y-106633309D01*
X164816836Y-106702460D01*
X164765922Y-106751940D01*
X164707124Y-106766501D01*
X164568366Y-106766501D01*
X164565508Y-106766764D01*
X164565499Y-106766764D01*
X164529996Y-106770026D01*
X164494938Y-106773247D01*
X164488560Y-106775246D01*
X164488559Y-106775246D01*
X164338550Y-106822256D01*
X164338548Y-106822257D01*
X164331301Y-106824528D01*
X164184619Y-106913361D01*
X164063361Y-107034619D01*
X163974528Y-107181301D01*
X163923247Y-107344938D01*
X163916500Y-107418365D01*
X163916500Y-107421263D01*
X163916501Y-107750860D01*
X163916501Y-108081634D01*
X163916764Y-108084492D01*
X163916764Y-108084501D01*
X163918816Y-108106830D01*
X163923247Y-108155062D01*
X163974528Y-108318699D01*
X164020972Y-108395387D01*
X164044798Y-108434729D01*
X164062977Y-108503358D01*
X164044798Y-108565270D01*
X163974528Y-108681301D01*
X163923247Y-108844938D01*
X163916500Y-108918365D01*
X163916501Y-109581634D01*
X163916764Y-109584492D01*
X163916764Y-109584501D01*
X163920026Y-109620004D01*
X163923247Y-109655062D01*
X163925246Y-109661440D01*
X163925246Y-109661441D01*
X163970890Y-109807089D01*
X163974528Y-109818699D01*
X164063361Y-109965381D01*
X164110089Y-110012109D01*
X164144115Y-110074421D01*
X164139050Y-110145236D01*
X164096503Y-110202072D01*
X164063988Y-110219642D01*
X164044791Y-110226611D01*
X164030686Y-110231730D01*
X164026542Y-110233153D01*
X163964071Y-110253391D01*
X163957101Y-110255649D01*
X163956749Y-110255863D01*
X163907965Y-110266500D01*
X163701268Y-110266500D01*
X163698022Y-110266837D01*
X163698018Y-110266837D01*
X163663917Y-110270375D01*
X163598981Y-110277113D01*
X163592440Y-110279295D01*
X163592441Y-110279295D01*
X163443676Y-110328927D01*
X163443674Y-110328928D01*
X163436732Y-110331244D01*
X163325776Y-110399906D01*
X163257326Y-110418742D01*
X163194204Y-110400536D01*
X163165645Y-110383240D01*
X163068699Y-110324528D01*
X163061452Y-110322257D01*
X163061450Y-110322256D01*
X162962190Y-110291150D01*
X162905062Y-110273247D01*
X162831635Y-110266500D01*
X162828737Y-110266500D01*
X162499140Y-110266501D01*
X162168366Y-110266501D01*
X162165508Y-110266764D01*
X162165499Y-110266764D01*
X162129996Y-110270026D01*
X162094938Y-110273247D01*
X162088560Y-110275246D01*
X162088559Y-110275246D01*
X162055092Y-110285734D01*
X162017413Y-110291500D01*
X161433754Y-110291500D01*
X161398602Y-110286497D01*
X161260011Y-110246233D01*
X161260007Y-110246232D01*
X161253831Y-110244438D01*
X161247426Y-110243934D01*
X161247421Y-110243933D01*
X161218958Y-110241693D01*
X161218950Y-110241693D01*
X161216502Y-110241500D01*
X161114710Y-110241500D01*
X161046589Y-110221498D01*
X161000096Y-110167842D01*
X160989992Y-110097568D01*
X161019486Y-110032988D01*
X161025615Y-110026405D01*
X161086639Y-109965381D01*
X161175472Y-109818699D01*
X161179111Y-109807089D01*
X161224752Y-109661446D01*
X161226753Y-109655062D01*
X161233500Y-109581635D01*
X161233499Y-108918366D01*
X161233234Y-108915474D01*
X161227364Y-108851592D01*
X161226753Y-108844938D01*
X161224752Y-108838554D01*
X161177744Y-108688550D01*
X161177743Y-108688548D01*
X161175472Y-108681301D01*
X161101724Y-108559527D01*
X161083500Y-108494257D01*
X161083500Y-108491491D01*
X161102240Y-108425375D01*
X161126145Y-108386593D01*
X161169849Y-108315692D01*
X161191083Y-108251675D01*
X161221072Y-108161262D01*
X161221072Y-108161260D01*
X161223238Y-108154731D01*
X161233500Y-108054572D01*
X161233500Y-107445428D01*
X161222978Y-107344018D01*
X161169308Y-107183151D01*
X161123110Y-107108496D01*
X161101465Y-107073517D01*
X161082628Y-107005064D01*
X161100834Y-106941943D01*
X161171537Y-106825197D01*
X161171538Y-106825195D01*
X161175472Y-106818699D01*
X161189090Y-106775246D01*
X161212907Y-106699243D01*
X161226753Y-106655062D01*
X161233500Y-106581635D01*
X161233500Y-106250000D01*
X161233499Y-105921249D01*
X161233499Y-105918366D01*
X161230294Y-105883475D01*
X161228506Y-105864017D01*
X161226753Y-105844938D01*
X161193375Y-105738429D01*
X161177744Y-105688550D01*
X161177743Y-105688548D01*
X161175472Y-105681301D01*
X161171518Y-105674773D01*
X161171512Y-105674747D01*
X161168411Y-105667880D01*
X161169555Y-105667363D01*
X161153338Y-105606146D01*
X161175146Y-105538582D01*
X161230020Y-105493534D01*
X161279293Y-105483500D01*
X161304572Y-105483500D01*
X161307818Y-105483163D01*
X161307822Y-105483163D01*
X161341603Y-105479658D01*
X161405982Y-105472978D01*
X161566849Y-105419308D01*
X161711055Y-105330071D01*
X161830864Y-105210053D01*
X161834705Y-105203822D01*
X161839242Y-105198077D01*
X161840768Y-105199282D01*
X161886210Y-105158389D01*
X161940694Y-105146000D01*
X162300345Y-105146000D01*
X162368466Y-105166002D01*
X162404545Y-105203055D01*
X162404738Y-105202904D01*
X162406146Y-105204700D01*
X162408120Y-105206727D01*
X162413361Y-105215381D01*
X162534619Y-105336639D01*
X162681301Y-105425472D01*
X162688548Y-105427743D01*
X162688550Y-105427744D01*
X162748535Y-105446542D01*
X162844938Y-105476753D01*
X162918365Y-105483500D01*
X162921263Y-105483500D01*
X163250860Y-105483499D01*
X163581634Y-105483499D01*
X163584492Y-105483236D01*
X163584501Y-105483236D01*
X163620004Y-105479974D01*
X163655062Y-105476753D01*
X163661447Y-105474752D01*
X163811450Y-105427744D01*
X163811452Y-105427743D01*
X163818699Y-105425472D01*
X163965381Y-105336639D01*
X164086639Y-105215381D01*
X164175472Y-105068699D01*
X164226753Y-104905062D01*
X164233500Y-104831635D01*
X164233499Y-104318366D01*
X164233234Y-104315474D01*
X164228577Y-104264795D01*
X164226753Y-104244938D01*
X164213470Y-104202551D01*
X164177744Y-104088550D01*
X164177743Y-104088548D01*
X164175472Y-104081301D01*
X164086639Y-103934619D01*
X163965381Y-103813361D01*
X163818699Y-103724528D01*
X163811452Y-103722257D01*
X163811450Y-103722256D01*
X163702869Y-103688229D01*
X163655062Y-103673247D01*
X163581635Y-103666500D01*
X163578737Y-103666500D01*
X163249140Y-103666501D01*
X162918366Y-103666501D01*
X162915508Y-103666764D01*
X162915499Y-103666764D01*
X162879996Y-103670026D01*
X162844938Y-103673247D01*
X162838560Y-103675246D01*
X162838559Y-103675246D01*
X162688550Y-103722256D01*
X162688548Y-103722257D01*
X162681301Y-103724528D01*
X162534619Y-103813361D01*
X162455885Y-103892095D01*
X162393573Y-103926121D01*
X162366790Y-103929000D01*
X161940532Y-103929000D01*
X161872411Y-103908998D01*
X161839263Y-103875281D01*
X161838472Y-103875908D01*
X161833920Y-103870165D01*
X161830071Y-103863945D01*
X161805195Y-103839113D01*
X161771116Y-103776832D01*
X161776118Y-103706012D01*
X161805040Y-103660922D01*
X161825693Y-103640233D01*
X161830864Y-103635053D01*
X161919849Y-103490692D01*
X161958404Y-103374453D01*
X161971072Y-103336262D01*
X161971072Y-103336260D01*
X161973238Y-103329731D01*
X161983500Y-103229572D01*
X161983500Y-102695428D01*
X161974928Y-102612813D01*
X161987793Y-102542993D01*
X162036363Y-102491210D01*
X162105219Y-102473908D01*
X162113094Y-102474466D01*
X162201268Y-102483500D01*
X162748732Y-102483500D01*
X162751978Y-102483163D01*
X162751982Y-102483163D01*
X162786083Y-102479625D01*
X162851019Y-102472887D01*
X162931102Y-102446169D01*
X163006324Y-102421073D01*
X163006326Y-102421072D01*
X163013268Y-102418756D01*
X163025563Y-102411148D01*
X163152485Y-102332606D01*
X163158713Y-102328752D01*
X163279552Y-102207702D01*
X163319316Y-102143193D01*
X163365462Y-102068331D01*
X163365463Y-102068329D01*
X163369302Y-102062101D01*
X163423149Y-101899757D01*
X163423976Y-101891693D01*
X163433172Y-101801930D01*
X163433500Y-101798732D01*
X163433500Y-101201268D01*
X163422887Y-101098981D01*
X163383714Y-100981565D01*
X163371073Y-100943676D01*
X163371072Y-100943674D01*
X163368756Y-100936732D01*
X163294291Y-100816398D01*
X163275453Y-100747946D01*
X163294175Y-100683979D01*
X163365462Y-100568331D01*
X163365463Y-100568329D01*
X163369302Y-100562101D01*
X163423149Y-100399757D01*
X163433500Y-100298732D01*
X163433500Y-99701268D01*
X163431020Y-99677361D01*
X163423598Y-99605837D01*
X163422887Y-99598981D01*
X163395905Y-99518107D01*
X163371073Y-99443676D01*
X163371072Y-99443674D01*
X163368756Y-99436732D01*
X163312899Y-99346467D01*
X163294062Y-99278017D01*
X163315224Y-99210247D01*
X163320081Y-99203462D01*
X163384686Y-99119267D01*
X163443481Y-98977324D01*
X163452851Y-98906153D01*
X163457962Y-98867331D01*
X163457962Y-98867330D01*
X163458500Y-98863244D01*
X163458500Y-98636756D01*
X163443481Y-98522676D01*
X163445026Y-98522473D01*
X163445026Y-98477527D01*
X163443481Y-98477324D01*
X163457962Y-98367331D01*
X163457962Y-98367330D01*
X163458500Y-98363244D01*
X163458500Y-98136756D01*
X163443481Y-98022676D01*
X163445026Y-98022473D01*
X163445026Y-97977526D01*
X163443481Y-97977323D01*
X163443834Y-97974646D01*
X163453059Y-97904576D01*
X163456945Y-97875058D01*
X163485668Y-97810131D01*
X163544933Y-97771040D01*
X163615925Y-97770195D01*
X163633114Y-97776397D01*
X163733248Y-97820980D01*
X163821508Y-97839740D01*
X163903311Y-97857128D01*
X163903315Y-97857128D01*
X163909768Y-97858500D01*
X164090232Y-97858500D01*
X164096685Y-97857128D01*
X164096689Y-97857128D01*
X164178492Y-97839740D01*
X164266752Y-97820980D01*
X164272783Y-97818295D01*
X164425585Y-97750263D01*
X164425587Y-97750262D01*
X164431615Y-97747578D01*
X164471899Y-97718310D01*
X164572269Y-97645387D01*
X164572271Y-97645385D01*
X164577613Y-97641504D01*
X164615417Y-97599518D01*
X164693948Y-97512301D01*
X164693949Y-97512300D01*
X164698367Y-97507393D01*
X164780419Y-97365275D01*
X164831800Y-97316283D01*
X164901514Y-97302847D01*
X164967425Y-97329233D01*
X164978632Y-97339181D01*
X165575685Y-97936234D01*
X165586552Y-97948625D01*
X165606013Y-97973987D01*
X165637925Y-97998474D01*
X165637928Y-97998477D01*
X165669465Y-98022676D01*
X165733125Y-98071524D01*
X165804038Y-98100897D01*
X165859319Y-98145445D01*
X165881740Y-98212809D01*
X165873802Y-98261535D01*
X165851029Y-98322282D01*
X165851027Y-98322288D01*
X165848255Y-98329684D01*
X165841500Y-98391866D01*
X165841500Y-99228134D01*
X165848255Y-99290316D01*
X165899385Y-99426705D01*
X165986739Y-99543261D01*
X166103295Y-99630615D01*
X166239684Y-99681745D01*
X166295560Y-99687815D01*
X166296196Y-99687884D01*
X166301866Y-99688500D01*
X168798134Y-99688500D01*
X168803805Y-99687884D01*
X168804440Y-99687815D01*
X168860316Y-99681745D01*
X168996705Y-99630615D01*
X169113261Y-99543261D01*
X169200615Y-99426705D01*
X169251745Y-99290316D01*
X169258500Y-99228134D01*
X169258500Y-98521845D01*
X169278502Y-98453724D01*
X169332158Y-98407231D01*
X169397667Y-98396535D01*
X169403316Y-98397129D01*
X169409768Y-98398500D01*
X169590232Y-98398500D01*
X169596684Y-98397129D01*
X169602333Y-98396535D01*
X169672171Y-98409309D01*
X169724016Y-98457812D01*
X169741500Y-98521845D01*
X169741500Y-99228134D01*
X169748255Y-99290316D01*
X169799385Y-99426705D01*
X169886739Y-99543261D01*
X170003295Y-99630615D01*
X170139684Y-99681745D01*
X170195560Y-99687815D01*
X170196196Y-99687884D01*
X170201866Y-99688500D01*
X172698134Y-99688500D01*
X172703805Y-99687884D01*
X172704440Y-99687815D01*
X172760316Y-99681745D01*
X172896705Y-99630615D01*
X173013261Y-99543261D01*
X173100615Y-99426705D01*
X173151745Y-99290316D01*
X173158500Y-99228134D01*
X173158500Y-98391866D01*
X173151745Y-98329684D01*
X173148973Y-98322288D01*
X173148971Y-98322282D01*
X173110338Y-98219229D01*
X173105155Y-98148422D01*
X173110338Y-98130771D01*
X173148971Y-98027718D01*
X173148973Y-98027712D01*
X173151745Y-98020316D01*
X173158500Y-97958134D01*
X173158500Y-97121866D01*
X173151745Y-97059684D01*
X173100615Y-96923295D01*
X173013261Y-96806739D01*
X172896705Y-96719385D01*
X172760316Y-96668255D01*
X172698134Y-96661500D01*
X170201866Y-96661500D01*
X170139684Y-96668255D01*
X170003295Y-96719385D01*
X169974661Y-96740845D01*
X169908155Y-96765693D01*
X169847847Y-96755126D01*
X169772783Y-96721705D01*
X169772781Y-96721705D01*
X169766752Y-96719020D01*
X169678492Y-96700260D01*
X169596689Y-96682872D01*
X169596685Y-96682872D01*
X169590232Y-96681500D01*
X169409768Y-96681500D01*
X169403316Y-96682871D01*
X169397667Y-96683465D01*
X169327829Y-96670691D01*
X169275984Y-96622188D01*
X169258500Y-96558155D01*
X169258500Y-95851866D01*
X169251745Y-95789684D01*
X169248973Y-95782288D01*
X169248971Y-95782282D01*
X169210338Y-95679229D01*
X169205155Y-95608422D01*
X169210338Y-95590771D01*
X169248971Y-95487718D01*
X169248973Y-95487712D01*
X169251745Y-95480316D01*
X169258500Y-95418134D01*
X169258500Y-94581866D01*
X169251745Y-94519684D01*
X169248973Y-94512288D01*
X169248971Y-94512282D01*
X169210338Y-94409229D01*
X169205155Y-94338422D01*
X169210338Y-94320771D01*
X169248971Y-94217718D01*
X169248973Y-94217712D01*
X169251745Y-94210316D01*
X169258500Y-94148134D01*
X169741500Y-94148134D01*
X169748255Y-94210316D01*
X169799385Y-94346705D01*
X169886739Y-94463261D01*
X170003295Y-94550615D01*
X170139684Y-94601745D01*
X170201866Y-94608500D01*
X172698134Y-94608500D01*
X172760316Y-94601745D01*
X172896705Y-94550615D01*
X173013261Y-94463261D01*
X173100615Y-94346705D01*
X173151745Y-94210316D01*
X173158500Y-94148134D01*
X173158500Y-93311866D01*
X173151745Y-93249684D01*
X173100615Y-93113295D01*
X173013261Y-92996739D01*
X172896705Y-92909385D01*
X172760316Y-92858255D01*
X172698134Y-92851500D01*
X170201866Y-92851500D01*
X170139684Y-92858255D01*
X170003295Y-92909385D01*
X169886739Y-92996739D01*
X169799385Y-93113295D01*
X169748255Y-93249684D01*
X169741500Y-93311866D01*
X169741500Y-94148134D01*
X169258500Y-94148134D01*
X169258500Y-93311866D01*
X169251745Y-93249684D01*
X169248973Y-93242288D01*
X169248971Y-93242282D01*
X169210338Y-93139229D01*
X169205155Y-93068422D01*
X169210338Y-93050771D01*
X169248971Y-92947718D01*
X169248973Y-92947712D01*
X169251745Y-92940316D01*
X169258500Y-92878134D01*
X169258500Y-92041866D01*
X169251745Y-91979684D01*
X169248973Y-91972288D01*
X169248971Y-91972282D01*
X169210338Y-91869229D01*
X169205155Y-91798422D01*
X169210338Y-91780771D01*
X169248971Y-91677718D01*
X169248973Y-91677712D01*
X169251745Y-91670316D01*
X169258500Y-91608134D01*
X169258500Y-90771866D01*
X169251745Y-90709684D01*
X169200615Y-90573295D01*
X169113261Y-90456739D01*
X168996705Y-90369385D01*
X168860316Y-90318255D01*
X168798134Y-90311500D01*
X168434500Y-90311500D01*
X168366379Y-90291498D01*
X168319886Y-90237842D01*
X168308500Y-90185500D01*
X168308500Y-89774493D01*
X168328502Y-89706372D01*
X168382158Y-89659879D01*
X168403763Y-89652457D01*
X168410316Y-89651745D01*
X168417711Y-89648973D01*
X168417714Y-89648972D01*
X168538297Y-89603767D01*
X168546705Y-89600615D01*
X168663261Y-89513261D01*
X168750615Y-89396705D01*
X168801745Y-89260316D01*
X168808500Y-89198134D01*
X168808500Y-88101866D01*
X168801745Y-88039684D01*
X168798971Y-88032285D01*
X168798225Y-88029146D01*
X168798225Y-87970854D01*
X168798971Y-87967715D01*
X168801745Y-87960316D01*
X168808500Y-87898134D01*
X168808500Y-86801866D01*
X168801745Y-86739684D01*
X168750615Y-86603295D01*
X168745230Y-86596110D01*
X168745229Y-86596108D01*
X168718216Y-86560065D01*
X168693368Y-86493558D01*
X168708421Y-86424176D01*
X168758595Y-86373946D01*
X168819042Y-86358500D01*
X169545761Y-86358500D01*
X169613882Y-86378502D01*
X169634856Y-86395405D01*
X170154595Y-86915144D01*
X170188621Y-86977456D01*
X170191500Y-87004239D01*
X170191500Y-87898134D01*
X170198255Y-87960316D01*
X170201029Y-87967715D01*
X170201775Y-87970854D01*
X170201775Y-88029146D01*
X170201029Y-88032285D01*
X170198255Y-88039684D01*
X170191500Y-88101866D01*
X170191500Y-89198134D01*
X170198255Y-89260316D01*
X170249385Y-89396705D01*
X170336739Y-89513261D01*
X170453295Y-89600615D01*
X170461703Y-89603767D01*
X170582286Y-89648972D01*
X170582289Y-89648973D01*
X170589684Y-89651745D01*
X170595453Y-89652372D01*
X170656291Y-89687126D01*
X170689113Y-89750081D01*
X170691500Y-89774493D01*
X170691500Y-90185500D01*
X170671498Y-90253621D01*
X170617842Y-90300114D01*
X170565500Y-90311500D01*
X170201866Y-90311500D01*
X170139684Y-90318255D01*
X170003295Y-90369385D01*
X169886739Y-90456739D01*
X169799385Y-90573295D01*
X169748255Y-90709684D01*
X169741500Y-90771866D01*
X169741500Y-91608134D01*
X169748255Y-91670316D01*
X169799385Y-91806705D01*
X169886739Y-91923261D01*
X170003295Y-92010615D01*
X170139684Y-92061745D01*
X170201866Y-92068500D01*
X172698134Y-92068500D01*
X172760316Y-92061745D01*
X172896705Y-92010615D01*
X173013261Y-91923261D01*
X173100615Y-91806705D01*
X173151745Y-91670316D01*
X173158500Y-91608134D01*
X173158500Y-90771866D01*
X173151745Y-90709684D01*
X173100615Y-90573295D01*
X173013261Y-90456739D01*
X172896705Y-90369385D01*
X172760316Y-90318255D01*
X172698134Y-90311500D01*
X172334500Y-90311500D01*
X172266379Y-90291498D01*
X172219886Y-90237842D01*
X172208500Y-90185500D01*
X172208500Y-89774493D01*
X172228502Y-89706372D01*
X172282158Y-89659879D01*
X172303763Y-89652457D01*
X172310316Y-89651745D01*
X172317711Y-89648973D01*
X172317714Y-89648972D01*
X172438297Y-89603767D01*
X172446705Y-89600615D01*
X172563261Y-89513261D01*
X172650615Y-89396705D01*
X172701745Y-89260316D01*
X172708500Y-89198134D01*
X172708500Y-88101866D01*
X172701745Y-88039684D01*
X172698971Y-88032285D01*
X172698225Y-88029146D01*
X172698225Y-87970854D01*
X172698971Y-87967715D01*
X172701745Y-87960316D01*
X172708500Y-87898134D01*
X172708500Y-86801866D01*
X172701745Y-86739684D01*
X172650615Y-86603295D01*
X172563261Y-86486739D01*
X172446705Y-86399385D01*
X172310316Y-86348255D01*
X172248134Y-86341500D01*
X171354239Y-86341500D01*
X171286118Y-86321498D01*
X171265144Y-86304595D01*
X170314315Y-85353766D01*
X170303448Y-85341375D01*
X170289013Y-85322563D01*
X170283987Y-85316013D01*
X170252075Y-85291526D01*
X170252072Y-85291523D01*
X170163429Y-85223504D01*
X170163427Y-85223503D01*
X170156876Y-85218476D01*
X170008851Y-85157162D01*
X170000664Y-85156084D01*
X170000663Y-85156084D01*
X169989458Y-85154609D01*
X169958262Y-85150502D01*
X169889885Y-85141500D01*
X169889882Y-85141500D01*
X169889874Y-85141499D01*
X169858189Y-85137328D01*
X169850000Y-85136250D01*
X169818307Y-85140422D01*
X169801864Y-85141500D01*
X164448898Y-85141500D01*
X164380777Y-85121498D01*
X164334284Y-85067842D01*
X164324180Y-84997568D01*
X164329065Y-84976564D01*
X164342325Y-84935754D01*
X164342325Y-84935753D01*
X164344365Y-84929475D01*
X164353512Y-84842454D01*
X164362539Y-84756565D01*
X164363229Y-84750000D01*
X164349833Y-84622544D01*
X164345055Y-84577089D01*
X164345055Y-84577088D01*
X164344365Y-84570525D01*
X164288599Y-84398893D01*
X164198367Y-84242607D01*
X164191429Y-84234901D01*
X164082035Y-84113407D01*
X164082034Y-84113406D01*
X164077613Y-84108496D01*
X164068584Y-84101936D01*
X164025230Y-84045713D01*
X164019155Y-83974977D01*
X164052287Y-83912186D01*
X164068584Y-83898064D01*
X164068875Y-83897853D01*
X164077613Y-83891504D01*
X164148057Y-83813268D01*
X164193948Y-83762301D01*
X164193949Y-83762300D01*
X164198367Y-83757393D01*
X164273900Y-83626566D01*
X164285295Y-83606830D01*
X164285296Y-83606829D01*
X164288599Y-83601107D01*
X164328573Y-83478078D01*
X164342325Y-83435754D01*
X164342325Y-83435753D01*
X164344365Y-83429475D01*
X164363229Y-83250000D01*
X169136526Y-83250000D01*
X169156391Y-83502403D01*
X169157545Y-83507210D01*
X169157546Y-83507216D01*
X169181461Y-83606830D01*
X169215495Y-83748591D01*
X169217388Y-83753162D01*
X169217389Y-83753164D01*
X169277409Y-83898064D01*
X169312384Y-83982502D01*
X169444672Y-84198376D01*
X169609102Y-84390898D01*
X169801624Y-84555328D01*
X170017498Y-84687616D01*
X170022068Y-84689509D01*
X170022072Y-84689511D01*
X170246836Y-84782611D01*
X170251409Y-84784505D01*
X170336032Y-84804821D01*
X170492784Y-84842454D01*
X170492790Y-84842455D01*
X170497597Y-84843609D01*
X170597416Y-84851465D01*
X170684345Y-84858307D01*
X170684352Y-84858307D01*
X170686801Y-84858500D01*
X170813199Y-84858500D01*
X170815648Y-84858307D01*
X170815655Y-84858307D01*
X170902584Y-84851465D01*
X171002403Y-84843609D01*
X171007210Y-84842455D01*
X171007216Y-84842454D01*
X171163968Y-84804821D01*
X171248591Y-84784505D01*
X171253164Y-84782611D01*
X171477928Y-84689511D01*
X171477932Y-84689509D01*
X171482502Y-84687616D01*
X171698376Y-84555328D01*
X171890898Y-84390898D01*
X172055328Y-84198376D01*
X172187616Y-83982502D01*
X172222592Y-83898064D01*
X172282611Y-83753164D01*
X172282612Y-83753162D01*
X172284505Y-83748591D01*
X172318539Y-83606830D01*
X172342454Y-83507216D01*
X172342455Y-83507210D01*
X172343609Y-83502403D01*
X172363474Y-83250000D01*
X172343609Y-82997597D01*
X172334553Y-82959873D01*
X172285660Y-82756221D01*
X172284505Y-82751409D01*
X172282310Y-82746109D01*
X172189511Y-82522072D01*
X172189509Y-82522068D01*
X172187616Y-82517498D01*
X172055328Y-82301624D01*
X171890898Y-82109102D01*
X171698376Y-81944672D01*
X171482502Y-81812384D01*
X171477932Y-81810491D01*
X171477928Y-81810489D01*
X171253164Y-81717389D01*
X171253162Y-81717388D01*
X171248591Y-81715495D01*
X171098556Y-81679475D01*
X171007216Y-81657546D01*
X171007210Y-81657545D01*
X171002403Y-81656391D01*
X170902584Y-81648535D01*
X170815655Y-81641693D01*
X170815648Y-81641693D01*
X170813199Y-81641500D01*
X170686801Y-81641500D01*
X170684352Y-81641693D01*
X170684345Y-81641693D01*
X170597416Y-81648535D01*
X170497597Y-81656391D01*
X170492790Y-81657545D01*
X170492784Y-81657546D01*
X170401444Y-81679475D01*
X170251409Y-81715495D01*
X170246838Y-81717388D01*
X170246836Y-81717389D01*
X170022072Y-81810489D01*
X170022068Y-81810491D01*
X170017498Y-81812384D01*
X169801624Y-81944672D01*
X169609102Y-82109102D01*
X169444672Y-82301624D01*
X169312384Y-82517498D01*
X169310491Y-82522068D01*
X169310489Y-82522072D01*
X169217690Y-82746109D01*
X169215495Y-82751409D01*
X169214340Y-82756221D01*
X169165448Y-82959873D01*
X169156391Y-82997597D01*
X169136526Y-83250000D01*
X164363229Y-83250000D01*
X164347245Y-83097925D01*
X164345055Y-83077089D01*
X164345055Y-83077088D01*
X164344365Y-83070525D01*
X164288599Y-82898893D01*
X164198367Y-82742607D01*
X164154310Y-82693676D01*
X164082035Y-82613407D01*
X164082034Y-82613406D01*
X164077613Y-82608496D01*
X164071109Y-82603770D01*
X163936957Y-82506303D01*
X163936956Y-82506302D01*
X163931615Y-82502422D01*
X163925587Y-82499738D01*
X163925585Y-82499737D01*
X163772783Y-82431705D01*
X163772781Y-82431705D01*
X163766752Y-82429020D01*
X163674559Y-82409424D01*
X163596689Y-82392872D01*
X163596685Y-82392872D01*
X163590232Y-82391500D01*
X163409768Y-82391500D01*
X163403315Y-82392872D01*
X163403311Y-82392872D01*
X163325441Y-82409424D01*
X163233248Y-82429020D01*
X163227219Y-82431704D01*
X163227217Y-82431705D01*
X163117383Y-82480607D01*
X163066134Y-82491500D01*
X162845710Y-82491500D01*
X162777589Y-82471498D01*
X162756615Y-82454595D01*
X162715381Y-82413361D01*
X162568699Y-82324528D01*
X162561452Y-82322257D01*
X162561450Y-82322256D01*
X162451765Y-82287883D01*
X162405062Y-82273247D01*
X162331635Y-82266500D01*
X162328737Y-82266500D01*
X162074335Y-82266501D01*
X161818366Y-82266501D01*
X161815508Y-82266764D01*
X161815499Y-82266764D01*
X161779996Y-82270026D01*
X161744938Y-82273247D01*
X161738560Y-82275246D01*
X161738559Y-82275246D01*
X161588550Y-82322256D01*
X161588548Y-82322257D01*
X161581301Y-82324528D01*
X161434619Y-82413361D01*
X161339095Y-82508885D01*
X161276783Y-82542911D01*
X161205968Y-82537846D01*
X161160905Y-82508885D01*
X161065381Y-82413361D01*
X160918699Y-82324528D01*
X160911452Y-82322257D01*
X160911450Y-82322256D01*
X160801765Y-82287883D01*
X160755062Y-82273247D01*
X160681635Y-82266500D01*
X160678734Y-82266500D01*
X160675860Y-82266368D01*
X160675899Y-82265519D01*
X160611118Y-82246498D01*
X160590144Y-82229595D01*
X159895095Y-81534546D01*
X159861069Y-81472234D01*
X159858880Y-81458622D01*
X159845055Y-81327089D01*
X159845055Y-81327088D01*
X159844365Y-81320525D01*
X159788599Y-81148893D01*
X159698367Y-80992607D01*
X159676640Y-80968476D01*
X159582035Y-80863407D01*
X159582034Y-80863406D01*
X159577613Y-80858496D01*
X159541298Y-80832111D01*
X159436957Y-80756303D01*
X159436956Y-80756302D01*
X159431615Y-80752422D01*
X159425590Y-80749740D01*
X159425584Y-80749736D01*
X159425295Y-80749608D01*
X159425155Y-80749489D01*
X159419862Y-80746433D01*
X159420421Y-80745465D01*
X159371198Y-80703629D01*
X159350547Y-80635703D01*
X159369898Y-80567394D01*
X159423107Y-80520391D01*
X159476541Y-80508500D01*
X171950633Y-80508500D01*
X171970018Y-80510000D01*
G37*
%TD.AperFunction*%
%TA.AperFunction,Conductor*%
G36*
X148603486Y-99984735D02*
G01*
X148635310Y-100048199D01*
X148636211Y-100058222D01*
X148636250Y-100058217D01*
X148641500Y-100098097D01*
X148641500Y-100098102D01*
X148650520Y-100166607D01*
X148651025Y-100170445D01*
X148651025Y-100170448D01*
X148654928Y-100200094D01*
X148657162Y-100217068D01*
X148718476Y-100365093D01*
X148723503Y-100371644D01*
X148723504Y-100371646D01*
X148791520Y-100460286D01*
X148791526Y-100460292D01*
X148816013Y-100492204D01*
X148822568Y-100497234D01*
X148841379Y-100511669D01*
X148853770Y-100522536D01*
X149104595Y-100773361D01*
X149138621Y-100835673D01*
X149141500Y-100862456D01*
X149141500Y-101393647D01*
X149140422Y-101410090D01*
X149136250Y-101441783D01*
X149141500Y-101481663D01*
X149141500Y-101481668D01*
X149149744Y-101544288D01*
X149157162Y-101600634D01*
X149218476Y-101748659D01*
X149223503Y-101755210D01*
X149223504Y-101755212D01*
X149291520Y-101843852D01*
X149291526Y-101843858D01*
X149316013Y-101875770D01*
X149322568Y-101880800D01*
X149341379Y-101895235D01*
X149353770Y-101906102D01*
X149618422Y-102170754D01*
X149629289Y-102183145D01*
X149648750Y-102208507D01*
X149655300Y-102213533D01*
X149680662Y-102232994D01*
X149680665Y-102232997D01*
X149760181Y-102294012D01*
X149775861Y-102306044D01*
X149813504Y-102321636D01*
X149923887Y-102367358D01*
X149984377Y-102375321D01*
X150049303Y-102404043D01*
X150057026Y-102411148D01*
X150379115Y-102733237D01*
X150413141Y-102795549D01*
X150416020Y-102822332D01*
X150416020Y-103496241D01*
X150396018Y-103564362D01*
X150379115Y-103585336D01*
X150334856Y-103629595D01*
X150272544Y-103663621D01*
X150245761Y-103666500D01*
X149938237Y-103666501D01*
X149918366Y-103666501D01*
X149915508Y-103666764D01*
X149915499Y-103666764D01*
X149879996Y-103670026D01*
X149844938Y-103673247D01*
X149838560Y-103675246D01*
X149838559Y-103675246D01*
X149688550Y-103722256D01*
X149688548Y-103722257D01*
X149681301Y-103724528D01*
X149534619Y-103813361D01*
X149413361Y-103934619D01*
X149324528Y-104081301D01*
X149273247Y-104244938D01*
X149266500Y-104318365D01*
X149266501Y-104831634D01*
X149266765Y-104834504D01*
X149270205Y-104871957D01*
X149256518Y-104941622D01*
X149207340Y-104992828D01*
X149138285Y-105009318D01*
X149097332Y-104997713D01*
X149096705Y-104999385D01*
X148960316Y-104948255D01*
X148898134Y-104941500D01*
X147201866Y-104941500D01*
X147139684Y-104948255D01*
X147003295Y-104999385D01*
X146886739Y-105086739D01*
X146799385Y-105203295D01*
X146748255Y-105339684D01*
X146741500Y-105401866D01*
X146741500Y-107098134D01*
X146748255Y-107160316D01*
X146799385Y-107296705D01*
X146886739Y-107413261D01*
X147003295Y-107500615D01*
X147139684Y-107551745D01*
X147166914Y-107554703D01*
X147179108Y-107556028D01*
X147244670Y-107583270D01*
X147285096Y-107641634D01*
X147291500Y-107681291D01*
X147291500Y-112982930D01*
X147290067Y-113001880D01*
X147289183Y-113007693D01*
X147286801Y-113023349D01*
X147287394Y-113030641D01*
X147287394Y-113030644D01*
X147291085Y-113076018D01*
X147291500Y-113086233D01*
X147291500Y-113094293D01*
X147291925Y-113097937D01*
X147294789Y-113122507D01*
X147295222Y-113126882D01*
X147298645Y-113168958D01*
X147301140Y-113199637D01*
X147303396Y-113206601D01*
X147304587Y-113212560D01*
X147305971Y-113218415D01*
X147306818Y-113225681D01*
X147331735Y-113294327D01*
X147333152Y-113298455D01*
X147352542Y-113358307D01*
X147355649Y-113367899D01*
X147359445Y-113374154D01*
X147361951Y-113379628D01*
X147364670Y-113385058D01*
X147367167Y-113391937D01*
X147371180Y-113398057D01*
X147371180Y-113398058D01*
X147407186Y-113452976D01*
X147409523Y-113456680D01*
X147447405Y-113519107D01*
X147451121Y-113523315D01*
X147451122Y-113523316D01*
X147454803Y-113527484D01*
X147454776Y-113527508D01*
X147457429Y-113530500D01*
X147460132Y-113533733D01*
X147464144Y-113539852D01*
X147469456Y-113544884D01*
X147520383Y-113593128D01*
X147522825Y-113595506D01*
X148203724Y-114276405D01*
X148237750Y-114338717D01*
X148232685Y-114409532D01*
X148190138Y-114466368D01*
X148123618Y-114491179D01*
X148114629Y-114491500D01*
X141049367Y-114491500D01*
X141029982Y-114490000D01*
X141015149Y-114487690D01*
X141015145Y-114487690D01*
X141006276Y-114486309D01*
X140991019Y-114488304D01*
X140965698Y-114489047D01*
X140796715Y-114476961D01*
X140778936Y-114474404D01*
X140588607Y-114433001D01*
X140571359Y-114427937D01*
X140388850Y-114359864D01*
X140372498Y-114352396D01*
X140201542Y-114259048D01*
X140186418Y-114249328D01*
X140030486Y-114132598D01*
X140016900Y-114120825D01*
X139879175Y-113983100D01*
X139867402Y-113969514D01*
X139750672Y-113813582D01*
X139740952Y-113798458D01*
X139647604Y-113627502D01*
X139640136Y-113611150D01*
X139572063Y-113428641D01*
X139566999Y-113411392D01*
X139560029Y-113379352D01*
X139525596Y-113221064D01*
X139523038Y-113203278D01*
X139522054Y-113189511D01*
X139511719Y-113045011D01*
X139512805Y-113022245D01*
X139512334Y-113022203D01*
X139512770Y-113017345D01*
X139513576Y-113012552D01*
X139513729Y-113000000D01*
X139509773Y-112972376D01*
X139508500Y-112954514D01*
X139508500Y-111750000D01*
X140636526Y-111750000D01*
X140656391Y-112002403D01*
X140657545Y-112007210D01*
X140657546Y-112007216D01*
X140682230Y-112110032D01*
X140715495Y-112248591D01*
X140717388Y-112253162D01*
X140717389Y-112253164D01*
X140798196Y-112448248D01*
X140812384Y-112482502D01*
X140944672Y-112698376D01*
X141109102Y-112890898D01*
X141301624Y-113055328D01*
X141517498Y-113187616D01*
X141522068Y-113189509D01*
X141522072Y-113189511D01*
X141746836Y-113282611D01*
X141751409Y-113284505D01*
X141836032Y-113304821D01*
X141992784Y-113342454D01*
X141992790Y-113342455D01*
X141997597Y-113343609D01*
X142097416Y-113351465D01*
X142184345Y-113358307D01*
X142184352Y-113358307D01*
X142186801Y-113358500D01*
X142313199Y-113358500D01*
X142315648Y-113358307D01*
X142315655Y-113358307D01*
X142402584Y-113351465D01*
X142502403Y-113343609D01*
X142507210Y-113342455D01*
X142507216Y-113342454D01*
X142663968Y-113304821D01*
X142748591Y-113284505D01*
X142753164Y-113282611D01*
X142977928Y-113189511D01*
X142977932Y-113189509D01*
X142982502Y-113187616D01*
X143198376Y-113055328D01*
X143390898Y-112890898D01*
X143555328Y-112698376D01*
X143687616Y-112482502D01*
X143701805Y-112448248D01*
X143782611Y-112253164D01*
X143782612Y-112253162D01*
X143784505Y-112248591D01*
X143817770Y-112110032D01*
X143842454Y-112007216D01*
X143842455Y-112007210D01*
X143843609Y-112002403D01*
X143863474Y-111750000D01*
X143843609Y-111497597D01*
X143842133Y-111491446D01*
X143787536Y-111264033D01*
X143784505Y-111251409D01*
X143782611Y-111246836D01*
X143689511Y-111022072D01*
X143689509Y-111022068D01*
X143687616Y-111017498D01*
X143555328Y-110801624D01*
X143390898Y-110609102D01*
X143198376Y-110444672D01*
X142982502Y-110312384D01*
X142977932Y-110310491D01*
X142977928Y-110310489D01*
X142753164Y-110217389D01*
X142753162Y-110217388D01*
X142748591Y-110215495D01*
X142629071Y-110186801D01*
X142507216Y-110157546D01*
X142507210Y-110157545D01*
X142502403Y-110156391D01*
X142402584Y-110148535D01*
X142315655Y-110141693D01*
X142315648Y-110141693D01*
X142313199Y-110141500D01*
X142186801Y-110141500D01*
X142184352Y-110141693D01*
X142184345Y-110141693D01*
X142097416Y-110148535D01*
X141997597Y-110156391D01*
X141992790Y-110157545D01*
X141992784Y-110157546D01*
X141870929Y-110186801D01*
X141751409Y-110215495D01*
X141746838Y-110217388D01*
X141746836Y-110217389D01*
X141522072Y-110310489D01*
X141522068Y-110310491D01*
X141517498Y-110312384D01*
X141301624Y-110444672D01*
X141109102Y-110609102D01*
X140944672Y-110801624D01*
X140812384Y-111017498D01*
X140810491Y-111022068D01*
X140810489Y-111022072D01*
X140717389Y-111246836D01*
X140715495Y-111251409D01*
X140712464Y-111264033D01*
X140657868Y-111491446D01*
X140656391Y-111497597D01*
X140636526Y-111750000D01*
X139508500Y-111750000D01*
X139508500Y-107444186D01*
X139528502Y-107376065D01*
X139582158Y-107329572D01*
X139652432Y-107319468D01*
X139706771Y-107340973D01*
X139773251Y-107387523D01*
X139778233Y-107389846D01*
X139778238Y-107389849D01*
X139975775Y-107481961D01*
X139980757Y-107484284D01*
X139986065Y-107485706D01*
X139986067Y-107485707D01*
X140196598Y-107542119D01*
X140196600Y-107542119D01*
X140201913Y-107543543D01*
X140430000Y-107563498D01*
X140658087Y-107543543D01*
X140663400Y-107542119D01*
X140663402Y-107542119D01*
X140873933Y-107485707D01*
X140873935Y-107485706D01*
X140879243Y-107484284D01*
X140884225Y-107481961D01*
X141081762Y-107389849D01*
X141081767Y-107389846D01*
X141086749Y-107387523D01*
X141228458Y-107288297D01*
X141269789Y-107259357D01*
X141269792Y-107259355D01*
X141274300Y-107256198D01*
X141436198Y-107094300D01*
X141443761Y-107083500D01*
X141502412Y-106999737D01*
X141567523Y-106906749D01*
X141569846Y-106901767D01*
X141569849Y-106901762D01*
X141661961Y-106704225D01*
X141661961Y-106704224D01*
X141664284Y-106699243D01*
X141666887Y-106689531D01*
X141722119Y-106483402D01*
X141722119Y-106483400D01*
X141723543Y-106478087D01*
X141743498Y-106250000D01*
X141734552Y-106147751D01*
X141729245Y-106087087D01*
X141743234Y-106017482D01*
X141765671Y-105987010D01*
X143963431Y-103789250D01*
X143977843Y-103776864D01*
X143989438Y-103768331D01*
X143989443Y-103768326D01*
X143995338Y-103763988D01*
X144000077Y-103758410D01*
X144000080Y-103758407D01*
X144029555Y-103723712D01*
X144036485Y-103716196D01*
X144042180Y-103710501D01*
X144059801Y-103688229D01*
X144062592Y-103684825D01*
X144105111Y-103634777D01*
X144105112Y-103634775D01*
X144109853Y-103629195D01*
X144113181Y-103622679D01*
X144116540Y-103617642D01*
X144119714Y-103612503D01*
X144124254Y-103606764D01*
X144127354Y-103600131D01*
X144136224Y-103581152D01*
X144183187Y-103527907D01*
X144250373Y-103508500D01*
X145216502Y-103508500D01*
X145218950Y-103508307D01*
X145218958Y-103508307D01*
X145247421Y-103506067D01*
X145247426Y-103506066D01*
X145253831Y-103505562D01*
X145353769Y-103476528D01*
X145405988Y-103461357D01*
X145405990Y-103461356D01*
X145413601Y-103459145D01*
X145442411Y-103442107D01*
X145549980Y-103378491D01*
X145549983Y-103378489D01*
X145556807Y-103374453D01*
X145674453Y-103256807D01*
X145678489Y-103249983D01*
X145678491Y-103249980D01*
X145755108Y-103120427D01*
X145759145Y-103113601D01*
X145805562Y-102953831D01*
X145808500Y-102916502D01*
X145808500Y-102483498D01*
X145807789Y-102474466D01*
X145806067Y-102452579D01*
X145806066Y-102452574D01*
X145805562Y-102446169D01*
X145765771Y-102309205D01*
X145761357Y-102294012D01*
X145761356Y-102294010D01*
X145759145Y-102286399D01*
X145690753Y-102170754D01*
X145678491Y-102150020D01*
X145678489Y-102150017D01*
X145674453Y-102143193D01*
X145556807Y-102025547D01*
X145549983Y-102021511D01*
X145549980Y-102021509D01*
X145420427Y-101944892D01*
X145420428Y-101944892D01*
X145413601Y-101940855D01*
X145405990Y-101938644D01*
X145405988Y-101938643D01*
X145345204Y-101920984D01*
X145253831Y-101894438D01*
X145247426Y-101893934D01*
X145247421Y-101893933D01*
X145218958Y-101891693D01*
X145218950Y-101891693D01*
X145216502Y-101891500D01*
X144359020Y-101891500D01*
X144290899Y-101871498D01*
X144244406Y-101817842D01*
X144233020Y-101765500D01*
X144233020Y-101734500D01*
X144253022Y-101666379D01*
X144306678Y-101619886D01*
X144359020Y-101608500D01*
X145216502Y-101608500D01*
X145218950Y-101608307D01*
X145218958Y-101608307D01*
X145247421Y-101606067D01*
X145247426Y-101606066D01*
X145253831Y-101605562D01*
X145260007Y-101603768D01*
X145260011Y-101603767D01*
X145398602Y-101563503D01*
X145433754Y-101558500D01*
X145539032Y-101558500D01*
X145607153Y-101578502D01*
X145646175Y-101618196D01*
X145671248Y-101658713D01*
X145792298Y-101779552D01*
X145798528Y-101783392D01*
X145798529Y-101783393D01*
X145896612Y-101843852D01*
X145937899Y-101869302D01*
X146100243Y-101923149D01*
X146107080Y-101923849D01*
X146107082Y-101923850D01*
X146148401Y-101928083D01*
X146201268Y-101933500D01*
X146798732Y-101933500D01*
X146801978Y-101933163D01*
X146801982Y-101933163D01*
X146836083Y-101929625D01*
X146901019Y-101922887D01*
X146968846Y-101900258D01*
X147056324Y-101871073D01*
X147056326Y-101871072D01*
X147063268Y-101868756D01*
X147103513Y-101843852D01*
X147202485Y-101782606D01*
X147208713Y-101778752D01*
X147216971Y-101770480D01*
X147219599Y-101769042D01*
X147219623Y-101769023D01*
X147219626Y-101769027D01*
X147279254Y-101736402D01*
X147306142Y-101733500D01*
X147316133Y-101733500D01*
X147367382Y-101744393D01*
X147453210Y-101782606D01*
X147483248Y-101795980D01*
X147571508Y-101814740D01*
X147653311Y-101832128D01*
X147653315Y-101832128D01*
X147659768Y-101833500D01*
X147840232Y-101833500D01*
X147846685Y-101832128D01*
X147846689Y-101832128D01*
X147928492Y-101814740D01*
X148016752Y-101795980D01*
X148045023Y-101783393D01*
X148175585Y-101725263D01*
X148175587Y-101725262D01*
X148181615Y-101722578D01*
X148186957Y-101718697D01*
X148322269Y-101620387D01*
X148322271Y-101620385D01*
X148327613Y-101616504D01*
X148337465Y-101605562D01*
X148443948Y-101487301D01*
X148443949Y-101487300D01*
X148448367Y-101482393D01*
X148538599Y-101326107D01*
X148594365Y-101154475D01*
X148613229Y-100975000D01*
X148609207Y-100936732D01*
X148595055Y-100802089D01*
X148595055Y-100802088D01*
X148594365Y-100795525D01*
X148579563Y-100749967D01*
X148540641Y-100630178D01*
X148538599Y-100623893D01*
X148448367Y-100467607D01*
X148361964Y-100371646D01*
X148332035Y-100338407D01*
X148332034Y-100338406D01*
X148327613Y-100333496D01*
X148284167Y-100301930D01*
X148186957Y-100231303D01*
X148186956Y-100231302D01*
X148181615Y-100227422D01*
X148175590Y-100224740D01*
X148175584Y-100224736D01*
X148175295Y-100224608D01*
X148175155Y-100224489D01*
X148169862Y-100221433D01*
X148170421Y-100220465D01*
X148121198Y-100178629D01*
X148100547Y-100110703D01*
X148119898Y-100042394D01*
X148173107Y-99995391D01*
X148226541Y-99983500D01*
X148304572Y-99983500D01*
X148307818Y-99983163D01*
X148307822Y-99983163D01*
X148341603Y-99979658D01*
X148405982Y-99972978D01*
X148471453Y-99951135D01*
X148542402Y-99948551D01*
X148603486Y-99984735D01*
G37*
%TD.AperFunction*%
%TA.AperFunction,Conductor*%
G36*
X157127589Y-105166002D02*
G01*
X157160737Y-105199719D01*
X157161528Y-105199092D01*
X157166080Y-105204835D01*
X157169929Y-105211055D01*
X157289947Y-105330864D01*
X157296177Y-105334704D01*
X157296178Y-105334705D01*
X157327514Y-105354020D01*
X157434308Y-105419849D01*
X157441256Y-105422154D01*
X157441257Y-105422154D01*
X157588738Y-105471072D01*
X157588740Y-105471072D01*
X157595269Y-105473238D01*
X157695428Y-105483500D01*
X158304572Y-105483500D01*
X158307818Y-105483163D01*
X158307822Y-105483163D01*
X158341603Y-105479658D01*
X158405982Y-105472978D01*
X158566849Y-105419308D01*
X158573070Y-105415458D01*
X158573077Y-105415455D01*
X158683609Y-105347056D01*
X158752061Y-105328218D01*
X158816026Y-105346939D01*
X158830281Y-105355726D01*
X158877773Y-105408497D01*
X158889086Y-105446541D01*
X158891500Y-105464880D01*
X158891500Y-105464885D01*
X158894643Y-105488758D01*
X158907162Y-105583851D01*
X158968476Y-105731876D01*
X158973503Y-105738427D01*
X158973504Y-105738429D01*
X159041520Y-105827069D01*
X159041526Y-105827075D01*
X159066013Y-105858987D01*
X159072568Y-105864017D01*
X159091379Y-105878452D01*
X159103770Y-105889319D01*
X159379595Y-106165144D01*
X159413621Y-106227456D01*
X159416500Y-106254239D01*
X159416501Y-106426680D01*
X159416501Y-106581634D01*
X159416764Y-106584492D01*
X159416764Y-106584501D01*
X159420026Y-106620004D01*
X159423247Y-106655062D01*
X159425246Y-106661440D01*
X159425246Y-106661441D01*
X159434049Y-106689531D01*
X159435333Y-106760516D01*
X159398036Y-106820926D01*
X159334000Y-106851583D01*
X159263554Y-106842752D01*
X159247701Y-106834471D01*
X159246927Y-106833994D01*
X159246925Y-106833993D01*
X159240692Y-106830151D01*
X159233743Y-106827846D01*
X159086262Y-106778928D01*
X159086260Y-106778928D01*
X159079731Y-106776762D01*
X158979572Y-106766500D01*
X158445428Y-106766500D01*
X158442182Y-106766837D01*
X158442178Y-106766837D01*
X158408397Y-106770342D01*
X158344018Y-106777022D01*
X158183151Y-106830692D01*
X158038945Y-106919929D01*
X158010147Y-106948778D01*
X157947866Y-106982857D01*
X157877046Y-106977855D01*
X157869734Y-106974871D01*
X157802006Y-106944716D01*
X157772783Y-106931705D01*
X157772781Y-106931705D01*
X157766752Y-106929020D01*
X157661974Y-106906749D01*
X157596689Y-106892872D01*
X157596685Y-106892872D01*
X157590232Y-106891500D01*
X157409768Y-106891500D01*
X157403315Y-106892872D01*
X157403311Y-106892872D01*
X157338026Y-106906749D01*
X157233248Y-106929020D01*
X157227219Y-106931704D01*
X157227217Y-106931705D01*
X157074416Y-106999737D01*
X157074414Y-106999738D01*
X157068386Y-107002422D01*
X157063045Y-107006302D01*
X157063044Y-107006303D01*
X156927731Y-107104613D01*
X156927729Y-107104615D01*
X156922387Y-107108496D01*
X156917966Y-107113406D01*
X156917965Y-107113407D01*
X156853846Y-107184619D01*
X156801633Y-107242607D01*
X156766251Y-107303891D01*
X156716623Y-107389849D01*
X156711401Y-107398893D01*
X156709359Y-107405178D01*
X156661698Y-107551866D01*
X156655635Y-107570525D01*
X156636771Y-107750000D01*
X156637461Y-107756565D01*
X156654907Y-107922544D01*
X156655635Y-107929475D01*
X156657675Y-107935753D01*
X156657675Y-107935754D01*
X156662802Y-107951533D01*
X156711401Y-108101107D01*
X156714704Y-108106829D01*
X156714705Y-108106830D01*
X156738409Y-108147886D01*
X156801633Y-108257393D01*
X156806051Y-108262300D01*
X156806052Y-108262301D01*
X156856833Y-108318699D01*
X156922387Y-108391504D01*
X156927729Y-108395385D01*
X156927731Y-108395387D01*
X157024952Y-108466022D01*
X157068385Y-108497578D01*
X157074413Y-108500262D01*
X157074415Y-108500263D01*
X157151580Y-108534619D01*
X157233248Y-108570980D01*
X157306919Y-108586639D01*
X157403311Y-108607128D01*
X157403315Y-108607128D01*
X157409768Y-108608500D01*
X157590232Y-108608500D01*
X157596685Y-108607128D01*
X157596689Y-108607128D01*
X157654780Y-108594780D01*
X157725571Y-108600182D01*
X157782204Y-108642999D01*
X157806697Y-108709637D01*
X157801211Y-108755704D01*
X157773247Y-108844938D01*
X157766500Y-108918365D01*
X157766501Y-109581634D01*
X157766764Y-109584492D01*
X157766764Y-109584501D01*
X157770026Y-109620004D01*
X157773247Y-109655062D01*
X157775246Y-109661440D01*
X157775246Y-109661441D01*
X157820890Y-109807089D01*
X157824528Y-109818699D01*
X157898276Y-109940472D01*
X157916500Y-110005743D01*
X157916500Y-110115500D01*
X157896498Y-110183621D01*
X157842842Y-110230114D01*
X157790500Y-110241500D01*
X157783498Y-110241500D01*
X157781050Y-110241693D01*
X157781042Y-110241693D01*
X157752579Y-110243933D01*
X157752574Y-110243934D01*
X157746169Y-110244438D01*
X157649113Y-110272635D01*
X157594012Y-110288643D01*
X157594010Y-110288644D01*
X157586399Y-110290855D01*
X157579572Y-110294892D01*
X157579573Y-110294892D01*
X157450020Y-110371509D01*
X157450017Y-110371511D01*
X157443193Y-110375547D01*
X157325547Y-110493193D01*
X157321511Y-110500017D01*
X157321509Y-110500020D01*
X157309031Y-110521120D01*
X157240855Y-110636399D01*
X157194438Y-110796169D01*
X157193934Y-110802574D01*
X157193933Y-110802579D01*
X157191693Y-110831042D01*
X157191500Y-110833498D01*
X157191500Y-111266502D01*
X157194438Y-111303831D01*
X157196233Y-111310008D01*
X157235027Y-111443539D01*
X157240855Y-111463601D01*
X157244892Y-111470427D01*
X157321509Y-111599980D01*
X157321511Y-111599983D01*
X157325547Y-111606807D01*
X157443193Y-111724453D01*
X157450017Y-111728489D01*
X157450020Y-111728491D01*
X157543225Y-111783612D01*
X157586399Y-111809145D01*
X157594010Y-111811356D01*
X157594012Y-111811357D01*
X157641145Y-111825050D01*
X157746169Y-111855562D01*
X157752574Y-111856066D01*
X157752579Y-111856067D01*
X157781042Y-111858307D01*
X157781050Y-111858307D01*
X157783498Y-111858500D01*
X158941502Y-111858500D01*
X158943950Y-111858307D01*
X158943958Y-111858307D01*
X158972421Y-111856067D01*
X158972426Y-111856066D01*
X158978831Y-111855562D01*
X159083855Y-111825050D01*
X159130988Y-111811357D01*
X159130990Y-111811356D01*
X159138601Y-111809145D01*
X159181775Y-111783612D01*
X159274980Y-111728491D01*
X159274983Y-111728489D01*
X159281807Y-111724453D01*
X159399453Y-111606807D01*
X159401706Y-111602998D01*
X159457996Y-111562345D01*
X159528888Y-111558494D01*
X159590609Y-111593582D01*
X159597276Y-111601276D01*
X159600547Y-111606807D01*
X159718193Y-111724453D01*
X159725017Y-111728489D01*
X159725020Y-111728491D01*
X159818225Y-111783612D01*
X159861399Y-111809145D01*
X159869010Y-111811356D01*
X159869012Y-111811357D01*
X159916145Y-111825050D01*
X160021169Y-111855562D01*
X160027574Y-111856066D01*
X160027579Y-111856067D01*
X160056042Y-111858307D01*
X160056050Y-111858307D01*
X160058498Y-111858500D01*
X160493550Y-111858500D01*
X160561671Y-111878502D01*
X160608164Y-111932158D01*
X160618268Y-112002432D01*
X160588774Y-112067012D01*
X160582645Y-112073595D01*
X160551645Y-112104595D01*
X160489333Y-112138621D01*
X160462550Y-112141500D01*
X160058498Y-112141500D01*
X160056050Y-112141693D01*
X160056042Y-112141693D01*
X160027579Y-112143933D01*
X160027574Y-112143934D01*
X160021169Y-112144438D01*
X159928027Y-112171498D01*
X159869012Y-112188643D01*
X159869010Y-112188644D01*
X159861399Y-112190855D01*
X159854572Y-112194892D01*
X159854573Y-112194892D01*
X159725020Y-112271509D01*
X159725017Y-112271511D01*
X159718193Y-112275547D01*
X159600547Y-112393193D01*
X159598294Y-112397002D01*
X159542004Y-112437655D01*
X159471112Y-112441506D01*
X159409391Y-112406418D01*
X159402724Y-112398724D01*
X159399453Y-112393193D01*
X159281807Y-112275547D01*
X159274983Y-112271511D01*
X159274980Y-112271509D01*
X159145427Y-112194892D01*
X159145428Y-112194892D01*
X159138601Y-112190855D01*
X159130990Y-112188644D01*
X159130988Y-112188643D01*
X159071973Y-112171498D01*
X158978831Y-112144438D01*
X158972426Y-112143934D01*
X158972421Y-112143933D01*
X158943958Y-112141693D01*
X158943950Y-112141693D01*
X158941502Y-112141500D01*
X157783498Y-112141500D01*
X157781050Y-112141693D01*
X157781042Y-112141693D01*
X157752579Y-112143933D01*
X157752574Y-112143934D01*
X157746169Y-112144438D01*
X157739993Y-112146232D01*
X157739989Y-112146233D01*
X157601398Y-112186497D01*
X157566246Y-112191500D01*
X157460968Y-112191500D01*
X157392847Y-112171498D01*
X157353824Y-112131803D01*
X157332606Y-112097515D01*
X157328752Y-112091287D01*
X157207702Y-111970448D01*
X157174562Y-111950020D01*
X157068331Y-111884538D01*
X157068329Y-111884537D01*
X157062101Y-111880698D01*
X156899757Y-111826851D01*
X156892920Y-111826151D01*
X156892918Y-111826150D01*
X156847619Y-111821509D01*
X156798732Y-111816500D01*
X156201268Y-111816500D01*
X156198022Y-111816837D01*
X156198018Y-111816837D01*
X156163917Y-111820375D01*
X156098981Y-111827113D01*
X156092440Y-111829295D01*
X156092441Y-111829295D01*
X155943676Y-111878927D01*
X155943674Y-111878928D01*
X155936732Y-111881244D01*
X155930508Y-111885096D01*
X155930507Y-111885096D01*
X155857958Y-111929991D01*
X155791287Y-111971248D01*
X155670448Y-112092298D01*
X155666609Y-112098526D01*
X155665918Y-112099401D01*
X155608002Y-112140465D01*
X155537079Y-112143697D01*
X155475667Y-112108072D01*
X155458583Y-112085449D01*
X155447680Y-112067012D01*
X155409470Y-112002403D01*
X155378491Y-111950020D01*
X155378489Y-111950017D01*
X155374453Y-111943193D01*
X155345405Y-111914145D01*
X155311379Y-111851833D01*
X155308500Y-111825050D01*
X155308500Y-110498136D01*
X155309578Y-110481690D01*
X155312672Y-110458188D01*
X155313750Y-110450000D01*
X155308500Y-110410122D01*
X155308500Y-110410115D01*
X155292838Y-110291150D01*
X155287928Y-110279295D01*
X155272272Y-110241500D01*
X155231524Y-110143125D01*
X155188181Y-110086639D01*
X155158477Y-110047928D01*
X155158474Y-110047925D01*
X155133987Y-110016013D01*
X155113119Y-110000000D01*
X155108621Y-109996548D01*
X155096230Y-109985681D01*
X154464315Y-109353766D01*
X154453448Y-109341375D01*
X154439013Y-109322563D01*
X154433987Y-109316013D01*
X154402075Y-109291526D01*
X154402072Y-109291523D01*
X154381695Y-109275887D01*
X154313429Y-109223504D01*
X154313427Y-109223503D01*
X154306876Y-109218476D01*
X154158851Y-109157162D01*
X154150664Y-109156084D01*
X154150663Y-109156084D01*
X154139458Y-109154609D01*
X154108262Y-109150502D01*
X154039885Y-109141500D01*
X154039882Y-109141500D01*
X154039874Y-109141499D01*
X154008189Y-109137328D01*
X154000000Y-109136250D01*
X153968307Y-109140422D01*
X153951864Y-109141500D01*
X152479239Y-109141500D01*
X152411118Y-109121498D01*
X152390144Y-109104595D01*
X151270405Y-107984856D01*
X151236379Y-107922544D01*
X151233500Y-107895761D01*
X151233499Y-107571249D01*
X151233499Y-107568366D01*
X151233121Y-107564246D01*
X151227364Y-107501592D01*
X151226753Y-107494938D01*
X151212261Y-107448694D01*
X151177744Y-107338550D01*
X151177743Y-107338548D01*
X151175472Y-107331301D01*
X151118239Y-107236797D01*
X151100060Y-107168169D01*
X151121870Y-107100605D01*
X151176746Y-107055559D01*
X151247264Y-107047332D01*
X151263694Y-107051293D01*
X151302204Y-107063361D01*
X151344938Y-107076753D01*
X151418365Y-107083500D01*
X151421263Y-107083500D01*
X151750860Y-107083499D01*
X152081634Y-107083499D01*
X152084492Y-107083236D01*
X152084501Y-107083236D01*
X152120004Y-107079974D01*
X152155062Y-107076753D01*
X152222692Y-107055559D01*
X152311450Y-107027744D01*
X152311452Y-107027743D01*
X152318699Y-107025472D01*
X152434730Y-106955202D01*
X152503358Y-106937023D01*
X152565270Y-106955202D01*
X152681301Y-107025472D01*
X152688548Y-107027743D01*
X152688550Y-107027744D01*
X152751056Y-107047332D01*
X152844938Y-107076753D01*
X152918365Y-107083500D01*
X152921263Y-107083500D01*
X153250860Y-107083499D01*
X153581634Y-107083499D01*
X153584492Y-107083236D01*
X153584501Y-107083236D01*
X153620004Y-107079974D01*
X153655062Y-107076753D01*
X153722692Y-107055559D01*
X153811450Y-107027744D01*
X153811452Y-107027743D01*
X153818699Y-107025472D01*
X153934730Y-106955202D01*
X154003358Y-106937023D01*
X154065270Y-106955202D01*
X154181301Y-107025472D01*
X154188548Y-107027743D01*
X154188550Y-107027744D01*
X154251056Y-107047332D01*
X154344938Y-107076753D01*
X154418365Y-107083500D01*
X154421263Y-107083500D01*
X154750860Y-107083499D01*
X155081634Y-107083499D01*
X155084492Y-107083236D01*
X155084501Y-107083236D01*
X155120004Y-107079974D01*
X155155062Y-107076753D01*
X155222692Y-107055559D01*
X155311450Y-107027744D01*
X155311452Y-107027743D01*
X155318699Y-107025472D01*
X155465381Y-106936639D01*
X155586639Y-106815381D01*
X155675472Y-106668699D01*
X155726753Y-106505062D01*
X155733500Y-106431635D01*
X155733499Y-106104240D01*
X155753501Y-106036120D01*
X155770404Y-106015145D01*
X156602644Y-105182905D01*
X156664956Y-105148879D01*
X156691739Y-105146000D01*
X157059468Y-105146000D01*
X157127589Y-105166002D01*
G37*
%TD.AperFunction*%
%TA.AperFunction,Conductor*%
G36*
X149229447Y-107529516D02*
G01*
X149263576Y-107591771D01*
X149266500Y-107618760D01*
X149266501Y-107854144D01*
X149266501Y-108081634D01*
X149266764Y-108084492D01*
X149266764Y-108084501D01*
X149268816Y-108106830D01*
X149273247Y-108155062D01*
X149324528Y-108318699D01*
X149413361Y-108465381D01*
X149534619Y-108586639D01*
X149681301Y-108675472D01*
X149688548Y-108677743D01*
X149688550Y-108677744D01*
X149754836Y-108698517D01*
X149844938Y-108726753D01*
X149918365Y-108733500D01*
X149938334Y-108733500D01*
X150245760Y-108733499D01*
X150313880Y-108753501D01*
X150334855Y-108770404D01*
X151710685Y-110146234D01*
X151721552Y-110158625D01*
X151741013Y-110183987D01*
X151747563Y-110189013D01*
X151772925Y-110208474D01*
X151772928Y-110208477D01*
X151861449Y-110276402D01*
X151868124Y-110281524D01*
X152016149Y-110342838D01*
X152024336Y-110343916D01*
X152024337Y-110343916D01*
X152035542Y-110345391D01*
X152066738Y-110349498D01*
X152135115Y-110358500D01*
X152135118Y-110358500D01*
X152135126Y-110358501D01*
X152166811Y-110362672D01*
X152175000Y-110363750D01*
X152206693Y-110359578D01*
X152223136Y-110358500D01*
X152815500Y-110358500D01*
X152883621Y-110378502D01*
X152930114Y-110432158D01*
X152941500Y-110484500D01*
X152941500Y-111565500D01*
X152921498Y-111633621D01*
X152867842Y-111680114D01*
X152815500Y-111691500D01*
X152583498Y-111691500D01*
X152581050Y-111691693D01*
X152581042Y-111691693D01*
X152552579Y-111693933D01*
X152552574Y-111693934D01*
X152546169Y-111694438D01*
X152455116Y-111720891D01*
X152394012Y-111738643D01*
X152394010Y-111738644D01*
X152386399Y-111740855D01*
X152379572Y-111744892D01*
X152379573Y-111744892D01*
X152250020Y-111821509D01*
X152250017Y-111821511D01*
X152243193Y-111825547D01*
X152125547Y-111943193D01*
X152121511Y-111950017D01*
X152121509Y-111950020D01*
X152101035Y-111984640D01*
X152049142Y-112033092D01*
X151992582Y-112046500D01*
X151755743Y-112046500D01*
X151690472Y-112028276D01*
X151568699Y-111954528D01*
X151561452Y-111952257D01*
X151561450Y-111952256D01*
X151490402Y-111929991D01*
X151405062Y-111903247D01*
X151331635Y-111896500D01*
X151328737Y-111896500D01*
X150999140Y-111896501D01*
X150668366Y-111896501D01*
X150665508Y-111896764D01*
X150665499Y-111896764D01*
X150629996Y-111900026D01*
X150594938Y-111903247D01*
X150588561Y-111905245D01*
X150588558Y-111905246D01*
X150513694Y-111928707D01*
X150442709Y-111929991D01*
X150382298Y-111892694D01*
X150351642Y-111828657D01*
X150360474Y-111758212D01*
X150368239Y-111743202D01*
X150369661Y-111740855D01*
X150425472Y-111648699D01*
X150436843Y-111612416D01*
X150453741Y-111558494D01*
X150476753Y-111485062D01*
X150483500Y-111411635D01*
X150483499Y-110898366D01*
X150476753Y-110824938D01*
X150430390Y-110676994D01*
X150427744Y-110668550D01*
X150427743Y-110668548D01*
X150425472Y-110661301D01*
X150336639Y-110514619D01*
X150307378Y-110485358D01*
X150273352Y-110423046D01*
X150278417Y-110352231D01*
X150282795Y-110342940D01*
X150282611Y-110342858D01*
X150285295Y-110336830D01*
X150288599Y-110331107D01*
X150326163Y-110215495D01*
X150342325Y-110165754D01*
X150342325Y-110165753D01*
X150344365Y-110159475D01*
X150346084Y-110143125D01*
X150362539Y-109986565D01*
X150363229Y-109980000D01*
X150344365Y-109800525D01*
X150288599Y-109628893D01*
X150198367Y-109472607D01*
X150176332Y-109448134D01*
X150082035Y-109343407D01*
X150082034Y-109343406D01*
X150077613Y-109338496D01*
X150055684Y-109322563D01*
X149936957Y-109236303D01*
X149936956Y-109236302D01*
X149931615Y-109232422D01*
X149925587Y-109229738D01*
X149925585Y-109229737D01*
X149772783Y-109161705D01*
X149772781Y-109161705D01*
X149766752Y-109159020D01*
X149664698Y-109137328D01*
X149596689Y-109122872D01*
X149596685Y-109122872D01*
X149590232Y-109121500D01*
X149409768Y-109121500D01*
X149403315Y-109122872D01*
X149403311Y-109122872D01*
X149335302Y-109137328D01*
X149233248Y-109159020D01*
X149227219Y-109161704D01*
X149227217Y-109161705D01*
X149074416Y-109229737D01*
X149074414Y-109229738D01*
X149068386Y-109232422D01*
X149063044Y-109236303D01*
X149063039Y-109236306D01*
X149008560Y-109275887D01*
X148941693Y-109299746D01*
X148872541Y-109283665D01*
X148823061Y-109232751D01*
X148808500Y-109173951D01*
X148808500Y-107681291D01*
X148828502Y-107613170D01*
X148882158Y-107566677D01*
X148920892Y-107556028D01*
X148933086Y-107554703D01*
X148960316Y-107551745D01*
X149096270Y-107500778D01*
X149167078Y-107495595D01*
X149229447Y-107529516D01*
G37*
%TD.AperFunction*%
%TA.AperFunction,Conductor*%
G36*
X141601398Y-101563503D02*
G01*
X141739989Y-101603767D01*
X141739993Y-101603768D01*
X141746169Y-101605562D01*
X141752574Y-101606066D01*
X141752579Y-101606067D01*
X141781042Y-101608307D01*
X141781050Y-101608307D01*
X141783498Y-101608500D01*
X142590020Y-101608500D01*
X142658141Y-101628502D01*
X142704634Y-101682158D01*
X142716020Y-101734500D01*
X142716020Y-101765500D01*
X142696018Y-101833621D01*
X142642362Y-101880114D01*
X142590020Y-101891500D01*
X141783498Y-101891500D01*
X141781050Y-101891693D01*
X141781042Y-101891693D01*
X141752579Y-101893933D01*
X141752574Y-101893934D01*
X141746169Y-101894438D01*
X141654796Y-101920984D01*
X141594012Y-101938643D01*
X141594010Y-101938644D01*
X141586399Y-101940855D01*
X141579572Y-101944892D01*
X141579573Y-101944892D01*
X141450020Y-102021509D01*
X141450017Y-102021511D01*
X141443193Y-102025547D01*
X141325547Y-102143193D01*
X141321511Y-102150017D01*
X141321509Y-102150020D01*
X141309247Y-102170754D01*
X141240855Y-102286399D01*
X141238644Y-102294010D01*
X141238643Y-102294012D01*
X141234229Y-102309205D01*
X141194438Y-102446169D01*
X141193934Y-102452574D01*
X141193933Y-102452579D01*
X141192211Y-102474466D01*
X141191500Y-102483498D01*
X141191500Y-102916502D01*
X141194438Y-102953831D01*
X141240855Y-103113601D01*
X141244892Y-103120427D01*
X141321509Y-103249980D01*
X141321511Y-103249983D01*
X141325547Y-103256807D01*
X141443193Y-103374453D01*
X141450017Y-103378489D01*
X141450020Y-103378491D01*
X141557589Y-103442107D01*
X141586399Y-103459145D01*
X141594010Y-103461356D01*
X141594012Y-103461357D01*
X141646231Y-103476528D01*
X141746169Y-103505562D01*
X141752574Y-103506066D01*
X141752579Y-103506067D01*
X141781042Y-103508307D01*
X141781050Y-103508307D01*
X141783498Y-103508500D01*
X141794629Y-103508500D01*
X141862750Y-103528502D01*
X141909243Y-103582158D01*
X141919347Y-103652432D01*
X141889853Y-103717012D01*
X141883724Y-103723595D01*
X140692990Y-104914329D01*
X140630678Y-104948355D01*
X140592913Y-104950755D01*
X140435475Y-104936981D01*
X140430000Y-104936502D01*
X140201913Y-104956457D01*
X140196600Y-104957881D01*
X140196598Y-104957881D01*
X139986067Y-105014293D01*
X139986065Y-105014294D01*
X139980757Y-105015716D01*
X139975776Y-105018039D01*
X139975775Y-105018039D01*
X139778238Y-105110151D01*
X139778233Y-105110154D01*
X139773251Y-105112477D01*
X139721264Y-105148879D01*
X139706771Y-105159027D01*
X139639497Y-105181715D01*
X139570637Y-105164430D01*
X139522052Y-105112660D01*
X139508500Y-105055814D01*
X139508500Y-101800065D01*
X139528502Y-101731944D01*
X139582158Y-101685451D01*
X139652432Y-101675347D01*
X139717012Y-101704841D01*
X139723518Y-101710892D01*
X139737914Y-101725263D01*
X139792298Y-101779552D01*
X139798528Y-101783392D01*
X139798529Y-101783393D01*
X139896612Y-101843852D01*
X139937899Y-101869302D01*
X140100243Y-101923149D01*
X140107080Y-101923849D01*
X140107082Y-101923850D01*
X140148401Y-101928083D01*
X140201268Y-101933500D01*
X140798732Y-101933500D01*
X140801978Y-101933163D01*
X140801982Y-101933163D01*
X140836083Y-101929625D01*
X140901019Y-101922887D01*
X140968846Y-101900258D01*
X141056324Y-101871073D01*
X141056326Y-101871072D01*
X141063268Y-101868756D01*
X141103513Y-101843852D01*
X141202485Y-101782606D01*
X141208713Y-101778752D01*
X141329552Y-101657702D01*
X141353788Y-101618384D01*
X141406560Y-101570891D01*
X141461048Y-101558500D01*
X141566246Y-101558500D01*
X141601398Y-101563503D01*
G37*
%TD.AperFunction*%
%TA.AperFunction,Conductor*%
G36*
X146958621Y-94128502D02*
G01*
X147005114Y-94182158D01*
X147016500Y-94234500D01*
X147016501Y-94409229D01*
X147016501Y-94581634D01*
X147016764Y-94584492D01*
X147016764Y-94584501D01*
X147018427Y-94602598D01*
X147023247Y-94655062D01*
X147025246Y-94661440D01*
X147025246Y-94661441D01*
X147066012Y-94791523D01*
X147074528Y-94818699D01*
X147163361Y-94965381D01*
X147266227Y-95068247D01*
X147300253Y-95130559D01*
X147295188Y-95201374D01*
X147266306Y-95246359D01*
X147226936Y-95285799D01*
X147220448Y-95292298D01*
X147216608Y-95298528D01*
X147216607Y-95298529D01*
X147144988Y-95414717D01*
X147130698Y-95437899D01*
X147076851Y-95600243D01*
X147076151Y-95607080D01*
X147076150Y-95607082D01*
X147072624Y-95641500D01*
X147066500Y-95701268D01*
X147066500Y-96298732D01*
X147077113Y-96401019D01*
X147079295Y-96407559D01*
X147117634Y-96522473D01*
X147131244Y-96563268D01*
X147135096Y-96569492D01*
X147135096Y-96569493D01*
X147202621Y-96678612D01*
X147221459Y-96747064D01*
X147202737Y-96811030D01*
X147130698Y-96927899D01*
X147076851Y-97090243D01*
X147066500Y-97191268D01*
X147066500Y-97788732D01*
X147077113Y-97891019D01*
X147079295Y-97897560D01*
X147080750Y-97904296D01*
X147079452Y-97904576D01*
X147081774Y-97968172D01*
X147045594Y-98029259D01*
X146982133Y-98061088D01*
X146919996Y-98056701D01*
X146836265Y-98028929D01*
X146836263Y-98028929D01*
X146829731Y-98026762D01*
X146729572Y-98016500D01*
X146195428Y-98016500D01*
X146192182Y-98016837D01*
X146192178Y-98016837D01*
X146158650Y-98020316D01*
X146094018Y-98027022D01*
X145933151Y-98080692D01*
X145788945Y-98169929D01*
X145669136Y-98289947D01*
X145665296Y-98296177D01*
X145665295Y-98296178D01*
X145645980Y-98327514D01*
X145580151Y-98434308D01*
X145577846Y-98441256D01*
X145577846Y-98441257D01*
X145549377Y-98527089D01*
X145526762Y-98595269D01*
X145516500Y-98695428D01*
X145516500Y-99304572D01*
X145516837Y-99307818D01*
X145516837Y-99307822D01*
X145520296Y-99341156D01*
X145507431Y-99410977D01*
X145484064Y-99443255D01*
X144972724Y-99954595D01*
X144910412Y-99988621D01*
X144883629Y-99991500D01*
X144058498Y-99991500D01*
X144056050Y-99991693D01*
X144056042Y-99991693D01*
X144027579Y-99993933D01*
X144027574Y-99993934D01*
X144021169Y-99994438D01*
X143931689Y-100020434D01*
X143869012Y-100038643D01*
X143869010Y-100038644D01*
X143861399Y-100040855D01*
X143839639Y-100053724D01*
X143725020Y-100121509D01*
X143725017Y-100121511D01*
X143718193Y-100125547D01*
X143666889Y-100176851D01*
X143604577Y-100210877D01*
X143533762Y-100205812D01*
X143496215Y-100183782D01*
X143479292Y-100169405D01*
X143473715Y-100164667D01*
X143467200Y-100161340D01*
X143462150Y-100157972D01*
X143457021Y-100154805D01*
X143451284Y-100150266D01*
X143385125Y-100119345D01*
X143381225Y-100117439D01*
X143379386Y-100116500D01*
X143316192Y-100084231D01*
X143309084Y-100082492D01*
X143303441Y-100080393D01*
X143297678Y-100078476D01*
X143291050Y-100075378D01*
X143219583Y-100060513D01*
X143215299Y-100059543D01*
X143209901Y-100058222D01*
X143144390Y-100042192D01*
X143144421Y-100042064D01*
X143137561Y-100040553D01*
X143130987Y-100038643D01*
X142978831Y-99994438D01*
X142972426Y-99993934D01*
X142972421Y-99993933D01*
X142943958Y-99991693D01*
X142943950Y-99991693D01*
X142941502Y-99991500D01*
X141783498Y-99991500D01*
X141781050Y-99991693D01*
X141781042Y-99991693D01*
X141752579Y-99993933D01*
X141752574Y-99993934D01*
X141746169Y-99994438D01*
X141739993Y-99996232D01*
X141739989Y-99996233D01*
X141601398Y-100036497D01*
X141566246Y-100041500D01*
X140964274Y-100041500D01*
X140924607Y-100035093D01*
X140906284Y-100029016D01*
X140906285Y-100029016D01*
X140899757Y-100026851D01*
X140892924Y-100026151D01*
X140892920Y-100026150D01*
X140839127Y-100020639D01*
X140798732Y-100016500D01*
X140201268Y-100016500D01*
X140198022Y-100016837D01*
X140198018Y-100016837D01*
X140163917Y-100020375D01*
X140098981Y-100027113D01*
X140075062Y-100035093D01*
X139943676Y-100078927D01*
X139943674Y-100078928D01*
X139936732Y-100081244D01*
X139930508Y-100085096D01*
X139930507Y-100085096D01*
X139889127Y-100110703D01*
X139791287Y-100171248D01*
X139786114Y-100176430D01*
X139723673Y-100238980D01*
X139661391Y-100273059D01*
X139590570Y-100268056D01*
X139533698Y-100225559D01*
X139508829Y-100159060D01*
X139508500Y-100149962D01*
X139508500Y-96992575D01*
X141936404Y-96992575D01*
X141943226Y-97067540D01*
X141954487Y-97191268D01*
X141955218Y-97199303D01*
X141956956Y-97205209D01*
X141956957Y-97205213D01*
X141989647Y-97316283D01*
X142013827Y-97398440D01*
X142109999Y-97582400D01*
X142240071Y-97744177D01*
X142244788Y-97748135D01*
X142244790Y-97748137D01*
X142297043Y-97791982D01*
X142399089Y-97877609D01*
X142404481Y-97880573D01*
X142404485Y-97880576D01*
X142528266Y-97948625D01*
X142580995Y-97977613D01*
X142778861Y-98040379D01*
X142784978Y-98041065D01*
X142784982Y-98041066D01*
X142857912Y-98049246D01*
X142940413Y-98058500D01*
X143052237Y-98058500D01*
X143055293Y-98058200D01*
X143055300Y-98058200D01*
X143200466Y-98043966D01*
X143200469Y-98043965D01*
X143206592Y-98043365D01*
X143355281Y-97998474D01*
X143399407Y-97985152D01*
X143399410Y-97985151D01*
X143405315Y-97983368D01*
X143412635Y-97979476D01*
X143583153Y-97888809D01*
X143583155Y-97888808D01*
X143588599Y-97885913D01*
X143703770Y-97791982D01*
X143744689Y-97758610D01*
X143744692Y-97758607D01*
X143749464Y-97754715D01*
X143755369Y-97747578D01*
X143877855Y-97599518D01*
X143881783Y-97594770D01*
X143885876Y-97587201D01*
X143977584Y-97417590D01*
X143977586Y-97417585D01*
X143980514Y-97412170D01*
X144041898Y-97213871D01*
X144043936Y-97194485D01*
X144062952Y-97013554D01*
X144062952Y-97013552D01*
X144063596Y-97007425D01*
X144047149Y-96826704D01*
X144045341Y-96806836D01*
X144045340Y-96806833D01*
X144044782Y-96800697D01*
X144042298Y-96792255D01*
X143987912Y-96607469D01*
X143986173Y-96601560D01*
X143890001Y-96417600D01*
X143759929Y-96255823D01*
X143747371Y-96245285D01*
X143622943Y-96140878D01*
X143600911Y-96122391D01*
X143595519Y-96119427D01*
X143595515Y-96119424D01*
X143424402Y-96025354D01*
X143419005Y-96022387D01*
X143221139Y-95959621D01*
X143215022Y-95958935D01*
X143215018Y-95958934D01*
X143138402Y-95950341D01*
X143059587Y-95941500D01*
X142947763Y-95941500D01*
X142944707Y-95941800D01*
X142944700Y-95941800D01*
X142799534Y-95956034D01*
X142799531Y-95956035D01*
X142793408Y-95956635D01*
X142674261Y-95992607D01*
X142600593Y-96014848D01*
X142600590Y-96014849D01*
X142594685Y-96016632D01*
X142589240Y-96019527D01*
X142589238Y-96019528D01*
X142416847Y-96111191D01*
X142416845Y-96111192D01*
X142411401Y-96114087D01*
X142396365Y-96126350D01*
X142255311Y-96241390D01*
X142255308Y-96241393D01*
X142250536Y-96245285D01*
X142246608Y-96250033D01*
X142246607Y-96250034D01*
X142182861Y-96327089D01*
X142118217Y-96405230D01*
X142115288Y-96410647D01*
X142115286Y-96410650D01*
X142022416Y-96582410D01*
X142022414Y-96582415D01*
X142019486Y-96587830D01*
X141958102Y-96786129D01*
X141957458Y-96792254D01*
X141957458Y-96792255D01*
X141937986Y-96977527D01*
X141936404Y-96992575D01*
X139508500Y-96992575D01*
X139508500Y-95100065D01*
X139528502Y-95031944D01*
X139582158Y-94985451D01*
X139652432Y-94975347D01*
X139717012Y-95004841D01*
X139723518Y-95010892D01*
X139792298Y-95079552D01*
X139798528Y-95083392D01*
X139798529Y-95083393D01*
X139912898Y-95153891D01*
X139937899Y-95169302D01*
X140100243Y-95223149D01*
X140107080Y-95223849D01*
X140107082Y-95223850D01*
X140148401Y-95228083D01*
X140201268Y-95233500D01*
X140798732Y-95233500D01*
X140801978Y-95233163D01*
X140801982Y-95233163D01*
X140836083Y-95229625D01*
X140901019Y-95222887D01*
X140965501Y-95201374D01*
X141056324Y-95171073D01*
X141056326Y-95171072D01*
X141063268Y-95168756D01*
X141114980Y-95136756D01*
X141137857Y-95122599D01*
X141206309Y-95103761D01*
X141274079Y-95124922D01*
X141304985Y-95154177D01*
X141386739Y-95263261D01*
X141503295Y-95350615D01*
X141639684Y-95401745D01*
X141701866Y-95408500D01*
X143098134Y-95408500D01*
X143160316Y-95401745D01*
X143296705Y-95350615D01*
X143413261Y-95263261D01*
X143500615Y-95146705D01*
X143551745Y-95010316D01*
X143558500Y-94948134D01*
X143558500Y-94234500D01*
X143578502Y-94166379D01*
X143632158Y-94119886D01*
X143684500Y-94108500D01*
X146890500Y-94108500D01*
X146958621Y-94128502D01*
G37*
%TD.AperFunction*%
%TA.AperFunction,Conductor*%
G36*
X152260686Y-95076812D02*
G01*
X152301311Y-95085447D01*
X152403311Y-95107128D01*
X152403315Y-95107128D01*
X152409768Y-95108500D01*
X152515500Y-95108500D01*
X152583621Y-95128502D01*
X152630114Y-95182158D01*
X152641500Y-95234500D01*
X152641500Y-97701864D01*
X152640422Y-97718307D01*
X152636250Y-97750000D01*
X152637328Y-97758189D01*
X152641500Y-97789880D01*
X152641500Y-97789885D01*
X152651158Y-97863244D01*
X152654524Y-97888809D01*
X152657162Y-97908851D01*
X152718476Y-98056876D01*
X152723503Y-98063427D01*
X152723504Y-98063429D01*
X152791520Y-98152069D01*
X152791526Y-98152075D01*
X152816013Y-98183987D01*
X152822568Y-98189017D01*
X152841379Y-98203452D01*
X152853770Y-98214319D01*
X153815856Y-99176405D01*
X153849882Y-99238717D01*
X153844817Y-99309532D01*
X153802270Y-99366368D01*
X153735750Y-99391179D01*
X153726761Y-99391500D01*
X153636756Y-99391500D01*
X153632670Y-99392038D01*
X153632669Y-99392038D01*
X153593847Y-99397149D01*
X153522676Y-99406519D01*
X153515049Y-99409678D01*
X153515046Y-99409679D01*
X153464749Y-99430513D01*
X153380732Y-99465314D01*
X153326702Y-99506773D01*
X153260483Y-99532372D01*
X153190935Y-99518107D01*
X153173296Y-99506771D01*
X153125823Y-99470344D01*
X153125818Y-99470341D01*
X153119267Y-99465314D01*
X152977324Y-99406519D01*
X152906153Y-99397149D01*
X152867331Y-99392038D01*
X152867330Y-99392038D01*
X152863244Y-99391500D01*
X152636756Y-99391500D01*
X152632670Y-99392038D01*
X152632669Y-99392038D01*
X152593847Y-99397149D01*
X152522676Y-99406519D01*
X152515049Y-99409678D01*
X152515046Y-99409679D01*
X152464749Y-99430513D01*
X152380732Y-99465314D01*
X152258843Y-99558843D01*
X152253817Y-99565393D01*
X152253816Y-99565394D01*
X152250000Y-99570367D01*
X152165314Y-99680733D01*
X152106519Y-99822676D01*
X152091500Y-99936756D01*
X152091500Y-100039311D01*
X152071498Y-100107432D01*
X152017842Y-100153925D01*
X151947568Y-100164029D01*
X151939303Y-100162558D01*
X151846689Y-100142872D01*
X151846685Y-100142872D01*
X151840232Y-100141500D01*
X151659768Y-100141500D01*
X151653315Y-100142872D01*
X151653311Y-100142872D01*
X151571508Y-100160260D01*
X151483248Y-100179020D01*
X151477219Y-100181704D01*
X151477217Y-100181705D01*
X151377667Y-100226028D01*
X151307300Y-100235462D01*
X151243003Y-100205356D01*
X151237401Y-100200094D01*
X151212887Y-100175623D01*
X151212882Y-100175619D01*
X151207702Y-100170448D01*
X151198324Y-100164667D01*
X151068331Y-100084538D01*
X151068329Y-100084537D01*
X151062101Y-100080698D01*
X150899757Y-100026851D01*
X150892920Y-100026151D01*
X150892918Y-100026150D01*
X150851599Y-100021917D01*
X150798732Y-100016500D01*
X150251268Y-100016500D01*
X150248022Y-100016837D01*
X150248018Y-100016837D01*
X150148981Y-100027113D01*
X150148742Y-100024805D01*
X150088767Y-100020434D01*
X150043865Y-99991533D01*
X149895405Y-99843073D01*
X149861379Y-99780761D01*
X149858500Y-99753978D01*
X149858500Y-99522125D01*
X149878502Y-99454004D01*
X149932158Y-99407511D01*
X150000946Y-99397203D01*
X150082669Y-99407962D01*
X150082670Y-99407962D01*
X150086756Y-99408500D01*
X151563244Y-99408500D01*
X151567330Y-99407962D01*
X151567331Y-99407962D01*
X151606153Y-99402851D01*
X151677324Y-99393481D01*
X151684951Y-99390322D01*
X151684954Y-99390321D01*
X151790821Y-99346469D01*
X151819268Y-99334686D01*
X151941157Y-99241157D01*
X151946186Y-99234604D01*
X152029659Y-99125818D01*
X152034686Y-99119267D01*
X152093481Y-98977324D01*
X152102851Y-98906153D01*
X152107962Y-98867331D01*
X152107962Y-98867330D01*
X152108500Y-98863244D01*
X152108500Y-98636756D01*
X152093481Y-98522676D01*
X152095026Y-98522473D01*
X152095026Y-98477527D01*
X152093481Y-98477324D01*
X152107962Y-98367331D01*
X152107962Y-98367330D01*
X152108500Y-98363244D01*
X152108500Y-98136756D01*
X152093481Y-98022676D01*
X152095026Y-98022473D01*
X152095026Y-97977527D01*
X152093481Y-97977324D01*
X152107962Y-97867331D01*
X152107962Y-97867330D01*
X152108500Y-97863244D01*
X152108500Y-97636756D01*
X152103598Y-97599518D01*
X152093481Y-97522676D01*
X152095026Y-97522473D01*
X152095026Y-97477527D01*
X152093481Y-97477324D01*
X152107962Y-97367331D01*
X152107962Y-97367330D01*
X152108500Y-97363244D01*
X152108500Y-97136756D01*
X152093481Y-97022676D01*
X152084089Y-97000000D01*
X152064084Y-96951704D01*
X152034686Y-96880732D01*
X151993227Y-96826702D01*
X151967628Y-96760483D01*
X151981893Y-96690935D01*
X151993229Y-96673296D01*
X152029656Y-96625823D01*
X152029658Y-96625820D01*
X152034686Y-96619267D01*
X152093481Y-96477324D01*
X152103527Y-96401019D01*
X152107962Y-96367331D01*
X152107962Y-96367330D01*
X152108500Y-96363244D01*
X152108500Y-96136756D01*
X152093481Y-96022676D01*
X152095026Y-96022473D01*
X152095026Y-95977527D01*
X152093481Y-95977324D01*
X152107962Y-95867331D01*
X152107962Y-95867330D01*
X152108500Y-95863244D01*
X152108500Y-95636756D01*
X152097978Y-95556830D01*
X152093481Y-95522676D01*
X152095026Y-95522473D01*
X152095026Y-95477527D01*
X152093481Y-95477324D01*
X152107962Y-95367331D01*
X152107962Y-95367330D01*
X152108500Y-95363244D01*
X152108500Y-95200061D01*
X152128502Y-95131940D01*
X152182158Y-95085447D01*
X152252432Y-95075343D01*
X152260686Y-95076812D01*
G37*
%TD.AperFunction*%
%TA.AperFunction,Conductor*%
G36*
X160670725Y-90553312D02*
G01*
X160766149Y-90592838D01*
X160774336Y-90593916D01*
X160774337Y-90593916D01*
X160785542Y-90595391D01*
X160812515Y-90598942D01*
X160885115Y-90608500D01*
X160885118Y-90608500D01*
X160885126Y-90608501D01*
X160925000Y-90613750D01*
X160924783Y-90615397D01*
X160983622Y-90632674D01*
X161030115Y-90686330D01*
X161040219Y-90756604D01*
X161015464Y-90815376D01*
X160965314Y-90880733D01*
X160906519Y-91022676D01*
X160891500Y-91136756D01*
X160891500Y-91363244D01*
X160906519Y-91477324D01*
X160909678Y-91484951D01*
X160909679Y-91484954D01*
X160918878Y-91507162D01*
X160965314Y-91619268D01*
X161006773Y-91673298D01*
X161032372Y-91739517D01*
X161018107Y-91809065D01*
X161006771Y-91826704D01*
X160970344Y-91874177D01*
X160970342Y-91874180D01*
X160965314Y-91880733D01*
X160906519Y-92022676D01*
X160891500Y-92136756D01*
X160891500Y-92363244D01*
X160892038Y-92367330D01*
X160892038Y-92367331D01*
X160906519Y-92477324D01*
X160904974Y-92477527D01*
X160904974Y-92522473D01*
X160906519Y-92522676D01*
X160898051Y-92587000D01*
X160891500Y-92636756D01*
X160891500Y-92863244D01*
X160892038Y-92867330D01*
X160892038Y-92867331D01*
X160906519Y-92977324D01*
X160904974Y-92977527D01*
X160904974Y-93022473D01*
X160906519Y-93022676D01*
X160891500Y-93136756D01*
X160891500Y-93299939D01*
X160871498Y-93368060D01*
X160817842Y-93414553D01*
X160747568Y-93424657D01*
X160739314Y-93423188D01*
X160673891Y-93409282D01*
X160596689Y-93392872D01*
X160596685Y-93392872D01*
X160590232Y-93391500D01*
X160409768Y-93391500D01*
X160403315Y-93392872D01*
X160403311Y-93392872D01*
X160321508Y-93410260D01*
X160233248Y-93429020D01*
X160227219Y-93431704D01*
X160227217Y-93431705D01*
X160074416Y-93499737D01*
X160074414Y-93499738D01*
X160068386Y-93502422D01*
X160063045Y-93506302D01*
X160063044Y-93506303D01*
X159927731Y-93604613D01*
X159927729Y-93604615D01*
X159922387Y-93608496D01*
X159917966Y-93613406D01*
X159917965Y-93613407D01*
X159896942Y-93636756D01*
X159801633Y-93742607D01*
X159711401Y-93898893D01*
X159709359Y-93905178D01*
X159660927Y-94054239D01*
X159655635Y-94070525D01*
X159636771Y-94250000D01*
X159655635Y-94429475D01*
X159657675Y-94435753D01*
X159657675Y-94435754D01*
X159687498Y-94527540D01*
X159711401Y-94601107D01*
X159801633Y-94757393D01*
X159806051Y-94762300D01*
X159806052Y-94762301D01*
X159868381Y-94831524D01*
X159922387Y-94891504D01*
X159927729Y-94895385D01*
X159927731Y-94895387D01*
X159952750Y-94913564D01*
X159996104Y-94969786D01*
X160002179Y-95040522D01*
X159969048Y-95103314D01*
X159907228Y-95138225D01*
X159878689Y-95141500D01*
X159170531Y-95141500D01*
X159102410Y-95121498D01*
X159055917Y-95067842D01*
X159046548Y-95033528D01*
X159046429Y-95033553D01*
X159045987Y-95031473D01*
X159045221Y-95028668D01*
X159045055Y-95027090D01*
X159045055Y-95027089D01*
X159044365Y-95020525D01*
X159038496Y-95002460D01*
X158990641Y-94855178D01*
X158988599Y-94848893D01*
X158980396Y-94834684D01*
X158915651Y-94722544D01*
X158898367Y-94692607D01*
X158864562Y-94655062D01*
X158782035Y-94563407D01*
X158782034Y-94563406D01*
X158777613Y-94558496D01*
X158771105Y-94553767D01*
X158636957Y-94456303D01*
X158636956Y-94456302D01*
X158631615Y-94452422D01*
X158625587Y-94449738D01*
X158625585Y-94449737D01*
X158472783Y-94381705D01*
X158472781Y-94381705D01*
X158466752Y-94379020D01*
X158378492Y-94360260D01*
X158296689Y-94342872D01*
X158296685Y-94342872D01*
X158290232Y-94341500D01*
X158109768Y-94341500D01*
X158103315Y-94342872D01*
X158103311Y-94342872D01*
X158021508Y-94360260D01*
X157933248Y-94379020D01*
X157927219Y-94381704D01*
X157927217Y-94381705D01*
X157774416Y-94449737D01*
X157774414Y-94449738D01*
X157768386Y-94452422D01*
X157763045Y-94456302D01*
X157763044Y-94456303D01*
X157627731Y-94554613D01*
X157627729Y-94554615D01*
X157622387Y-94558496D01*
X157617966Y-94563406D01*
X157617965Y-94563407D01*
X157535439Y-94655062D01*
X157501633Y-94692607D01*
X157484349Y-94722544D01*
X157419605Y-94834684D01*
X157411401Y-94848893D01*
X157409359Y-94855178D01*
X157361505Y-95002460D01*
X157355635Y-95020525D01*
X157354945Y-95027088D01*
X157354945Y-95027089D01*
X157345022Y-95121498D01*
X157336771Y-95200000D01*
X157337461Y-95206565D01*
X157352036Y-95345229D01*
X157355635Y-95379475D01*
X157357675Y-95385753D01*
X157357675Y-95385754D01*
X157362871Y-95401745D01*
X157411401Y-95551107D01*
X157414704Y-95556829D01*
X157414705Y-95556830D01*
X157498808Y-95702500D01*
X157515546Y-95771495D01*
X157492326Y-95838587D01*
X157436519Y-95882474D01*
X157389689Y-95891500D01*
X156411603Y-95891500D01*
X156343482Y-95871498D01*
X156330164Y-95861329D01*
X156327613Y-95858496D01*
X156313813Y-95848469D01*
X156186957Y-95756303D01*
X156186956Y-95756302D01*
X156181615Y-95752422D01*
X156175587Y-95749738D01*
X156175585Y-95749737D01*
X156022783Y-95681705D01*
X156022781Y-95681705D01*
X156016752Y-95679020D01*
X155928492Y-95660260D01*
X155846689Y-95642872D01*
X155846685Y-95642872D01*
X155840232Y-95641500D01*
X155659768Y-95641500D01*
X155653315Y-95642872D01*
X155653311Y-95642872D01*
X155571508Y-95660260D01*
X155483248Y-95679020D01*
X155477219Y-95681704D01*
X155477217Y-95681705D01*
X155324416Y-95749737D01*
X155324414Y-95749738D01*
X155318386Y-95752422D01*
X155313045Y-95756302D01*
X155313044Y-95756303D01*
X155177731Y-95854613D01*
X155177729Y-95854615D01*
X155172387Y-95858496D01*
X155051633Y-95992607D01*
X154961401Y-96148893D01*
X154905635Y-96320525D01*
X154904945Y-96327088D01*
X154904945Y-96327089D01*
X154896732Y-96405230D01*
X154886771Y-96500000D01*
X154887461Y-96506565D01*
X154896003Y-96587830D01*
X154905635Y-96679475D01*
X154907675Y-96685753D01*
X154907675Y-96685754D01*
X154915135Y-96708713D01*
X154961401Y-96851107D01*
X154964704Y-96856829D01*
X154964705Y-96856830D01*
X154978505Y-96880732D01*
X155051633Y-97007393D01*
X155056051Y-97012300D01*
X155056052Y-97012301D01*
X155164432Y-97132669D01*
X155172387Y-97141504D01*
X155177729Y-97145385D01*
X155177731Y-97145387D01*
X155271991Y-97213871D01*
X155318385Y-97247578D01*
X155324413Y-97250262D01*
X155324415Y-97250263D01*
X155472698Y-97316283D01*
X155483248Y-97320980D01*
X155568878Y-97339181D01*
X155653311Y-97357128D01*
X155653315Y-97357128D01*
X155659768Y-97358500D01*
X155840232Y-97358500D01*
X155846685Y-97357128D01*
X155846689Y-97357128D01*
X155931122Y-97339181D01*
X156016752Y-97320980D01*
X156027302Y-97316283D01*
X156175585Y-97250263D01*
X156175587Y-97250262D01*
X156181615Y-97247578D01*
X156228009Y-97213871D01*
X156322269Y-97145387D01*
X156322271Y-97145385D01*
X156327613Y-97141504D01*
X156328873Y-97140105D01*
X156391301Y-97110146D01*
X156411603Y-97108500D01*
X157951864Y-97108500D01*
X157968307Y-97109578D01*
X158000000Y-97113750D01*
X158008189Y-97112672D01*
X158039874Y-97108501D01*
X158039884Y-97108500D01*
X158039885Y-97108500D01*
X158139457Y-97095391D01*
X158150664Y-97093916D01*
X158150666Y-97093915D01*
X158158851Y-97092838D01*
X158306876Y-97031524D01*
X158318672Y-97022473D01*
X158402072Y-96958477D01*
X158402075Y-96958474D01*
X158427434Y-96939015D01*
X158433987Y-96933987D01*
X158439017Y-96927432D01*
X158453452Y-96908621D01*
X158464319Y-96896230D01*
X158965144Y-96395405D01*
X159027456Y-96361379D01*
X159054239Y-96358500D01*
X160780377Y-96358500D01*
X160848498Y-96378502D01*
X160894991Y-96432158D01*
X160905299Y-96468054D01*
X160905442Y-96469140D01*
X160906520Y-96477329D01*
X160904974Y-96477532D01*
X160904974Y-96522473D01*
X160906519Y-96522676D01*
X160891500Y-96636756D01*
X160891500Y-96863244D01*
X160892038Y-96867330D01*
X160892038Y-96867331D01*
X160906519Y-96977324D01*
X160904974Y-96977527D01*
X160904974Y-97022473D01*
X160906519Y-97022676D01*
X160893908Y-97118469D01*
X160891500Y-97136756D01*
X160891500Y-97363244D01*
X160892038Y-97367330D01*
X160892038Y-97367331D01*
X160906519Y-97477324D01*
X160904974Y-97477527D01*
X160904974Y-97522473D01*
X160906519Y-97522676D01*
X160896403Y-97599518D01*
X160891500Y-97636756D01*
X160891500Y-97863244D01*
X160892038Y-97867330D01*
X160892038Y-97867331D01*
X160906519Y-97977324D01*
X160904974Y-97977527D01*
X160904974Y-98022473D01*
X160906519Y-98022676D01*
X160891500Y-98136756D01*
X160891500Y-98363244D01*
X160892038Y-98367330D01*
X160892038Y-98367331D01*
X160906519Y-98477324D01*
X160904974Y-98477527D01*
X160904974Y-98522473D01*
X160906519Y-98522676D01*
X160891500Y-98636756D01*
X160891500Y-98863244D01*
X160892038Y-98867330D01*
X160892038Y-98867331D01*
X160897149Y-98906153D01*
X160906519Y-98977324D01*
X160965314Y-99119268D01*
X161058843Y-99241157D01*
X161065393Y-99246183D01*
X161065394Y-99246184D01*
X161101410Y-99273820D01*
X161180733Y-99334686D01*
X161322676Y-99393481D01*
X161330864Y-99394559D01*
X161432881Y-99407990D01*
X161497808Y-99436713D01*
X161536899Y-99495978D01*
X161536027Y-99572578D01*
X161526851Y-99600243D01*
X161526151Y-99607080D01*
X161525684Y-99611634D01*
X161498841Y-99677361D01*
X161489435Y-99687884D01*
X161123595Y-100053724D01*
X161061283Y-100087750D01*
X160990468Y-100082685D01*
X160933632Y-100040138D01*
X160908821Y-99973618D01*
X160908500Y-99964629D01*
X160908500Y-99936756D01*
X160893481Y-99822676D01*
X160886644Y-99806168D01*
X160864083Y-99751704D01*
X160834686Y-99680732D01*
X160741157Y-99558843D01*
X160734605Y-99553815D01*
X160625818Y-99470341D01*
X160619267Y-99465314D01*
X160477324Y-99406519D01*
X160406153Y-99397149D01*
X160367331Y-99392038D01*
X160367330Y-99392038D01*
X160363244Y-99391500D01*
X160136756Y-99391500D01*
X160132670Y-99392038D01*
X160132669Y-99392038D01*
X160093847Y-99397149D01*
X160022676Y-99406519D01*
X160015049Y-99409678D01*
X160015046Y-99409679D01*
X159964749Y-99430513D01*
X159880732Y-99465314D01*
X159826702Y-99506773D01*
X159760483Y-99532372D01*
X159690935Y-99518107D01*
X159673296Y-99506771D01*
X159625823Y-99470344D01*
X159625818Y-99470341D01*
X159619267Y-99465314D01*
X159477324Y-99406519D01*
X159406153Y-99397149D01*
X159367331Y-99392038D01*
X159367330Y-99392038D01*
X159363244Y-99391500D01*
X159136756Y-99391500D01*
X159132670Y-99392038D01*
X159132669Y-99392038D01*
X159022676Y-99406519D01*
X159022473Y-99404974D01*
X158977527Y-99404974D01*
X158977324Y-99406519D01*
X158867331Y-99392038D01*
X158867330Y-99392038D01*
X158863244Y-99391500D01*
X158636756Y-99391500D01*
X158632670Y-99392038D01*
X158632669Y-99392038D01*
X158522676Y-99406519D01*
X158522473Y-99404974D01*
X158477527Y-99404974D01*
X158477324Y-99406519D01*
X158367331Y-99392038D01*
X158367330Y-99392038D01*
X158363244Y-99391500D01*
X158136756Y-99391500D01*
X158132670Y-99392038D01*
X158132669Y-99392038D01*
X158022676Y-99406519D01*
X158022473Y-99404974D01*
X157977527Y-99404974D01*
X157977324Y-99406519D01*
X157867331Y-99392038D01*
X157867330Y-99392038D01*
X157863244Y-99391500D01*
X157636756Y-99391500D01*
X157632670Y-99392038D01*
X157632669Y-99392038D01*
X157522676Y-99406519D01*
X157522473Y-99404974D01*
X157477527Y-99404974D01*
X157477324Y-99406519D01*
X157367331Y-99392038D01*
X157367330Y-99392038D01*
X157363244Y-99391500D01*
X157136756Y-99391500D01*
X157132670Y-99392038D01*
X157132669Y-99392038D01*
X157022676Y-99406519D01*
X157022473Y-99404974D01*
X156977527Y-99404974D01*
X156977324Y-99406519D01*
X156867331Y-99392038D01*
X156867330Y-99392038D01*
X156863244Y-99391500D01*
X156636756Y-99391500D01*
X156632670Y-99392038D01*
X156632669Y-99392038D01*
X156570352Y-99400242D01*
X156500203Y-99389302D01*
X156447105Y-99342174D01*
X156427915Y-99273820D01*
X156449686Y-99208154D01*
X156448367Y-99207393D01*
X156535295Y-99056830D01*
X156535296Y-99056829D01*
X156538599Y-99051107D01*
X156594365Y-98879475D01*
X156613229Y-98700000D01*
X156594365Y-98520525D01*
X156538599Y-98348893D01*
X156448367Y-98192607D01*
X156411867Y-98152069D01*
X156332035Y-98063407D01*
X156332034Y-98063406D01*
X156327613Y-98058496D01*
X156320418Y-98053268D01*
X156186957Y-97956303D01*
X156186956Y-97956302D01*
X156181615Y-97952422D01*
X156175587Y-97949738D01*
X156175585Y-97949737D01*
X156022783Y-97881705D01*
X156022781Y-97881705D01*
X156016752Y-97879020D01*
X155913757Y-97857128D01*
X155846689Y-97842872D01*
X155846685Y-97842872D01*
X155840232Y-97841500D01*
X155659768Y-97841500D01*
X155653315Y-97842872D01*
X155653311Y-97842872D01*
X155586243Y-97857128D01*
X155483248Y-97879020D01*
X155477219Y-97881704D01*
X155477217Y-97881705D01*
X155324416Y-97949737D01*
X155324414Y-97949738D01*
X155318386Y-97952422D01*
X155313045Y-97956302D01*
X155313044Y-97956303D01*
X155177731Y-98054613D01*
X155177729Y-98054615D01*
X155172387Y-98058496D01*
X155167966Y-98063406D01*
X155167965Y-98063407D01*
X155088134Y-98152069D01*
X155051633Y-98192607D01*
X155039098Y-98214319D01*
X154967956Y-98337540D01*
X154961401Y-98348893D01*
X154959360Y-98355175D01*
X154958871Y-98356273D01*
X154912891Y-98410369D01*
X154844964Y-98431019D01*
X154776656Y-98411667D01*
X154754669Y-98394120D01*
X153895405Y-97534856D01*
X153861379Y-97472544D01*
X153858500Y-97445761D01*
X153858500Y-94054239D01*
X153878502Y-93986118D01*
X153895405Y-93965144D01*
X154678463Y-93182086D01*
X154740775Y-93148060D01*
X154811590Y-93153125D01*
X154868426Y-93195672D01*
X154892868Y-93258010D01*
X154898081Y-93307603D01*
X154905635Y-93379475D01*
X154961401Y-93551107D01*
X154964704Y-93556829D01*
X154964705Y-93556830D01*
X155039859Y-93687000D01*
X155056597Y-93755995D01*
X155039859Y-93813000D01*
X154990269Y-93898893D01*
X154961401Y-93948893D01*
X154905635Y-94120525D01*
X154904945Y-94127088D01*
X154904945Y-94127089D01*
X154903929Y-94136756D01*
X154886771Y-94300000D01*
X154887461Y-94306565D01*
X154902792Y-94452422D01*
X154905635Y-94479475D01*
X154907675Y-94485753D01*
X154907675Y-94485754D01*
X154929774Y-94553767D01*
X154961401Y-94651107D01*
X155051633Y-94807393D01*
X155056051Y-94812300D01*
X155056052Y-94812301D01*
X155147230Y-94913564D01*
X155172387Y-94941504D01*
X155177729Y-94945385D01*
X155177731Y-94945387D01*
X155299008Y-95033500D01*
X155318385Y-95047578D01*
X155324413Y-95050262D01*
X155324415Y-95050263D01*
X155477217Y-95118295D01*
X155483248Y-95120980D01*
X155564719Y-95138297D01*
X155653311Y-95157128D01*
X155653315Y-95157128D01*
X155659768Y-95158500D01*
X155840232Y-95158500D01*
X155846685Y-95157128D01*
X155846689Y-95157128D01*
X155935281Y-95138297D01*
X156016752Y-95120980D01*
X156022783Y-95118295D01*
X156175585Y-95050263D01*
X156175587Y-95050262D01*
X156181615Y-95047578D01*
X156200992Y-95033500D01*
X156322269Y-94945387D01*
X156322271Y-94945385D01*
X156327613Y-94941504D01*
X156328047Y-94941022D01*
X156390065Y-94911264D01*
X156426804Y-94910697D01*
X156441808Y-94912672D01*
X156441811Y-94912672D01*
X156450000Y-94913750D01*
X156458189Y-94912672D01*
X156489874Y-94908501D01*
X156489884Y-94908500D01*
X156489885Y-94908500D01*
X156509247Y-94905951D01*
X156589457Y-94895391D01*
X156600664Y-94893916D01*
X156600666Y-94893915D01*
X156608851Y-94892838D01*
X156756876Y-94831524D01*
X156777091Y-94816013D01*
X156852072Y-94758477D01*
X156852075Y-94758474D01*
X156853484Y-94757393D01*
X156883987Y-94733987D01*
X156892768Y-94722544D01*
X156903452Y-94708621D01*
X156914319Y-94696230D01*
X158646234Y-92964315D01*
X158658625Y-92953448D01*
X158677437Y-92939013D01*
X158683987Y-92933987D01*
X158708474Y-92902075D01*
X158708477Y-92902072D01*
X158708481Y-92902066D01*
X158708491Y-92902055D01*
X158774511Y-92816015D01*
X158774512Y-92816013D01*
X158776498Y-92813425D01*
X158776498Y-92813424D01*
X158781524Y-92806875D01*
X158787886Y-92791517D01*
X158839678Y-92666479D01*
X158842838Y-92658850D01*
X158858500Y-92539885D01*
X158858500Y-92539878D01*
X158863750Y-92500000D01*
X158859578Y-92468307D01*
X158858500Y-92451864D01*
X158858500Y-90719623D01*
X158878502Y-90651502D01*
X158932158Y-90605009D01*
X158968054Y-90594701D01*
X158977324Y-90593481D01*
X158977325Y-90593480D01*
X158977329Y-90593480D01*
X158977532Y-90595026D01*
X159022473Y-90595026D01*
X159022676Y-90593481D01*
X159132669Y-90607962D01*
X159132670Y-90607962D01*
X159136756Y-90608500D01*
X159363244Y-90608500D01*
X159367330Y-90607962D01*
X159367331Y-90607962D01*
X159477324Y-90593481D01*
X159477527Y-90595026D01*
X159522473Y-90595026D01*
X159522676Y-90593481D01*
X159632669Y-90607962D01*
X159632670Y-90607962D01*
X159636756Y-90608500D01*
X159863244Y-90608500D01*
X159867330Y-90607962D01*
X159867331Y-90607962D01*
X159977324Y-90593481D01*
X159977527Y-90595026D01*
X160022473Y-90595026D01*
X160022676Y-90593481D01*
X160132669Y-90607962D01*
X160132670Y-90607962D01*
X160136756Y-90608500D01*
X160363244Y-90608500D01*
X160367330Y-90607962D01*
X160367331Y-90607962D01*
X160406153Y-90602851D01*
X160477324Y-90593481D01*
X160574296Y-90553314D01*
X160644884Y-90545725D01*
X160670725Y-90553312D01*
G37*
%TD.AperFunction*%
%TA.AperFunction,Conductor*%
G36*
X139717012Y-85070597D02*
G01*
X139752482Y-85121592D01*
X139765966Y-85157559D01*
X139799385Y-85246705D01*
X139886739Y-85363261D01*
X140003295Y-85450615D01*
X140139684Y-85501745D01*
X140201866Y-85508500D01*
X141845761Y-85508500D01*
X141913882Y-85528502D01*
X141934856Y-85545405D01*
X147940857Y-91551406D01*
X147974883Y-91613718D01*
X147969818Y-91684533D01*
X147927271Y-91741369D01*
X147860751Y-91766180D01*
X147851773Y-91766501D01*
X147668366Y-91766501D01*
X147665508Y-91766764D01*
X147665499Y-91766764D01*
X147629996Y-91770026D01*
X147594938Y-91773247D01*
X147588560Y-91775246D01*
X147588559Y-91775246D01*
X147438550Y-91822256D01*
X147438548Y-91822257D01*
X147431301Y-91824528D01*
X147424805Y-91828462D01*
X147424803Y-91828463D01*
X147305873Y-91900489D01*
X147237243Y-91918668D01*
X147174486Y-91899973D01*
X147068331Y-91834538D01*
X147068329Y-91834537D01*
X147062101Y-91830698D01*
X146899757Y-91776851D01*
X146892920Y-91776151D01*
X146892918Y-91776150D01*
X146851599Y-91771917D01*
X146798732Y-91766500D01*
X146201268Y-91766500D01*
X146198022Y-91766837D01*
X146198018Y-91766837D01*
X146163917Y-91770375D01*
X146098981Y-91777113D01*
X146092440Y-91779295D01*
X146092441Y-91779295D01*
X145943676Y-91828927D01*
X145943674Y-91828928D01*
X145936732Y-91831244D01*
X145930508Y-91835096D01*
X145930507Y-91835096D01*
X145862143Y-91877401D01*
X145793691Y-91896239D01*
X145725921Y-91875078D01*
X145695014Y-91845822D01*
X145686976Y-91835096D01*
X145613261Y-91736739D01*
X145496705Y-91649385D01*
X145360316Y-91598255D01*
X145298134Y-91591500D01*
X143901866Y-91591500D01*
X143839684Y-91598255D01*
X143703295Y-91649385D01*
X143586739Y-91736739D01*
X143499385Y-91853295D01*
X143448255Y-91989684D01*
X143441500Y-92051866D01*
X143441500Y-92761328D01*
X143421498Y-92829449D01*
X143367842Y-92875942D01*
X143315500Y-92887328D01*
X143308188Y-92887328D01*
X143300000Y-92886250D01*
X143291812Y-92887328D01*
X143260129Y-92891499D01*
X143260120Y-92891500D01*
X143260115Y-92891500D01*
X143141150Y-92907162D01*
X143082067Y-92931635D01*
X142993124Y-92968476D01*
X142986573Y-92973503D01*
X142986571Y-92973504D01*
X142925293Y-93020525D01*
X142897928Y-93041523D01*
X142897925Y-93041526D01*
X142866013Y-93066013D01*
X142860983Y-93072568D01*
X142846548Y-93091379D01*
X142835681Y-93103770D01*
X142584856Y-93354595D01*
X142522544Y-93388621D01*
X142495761Y-93391500D01*
X141701866Y-93391500D01*
X141639684Y-93398255D01*
X141503295Y-93449385D01*
X141496110Y-93454770D01*
X141496108Y-93454771D01*
X141447333Y-93491326D01*
X141380826Y-93516174D01*
X141371768Y-93516500D01*
X141305961Y-93516500D01*
X141237840Y-93496498D01*
X141216943Y-93479673D01*
X141212882Y-93475619D01*
X141207702Y-93470448D01*
X141201471Y-93466607D01*
X141068331Y-93384538D01*
X141068329Y-93384537D01*
X141062101Y-93380698D01*
X140899757Y-93326851D01*
X140892920Y-93326151D01*
X140892918Y-93326150D01*
X140851599Y-93321917D01*
X140798732Y-93316500D01*
X140201268Y-93316500D01*
X140198022Y-93316837D01*
X140198018Y-93316837D01*
X140163917Y-93320375D01*
X140098981Y-93327113D01*
X140064263Y-93338696D01*
X139943676Y-93378927D01*
X139943674Y-93378928D01*
X139936732Y-93381244D01*
X139930508Y-93385096D01*
X139930507Y-93385096D01*
X139870588Y-93422175D01*
X139791287Y-93471248D01*
X139786114Y-93476430D01*
X139723673Y-93538980D01*
X139661391Y-93573059D01*
X139590570Y-93568056D01*
X139533698Y-93525559D01*
X139508829Y-93459060D01*
X139508500Y-93449962D01*
X139508500Y-88992575D01*
X141936404Y-88992575D01*
X141955218Y-89199303D01*
X141956956Y-89205209D01*
X141956957Y-89205213D01*
X142000473Y-89353068D01*
X142013827Y-89398440D01*
X142109999Y-89582400D01*
X142113859Y-89587200D01*
X142113859Y-89587201D01*
X142128495Y-89605404D01*
X142240071Y-89744177D01*
X142244788Y-89748135D01*
X142244790Y-89748137D01*
X142286900Y-89783471D01*
X142399089Y-89877609D01*
X142404481Y-89880573D01*
X142404485Y-89880576D01*
X142537137Y-89953502D01*
X142580995Y-89977613D01*
X142778861Y-90040379D01*
X142784978Y-90041065D01*
X142784982Y-90041066D01*
X142861598Y-90049659D01*
X142940413Y-90058500D01*
X143052237Y-90058500D01*
X143055293Y-90058200D01*
X143055300Y-90058200D01*
X143200466Y-90043966D01*
X143200469Y-90043965D01*
X143206592Y-90043365D01*
X143338546Y-90003526D01*
X143399407Y-89985152D01*
X143399410Y-89985151D01*
X143405315Y-89983368D01*
X143410762Y-89980472D01*
X143583153Y-89888809D01*
X143583155Y-89888808D01*
X143588599Y-89885913D01*
X143705487Y-89790582D01*
X143744689Y-89758610D01*
X143744692Y-89758607D01*
X143749464Y-89754715D01*
X143757524Y-89744973D01*
X143874341Y-89603766D01*
X143881783Y-89594770D01*
X143885876Y-89587201D01*
X143977584Y-89417590D01*
X143977586Y-89417585D01*
X143980514Y-89412170D01*
X144041898Y-89213871D01*
X144043911Y-89194717D01*
X144062952Y-89013554D01*
X144062952Y-89013552D01*
X144063596Y-89007425D01*
X144044782Y-88800697D01*
X144042298Y-88792255D01*
X143987912Y-88607469D01*
X143986173Y-88601560D01*
X143890001Y-88417600D01*
X143759929Y-88255823D01*
X143747371Y-88245285D01*
X143605629Y-88126350D01*
X143600911Y-88122391D01*
X143595519Y-88119427D01*
X143595515Y-88119424D01*
X143424402Y-88025354D01*
X143419005Y-88022387D01*
X143221139Y-87959621D01*
X143215022Y-87958935D01*
X143215018Y-87958934D01*
X143138402Y-87950341D01*
X143059587Y-87941500D01*
X142947763Y-87941500D01*
X142944707Y-87941800D01*
X142944700Y-87941800D01*
X142799534Y-87956034D01*
X142799531Y-87956035D01*
X142793408Y-87956635D01*
X142691637Y-87987361D01*
X142600593Y-88014848D01*
X142600590Y-88014849D01*
X142594685Y-88016632D01*
X142589240Y-88019527D01*
X142589238Y-88019528D01*
X142416847Y-88111191D01*
X142416845Y-88111192D01*
X142411401Y-88114087D01*
X142353495Y-88161314D01*
X142255311Y-88241390D01*
X142255308Y-88241393D01*
X142250536Y-88245285D01*
X142246608Y-88250033D01*
X142246607Y-88250034D01*
X142173535Y-88338362D01*
X142118217Y-88405230D01*
X142115288Y-88410647D01*
X142115286Y-88410650D01*
X142022416Y-88582410D01*
X142022414Y-88582415D01*
X142019486Y-88587830D01*
X141958102Y-88786129D01*
X141957458Y-88792254D01*
X141957458Y-88792255D01*
X141955926Y-88806836D01*
X141936404Y-88992575D01*
X139508500Y-88992575D01*
X139508500Y-85165821D01*
X139528502Y-85097700D01*
X139582158Y-85051207D01*
X139652432Y-85041103D01*
X139717012Y-85070597D01*
G37*
%TD.AperFunction*%
%TA.AperFunction,Conductor*%
G36*
X151232328Y-89610400D02*
G01*
X151279619Y-89640168D01*
X151360685Y-89721234D01*
X151371552Y-89733625D01*
X151391013Y-89758987D01*
X151397563Y-89764013D01*
X151422921Y-89783471D01*
X151422937Y-89783485D01*
X151472305Y-89821366D01*
X151518124Y-89856524D01*
X151666149Y-89917838D01*
X151825000Y-89938751D01*
X151856699Y-89934578D01*
X151873144Y-89933500D01*
X151965500Y-89933500D01*
X152033621Y-89953502D01*
X152080114Y-90007158D01*
X152090532Y-90055049D01*
X152091230Y-90055003D01*
X152091500Y-90059123D01*
X152091500Y-90063244D01*
X152106519Y-90177324D01*
X152109678Y-90184951D01*
X152109679Y-90184954D01*
X152131586Y-90237842D01*
X152165314Y-90319268D01*
X152258843Y-90441157D01*
X152265393Y-90446183D01*
X152265394Y-90446184D01*
X152272137Y-90451358D01*
X152380733Y-90534686D01*
X152522676Y-90593481D01*
X152593847Y-90602851D01*
X152632669Y-90607962D01*
X152632670Y-90607962D01*
X152636756Y-90608500D01*
X152863244Y-90608500D01*
X152867330Y-90607962D01*
X152867331Y-90607962D01*
X152906153Y-90602851D01*
X152977324Y-90593481D01*
X152984951Y-90590322D01*
X152984954Y-90590321D01*
X153055781Y-90560983D01*
X153119268Y-90534686D01*
X153173298Y-90493227D01*
X153239517Y-90467628D01*
X153309065Y-90481893D01*
X153326704Y-90493229D01*
X153374177Y-90529656D01*
X153374180Y-90529658D01*
X153380733Y-90534686D01*
X153522676Y-90593481D01*
X153593847Y-90602851D01*
X153632669Y-90607962D01*
X153632670Y-90607962D01*
X153636756Y-90608500D01*
X153863244Y-90608500D01*
X153867330Y-90607962D01*
X153867331Y-90607962D01*
X153977324Y-90593481D01*
X153977527Y-90595026D01*
X154022473Y-90595026D01*
X154022676Y-90593481D01*
X154132669Y-90607962D01*
X154132670Y-90607962D01*
X154136756Y-90608500D01*
X154363244Y-90608500D01*
X154367330Y-90607962D01*
X154367331Y-90607962D01*
X154406153Y-90602851D01*
X154477324Y-90593481D01*
X154484951Y-90590322D01*
X154484954Y-90590321D01*
X154555781Y-90560983D01*
X154619268Y-90534686D01*
X154673298Y-90493227D01*
X154739517Y-90467628D01*
X154809065Y-90481893D01*
X154826704Y-90493229D01*
X154874180Y-90529659D01*
X154874187Y-90529663D01*
X154880733Y-90534686D01*
X154888360Y-90537845D01*
X154891881Y-90539878D01*
X154940875Y-90591260D01*
X154954313Y-90660973D01*
X154948716Y-90687934D01*
X154907941Y-90813429D01*
X154905635Y-90820525D01*
X154886771Y-91000000D01*
X154905635Y-91179475D01*
X154907675Y-91185753D01*
X154907675Y-91185754D01*
X154954176Y-91328870D01*
X154956203Y-91399838D01*
X154919541Y-91460636D01*
X154850790Y-91492728D01*
X154741150Y-91507162D01*
X154593125Y-91568476D01*
X154593123Y-91568477D01*
X154593124Y-91568477D01*
X154497928Y-91641523D01*
X154497925Y-91641526D01*
X154466013Y-91666013D01*
X154460983Y-91672568D01*
X154446548Y-91691379D01*
X154435681Y-91703770D01*
X152853766Y-93285685D01*
X152841375Y-93296552D01*
X152816013Y-93316013D01*
X152791526Y-93347925D01*
X152791523Y-93347928D01*
X152782946Y-93359106D01*
X152725607Y-93400972D01*
X152656790Y-93405647D01*
X152614615Y-93396683D01*
X152596688Y-93392872D01*
X152596686Y-93392872D01*
X152590232Y-93391500D01*
X152409768Y-93391500D01*
X152403315Y-93392872D01*
X152403311Y-93392872D01*
X152326109Y-93409282D01*
X152260696Y-93423186D01*
X152189906Y-93417784D01*
X152133274Y-93374967D01*
X152108780Y-93308329D01*
X152108500Y-93299939D01*
X152108500Y-93136756D01*
X152093481Y-93022676D01*
X152095026Y-93022473D01*
X152095026Y-92977527D01*
X152093481Y-92977324D01*
X152107962Y-92867331D01*
X152107962Y-92867330D01*
X152108500Y-92863244D01*
X152108500Y-92636756D01*
X152101950Y-92587000D01*
X152093481Y-92522676D01*
X152095026Y-92522473D01*
X152095026Y-92477527D01*
X152093481Y-92477324D01*
X152107962Y-92367331D01*
X152107962Y-92367330D01*
X152108500Y-92363244D01*
X152108500Y-92136756D01*
X152093481Y-92022676D01*
X152095026Y-92022473D01*
X152095026Y-91977527D01*
X152093481Y-91977324D01*
X152107962Y-91867331D01*
X152107962Y-91867330D01*
X152108500Y-91863244D01*
X152108500Y-91636756D01*
X152106825Y-91624029D01*
X152093481Y-91522676D01*
X152095026Y-91522473D01*
X152095026Y-91477527D01*
X152093481Y-91477324D01*
X152107962Y-91367331D01*
X152107962Y-91367330D01*
X152108500Y-91363244D01*
X152108500Y-91136756D01*
X152093481Y-91022676D01*
X152084089Y-91000000D01*
X152054032Y-90927437D01*
X152034686Y-90880732D01*
X151941157Y-90758843D01*
X151819267Y-90665314D01*
X151677324Y-90606519D01*
X151643989Y-90602130D01*
X151567333Y-90592038D01*
X151567328Y-90592038D01*
X151563244Y-90591500D01*
X151559125Y-90591500D01*
X151555067Y-90591234D01*
X151488401Y-90566818D01*
X151445518Y-90510235D01*
X151439989Y-90462765D01*
X151437672Y-90462765D01*
X151437672Y-90454509D01*
X151438750Y-90446320D01*
X151433500Y-90406440D01*
X151433500Y-90406435D01*
X151417838Y-90287470D01*
X151403818Y-90253621D01*
X151369003Y-90169571D01*
X151359684Y-90147074D01*
X151356524Y-90139444D01*
X151283478Y-90044249D01*
X151283474Y-90044245D01*
X151279078Y-90038516D01*
X151264016Y-90018886D01*
X151264013Y-90018883D01*
X151258987Y-90012333D01*
X151252243Y-90007158D01*
X151233621Y-89992868D01*
X151221230Y-89982001D01*
X151079452Y-89840223D01*
X151045426Y-89777911D01*
X151045902Y-89722245D01*
X151050055Y-89704610D01*
X151085140Y-89642889D01*
X151143605Y-89610898D01*
X151161431Y-89606668D01*
X151232328Y-89610400D01*
G37*
%TD.AperFunction*%
%TA.AperFunction,Conductor*%
G36*
X161018321Y-87716743D02*
G01*
X161067925Y-87750489D01*
X161155657Y-87847925D01*
X161172386Y-87866505D01*
X161177728Y-87870386D01*
X161177730Y-87870388D01*
X161293068Y-87954186D01*
X161318384Y-87972579D01*
X161324412Y-87975263D01*
X161324414Y-87975264D01*
X161474696Y-88042174D01*
X161483247Y-88045981D01*
X161561039Y-88062516D01*
X161653310Y-88082129D01*
X161653314Y-88082129D01*
X161659767Y-88083501D01*
X161840231Y-88083501D01*
X161846684Y-88082129D01*
X161846688Y-88082129D01*
X161938959Y-88062516D01*
X162016751Y-88045981D01*
X162025608Y-88042038D01*
X162132618Y-87994394D01*
X162183867Y-87983501D01*
X162194040Y-87983501D01*
X162262161Y-88003503D01*
X162283057Y-88020327D01*
X162292298Y-88029552D01*
X162298528Y-88033392D01*
X162298529Y-88033393D01*
X162429439Y-88114087D01*
X162437899Y-88119302D01*
X162600243Y-88173149D01*
X162607080Y-88173849D01*
X162607082Y-88173850D01*
X162648401Y-88178083D01*
X162701268Y-88183500D01*
X163298732Y-88183500D01*
X163301978Y-88183163D01*
X163301982Y-88183163D01*
X163336083Y-88179625D01*
X163401019Y-88172887D01*
X163466055Y-88151189D01*
X163556324Y-88121073D01*
X163556326Y-88121072D01*
X163563268Y-88118756D01*
X163592896Y-88100422D01*
X163654151Y-88062516D01*
X163683602Y-88044291D01*
X163752054Y-88025453D01*
X163816018Y-88044174D01*
X163937898Y-88119302D01*
X164100242Y-88173149D01*
X164107079Y-88173849D01*
X164107081Y-88173850D01*
X164148400Y-88178083D01*
X164201267Y-88183500D01*
X164798731Y-88183500D01*
X164801977Y-88183163D01*
X164801981Y-88183163D01*
X164836082Y-88179625D01*
X164901018Y-88172887D01*
X164966054Y-88151189D01*
X165056323Y-88121073D01*
X165056325Y-88121072D01*
X165063267Y-88118756D01*
X165092895Y-88100422D01*
X165202484Y-88032606D01*
X165208712Y-88028752D01*
X165213882Y-88023574D01*
X165213886Y-88023570D01*
X165216969Y-88020481D01*
X165219597Y-88019043D01*
X165219621Y-88019024D01*
X165219624Y-88019028D01*
X165279252Y-87986403D01*
X165306140Y-87983501D01*
X165316131Y-87983501D01*
X165367380Y-87994394D01*
X165474391Y-88042038D01*
X165483247Y-88045981D01*
X165561039Y-88062516D01*
X165653310Y-88082129D01*
X165653314Y-88082129D01*
X165659767Y-88083501D01*
X165840231Y-88083501D01*
X165846684Y-88082129D01*
X165846688Y-88082129D01*
X165938959Y-88062516D01*
X166016751Y-88045981D01*
X166026816Y-88041500D01*
X166114251Y-88002571D01*
X166184618Y-87993137D01*
X166248915Y-88023243D01*
X166286729Y-88083332D01*
X166291500Y-88117678D01*
X166291500Y-89198134D01*
X166298255Y-89260316D01*
X166349385Y-89396705D01*
X166436739Y-89513261D01*
X166553295Y-89600615D01*
X166561703Y-89603767D01*
X166682286Y-89648972D01*
X166682289Y-89648973D01*
X166689684Y-89651745D01*
X166695453Y-89652372D01*
X166756291Y-89687126D01*
X166789113Y-89750081D01*
X166791500Y-89774493D01*
X166791500Y-90185500D01*
X166771498Y-90253621D01*
X166717842Y-90300114D01*
X166665500Y-90311500D01*
X166301866Y-90311500D01*
X166239684Y-90318255D01*
X166103295Y-90369385D01*
X165986739Y-90456739D01*
X165899385Y-90573295D01*
X165848255Y-90709684D01*
X165841500Y-90771866D01*
X165841500Y-91499311D01*
X165821498Y-91567432D01*
X165767842Y-91613925D01*
X165697568Y-91624029D01*
X165689303Y-91622558D01*
X165596689Y-91602872D01*
X165596685Y-91602872D01*
X165590232Y-91601500D01*
X165484500Y-91601500D01*
X165416379Y-91581498D01*
X165369886Y-91527842D01*
X165358500Y-91475500D01*
X165358500Y-91048144D01*
X165359578Y-91031698D01*
X165362673Y-91008188D01*
X165363751Y-91000000D01*
X165342838Y-90841149D01*
X165281524Y-90693124D01*
X165208478Y-90597929D01*
X165208474Y-90597925D01*
X165206250Y-90595026D01*
X165189016Y-90572566D01*
X165189013Y-90572563D01*
X165183987Y-90566013D01*
X165167438Y-90553314D01*
X165158621Y-90546548D01*
X165146230Y-90535681D01*
X164214315Y-89603766D01*
X164203448Y-89591375D01*
X164189013Y-89572563D01*
X164183987Y-89566013D01*
X164152075Y-89541526D01*
X164152072Y-89541523D01*
X164115241Y-89513261D01*
X164063429Y-89473504D01*
X164063427Y-89473503D01*
X164056876Y-89468476D01*
X163908851Y-89407162D01*
X163900664Y-89406084D01*
X163900663Y-89406084D01*
X163889458Y-89404609D01*
X163842599Y-89398440D01*
X163789885Y-89391500D01*
X163789882Y-89391500D01*
X163789874Y-89391499D01*
X163758189Y-89387328D01*
X163750000Y-89386250D01*
X163718307Y-89390422D01*
X163701864Y-89391500D01*
X161229239Y-89391500D01*
X161161118Y-89371498D01*
X161140144Y-89354595D01*
X160945405Y-89159856D01*
X160911379Y-89097544D01*
X160908500Y-89070761D01*
X160908500Y-88586756D01*
X160893481Y-88472676D01*
X160884943Y-88452062D01*
X160837846Y-88338362D01*
X160834686Y-88330732D01*
X160741157Y-88208843D01*
X160734607Y-88203817D01*
X160734602Y-88203812D01*
X160674586Y-88157760D01*
X160632719Y-88100422D01*
X160628497Y-88029551D01*
X160662195Y-87968703D01*
X160885194Y-87745704D01*
X160947506Y-87711678D01*
X161018321Y-87716743D01*
G37*
%TD.AperFunction*%
%TA.AperFunction,Conductor*%
G36*
X152616581Y-80528502D02*
G01*
X152663074Y-80582158D01*
X152673178Y-80652432D01*
X152643684Y-80717012D01*
X152604795Y-80745836D01*
X152605139Y-80746433D01*
X152599939Y-80749435D01*
X152599706Y-80749608D01*
X152599417Y-80749736D01*
X152599411Y-80749739D01*
X152593386Y-80752422D01*
X152588045Y-80756302D01*
X152588044Y-80756303D01*
X152452731Y-80854613D01*
X152452729Y-80854615D01*
X152447387Y-80858496D01*
X152442966Y-80863406D01*
X152442965Y-80863407D01*
X152348361Y-80968476D01*
X152326633Y-80992607D01*
X152236401Y-81148893D01*
X152180635Y-81320525D01*
X152161771Y-81500000D01*
X152180635Y-81679475D01*
X152236401Y-81851107D01*
X152249620Y-81874002D01*
X152266500Y-81937001D01*
X152266500Y-82444039D01*
X152246498Y-82512160D01*
X152229673Y-82533057D01*
X152220448Y-82542298D01*
X152216608Y-82548528D01*
X152216607Y-82548529D01*
X152135255Y-82680507D01*
X152130698Y-82687899D01*
X152076851Y-82850243D01*
X152076151Y-82857080D01*
X152076150Y-82857082D01*
X152073568Y-82882285D01*
X152066500Y-82951268D01*
X152066500Y-83548732D01*
X152066837Y-83551978D01*
X152066837Y-83551982D01*
X152067513Y-83558500D01*
X152077113Y-83651019D01*
X152079295Y-83657559D01*
X152111192Y-83753164D01*
X152131244Y-83813268D01*
X152135096Y-83819492D01*
X152135096Y-83819493D01*
X152205709Y-83933602D01*
X152224547Y-84002054D01*
X152205825Y-84066021D01*
X152130698Y-84187899D01*
X152076851Y-84350243D01*
X152066500Y-84451268D01*
X152066500Y-85048732D01*
X152077113Y-85151019D01*
X152131244Y-85313268D01*
X152135096Y-85319492D01*
X152135096Y-85319493D01*
X152165510Y-85368642D01*
X152221248Y-85458713D01*
X152226431Y-85463887D01*
X152229520Y-85466971D01*
X152230958Y-85469599D01*
X152230977Y-85469623D01*
X152230973Y-85469626D01*
X152263598Y-85529254D01*
X152266500Y-85556142D01*
X152266500Y-86269698D01*
X152249619Y-86332697D01*
X152211401Y-86398893D01*
X152209359Y-86405178D01*
X152159034Y-86560065D01*
X152155635Y-86570525D01*
X152144232Y-86679020D01*
X152142784Y-86692794D01*
X152115771Y-86758450D01*
X152057549Y-86799080D01*
X152017474Y-86805623D01*
X151841659Y-86805623D01*
X151835206Y-86806995D01*
X151835202Y-86806995D01*
X151753399Y-86824383D01*
X151665139Y-86843143D01*
X151659110Y-86845827D01*
X151659108Y-86845828D01*
X151506307Y-86913860D01*
X151506305Y-86913861D01*
X151500277Y-86916545D01*
X151494936Y-86920425D01*
X151494935Y-86920426D01*
X151359622Y-87018736D01*
X151359620Y-87018738D01*
X151354278Y-87022619D01*
X151233524Y-87156730D01*
X151143292Y-87313016D01*
X151141252Y-87319296D01*
X151120381Y-87383531D01*
X151089643Y-87433691D01*
X151081567Y-87441767D01*
X151019255Y-87475793D01*
X150992582Y-87478672D01*
X150979525Y-87478683D01*
X150813106Y-87518176D01*
X150660236Y-87594895D01*
X150654903Y-87599237D01*
X150654901Y-87599238D01*
X150583976Y-87656980D01*
X150583970Y-87656986D01*
X150581482Y-87659011D01*
X150159011Y-88081482D01*
X150156955Y-88084014D01*
X150102409Y-88151189D01*
X150094187Y-88161314D01*
X150091106Y-88167479D01*
X150091104Y-88167483D01*
X150021005Y-88307775D01*
X150017736Y-88314318D01*
X149997447Y-88400482D01*
X149985302Y-88452062D01*
X149950219Y-88513785D01*
X149891749Y-88545778D01*
X149752446Y-88578836D01*
X149745907Y-88582118D01*
X149745906Y-88582118D01*
X149728451Y-88590878D01*
X149599576Y-88655555D01*
X149594243Y-88659897D01*
X149594241Y-88659898D01*
X149523316Y-88717640D01*
X149523310Y-88717646D01*
X149520822Y-88719671D01*
X149098351Y-89142142D01*
X149096295Y-89144674D01*
X149040107Y-89213871D01*
X149033527Y-89221974D01*
X149030446Y-89228139D01*
X149030444Y-89228143D01*
X148960345Y-89368435D01*
X148957076Y-89374978D01*
X148953186Y-89391499D01*
X148926206Y-89506081D01*
X148917874Y-89541465D01*
X148917880Y-89548781D01*
X148917880Y-89548785D01*
X148917884Y-89553150D01*
X148917043Y-89556024D01*
X148917039Y-89556056D01*
X148917034Y-89556055D01*
X148897940Y-89621288D01*
X148880979Y-89642353D01*
X148879321Y-89644011D01*
X148836205Y-89670434D01*
X148836711Y-89671571D01*
X148677879Y-89742288D01*
X148677877Y-89742289D01*
X148671849Y-89744973D01*
X148666508Y-89748853D01*
X148666507Y-89748854D01*
X148531194Y-89847164D01*
X148531192Y-89847166D01*
X148525850Y-89851047D01*
X148521429Y-89855957D01*
X148521428Y-89855958D01*
X148411890Y-89977613D01*
X148405096Y-89985158D01*
X148373953Y-90039099D01*
X148322574Y-90088090D01*
X148252860Y-90101527D01*
X148186949Y-90075140D01*
X148175741Y-90065192D01*
X143158683Y-85048134D01*
X145741500Y-85048134D01*
X145748255Y-85110316D01*
X145799385Y-85246705D01*
X145886739Y-85363261D01*
X146003295Y-85450615D01*
X146139684Y-85501745D01*
X146201866Y-85508500D01*
X146365500Y-85508500D01*
X146433621Y-85528502D01*
X146480114Y-85582158D01*
X146491500Y-85634500D01*
X146491500Y-86312999D01*
X146474620Y-86375998D01*
X146461401Y-86398893D01*
X146459359Y-86405178D01*
X146409034Y-86560065D01*
X146405635Y-86570525D01*
X146386771Y-86750000D01*
X146405635Y-86929475D01*
X146461401Y-87101107D01*
X146551633Y-87257393D01*
X146556051Y-87262300D01*
X146556052Y-87262301D01*
X146601716Y-87313016D01*
X146672387Y-87391504D01*
X146677729Y-87395385D01*
X146677731Y-87395387D01*
X146792300Y-87478626D01*
X146818385Y-87497578D01*
X146824413Y-87500262D01*
X146824415Y-87500263D01*
X146872020Y-87521458D01*
X146983248Y-87570980D01*
X147071508Y-87589740D01*
X147153311Y-87607128D01*
X147153315Y-87607128D01*
X147159768Y-87608500D01*
X147340232Y-87608500D01*
X147346685Y-87607128D01*
X147346689Y-87607128D01*
X147428492Y-87589740D01*
X147516752Y-87570980D01*
X147627980Y-87521458D01*
X147675585Y-87500263D01*
X147675587Y-87500262D01*
X147681615Y-87497578D01*
X147707700Y-87478626D01*
X147822269Y-87395387D01*
X147822271Y-87395385D01*
X147827613Y-87391504D01*
X147898284Y-87313016D01*
X147943948Y-87262301D01*
X147943949Y-87262300D01*
X147948367Y-87257393D01*
X148038599Y-87101107D01*
X148094365Y-86929475D01*
X148113229Y-86750000D01*
X148094365Y-86570525D01*
X148090967Y-86560065D01*
X148040641Y-86405178D01*
X148038599Y-86398893D01*
X148025380Y-86375998D01*
X148008500Y-86312999D01*
X148008500Y-85634500D01*
X148028502Y-85566379D01*
X148082158Y-85519886D01*
X148134500Y-85508500D01*
X148298134Y-85508500D01*
X148360316Y-85501745D01*
X148496705Y-85450615D01*
X148613261Y-85363261D01*
X148700615Y-85246705D01*
X148751745Y-85110316D01*
X148758500Y-85048134D01*
X148758500Y-82951866D01*
X148751745Y-82889684D01*
X148700615Y-82753295D01*
X148613261Y-82636739D01*
X148496705Y-82549385D01*
X148360316Y-82498255D01*
X148298134Y-82491500D01*
X146201866Y-82491500D01*
X146139684Y-82498255D01*
X146003295Y-82549385D01*
X145886739Y-82636739D01*
X145799385Y-82753295D01*
X145748255Y-82889684D01*
X145741500Y-82951866D01*
X145741500Y-85048134D01*
X143158683Y-85048134D01*
X142795405Y-84684856D01*
X142761379Y-84622544D01*
X142758500Y-84595761D01*
X142758500Y-82951866D01*
X142751745Y-82889684D01*
X142700615Y-82753295D01*
X142613261Y-82636739D01*
X142496705Y-82549385D01*
X142360316Y-82498255D01*
X142298134Y-82491500D01*
X140201866Y-82491500D01*
X140139684Y-82498255D01*
X140003295Y-82549385D01*
X139886739Y-82636739D01*
X139799385Y-82753295D01*
X139796233Y-82761703D01*
X139796232Y-82761705D01*
X139752482Y-82878408D01*
X139709841Y-82935173D01*
X139643279Y-82959873D01*
X139573930Y-82944666D01*
X139523812Y-82894380D01*
X139508500Y-82834179D01*
X139508500Y-82053250D01*
X139510246Y-82032345D01*
X139512770Y-82017344D01*
X139512770Y-82017341D01*
X139513576Y-82012552D01*
X139513729Y-82000000D01*
X139513040Y-81995186D01*
X139513039Y-81995176D01*
X139512157Y-81989017D01*
X139511206Y-81962172D01*
X139517512Y-81874000D01*
X139523039Y-81796718D01*
X139525596Y-81778934D01*
X139566999Y-81588607D01*
X139572063Y-81571359D01*
X139640136Y-81388850D01*
X139647604Y-81372498D01*
X139740952Y-81201542D01*
X139750672Y-81186418D01*
X139867402Y-81030486D01*
X139879175Y-81016900D01*
X140016900Y-80879175D01*
X140030486Y-80867402D01*
X140186418Y-80750672D01*
X140201542Y-80740952D01*
X140372498Y-80647604D01*
X140388850Y-80640136D01*
X140571359Y-80572063D01*
X140588608Y-80566999D01*
X140778936Y-80525596D01*
X140796715Y-80523039D01*
X140958605Y-80511460D01*
X140976565Y-80512207D01*
X140984845Y-80512308D01*
X140993724Y-80513691D01*
X141025286Y-80509564D01*
X141041621Y-80508500D01*
X152548460Y-80508500D01*
X152616581Y-80528502D01*
G37*
%TD.AperFunction*%
%TA.AperFunction,Conductor*%
G36*
X156559066Y-83444741D02*
G01*
X156576704Y-83456076D01*
X156611929Y-83483105D01*
X156619555Y-83486264D01*
X156619557Y-83486265D01*
X156646606Y-83497469D01*
X156756913Y-83543160D01*
X156765097Y-83544237D01*
X156765099Y-83544238D01*
X156837725Y-83553799D01*
X156902652Y-83582521D01*
X156941744Y-83641786D01*
X156946201Y-83662275D01*
X156955585Y-83733554D01*
X156955585Y-83766446D01*
X156941500Y-83873434D01*
X156941500Y-84126566D01*
X156942038Y-84130652D01*
X156942038Y-84130653D01*
X156955585Y-84233554D01*
X156955585Y-84266446D01*
X156946201Y-84337725D01*
X156917479Y-84402652D01*
X156858214Y-84441744D01*
X156837725Y-84446201D01*
X156766446Y-84455585D01*
X156733554Y-84455585D01*
X156630653Y-84442038D01*
X156630652Y-84442038D01*
X156626566Y-84441500D01*
X156373434Y-84441500D01*
X156369348Y-84442038D01*
X156369347Y-84442038D01*
X156266446Y-84455585D01*
X156233554Y-84455585D01*
X156132340Y-84442260D01*
X156067413Y-84413538D01*
X156028321Y-84354273D01*
X156027476Y-84283281D01*
X156032377Y-84269119D01*
X156040001Y-84250713D01*
X156043160Y-84243087D01*
X156048552Y-84202135D01*
X156057962Y-84130653D01*
X156057962Y-84130652D01*
X156058500Y-84126566D01*
X156058500Y-83873434D01*
X156043160Y-83756913D01*
X156040000Y-83749285D01*
X156039999Y-83749280D01*
X156032377Y-83730879D01*
X156024788Y-83660289D01*
X156056568Y-83596803D01*
X156117626Y-83560576D01*
X156132340Y-83557740D01*
X156234899Y-83544238D01*
X156243087Y-83543160D01*
X156388072Y-83483105D01*
X156423296Y-83456076D01*
X156489517Y-83430476D01*
X156559066Y-83444741D01*
G37*
%TD.AperFunction*%
%TA.AperFunction,Conductor*%
G36*
X158406518Y-82128502D02*
G01*
X158419836Y-82138671D01*
X158422387Y-82141504D01*
X158427729Y-82145385D01*
X158427731Y-82145387D01*
X158563043Y-82243697D01*
X158568385Y-82247578D01*
X158574413Y-82250262D01*
X158574415Y-82250263D01*
X158724394Y-82317038D01*
X158733248Y-82320980D01*
X158799208Y-82335000D01*
X158903311Y-82357128D01*
X158903315Y-82357128D01*
X158909768Y-82358500D01*
X158945761Y-82358500D01*
X159013882Y-82378502D01*
X159034856Y-82395405D01*
X159479595Y-82840144D01*
X159513621Y-82902456D01*
X159516500Y-82929239D01*
X159516501Y-83245070D01*
X159516501Y-83270310D01*
X159496499Y-83338430D01*
X159442844Y-83384923D01*
X159372570Y-83395028D01*
X159307989Y-83365535D01*
X159301406Y-83359405D01*
X159045767Y-83103766D01*
X159034900Y-83091375D01*
X159020465Y-83072563D01*
X159015439Y-83066013D01*
X158983527Y-83041526D01*
X158983524Y-83041523D01*
X158888328Y-82968476D01*
X158740303Y-82907162D01*
X158732116Y-82906084D01*
X158732115Y-82906084D01*
X158720910Y-82904609D01*
X158677492Y-82898893D01*
X158621337Y-82891500D01*
X158621334Y-82891500D01*
X158621326Y-82891499D01*
X158589641Y-82887328D01*
X158581452Y-82886250D01*
X158549759Y-82890422D01*
X158533316Y-82891500D01*
X158237182Y-82891500D01*
X158188963Y-82881909D01*
X158075713Y-82834999D01*
X158075714Y-82834999D01*
X158068087Y-82831840D01*
X158059903Y-82830763D01*
X158059901Y-82830762D01*
X157955653Y-82817038D01*
X157955652Y-82817038D01*
X157951566Y-82816500D01*
X157809500Y-82816500D01*
X157741379Y-82796498D01*
X157694886Y-82742842D01*
X157683500Y-82690500D01*
X157683500Y-82548434D01*
X157678294Y-82508885D01*
X157677489Y-82502774D01*
X157688429Y-82432625D01*
X157713316Y-82397233D01*
X157965144Y-82145405D01*
X158027456Y-82111379D01*
X158054239Y-82108500D01*
X158338397Y-82108500D01*
X158406518Y-82128502D01*
G37*
%TD.AperFunction*%
%TD*%
M02*
