%TF.GenerationSoftware,KiCad,Pcbnew,(6.0.4)*%
%TF.CreationDate,2023-08-29T14:34:22+02:00*%
%TF.ProjectId,big_black_box_pcb_cad,6269675f-626c-4616-936b-5f626f785f70,rev?*%
%TF.SameCoordinates,Original*%
%TF.FileFunction,Legend,Top*%
%TF.FilePolarity,Positive*%
%FSLAX46Y46*%
G04 Gerber Fmt 4.6, Leading zero omitted, Abs format (unit mm)*
G04 Created by KiCad (PCBNEW (6.0.4)) date 2023-08-29 14:34:22*
%MOMM*%
%LPD*%
G01*
G04 APERTURE LIST*
%ADD10C,0.150000*%
%ADD11C,0.200000*%
%ADD12C,0.120000*%
G04 APERTURE END LIST*
D10*
X155750000Y-105500000D02*
X162000000Y-105500000D01*
X151000000Y-102000000D02*
X155750000Y-102000000D01*
X161000000Y-106000000D02*
X162000000Y-106000000D01*
X155750000Y-109500000D02*
X158000000Y-109500000D01*
X155750000Y-106000000D02*
X158000000Y-106000000D01*
X162000000Y-102000000D02*
X155750000Y-102000000D01*
X151000000Y-105500000D02*
X151000000Y-102000000D01*
X162000000Y-109500000D02*
X161000000Y-109500000D01*
X155750000Y-106000000D02*
X155750000Y-109500000D01*
X162000000Y-106000000D02*
X162000000Y-109500000D01*
X155750000Y-105500000D02*
X151000000Y-105500000D01*
X162000000Y-105500000D02*
X162000000Y-102000000D01*
X155750000Y-102000000D02*
X155750000Y-105500000D01*
X152202380Y-105107142D02*
X151202380Y-105107142D01*
X151916666Y-104773809D01*
X151202380Y-104440476D01*
X152202380Y-104440476D01*
X151202380Y-103773809D02*
X151202380Y-103583333D01*
X151250000Y-103488095D01*
X151345238Y-103392857D01*
X151535714Y-103345238D01*
X151869047Y-103345238D01*
X152059523Y-103392857D01*
X152154761Y-103488095D01*
X152202380Y-103583333D01*
X152202380Y-103773809D01*
X152154761Y-103869047D01*
X152059523Y-103964285D01*
X151869047Y-104011904D01*
X151535714Y-104011904D01*
X151345238Y-103964285D01*
X151250000Y-103869047D01*
X151202380Y-103773809D01*
X152202380Y-102916666D02*
X151202380Y-102916666D01*
X151202380Y-102678571D01*
X151250000Y-102535714D01*
X151345238Y-102440476D01*
X151440476Y-102392857D01*
X151630952Y-102345238D01*
X151773809Y-102345238D01*
X151964285Y-102392857D01*
X152059523Y-102440476D01*
X152154761Y-102535714D01*
X152202380Y-102678571D01*
X152202380Y-102916666D01*
X156428571Y-104488095D02*
X156476190Y-104345238D01*
X156523809Y-104297619D01*
X156619047Y-104250000D01*
X156761904Y-104250000D01*
X156857142Y-104297619D01*
X156904761Y-104345238D01*
X156952380Y-104440476D01*
X156952380Y-104821428D01*
X155952380Y-104821428D01*
X155952380Y-104488095D01*
X156000000Y-104392857D01*
X156047619Y-104345238D01*
X156142857Y-104297619D01*
X156238095Y-104297619D01*
X156333333Y-104345238D01*
X156380952Y-104392857D01*
X156428571Y-104488095D01*
X156428571Y-104821428D01*
X156666666Y-103869047D02*
X156666666Y-103392857D01*
X156952380Y-103964285D02*
X155952380Y-103630952D01*
X156952380Y-103297619D01*
X155952380Y-103107142D02*
X155952380Y-102535714D01*
X156952380Y-102821428D02*
X155952380Y-102821428D01*
X156857142Y-108464285D02*
X156904761Y-108511904D01*
X156952380Y-108654761D01*
X156952380Y-108750000D01*
X156904761Y-108892857D01*
X156809523Y-108988095D01*
X156714285Y-109035714D01*
X156523809Y-109083333D01*
X156380952Y-109083333D01*
X156190476Y-109035714D01*
X156095238Y-108988095D01*
X156000000Y-108892857D01*
X155952380Y-108750000D01*
X155952380Y-108654761D01*
X156000000Y-108511904D01*
X156047619Y-108464285D01*
X156952380Y-108035714D02*
X155952380Y-108035714D01*
X156428571Y-108035714D02*
X156428571Y-107464285D01*
X156952380Y-107464285D02*
X155952380Y-107464285D01*
X156952380Y-106416666D02*
X156476190Y-106750000D01*
X156952380Y-106988095D02*
X155952380Y-106988095D01*
X155952380Y-106607142D01*
X156000000Y-106511904D01*
X156047619Y-106464285D01*
X156142857Y-106416666D01*
X156285714Y-106416666D01*
X156380952Y-106464285D01*
X156428571Y-106511904D01*
X156476190Y-106607142D01*
X156476190Y-106988095D01*
D11*
X145252380Y-114273809D02*
X145252380Y-114083333D01*
X145300000Y-113988095D01*
X145395238Y-113892857D01*
X145585714Y-113845238D01*
X145919047Y-113845238D01*
X146109523Y-113892857D01*
X146204761Y-113988095D01*
X146252380Y-114083333D01*
X146252380Y-114273809D01*
X146204761Y-114369047D01*
X146109523Y-114464285D01*
X145919047Y-114511904D01*
X145585714Y-114511904D01*
X145395238Y-114464285D01*
X145300000Y-114369047D01*
X145252380Y-114273809D01*
X146252380Y-113416666D02*
X145252380Y-113416666D01*
X146252380Y-112845238D01*
X145252380Y-112845238D01*
X145204761Y-111654761D02*
X146490476Y-112511904D01*
X145252380Y-111130952D02*
X145252380Y-110940476D01*
X145300000Y-110845238D01*
X145395238Y-110750000D01*
X145585714Y-110702380D01*
X145919047Y-110702380D01*
X146109523Y-110750000D01*
X146204761Y-110845238D01*
X146252380Y-110940476D01*
X146252380Y-111130952D01*
X146204761Y-111226190D01*
X146109523Y-111321428D01*
X145919047Y-111369047D01*
X145585714Y-111369047D01*
X145395238Y-111321428D01*
X145300000Y-111226190D01*
X145252380Y-111130952D01*
X145728571Y-109940476D02*
X145728571Y-110273809D01*
X146252380Y-110273809D02*
X145252380Y-110273809D01*
X145252380Y-109797619D01*
X145728571Y-109083333D02*
X145728571Y-109416666D01*
X146252380Y-109416666D02*
X145252380Y-109416666D01*
X145252380Y-108940476D01*
%TO.C,G\u002A\u002A\u002A*%
G36*
X167738948Y-82709808D02*
G01*
X167817875Y-82721064D01*
X167835555Y-82723894D01*
X167988710Y-82756347D01*
X168119979Y-82800364D01*
X168229063Y-82855717D01*
X168315662Y-82922182D01*
X168379478Y-82999530D01*
X168420211Y-83087537D01*
X168437122Y-83178846D01*
X168437918Y-83244307D01*
X168428408Y-83301533D01*
X168415941Y-83341306D01*
X168365426Y-83450303D01*
X168290534Y-83562530D01*
X168192312Y-83676966D01*
X168071805Y-83792589D01*
X167930056Y-83908377D01*
X167768112Y-84023309D01*
X167627259Y-84112422D01*
X167573063Y-84144016D01*
X167509015Y-84179640D01*
X167438774Y-84217447D01*
X167365995Y-84255588D01*
X167294336Y-84292214D01*
X167227454Y-84325479D01*
X167169006Y-84353535D01*
X167122650Y-84374532D01*
X167092042Y-84386623D01*
X167081049Y-84388440D01*
X167083613Y-84374910D01*
X167095843Y-84344066D01*
X167115451Y-84301423D01*
X167126453Y-84279093D01*
X167178228Y-84176117D01*
X167317348Y-84101851D01*
X167494738Y-84002684D01*
X167650766Y-83905537D01*
X167789397Y-83807637D01*
X167914593Y-83706214D01*
X168013917Y-83614666D01*
X168114339Y-83508190D01*
X168190057Y-83409013D01*
X168241081Y-83317107D01*
X168267417Y-83232449D01*
X168269075Y-83155012D01*
X168246064Y-83084773D01*
X168207975Y-83031641D01*
X168149280Y-82980114D01*
X168075591Y-82937824D01*
X167984375Y-82903831D01*
X167873100Y-82877199D01*
X167739233Y-82856988D01*
X167735472Y-82856545D01*
X167602097Y-82840927D01*
X167609684Y-82795070D01*
X167614908Y-82757601D01*
X167617386Y-82728288D01*
X167617413Y-82726662D01*
X167623804Y-82713102D01*
X167644479Y-82705794D01*
X167682005Y-82704707D01*
X167738948Y-82709808D01*
G37*
G36*
X167729887Y-84209281D02*
G01*
X167748529Y-84236240D01*
X167770972Y-84273085D01*
X167835659Y-84384997D01*
X167888577Y-84476917D01*
X167930906Y-84551139D01*
X167963825Y-84609956D01*
X167988514Y-84655662D01*
X168006154Y-84690550D01*
X168017925Y-84716912D01*
X168025005Y-84737043D01*
X168028576Y-84753235D01*
X168029817Y-84767781D01*
X168029934Y-84776391D01*
X168023588Y-84823131D01*
X168000780Y-84861118D01*
X167994495Y-84868151D01*
X167978410Y-84879993D01*
X167942243Y-84903275D01*
X167888293Y-84936655D01*
X167818860Y-84978790D01*
X167736243Y-85028341D01*
X167642741Y-85083965D01*
X167540656Y-85144321D01*
X167432284Y-85208067D01*
X167319928Y-85273863D01*
X167205884Y-85340366D01*
X167092455Y-85406235D01*
X166981937Y-85470129D01*
X166876633Y-85530706D01*
X166778839Y-85586625D01*
X166690858Y-85636545D01*
X166614986Y-85679124D01*
X166553526Y-85713020D01*
X166508774Y-85736892D01*
X166486219Y-85748020D01*
X166430937Y-85763916D01*
X166381237Y-85758030D01*
X166334845Y-85729254D01*
X166289489Y-85676477D01*
X166266521Y-85640796D01*
X166238664Y-85594174D01*
X166344448Y-85476456D01*
X166389385Y-85427200D01*
X166420630Y-85395280D01*
X166441113Y-85378330D01*
X166453763Y-85373988D01*
X166461509Y-85379889D01*
X166462329Y-85381322D01*
X166473617Y-85401648D01*
X166477346Y-85407655D01*
X166488464Y-85401934D01*
X166519432Y-85384791D01*
X166567756Y-85357652D01*
X166630941Y-85321942D01*
X166706494Y-85279087D01*
X166791921Y-85230513D01*
X166884728Y-85177645D01*
X166982421Y-85121908D01*
X167082506Y-85064728D01*
X167182489Y-85007532D01*
X167279876Y-84951743D01*
X167372173Y-84898788D01*
X167456887Y-84850092D01*
X167531523Y-84807081D01*
X167593587Y-84771180D01*
X167640586Y-84743815D01*
X167670025Y-84726412D01*
X167679146Y-84720706D01*
X167674209Y-84709269D01*
X167658270Y-84679282D01*
X167633366Y-84634429D01*
X167601536Y-84578390D01*
X167573267Y-84529380D01*
X167533426Y-84460535D01*
X167505200Y-84410555D01*
X167487247Y-84376028D01*
X167478225Y-84353540D01*
X167476792Y-84339676D01*
X167481606Y-84331023D01*
X167491324Y-84324168D01*
X167492345Y-84323551D01*
X167534404Y-84298796D01*
X167582147Y-84271600D01*
X167630043Y-84244993D01*
X167672564Y-84222006D01*
X167704180Y-84205668D01*
X167719361Y-84199011D01*
X167719639Y-84198986D01*
X167729887Y-84209281D01*
G37*
G36*
X167411007Y-83655131D02*
G01*
X167429202Y-83681449D01*
X167444053Y-83706063D01*
X167469382Y-83749843D01*
X167493879Y-83791644D01*
X167503486Y-83807809D01*
X167527780Y-83848341D01*
X167403507Y-83921099D01*
X167352903Y-83949939D01*
X167310437Y-83972671D01*
X167280973Y-83986783D01*
X167269721Y-83990104D01*
X167270765Y-83977661D01*
X167279747Y-83946625D01*
X167294697Y-83902193D01*
X167313646Y-83849567D01*
X167334624Y-83793945D01*
X167355662Y-83740526D01*
X167374789Y-83694510D01*
X167390035Y-83661097D01*
X167399432Y-83645485D01*
X167400475Y-83644955D01*
X167411007Y-83655131D01*
G37*
G36*
X167138609Y-81735832D02*
G01*
X167210709Y-81750793D01*
X167232963Y-81759387D01*
X167311129Y-81808878D01*
X167378628Y-81881007D01*
X167434597Y-81974575D01*
X167478170Y-82088382D01*
X167483574Y-82107087D01*
X167493306Y-82157734D01*
X167500909Y-82228384D01*
X167506279Y-82313344D01*
X167509309Y-82406922D01*
X167509894Y-82503428D01*
X167507927Y-82597168D01*
X167503304Y-82682452D01*
X167495918Y-82753587D01*
X167495621Y-82755657D01*
X167454376Y-82988657D01*
X167397903Y-83226966D01*
X167327422Y-83468335D01*
X167244153Y-83710518D01*
X167149316Y-83951267D01*
X167044130Y-84188334D01*
X166929817Y-84419473D01*
X166807596Y-84642435D01*
X166678687Y-84854973D01*
X166544310Y-85054839D01*
X166405685Y-85239787D01*
X166264032Y-85407568D01*
X166120571Y-85555936D01*
X165976523Y-85682642D01*
X165860651Y-85767585D01*
X165802869Y-85802964D01*
X165737265Y-85838631D01*
X165680235Y-85865870D01*
X165633276Y-85884845D01*
X165593649Y-85896685D01*
X165552165Y-85903059D01*
X165499633Y-85905635D01*
X165459005Y-85906052D01*
X165378380Y-85903432D01*
X165315894Y-85892958D01*
X165264379Y-85871655D01*
X165216667Y-85836548D01*
X165165589Y-85784663D01*
X165165071Y-85784088D01*
X165112119Y-85712492D01*
X165071049Y-85627568D01*
X165041235Y-85526909D01*
X165022054Y-85408105D01*
X165012880Y-85268750D01*
X165011848Y-85193587D01*
X165012152Y-85125164D01*
X165012937Y-85066499D01*
X165014100Y-85022119D01*
X165015539Y-84996551D01*
X165016392Y-84992164D01*
X165030582Y-84989246D01*
X165063012Y-84985665D01*
X165099711Y-84982707D01*
X165178570Y-84977240D01*
X165179080Y-85177687D01*
X165180061Y-85265136D01*
X165182888Y-85333303D01*
X165188149Y-85388650D01*
X165196431Y-85437637D01*
X165206552Y-85480121D01*
X165242055Y-85584410D01*
X165287247Y-85664975D01*
X165342276Y-85721857D01*
X165407289Y-85755097D01*
X165482434Y-85764738D01*
X165567859Y-85750820D01*
X165663713Y-85713386D01*
X165770143Y-85652478D01*
X165784868Y-85642767D01*
X165914960Y-85544214D01*
X166046817Y-85422342D01*
X166179136Y-85279424D01*
X166310614Y-85117731D01*
X166439949Y-84939535D01*
X166565837Y-84747109D01*
X166686976Y-84542724D01*
X166802064Y-84328653D01*
X166909797Y-84107167D01*
X167008874Y-83880538D01*
X167097991Y-83651038D01*
X167175845Y-83420940D01*
X167241134Y-83192515D01*
X167277717Y-83039168D01*
X167311792Y-82860324D01*
X167334472Y-82689713D01*
X167345762Y-82529802D01*
X167345668Y-82383059D01*
X167334194Y-82251952D01*
X167311347Y-82138950D01*
X167277131Y-82046520D01*
X167275620Y-82043474D01*
X167245759Y-81988710D01*
X167217775Y-81951155D01*
X167185184Y-81923637D01*
X167147863Y-81902194D01*
X167081096Y-81882398D01*
X167002848Y-81884615D01*
X166914450Y-81908492D01*
X166817233Y-81953681D01*
X166719229Y-82015115D01*
X166676294Y-82044218D01*
X166648567Y-82059757D01*
X166630740Y-82063770D01*
X166617506Y-82058296D01*
X166614087Y-82055505D01*
X166588288Y-82037171D01*
X166553558Y-82017111D01*
X166550070Y-82015319D01*
X166507092Y-81993537D01*
X166581704Y-81935599D01*
X166685819Y-81863422D01*
X166796287Y-81802152D01*
X166890740Y-81761829D01*
X166969999Y-81741412D01*
X167055497Y-81732726D01*
X167138609Y-81735832D01*
G37*
G36*
X167207498Y-82711783D02*
G01*
X167216462Y-82719176D01*
X167216449Y-82720703D01*
X167213474Y-82742540D01*
X167207999Y-82778132D01*
X167205949Y-82790857D01*
X167199086Y-82828839D01*
X167190337Y-82848474D01*
X167173260Y-82856783D01*
X167141842Y-82860744D01*
X167115391Y-82861309D01*
X167096328Y-82853041D01*
X167077440Y-82830878D01*
X167059644Y-82803062D01*
X167040523Y-82767307D01*
X167031473Y-82740501D01*
X167032768Y-82730617D01*
X167050599Y-82724331D01*
X167086334Y-82717850D01*
X167131075Y-82712693D01*
X167180205Y-82709732D01*
X167207498Y-82711783D01*
G37*
G36*
X165587572Y-82915759D02*
G01*
X165476784Y-82980394D01*
X165386054Y-83034100D01*
X165314134Y-83077650D01*
X165259777Y-83111818D01*
X165221736Y-83137378D01*
X165198763Y-83155101D01*
X165189609Y-83165762D01*
X165189463Y-83168037D01*
X165197000Y-83182466D01*
X165216276Y-83217171D01*
X165246128Y-83270114D01*
X165285394Y-83339257D01*
X165332913Y-83422564D01*
X165387522Y-83517996D01*
X165448061Y-83623517D01*
X165513367Y-83737088D01*
X165570361Y-83836009D01*
X165638350Y-83954179D01*
X165702162Y-84065604D01*
X165760682Y-84168305D01*
X165812796Y-84260301D01*
X165857389Y-84339612D01*
X165893348Y-84404257D01*
X165919559Y-84452257D01*
X165934907Y-84481631D01*
X165938576Y-84490479D01*
X165924964Y-84494971D01*
X165892567Y-84503136D01*
X165847391Y-84513667D01*
X165795439Y-84525256D01*
X165742717Y-84536595D01*
X165695227Y-84546376D01*
X165658975Y-84553292D01*
X165639966Y-84556034D01*
X165638514Y-84555836D01*
X165631983Y-84544527D01*
X165613812Y-84512991D01*
X165585216Y-84463338D01*
X165547411Y-84397678D01*
X165501612Y-84318124D01*
X165449034Y-84226785D01*
X165390893Y-84125773D01*
X165328403Y-84017199D01*
X165310650Y-83986353D01*
X165243812Y-83870224D01*
X165178239Y-83756308D01*
X165115577Y-83647463D01*
X165057470Y-83546544D01*
X165005563Y-83456407D01*
X164961501Y-83379910D01*
X164926929Y-83319909D01*
X164903492Y-83279260D01*
X164902713Y-83277911D01*
X164863460Y-83207765D01*
X164836610Y-83151047D01*
X164823525Y-83104382D01*
X164825567Y-83064401D01*
X164844100Y-83027731D01*
X164880484Y-82990999D01*
X164936084Y-82950834D01*
X165012260Y-82903865D01*
X165066719Y-82871995D01*
X165132291Y-82833613D01*
X165189901Y-82799270D01*
X165235921Y-82771178D01*
X165266725Y-82751552D01*
X165278634Y-82742698D01*
X165269166Y-82734257D01*
X165239719Y-82713626D01*
X165192288Y-82682086D01*
X165128868Y-82640918D01*
X165051452Y-82591401D01*
X164962038Y-82534815D01*
X164862618Y-82472443D01*
X164755188Y-82405562D01*
X164703830Y-82373760D01*
X164571905Y-82292129D01*
X164460248Y-82222713D01*
X164367168Y-82164232D01*
X164290978Y-82115401D01*
X164229987Y-82074940D01*
X164182508Y-82041566D01*
X164146850Y-82013995D01*
X164121325Y-81990947D01*
X164104243Y-81971139D01*
X164093916Y-81953288D01*
X164088655Y-81936111D01*
X164086770Y-81918328D01*
X164086642Y-81910450D01*
X164542062Y-81910450D01*
X164542068Y-81910677D01*
X164553418Y-81919672D01*
X164584571Y-81940782D01*
X164633371Y-81972631D01*
X164697659Y-82013844D01*
X164775278Y-82063047D01*
X164864069Y-82118864D01*
X164961875Y-82179921D01*
X165064583Y-82243633D01*
X165184774Y-82317909D01*
X165285044Y-82379668D01*
X165367365Y-82429992D01*
X165433712Y-82469963D01*
X165486055Y-82500663D01*
X165526369Y-82523176D01*
X165556625Y-82538582D01*
X165578797Y-82547966D01*
X165594857Y-82552409D01*
X165606778Y-82552993D01*
X165616532Y-82550802D01*
X165621163Y-82549024D01*
X165647322Y-82535940D01*
X165658994Y-82525664D01*
X165659030Y-82525352D01*
X165658362Y-82511192D01*
X165656339Y-82473947D01*
X165653111Y-82416259D01*
X165648829Y-82340774D01*
X165643644Y-82250135D01*
X165637705Y-82146987D01*
X165631163Y-82033972D01*
X165626295Y-81950229D01*
X165619230Y-81830386D01*
X165612395Y-81717317D01*
X165605976Y-81613873D01*
X165600156Y-81522903D01*
X165595121Y-81447259D01*
X165591054Y-81389790D01*
X165588140Y-81353347D01*
X165586950Y-81342274D01*
X165580619Y-81301341D01*
X165485923Y-81355161D01*
X165322107Y-81448486D01*
X165170773Y-81535148D01*
X165033025Y-81614494D01*
X164909969Y-81685875D01*
X164802710Y-81748639D01*
X164712354Y-81802137D01*
X164640005Y-81845718D01*
X164586770Y-81878730D01*
X164553754Y-81900525D01*
X164542062Y-81910450D01*
X164086642Y-81910450D01*
X164086555Y-81905125D01*
X164086210Y-81891493D01*
X164085965Y-81879272D01*
X164087003Y-81867700D01*
X164090505Y-81856015D01*
X164097656Y-81843454D01*
X164109637Y-81829256D01*
X164127632Y-81812657D01*
X164152823Y-81792895D01*
X164186393Y-81769209D01*
X164229525Y-81740835D01*
X164283402Y-81707011D01*
X164349207Y-81666976D01*
X164428122Y-81619966D01*
X164521329Y-81565220D01*
X164630013Y-81501974D01*
X164755356Y-81429467D01*
X164898540Y-81346937D01*
X165060748Y-81253621D01*
X165243164Y-81148756D01*
X165399920Y-81058636D01*
X165496793Y-81003405D01*
X165574488Y-80960713D01*
X165635880Y-80929760D01*
X165683842Y-80909742D01*
X165721251Y-80899861D01*
X165750981Y-80899314D01*
X165775906Y-80907301D01*
X165798901Y-80923019D01*
X165819047Y-80941832D01*
X165829444Y-80952044D01*
X165838310Y-80961502D01*
X165845889Y-80972278D01*
X165852421Y-80986447D01*
X165858150Y-81006084D01*
X165863317Y-81033261D01*
X165868163Y-81070054D01*
X165872933Y-81118536D01*
X165877866Y-81180781D01*
X165883205Y-81258864D01*
X165889193Y-81354858D01*
X165896071Y-81470838D01*
X165904081Y-81608878D01*
X165911152Y-81731152D01*
X165918394Y-81853619D01*
X165925452Y-81968169D01*
X165932149Y-82072241D01*
X165938307Y-82163275D01*
X165943747Y-82238710D01*
X165948291Y-82295985D01*
X165951761Y-82332542D01*
X165953915Y-82345763D01*
X165966934Y-82342450D01*
X165998598Y-82327903D01*
X166045338Y-82303956D01*
X166103582Y-82272441D01*
X166169760Y-82235192D01*
X166173577Y-82233003D01*
X166251462Y-82188806D01*
X166311067Y-82156416D01*
X166356075Y-82134153D01*
X166390170Y-82120335D01*
X166417036Y-82113283D01*
X166440261Y-82111314D01*
X166491203Y-82118674D01*
X166526714Y-82140310D01*
X166539931Y-82157578D01*
X166564337Y-82194704D01*
X166598385Y-82249137D01*
X166640527Y-82318329D01*
X166689217Y-82399728D01*
X166742907Y-82490786D01*
X166800051Y-82588953D01*
X166821888Y-82626789D01*
X166893130Y-82750491D01*
X166952580Y-82853787D01*
X167001261Y-82938634D01*
X167040194Y-83006989D01*
X167070402Y-83060808D01*
X167092907Y-83102047D01*
X167108732Y-83132665D01*
X167118898Y-83154618D01*
X167124428Y-83169861D01*
X167126343Y-83180353D01*
X167125667Y-83188050D01*
X167123421Y-83194908D01*
X167121463Y-83200254D01*
X167116388Y-83216852D01*
X167105581Y-83253159D01*
X167090531Y-83304144D01*
X167072727Y-83364775D01*
X167069016Y-83377448D01*
X167050662Y-83438048D01*
X167034186Y-83488568D01*
X167021165Y-83524447D01*
X167013177Y-83541118D01*
X167012223Y-83541756D01*
X167004240Y-83530940D01*
X166984695Y-83499927D01*
X166954865Y-83450867D01*
X166916029Y-83385909D01*
X166869464Y-83307204D01*
X166816447Y-83216903D01*
X166758257Y-83117155D01*
X166696170Y-83010110D01*
X166690840Y-83000892D01*
X166378159Y-82460027D01*
X166317441Y-82495082D01*
X166294096Y-82508544D01*
X166250909Y-82533432D01*
X166190373Y-82568309D01*
X166114981Y-82611739D01*
X166027227Y-82662287D01*
X165929602Y-82718516D01*
X165824601Y-82778990D01*
X165719666Y-82839422D01*
X165606778Y-82904660D01*
X165587572Y-82915759D01*
G37*
G36*
X164888916Y-83492341D02*
G01*
X164905391Y-83519025D01*
X164924668Y-83556290D01*
X164948892Y-83603042D01*
X164836673Y-83677525D01*
X164688901Y-83782920D01*
X164557437Y-83893183D01*
X164438216Y-84010539D01*
X164354540Y-84108889D01*
X164293426Y-84202776D01*
X164255037Y-84291230D01*
X164239537Y-84373281D01*
X164247090Y-84447958D01*
X164277859Y-84514292D01*
X164332006Y-84571313D01*
X164342420Y-84579195D01*
X164397940Y-84611820D01*
X164471244Y-84643890D01*
X164554451Y-84672494D01*
X164639681Y-84694721D01*
X164672567Y-84701172D01*
X164824271Y-84719524D01*
X164995398Y-84725461D01*
X165183001Y-84719368D01*
X165384134Y-84701633D01*
X165595849Y-84672642D01*
X165815200Y-84632782D01*
X166039241Y-84582441D01*
X166265026Y-84522004D01*
X166435212Y-84469805D01*
X166501575Y-84448523D01*
X166558665Y-84430654D01*
X166602298Y-84417473D01*
X166628291Y-84410254D01*
X166633733Y-84409347D01*
X166629062Y-84420990D01*
X166614073Y-84449609D01*
X166591550Y-84489984D01*
X166580237Y-84509667D01*
X166523798Y-84607044D01*
X166365121Y-84654102D01*
X166122700Y-84720425D01*
X165883953Y-84774851D01*
X165651103Y-84817212D01*
X165426374Y-84847341D01*
X165211991Y-84865071D01*
X165010177Y-84870235D01*
X164823156Y-84862666D01*
X164653153Y-84842198D01*
X164502391Y-84808662D01*
X164463905Y-84796900D01*
X164341369Y-84747186D01*
X164241055Y-84685952D01*
X164163406Y-84614317D01*
X164108860Y-84533401D01*
X164077856Y-84444327D01*
X164070836Y-84348213D01*
X164088237Y-84246180D01*
X164130500Y-84139349D01*
X164175452Y-84061795D01*
X164258911Y-83950837D01*
X164364839Y-83838966D01*
X164494127Y-83725360D01*
X164647664Y-83609197D01*
X164717813Y-83560652D01*
X164778285Y-83519788D01*
X164821305Y-83492617D01*
X164851199Y-83479046D01*
X164872294Y-83478985D01*
X164888916Y-83492341D01*
G37*
G36*
X166150116Y-84847381D02*
G01*
X166169219Y-84875294D01*
X166193234Y-84915267D01*
X166201016Y-84929087D01*
X166252154Y-85021289D01*
X166159896Y-85135277D01*
X166122351Y-85181590D01*
X166090571Y-85220649D01*
X166068179Y-85248013D01*
X166059109Y-85258897D01*
X166049992Y-85252030D01*
X166031088Y-85226417D01*
X166004991Y-85185917D01*
X165974297Y-85134389D01*
X165968111Y-85123585D01*
X165934651Y-85064862D01*
X165903714Y-85010723D01*
X165878647Y-84967016D01*
X165862797Y-84939586D01*
X165862316Y-84938764D01*
X165838988Y-84898887D01*
X165984055Y-84867886D01*
X166042404Y-84855600D01*
X166091444Y-84845616D01*
X166125723Y-84839022D01*
X166139500Y-84836885D01*
X166150116Y-84847381D01*
G37*
G36*
X165233931Y-84092262D02*
G01*
X165244107Y-84107901D01*
X165262564Y-84139757D01*
X165285515Y-84181271D01*
X165288126Y-84186099D01*
X165333328Y-84269863D01*
X165287819Y-84440614D01*
X165242309Y-84611365D01*
X165159708Y-84611365D01*
X165115041Y-84610551D01*
X165090998Y-84607096D01*
X165082449Y-84599485D01*
X165083481Y-84588813D01*
X165089394Y-84566444D01*
X165099627Y-84526376D01*
X165112317Y-84475932D01*
X165117107Y-84456723D01*
X165137248Y-84378992D01*
X165158255Y-84303519D01*
X165178915Y-84234081D01*
X165198019Y-84174453D01*
X165214355Y-84128415D01*
X165226713Y-84099741D01*
X165233883Y-84092210D01*
X165233931Y-84092262D01*
G37*
D12*
%TO.C,U101*%
X151390000Y-89890000D02*
X151390000Y-90840000D01*
X152340000Y-89890000D02*
X151390000Y-89890000D01*
X152340000Y-100110000D02*
X151390000Y-100110000D01*
X151390000Y-100110000D02*
X151390000Y-99160000D01*
X161610000Y-89890000D02*
X161610000Y-90840000D01*
X151390000Y-90840000D02*
X150050000Y-90840000D01*
X160660000Y-89890000D02*
X161610000Y-89890000D01*
X161610000Y-100110000D02*
X161610000Y-99160000D01*
X160660000Y-100110000D02*
X161610000Y-100110000D01*
%TO.C,C111*%
X163989999Y-87859420D02*
X163989999Y-88140580D01*
X165009999Y-87859420D02*
X165009999Y-88140580D01*
%TO.C,JP102*%
X166550000Y-89400000D02*
X166550000Y-86600000D01*
X166550000Y-86600000D02*
X168550000Y-86600000D01*
X168550000Y-86600000D02*
X168550000Y-89400000D01*
X168550000Y-89400000D02*
X166550000Y-89400000D01*
%TO.C,R116*%
X150022500Y-111742742D02*
X150022500Y-112217258D01*
X148977500Y-111742742D02*
X148977500Y-112217258D01*
%TO.C,Q101*%
X152190000Y-112000000D02*
X152190000Y-111350000D01*
X152190000Y-112000000D02*
X152190000Y-113675000D01*
X155310000Y-112000000D02*
X155310000Y-111350000D01*
X155310000Y-112000000D02*
X155310000Y-112650000D01*
%TO.C,C116*%
X163490000Y-111859420D02*
X163490000Y-112140580D01*
X164510000Y-111859420D02*
X164510000Y-112140580D01*
%TO.C,C112*%
X147390580Y-96980000D02*
X147109420Y-96980000D01*
X147390580Y-98000000D02*
X147109420Y-98000000D01*
%TO.C,C113*%
X150960030Y-87738781D02*
X150761219Y-87539970D01*
X150238781Y-88460030D02*
X150039970Y-88261219D01*
%TO.C,R104*%
X161487258Y-84227500D02*
X161012742Y-84227500D01*
X161487258Y-85272500D02*
X161012742Y-85272500D01*
%TO.C,R114*%
X149727500Y-107237258D02*
X149727500Y-106762742D01*
X150772500Y-107237258D02*
X150772500Y-106762742D01*
%TO.C,C104*%
X147390580Y-95490000D02*
X147109420Y-95490000D01*
X147390580Y-96510000D02*
X147109420Y-96510000D01*
%TO.C,C114*%
X139990000Y-101609420D02*
X139990000Y-101890580D01*
X141010000Y-101609420D02*
X141010000Y-101890580D01*
%TO.C,R115*%
X150772500Y-103987258D02*
X150772500Y-103512742D01*
X149727500Y-103987258D02*
X149727500Y-103512742D01*
%TO.C,R107*%
X161977500Y-111762742D02*
X161977500Y-112237258D01*
X163022500Y-111762742D02*
X163022500Y-112237258D01*
%TO.C,D102*%
X153985000Y-105235000D02*
X153985000Y-102950000D01*
X152515000Y-105235000D02*
X153985000Y-105235000D01*
X152515000Y-102950000D02*
X152515000Y-105235000D01*
%TO.C,U102*%
X154890000Y-85610000D02*
X154890000Y-85435000D01*
X155565000Y-82390000D02*
X154890000Y-82390000D01*
X154890000Y-82390000D02*
X154890000Y-82565000D01*
X158110000Y-82390000D02*
X158110000Y-82565000D01*
X155565000Y-85610000D02*
X154890000Y-85610000D01*
X157435000Y-82390000D02*
X158110000Y-82390000D01*
X157435000Y-85610000D02*
X158110000Y-85610000D01*
%TO.C,R105*%
X147477500Y-93737258D02*
X147477500Y-93262742D01*
X148522500Y-93737258D02*
X148522500Y-93262742D01*
%TO.C,C103*%
X163390580Y-100990000D02*
X163109420Y-100990000D01*
X163390580Y-102010000D02*
X163109420Y-102010000D01*
%TO.C,SW102*%
X142430000Y-106885000D02*
X146050000Y-106885000D01*
X146050000Y-106645000D02*
X144843333Y-106645000D01*
X147650000Y-108360000D02*
X147650000Y-107290000D01*
X146050000Y-106045000D02*
X144843333Y-106045000D01*
X140829000Y-105260000D02*
X140829000Y-104140000D01*
X147890000Y-108600000D02*
X147890000Y-107290000D01*
X146050000Y-106165000D02*
X144843333Y-106165000D01*
X146050000Y-105805000D02*
X144843333Y-105805000D01*
X140829000Y-108360000D02*
X140829000Y-107240000D01*
X147650000Y-108360000D02*
X140829000Y-108360000D01*
X146050000Y-106525000D02*
X144843333Y-106525000D01*
X146050000Y-105685000D02*
X144843333Y-105685000D01*
X146050000Y-106765000D02*
X144843333Y-106765000D01*
X146050000Y-105925000D02*
X144843333Y-105925000D01*
X147650000Y-105210000D02*
X147650000Y-104140000D01*
X146050000Y-105615000D02*
X142430000Y-105615000D01*
X146050000Y-106405000D02*
X144843333Y-106405000D01*
X146050000Y-106285000D02*
X144843333Y-106285000D01*
X146050000Y-106885000D02*
X146050000Y-105615000D01*
X142430000Y-105615000D02*
X142430000Y-106885000D01*
X147650000Y-104140000D02*
X140829000Y-104140000D01*
X144843333Y-106885000D02*
X144843333Y-105615000D01*
X147890000Y-108600000D02*
X146507000Y-108600000D01*
%TO.C,U103*%
X143500000Y-103310000D02*
X144300000Y-103310000D01*
X143500000Y-100190000D02*
X141700000Y-100190000D01*
X143500000Y-103310000D02*
X142700000Y-103310000D01*
X143500000Y-100190000D02*
X144300000Y-100190000D01*
%TO.C,D104*%
X157265000Y-105235000D02*
X158735000Y-105235000D01*
X157265000Y-102950000D02*
X157265000Y-105235000D01*
X158735000Y-105235000D02*
X158735000Y-102950000D01*
%TO.C,D106*%
X160265000Y-102950000D02*
X160265000Y-105235000D01*
X161735000Y-105235000D02*
X161735000Y-102950000D01*
X160265000Y-105235000D02*
X161735000Y-105235000D01*
%TO.C,R102*%
X164237258Y-107227500D02*
X163762742Y-107227500D01*
X164237258Y-108272500D02*
X163762742Y-108272500D01*
%TO.C,C115*%
X147010000Y-101609420D02*
X147010000Y-101890580D01*
X145990000Y-101609420D02*
X145990000Y-101890580D01*
%TO.C,R103*%
X161487258Y-83772500D02*
X161012742Y-83772500D01*
X161487258Y-82727500D02*
X161012742Y-82727500D01*
%TO.C,C110*%
X149890580Y-101510000D02*
X149609420Y-101510000D01*
X149890580Y-100490000D02*
X149609420Y-100490000D01*
%TO.C,FB101*%
X147087221Y-98490000D02*
X147412779Y-98490000D01*
X147087221Y-99510000D02*
X147412779Y-99510000D01*
%TO.C,D105*%
X160235000Y-105235000D02*
X160235000Y-102950000D01*
X158765000Y-105235000D02*
X160235000Y-105235000D01*
X158765000Y-102950000D02*
X158765000Y-105235000D01*
%TO.C,D101*%
X160985000Y-108485000D02*
X160985000Y-107015000D01*
X160985000Y-107015000D02*
X158700000Y-107015000D01*
X158700000Y-108485000D02*
X160985000Y-108485000D01*
%TO.C,U104*%
X159500000Y-113560000D02*
X158700000Y-113560000D01*
X159500000Y-113560000D02*
X160300000Y-113560000D01*
X159500000Y-110440000D02*
X160300000Y-110440000D01*
X159500000Y-110440000D02*
X157700000Y-110440000D01*
%TO.C,R109*%
X152272500Y-106762742D02*
X152272500Y-107237258D01*
X151227500Y-106762742D02*
X151227500Y-107237258D01*
%TO.C,R106*%
X151522500Y-112217258D02*
X151522500Y-111742742D01*
X150477500Y-112217258D02*
X150477500Y-111742742D01*
%TO.C,J101*%
X169600000Y-103800000D02*
X171600000Y-103800000D01*
X169600000Y-113200000D02*
X171600000Y-113200000D01*
X175400000Y-113200000D02*
X175400000Y-103800000D01*
X173500000Y-113200000D02*
X175400000Y-113200000D01*
X173500000Y-103800000D02*
X175400000Y-103800000D01*
%TO.C,SW101*%
X141250000Y-85500000D02*
X141250000Y-87000000D01*
X147250000Y-81000000D02*
X147250000Y-82500000D01*
X141250000Y-82500000D02*
X141250000Y-81000000D01*
X141250000Y-87000000D02*
X147250000Y-87000000D01*
X147250000Y-87000000D02*
X147250000Y-85500000D01*
X141250000Y-81000000D02*
X147250000Y-81000000D01*
%TO.C,J102*%
X171265000Y-99505000D02*
X171265000Y-99440000D01*
X171265000Y-90495000D02*
X167735000Y-90495000D01*
X171265000Y-99505000D02*
X167735000Y-99505000D01*
X167735000Y-90560000D02*
X167735000Y-90495000D01*
X171265000Y-90560000D02*
X171265000Y-90495000D01*
X167735000Y-99505000D02*
X167735000Y-99440000D01*
X172590000Y-99440000D02*
X171265000Y-99440000D01*
%TO.C,C117*%
X157010000Y-112140580D02*
X157010000Y-111859420D01*
X155990000Y-112140580D02*
X155990000Y-111859420D01*
%TO.C,R108*%
X159262742Y-108727500D02*
X159737258Y-108727500D01*
X159262742Y-109772500D02*
X159737258Y-109772500D01*
%TO.C,R111*%
X154227500Y-106762742D02*
X154227500Y-107237258D01*
X155272500Y-106762742D02*
X155272500Y-107237258D01*
%TO.C,Y101*%
X145450000Y-95100000D02*
X145450000Y-91900000D01*
X145450000Y-91900000D02*
X141550000Y-91900000D01*
%TO.C,C109*%
X149178121Y-89520690D02*
X148979310Y-89321879D01*
X149899370Y-88799441D02*
X149700559Y-88600630D01*
%TO.C,C101*%
X152390580Y-84240000D02*
X152109420Y-84240000D01*
X152390580Y-85260000D02*
X152109420Y-85260000D01*
%TO.C,R110*%
X152727500Y-106762742D02*
X152727500Y-107237258D01*
X153772500Y-106762742D02*
X153772500Y-107237258D01*
%TO.C,R101*%
X164237258Y-109772500D02*
X163762742Y-109772500D01*
X164237258Y-108727500D02*
X163762742Y-108727500D01*
%TO.C,C106*%
X147010000Y-93359420D02*
X147010000Y-93640580D01*
X145990000Y-93359420D02*
X145990000Y-93640580D01*
%TO.C,C105*%
X139990000Y-93640580D02*
X139990000Y-93359420D01*
X141010000Y-93640580D02*
X141010000Y-93359420D01*
%TO.C,C102*%
X152390580Y-82740000D02*
X152109420Y-82740000D01*
X152390580Y-83760000D02*
X152109420Y-83760000D01*
%TO.C,D103*%
X155485000Y-105235000D02*
X155485000Y-102950000D01*
X154015000Y-105235000D02*
X155485000Y-105235000D01*
X154015000Y-102950000D02*
X154015000Y-105235000D01*
%TO.C,C108*%
X163510000Y-87859420D02*
X163510000Y-88140580D01*
X162490000Y-87859420D02*
X162490000Y-88140580D01*
%TO.C,C107*%
X163109420Y-100510000D02*
X163390580Y-100510000D01*
X163109420Y-99490000D02*
X163390580Y-99490000D01*
%TO.C,JP101*%
X170450000Y-89400000D02*
X170450000Y-86600000D01*
X172450000Y-89400000D02*
X170450000Y-89400000D01*
X170450000Y-86600000D02*
X172450000Y-86600000D01*
X172450000Y-86600000D02*
X172450000Y-89400000D01*
%TO.C,R113*%
X162727500Y-103987258D02*
X162727500Y-103512742D01*
X163772500Y-103987258D02*
X163772500Y-103512742D01*
%TO.C,R112*%
X159737258Y-106772500D02*
X159262742Y-106772500D01*
X159737258Y-105727500D02*
X159262742Y-105727500D01*
%TD*%
M02*
