%TF.GenerationSoftware,KiCad,Pcbnew,(6.0.4)*%
%TF.CreationDate,2023-08-29T14:34:22+02:00*%
%TF.ProjectId,big_black_box_pcb_cad,6269675f-626c-4616-936b-5f626f785f70,rev?*%
%TF.SameCoordinates,Original*%
%TF.FileFunction,Copper,L4,Bot*%
%TF.FilePolarity,Positive*%
%FSLAX46Y46*%
G04 Gerber Fmt 4.6, Leading zero omitted, Abs format (unit mm)*
G04 Created by KiCad (PCBNEW (6.0.4)) date 2023-08-29 14:34:22*
%MOMM*%
%LPD*%
G01*
G04 APERTURE LIST*
G04 Aperture macros list*
%AMRoundRect*
0 Rectangle with rounded corners*
0 $1 Rounding radius*
0 $2 $3 $4 $5 $6 $7 $8 $9 X,Y pos of 4 corners*
0 Add a 4 corners polygon primitive as box body*
4,1,4,$2,$3,$4,$5,$6,$7,$8,$9,$2,$3,0*
0 Add four circle primitives for the rounded corners*
1,1,$1+$1,$2,$3*
1,1,$1+$1,$4,$5*
1,1,$1+$1,$6,$7*
1,1,$1+$1,$8,$9*
0 Add four rect primitives between the rounded corners*
20,1,$1+$1,$2,$3,$4,$5,0*
20,1,$1+$1,$4,$5,$6,$7,0*
20,1,$1+$1,$6,$7,$8,$9,0*
20,1,$1+$1,$8,$9,$2,$3,0*%
G04 Aperture macros list end*
%TA.AperFunction,ComponentPad*%
%ADD10R,1.600000X1.600000*%
%TD*%
%TA.AperFunction,ComponentPad*%
%ADD11O,1.600000X1.600000*%
%TD*%
%TA.AperFunction,ComponentPad*%
%ADD12O,2.100000X1.000000*%
%TD*%
%TA.AperFunction,ComponentPad*%
%ADD13O,1.600000X1.000000*%
%TD*%
%TA.AperFunction,SMDPad,CuDef*%
%ADD14R,1.500000X1.600000*%
%TD*%
%TA.AperFunction,SMDPad,CuDef*%
%ADD15R,2.200000X1.200000*%
%TD*%
%TA.AperFunction,SMDPad,CuDef*%
%ADD16R,1.500000X1.200000*%
%TD*%
%TA.AperFunction,SMDPad,CuDef*%
%ADD17R,1.600000X0.700000*%
%TD*%
%TA.AperFunction,SMDPad,CuDef*%
%ADD18R,2.000000X4.000000*%
%TD*%
%TA.AperFunction,SMDPad,CuDef*%
%ADD19RoundRect,0.200000X0.200000X0.275000X-0.200000X0.275000X-0.200000X-0.275000X0.200000X-0.275000X0*%
%TD*%
%TA.AperFunction,SMDPad,CuDef*%
%ADD20RoundRect,0.200000X-0.200000X-0.275000X0.200000X-0.275000X0.200000X0.275000X-0.200000X0.275000X0*%
%TD*%
%TA.AperFunction,ViaPad*%
%ADD21C,0.700000*%
%TD*%
%TA.AperFunction,ViaPad*%
%ADD22C,0.800000*%
%TD*%
%TA.AperFunction,Conductor*%
%ADD23C,0.200000*%
%TD*%
%TA.AperFunction,Conductor*%
%ADD24C,0.500000*%
%TD*%
G04 APERTURE END LIST*
D10*
%TO.P,SW102,1*%
%TO.N,Net-(Q101-Pad3)*%
X148050000Y-106250000D03*
D11*
%TO.P,SW102,2*%
%TO.N,VBAT*%
X140430000Y-106250000D03*
%TD*%
D12*
%TO.P,J101,S1,SHIELD*%
%TO.N,GND*%
X168370000Y-112820000D03*
D13*
X172550000Y-112820000D03*
D12*
X168370000Y-104180000D03*
D13*
X172550000Y-104180000D03*
%TD*%
D14*
%TO.P,U105,13,EH*%
%TO.N,GND*%
X153000000Y-85200000D03*
D15*
%TO.P,U105,12,EH*%
X143400000Y-84400000D03*
%TO.P,U105,11,EH*%
X143400000Y-99900000D03*
D16*
%TO.P,U105,10,EH*%
X153000000Y-99900000D03*
D17*
%TO.P,U105,9,CD*%
%TO.N,SD_CD*%
X154000000Y-98700000D03*
%TO.P,U105,8,DAT1*%
%TO.N,SD_D1*%
X154000000Y-97600000D03*
%TO.P,U105,7,DAT0*%
%TO.N,SD_D0*%
X154000000Y-96500000D03*
%TO.P,U105,6,VSS*%
%TO.N,GND*%
X154000000Y-95400000D03*
%TO.P,U105,5,CLK*%
%TO.N,SD_CLK*%
X154000000Y-94300000D03*
%TO.P,U105,4,VDD*%
%TO.N,MCU_VBAT*%
X154000000Y-93200000D03*
%TO.P,U105,3,CMD*%
%TO.N,SD_CMD*%
X154000000Y-92100000D03*
%TO.P,U105,2,CD/DAT3*%
%TO.N,SD_D3*%
X154000000Y-91000000D03*
%TO.P,U105,1,DAT2*%
%TO.N,SD_D2*%
X154000000Y-89900000D03*
%TD*%
D18*
%TO.P,TP102,1,1*%
%TO.N,CEL+*%
X159750000Y-111500000D03*
%TD*%
%TO.P,TP101,1,1*%
%TO.N,GND*%
X163000000Y-111500000D03*
%TD*%
D19*
%TO.P,R117,1*%
%TO.N,MCU_VBAT*%
X159075000Y-98575000D03*
%TO.P,R117,2*%
%TO.N,SD_D1*%
X157425000Y-98575000D03*
%TD*%
D20*
%TO.P,R122,2*%
%TO.N,SD_D2*%
X159075000Y-90025000D03*
%TO.P,R122,1*%
%TO.N,MCU_VBAT*%
X157425000Y-90025000D03*
%TD*%
D19*
%TO.P,R120,1*%
%TO.N,MCU_VBAT*%
X159075000Y-93445000D03*
%TO.P,R120,2*%
%TO.N,SD_CMD*%
X157425000Y-93445000D03*
%TD*%
%TO.P,R118,1*%
%TO.N,MCU_VBAT*%
X159075000Y-96865000D03*
%TO.P,R118,2*%
%TO.N,SD_D0*%
X157425000Y-96865000D03*
%TD*%
%TO.P,R121,1*%
%TO.N,MCU_VBAT*%
X159075000Y-91735000D03*
%TO.P,R121,2*%
%TO.N,SD_D3*%
X157425000Y-91735000D03*
%TD*%
D21*
%TO.N,MCU_VBAT*%
X158200000Y-95200000D03*
%TO.N,SD_CD*%
X155750000Y-98700000D03*
%TO.N,SD_D0*%
X155750000Y-96500000D03*
%TO.N,GND*%
X155750000Y-95400000D03*
%TO.N,SD_CLK*%
X155750000Y-94300000D03*
%TO.N,MCU_VBAT*%
X155750000Y-93200000D03*
%TO.N,SD_CMD*%
X155750000Y-92100000D03*
%TO.N,SD_D3*%
X155750000Y-91000000D03*
%TO.N,SD_D2*%
X160500000Y-94250000D03*
%TO.N,SD_D1*%
X164000000Y-97000000D03*
%TO.N,GND*%
X160500000Y-91750000D03*
X169500000Y-96270000D03*
X153250000Y-109000000D03*
X148007449Y-89396537D03*
X150250000Y-83250000D03*
X152500000Y-98500000D03*
X161750000Y-88775000D03*
X150835877Y-86568109D03*
X165500000Y-101500000D03*
X144000000Y-96000000D03*
X150250000Y-84750000D03*
X157500000Y-106250000D03*
X165500000Y-112500000D03*
X143400000Y-83000000D03*
X143000000Y-91000000D03*
X165500000Y-104500000D03*
X145250000Y-96000000D03*
X145250000Y-97490000D03*
X163175000Y-106500000D03*
X156500000Y-110000000D03*
X165500000Y-102925000D03*
X151000000Y-109980000D03*
X143400000Y-98500000D03*
X150500000Y-99750000D03*
X160500000Y-99000000D03*
X140500000Y-103750000D03*
X152500000Y-91000000D03*
X165749999Y-88775000D03*
X165500000Y-100000000D03*
D22*
X165250000Y-114000000D03*
D21*
X159000000Y-83000000D03*
X147750000Y-102525000D03*
X156500000Y-84000000D03*
X169500000Y-92460000D03*
X169500000Y-95000000D03*
X152500000Y-96750000D03*
%TO.N,+5V*%
X157500000Y-107750000D03*
X165500000Y-106050000D03*
X165500000Y-110950000D03*
X149500000Y-109980000D03*
%TO.N,JTAG_NRST*%
X165500000Y-92460000D03*
X152500000Y-94250000D03*
%TO.N,GYRO_SDA*%
X155250000Y-87500000D03*
X159000000Y-81500000D03*
%TO.N,MCU_VBAT*%
X147250000Y-86750000D03*
X153025000Y-81500000D03*
X161749999Y-87225001D03*
X147750000Y-100975000D03*
X164000000Y-91250000D03*
X149103463Y-90492551D03*
X169500000Y-97540000D03*
X151931891Y-87664123D03*
X161250000Y-101000000D03*
X153000000Y-86750000D03*
X163500000Y-84750000D03*
X156000000Y-81500000D03*
X165749999Y-87225001D03*
X156500000Y-86500000D03*
X151750000Y-101000000D03*
X163500000Y-83250000D03*
%TO.N,CEL+*%
X156500000Y-114000000D03*
%TD*%
D23*
%TO.N,SD_D1*%
X156775000Y-98575000D02*
X155800000Y-97600000D01*
X155800000Y-97600000D02*
X154000000Y-97600000D01*
X157425000Y-98575000D02*
X156775000Y-98575000D01*
X155903908Y-97714388D02*
X163285612Y-97714388D01*
X163285612Y-97714388D02*
X164000000Y-97000000D01*
X155789520Y-97600000D02*
X155903908Y-97714388D01*
%TO.N,MCU_VBAT*%
X160600000Y-101000000D02*
X161250000Y-101000000D01*
X159075000Y-99475000D02*
X160600000Y-101000000D01*
X159075000Y-98575000D02*
X159075000Y-99475000D01*
X159075000Y-96075000D02*
X159075000Y-96865000D01*
X158200000Y-95200000D02*
X159075000Y-96075000D01*
X159075000Y-94325000D02*
X158200000Y-95200000D01*
X159075000Y-93445000D02*
X159075000Y-94325000D01*
X159075000Y-91735000D02*
X159075000Y-93445000D01*
X159075000Y-91675000D02*
X159075000Y-91735000D01*
X157425000Y-90025000D02*
X159075000Y-91675000D01*
%TO.N,JTAG_NRST*%
X164291452Y-92460000D02*
X165500000Y-92460000D01*
X152500000Y-94250000D02*
X151850489Y-93600489D01*
X151850489Y-93600489D02*
X151850489Y-90300489D01*
X160682412Y-88850960D02*
X164291452Y-92460000D01*
X151850489Y-90300489D02*
X153300018Y-88850960D01*
X153300018Y-88850960D02*
X160682412Y-88850960D01*
%TO.N,SD_CD*%
X154000000Y-98700000D02*
X155750000Y-98700000D01*
%TO.N,SD_D3*%
X156690000Y-91000000D02*
X157425000Y-91735000D01*
%TO.N,SD_CMD*%
X156080000Y-92100000D02*
X157425000Y-93445000D01*
%TO.N,SD_D2*%
X159774520Y-93524520D02*
X160500000Y-94250000D01*
%TO.N,SD_D0*%
X155750000Y-96500000D02*
X157060000Y-96500000D01*
%TO.N,SD_D3*%
X155750000Y-91000000D02*
X154000000Y-91000000D01*
%TO.N,SD_CLK*%
X155750000Y-94300000D02*
X154000000Y-94300000D01*
%TO.N,SD_CMD*%
X155750000Y-92100000D02*
X156080000Y-92100000D01*
%TO.N,SD_D3*%
X155750000Y-91000000D02*
X156690000Y-91000000D01*
%TO.N,SD_D2*%
X159774520Y-90724520D02*
X159774520Y-93524520D01*
X159075000Y-90025000D02*
X159774520Y-90724520D01*
%TO.N,MCU_VBAT*%
X155750000Y-93200000D02*
X154000000Y-93200000D01*
%TO.N,SD_CMD*%
X155750000Y-92100000D02*
X154000000Y-92100000D01*
%TO.N,SD_D0*%
X155750000Y-96500000D02*
X154000000Y-96500000D01*
%TO.N,GND*%
X155750000Y-95400000D02*
X154000000Y-95400000D01*
%TO.N,SD_D2*%
X155749520Y-89250480D02*
X155100000Y-89900000D01*
%TO.N,SD_D0*%
X157060000Y-96500000D02*
X157425000Y-96865000D01*
%TO.N,SD_D2*%
X155100000Y-89900000D02*
X154000000Y-89900000D01*
X158300480Y-89250480D02*
X155749520Y-89250480D01*
X159075000Y-90025000D02*
X158300480Y-89250480D01*
D24*
%TO.N,GND*%
X150500000Y-99750000D02*
X152850000Y-99750000D01*
X143400000Y-98500000D02*
X143400000Y-99900000D01*
X150700000Y-85200000D02*
X150250000Y-84750000D01*
X143400000Y-84400000D02*
X143400000Y-83000000D01*
X153000000Y-85200000D02*
X150700000Y-85200000D01*
X163000000Y-111750000D02*
X165250000Y-114000000D01*
D23*
%TO.N,GYRO_SDA*%
X155250000Y-84000000D02*
X155250000Y-87500000D01*
X157750000Y-81500000D02*
X155250000Y-84000000D01*
X159000000Y-81500000D02*
X157750000Y-81500000D01*
D24*
%TO.N,CEL+*%
X156500000Y-114000000D02*
X157250000Y-114000000D01*
X157250000Y-114000000D02*
X159750000Y-111500000D01*
%TD*%
%TA.AperFunction,Conductor*%
%TO.N,GND*%
G36*
X152616581Y-80528502D02*
G01*
X152663074Y-80582158D01*
X152673178Y-80652432D01*
X152643684Y-80717012D01*
X152604795Y-80745836D01*
X152605139Y-80746433D01*
X152599939Y-80749435D01*
X152599706Y-80749608D01*
X152599417Y-80749736D01*
X152599411Y-80749739D01*
X152593386Y-80752422D01*
X152588045Y-80756302D01*
X152588044Y-80756303D01*
X152452731Y-80854613D01*
X152452729Y-80854615D01*
X152447387Y-80858496D01*
X152442966Y-80863406D01*
X152442965Y-80863407D01*
X152348361Y-80968476D01*
X152326633Y-80992607D01*
X152236401Y-81148893D01*
X152180635Y-81320525D01*
X152161771Y-81500000D01*
X152180635Y-81679475D01*
X152236401Y-81851107D01*
X152326633Y-82007393D01*
X152447387Y-82141504D01*
X152593385Y-82247578D01*
X152599413Y-82250262D01*
X152599415Y-82250263D01*
X152752217Y-82318295D01*
X152758248Y-82320980D01*
X152846508Y-82339740D01*
X152928311Y-82357128D01*
X152928315Y-82357128D01*
X152934768Y-82358500D01*
X153115232Y-82358500D01*
X153121685Y-82357128D01*
X153121689Y-82357128D01*
X153203492Y-82339740D01*
X153291752Y-82320980D01*
X153297783Y-82318295D01*
X153450585Y-82250263D01*
X153450587Y-82250262D01*
X153456615Y-82247578D01*
X153602613Y-82141504D01*
X153723367Y-82007393D01*
X153813599Y-81851107D01*
X153869365Y-81679475D01*
X153888229Y-81500000D01*
X153869365Y-81320525D01*
X153813599Y-81148893D01*
X153723367Y-80992607D01*
X153701640Y-80968476D01*
X153607035Y-80863407D01*
X153607034Y-80863406D01*
X153602613Y-80858496D01*
X153566298Y-80832111D01*
X153461957Y-80756303D01*
X153461956Y-80756302D01*
X153456615Y-80752422D01*
X153450590Y-80749740D01*
X153450584Y-80749736D01*
X153450295Y-80749608D01*
X153450155Y-80749489D01*
X153444862Y-80746433D01*
X153445421Y-80745465D01*
X153396198Y-80703629D01*
X153375547Y-80635703D01*
X153394898Y-80567394D01*
X153448107Y-80520391D01*
X153501541Y-80508500D01*
X155523460Y-80508500D01*
X155591581Y-80528502D01*
X155638074Y-80582158D01*
X155648178Y-80652432D01*
X155618684Y-80717012D01*
X155579795Y-80745836D01*
X155580139Y-80746433D01*
X155574939Y-80749435D01*
X155574706Y-80749608D01*
X155574417Y-80749736D01*
X155574411Y-80749739D01*
X155568386Y-80752422D01*
X155563045Y-80756302D01*
X155563044Y-80756303D01*
X155427731Y-80854613D01*
X155427729Y-80854615D01*
X155422387Y-80858496D01*
X155417966Y-80863406D01*
X155417965Y-80863407D01*
X155323361Y-80968476D01*
X155301633Y-80992607D01*
X155211401Y-81148893D01*
X155155635Y-81320525D01*
X155136771Y-81500000D01*
X155155635Y-81679475D01*
X155211401Y-81851107D01*
X155301633Y-82007393D01*
X155422387Y-82141504D01*
X155568385Y-82247578D01*
X155574413Y-82250262D01*
X155574415Y-82250263D01*
X155727217Y-82318295D01*
X155733248Y-82320980D01*
X155739708Y-82322353D01*
X155739714Y-82322355D01*
X155782716Y-82331496D01*
X155845190Y-82365224D01*
X155879511Y-82427374D01*
X155874783Y-82498213D01*
X155845614Y-82543837D01*
X154853766Y-83535685D01*
X154841375Y-83546552D01*
X154816013Y-83566013D01*
X154791526Y-83597925D01*
X154791523Y-83597928D01*
X154718476Y-83693124D01*
X154657162Y-83841149D01*
X154657162Y-83841150D01*
X154655414Y-83854426D01*
X154641500Y-83960115D01*
X154641500Y-83960120D01*
X154638554Y-83982502D01*
X154636250Y-84000000D01*
X154637328Y-84008188D01*
X154640422Y-84031690D01*
X154641500Y-84048136D01*
X154641500Y-86844433D01*
X154621498Y-86912554D01*
X154609137Y-86928742D01*
X154551633Y-86992607D01*
X154461401Y-87148893D01*
X154405635Y-87320525D01*
X154404945Y-87327088D01*
X154404945Y-87327089D01*
X154397501Y-87397912D01*
X154386771Y-87500000D01*
X154405635Y-87679475D01*
X154461401Y-87851107D01*
X154551633Y-88007393D01*
X154573926Y-88032152D01*
X154604642Y-88096158D01*
X154595877Y-88166611D01*
X154550414Y-88221142D01*
X154480288Y-88242460D01*
X153348162Y-88242460D01*
X153331716Y-88241382D01*
X153308206Y-88238287D01*
X153300018Y-88237209D01*
X153141167Y-88258122D01*
X152993142Y-88319436D01*
X152947323Y-88354594D01*
X152897955Y-88392475D01*
X152897939Y-88392489D01*
X152872584Y-88411944D01*
X152872581Y-88411947D01*
X152866031Y-88416973D01*
X152861001Y-88423528D01*
X152846566Y-88442339D01*
X152835699Y-88454730D01*
X151454255Y-89836174D01*
X151441864Y-89847041D01*
X151416502Y-89866502D01*
X151392015Y-89898414D01*
X151392012Y-89898417D01*
X151392006Y-89898425D01*
X151325453Y-89985158D01*
X151318965Y-89993613D01*
X151257651Y-90141638D01*
X151257651Y-90141639D01*
X151241989Y-90260604D01*
X151241989Y-90260609D01*
X151236739Y-90300489D01*
X151239630Y-90322445D01*
X151240911Y-90332179D01*
X151241989Y-90348625D01*
X151241989Y-93552353D01*
X151240911Y-93568796D01*
X151236739Y-93600489D01*
X151241989Y-93640369D01*
X151241989Y-93640374D01*
X151248359Y-93688758D01*
X151257651Y-93759340D01*
X151318965Y-93907365D01*
X151323992Y-93913916D01*
X151323993Y-93913918D01*
X151392009Y-94002558D01*
X151392015Y-94002564D01*
X151416502Y-94034476D01*
X151423057Y-94039506D01*
X151441868Y-94053941D01*
X151454259Y-94064808D01*
X151604905Y-94215454D01*
X151638931Y-94277766D01*
X151641120Y-94291378D01*
X151655635Y-94429475D01*
X151711401Y-94601107D01*
X151714704Y-94606829D01*
X151714705Y-94606830D01*
X151733169Y-94638810D01*
X151801633Y-94757393D01*
X151806051Y-94762300D01*
X151806052Y-94762301D01*
X151820591Y-94778448D01*
X151922387Y-94891504D01*
X151927729Y-94895385D01*
X151927731Y-94895387D01*
X152063043Y-94993697D01*
X152068385Y-94997578D01*
X152074413Y-95000262D01*
X152074415Y-95000263D01*
X152227215Y-95068294D01*
X152233248Y-95070980D01*
X152321508Y-95089740D01*
X152403311Y-95107128D01*
X152403315Y-95107128D01*
X152409768Y-95108500D01*
X152590232Y-95108500D01*
X152596685Y-95107128D01*
X152596689Y-95107128D01*
X152678492Y-95089740D01*
X152766752Y-95070980D01*
X152772779Y-95068297D01*
X152772787Y-95068294D01*
X152791369Y-95060020D01*
X152861736Y-95050585D01*
X152918184Y-95074301D01*
X152932276Y-95084862D01*
X152946108Y-95095229D01*
X152946110Y-95095230D01*
X152953295Y-95100615D01*
X153089684Y-95151745D01*
X153151866Y-95158500D01*
X154848134Y-95158500D01*
X154910316Y-95151745D01*
X155046705Y-95100615D01*
X155141966Y-95029221D01*
X155208471Y-95004373D01*
X155277853Y-95019426D01*
X155291592Y-95028111D01*
X155318385Y-95047578D01*
X155324413Y-95050262D01*
X155324415Y-95050263D01*
X155460619Y-95110905D01*
X155483248Y-95120980D01*
X155571508Y-95139740D01*
X155653311Y-95157128D01*
X155653315Y-95157128D01*
X155659768Y-95158500D01*
X155840232Y-95158500D01*
X155846685Y-95157128D01*
X155846689Y-95157128D01*
X155928492Y-95139740D01*
X156016752Y-95120980D01*
X156039381Y-95110905D01*
X156175585Y-95050263D01*
X156175587Y-95050262D01*
X156181615Y-95047578D01*
X156186957Y-95043697D01*
X156322269Y-94945387D01*
X156322271Y-94945385D01*
X156327613Y-94941504D01*
X156448367Y-94807393D01*
X156538599Y-94651107D01*
X156594365Y-94479475D01*
X156604546Y-94382608D01*
X156631559Y-94316952D01*
X156689781Y-94276322D01*
X156760726Y-94273619D01*
X156795128Y-94288003D01*
X156931301Y-94370472D01*
X156938548Y-94372743D01*
X156938550Y-94372744D01*
X156970030Y-94382609D01*
X157094938Y-94421753D01*
X157168365Y-94428500D01*
X157174886Y-94428500D01*
X157456438Y-94428499D01*
X157524557Y-94448501D01*
X157571050Y-94502156D01*
X157581155Y-94572430D01*
X157550074Y-94638808D01*
X157501633Y-94692607D01*
X157411401Y-94848893D01*
X157355635Y-95020525D01*
X157354945Y-95027088D01*
X157354945Y-95027089D01*
X157344932Y-95122352D01*
X157336771Y-95200000D01*
X157355635Y-95379475D01*
X157411401Y-95551107D01*
X157414704Y-95556829D01*
X157414705Y-95556830D01*
X157493035Y-95692501D01*
X157509773Y-95761496D01*
X157486553Y-95828588D01*
X157430746Y-95872475D01*
X157383918Y-95881501D01*
X157168366Y-95881501D01*
X157165508Y-95881764D01*
X157165499Y-95881764D01*
X157097310Y-95888029D01*
X157069338Y-95887479D01*
X157068191Y-95887328D01*
X157068188Y-95887328D01*
X157060000Y-95886250D01*
X157028307Y-95890422D01*
X157011864Y-95891500D01*
X156411603Y-95891500D01*
X156343482Y-95871498D01*
X156330164Y-95861329D01*
X156327613Y-95858496D01*
X156298703Y-95837491D01*
X156186957Y-95756303D01*
X156186956Y-95756302D01*
X156181615Y-95752422D01*
X156175587Y-95749738D01*
X156175585Y-95749737D01*
X156022783Y-95681705D01*
X156022781Y-95681705D01*
X156016752Y-95679020D01*
X155928492Y-95660260D01*
X155846689Y-95642872D01*
X155846685Y-95642872D01*
X155840232Y-95641500D01*
X155659768Y-95641500D01*
X155653315Y-95642872D01*
X155653311Y-95642872D01*
X155571508Y-95660260D01*
X155483248Y-95679020D01*
X155477219Y-95681704D01*
X155477217Y-95681705D01*
X155324416Y-95749737D01*
X155324414Y-95749738D01*
X155318386Y-95752422D01*
X155313045Y-95756302D01*
X155313044Y-95756303D01*
X155291592Y-95771889D01*
X155224724Y-95795748D01*
X155155573Y-95779667D01*
X155141966Y-95770779D01*
X155053892Y-95704771D01*
X155053890Y-95704770D01*
X155046705Y-95699385D01*
X154910316Y-95648255D01*
X154848134Y-95641500D01*
X153151866Y-95641500D01*
X153089684Y-95648255D01*
X152953295Y-95699385D01*
X152836739Y-95786739D01*
X152749385Y-95903295D01*
X152698255Y-96039684D01*
X152691500Y-96101866D01*
X152691500Y-96898134D01*
X152698255Y-96960316D01*
X152701027Y-96967709D01*
X152701027Y-96967711D01*
X152715295Y-97005771D01*
X152720478Y-97076578D01*
X152715295Y-97094229D01*
X152701027Y-97132289D01*
X152698255Y-97139684D01*
X152697402Y-97147532D01*
X152697402Y-97147534D01*
X152691869Y-97198469D01*
X152691500Y-97201866D01*
X152691500Y-97998134D01*
X152691869Y-98001531D01*
X152696414Y-98043365D01*
X152698255Y-98060316D01*
X152701027Y-98067709D01*
X152701027Y-98067711D01*
X152715295Y-98105771D01*
X152720478Y-98176578D01*
X152715295Y-98194229D01*
X152698255Y-98239684D01*
X152691500Y-98301866D01*
X152691500Y-99098134D01*
X152698255Y-99160316D01*
X152749385Y-99296705D01*
X152836739Y-99413261D01*
X152953295Y-99500615D01*
X153089684Y-99551745D01*
X153151866Y-99558500D01*
X154848134Y-99558500D01*
X154910316Y-99551745D01*
X155046705Y-99500615D01*
X155141966Y-99429221D01*
X155208471Y-99404373D01*
X155277853Y-99419426D01*
X155291592Y-99428111D01*
X155318385Y-99447578D01*
X155324413Y-99450262D01*
X155324415Y-99450263D01*
X155442289Y-99502744D01*
X155483248Y-99520980D01*
X155571508Y-99539740D01*
X155653311Y-99557128D01*
X155653315Y-99557128D01*
X155659768Y-99558500D01*
X155840232Y-99558500D01*
X155846685Y-99557128D01*
X155846689Y-99557128D01*
X155928492Y-99539740D01*
X156016752Y-99520980D01*
X156057711Y-99502744D01*
X156175585Y-99450263D01*
X156175587Y-99450262D01*
X156181615Y-99447578D01*
X156228353Y-99413621D01*
X156322269Y-99345387D01*
X156322271Y-99345385D01*
X156327613Y-99341504D01*
X156381111Y-99282089D01*
X156433333Y-99224090D01*
X156493779Y-99186850D01*
X156564763Y-99188202D01*
X156623747Y-99227715D01*
X156634739Y-99243121D01*
X156663361Y-99290381D01*
X156784619Y-99411639D01*
X156931301Y-99500472D01*
X156938548Y-99502743D01*
X156938550Y-99502744D01*
X156988174Y-99518295D01*
X157094938Y-99551753D01*
X157168365Y-99558500D01*
X157171263Y-99558500D01*
X157425665Y-99558499D01*
X157681634Y-99558499D01*
X157684492Y-99558236D01*
X157684501Y-99558236D01*
X157720004Y-99554974D01*
X157755062Y-99551753D01*
X157761447Y-99549752D01*
X157911450Y-99502744D01*
X157911452Y-99502743D01*
X157918699Y-99500472D01*
X158065381Y-99411639D01*
X158160905Y-99316115D01*
X158223217Y-99282089D01*
X158294032Y-99287154D01*
X158339095Y-99316115D01*
X158425437Y-99402457D01*
X158459463Y-99464769D01*
X158461264Y-99475105D01*
X158466500Y-99514880D01*
X158466500Y-99514885D01*
X158471353Y-99551745D01*
X158482162Y-99633851D01*
X158543476Y-99781876D01*
X158548503Y-99788427D01*
X158548504Y-99788429D01*
X158616520Y-99877069D01*
X158616526Y-99877075D01*
X158641013Y-99908987D01*
X158647568Y-99914017D01*
X158666379Y-99928452D01*
X158678770Y-99939319D01*
X160135685Y-101396234D01*
X160146552Y-101408625D01*
X160166013Y-101433987D01*
X160172563Y-101439013D01*
X160197921Y-101458471D01*
X160197937Y-101458485D01*
X160247305Y-101496366D01*
X160293124Y-101531524D01*
X160441149Y-101592838D01*
X160600000Y-101613751D01*
X160599877Y-101614683D01*
X160661153Y-101632675D01*
X160671664Y-101640701D01*
X160672387Y-101641504D01*
X160677729Y-101645385D01*
X160677731Y-101645387D01*
X160787671Y-101725263D01*
X160818385Y-101747578D01*
X160824413Y-101750262D01*
X160824415Y-101750263D01*
X160977217Y-101818295D01*
X160983248Y-101820980D01*
X161071508Y-101839740D01*
X161153311Y-101857128D01*
X161153315Y-101857128D01*
X161159768Y-101858500D01*
X161340232Y-101858500D01*
X161346685Y-101857128D01*
X161346689Y-101857128D01*
X161428492Y-101839740D01*
X161516752Y-101820980D01*
X161522783Y-101818295D01*
X161675585Y-101750263D01*
X161675587Y-101750262D01*
X161681615Y-101747578D01*
X161712329Y-101725263D01*
X161822269Y-101645387D01*
X161822271Y-101645385D01*
X161827613Y-101641504D01*
X161857330Y-101608500D01*
X161943948Y-101512301D01*
X161943949Y-101512300D01*
X161948367Y-101507393D01*
X162038599Y-101351107D01*
X162094365Y-101179475D01*
X162113229Y-101000000D01*
X162094365Y-100820525D01*
X162038599Y-100648893D01*
X161948367Y-100492607D01*
X161931006Y-100473325D01*
X161832035Y-100363407D01*
X161832034Y-100363406D01*
X161827613Y-100358496D01*
X161681615Y-100252422D01*
X161675587Y-100249738D01*
X161675585Y-100249737D01*
X161522783Y-100181705D01*
X161522781Y-100181705D01*
X161516752Y-100179020D01*
X161411767Y-100156705D01*
X161346689Y-100142872D01*
X161346685Y-100142872D01*
X161340232Y-100141500D01*
X161159768Y-100141500D01*
X161153315Y-100142872D01*
X161153311Y-100142872D01*
X161088233Y-100156705D01*
X160983248Y-100179020D01*
X160977219Y-100181704D01*
X160977217Y-100181705D01*
X160824556Y-100249675D01*
X160754189Y-100259109D01*
X160689892Y-100229003D01*
X160684212Y-100223663D01*
X159874170Y-99413621D01*
X159840144Y-99351309D01*
X159845209Y-99280494D01*
X159855489Y-99259255D01*
X159874591Y-99227715D01*
X159925472Y-99143699D01*
X159976753Y-98980062D01*
X159983500Y-98906635D01*
X159983499Y-98448887D01*
X160003501Y-98380767D01*
X160057156Y-98334274D01*
X160109499Y-98322888D01*
X163237476Y-98322888D01*
X163253919Y-98323966D01*
X163285612Y-98328138D01*
X163293801Y-98327060D01*
X163325486Y-98322889D01*
X163325496Y-98322888D01*
X163325497Y-98322888D01*
X163425069Y-98309779D01*
X163436276Y-98308304D01*
X163436278Y-98308303D01*
X163444463Y-98307226D01*
X163592488Y-98245912D01*
X163600605Y-98239684D01*
X163687684Y-98172865D01*
X163687687Y-98172862D01*
X163713046Y-98153403D01*
X163719599Y-98148375D01*
X163724629Y-98141820D01*
X163739064Y-98123009D01*
X163749931Y-98110618D01*
X163965144Y-97895405D01*
X164027456Y-97861379D01*
X164054239Y-97858500D01*
X164090232Y-97858500D01*
X164096685Y-97857128D01*
X164096689Y-97857128D01*
X164178492Y-97839740D01*
X164266752Y-97820980D01*
X164406837Y-97758610D01*
X164425585Y-97750263D01*
X164425587Y-97750262D01*
X164431615Y-97747578D01*
X164461653Y-97725754D01*
X164572269Y-97645387D01*
X164572271Y-97645385D01*
X164577613Y-97641504D01*
X164615417Y-97599518D01*
X164669008Y-97540000D01*
X168636771Y-97540000D01*
X168637461Y-97546565D01*
X168641228Y-97582400D01*
X168655635Y-97719475D01*
X168657675Y-97725753D01*
X168657675Y-97725754D01*
X168687743Y-97818295D01*
X168711401Y-97891107D01*
X168801633Y-98047393D01*
X168806051Y-98052300D01*
X168806052Y-98052301D01*
X168917965Y-98176593D01*
X168922387Y-98181504D01*
X168927729Y-98185385D01*
X168927731Y-98185387D01*
X169013269Y-98247534D01*
X169068385Y-98287578D01*
X169074413Y-98290262D01*
X169074415Y-98290263D01*
X169227217Y-98358295D01*
X169233248Y-98360980D01*
X169321508Y-98379740D01*
X169403311Y-98397128D01*
X169403315Y-98397128D01*
X169409768Y-98398500D01*
X169590232Y-98398500D01*
X169596685Y-98397128D01*
X169596689Y-98397128D01*
X169678492Y-98379740D01*
X169766752Y-98360980D01*
X169772783Y-98358295D01*
X169925585Y-98290263D01*
X169925587Y-98290262D01*
X169931615Y-98287578D01*
X169986731Y-98247534D01*
X170072269Y-98185387D01*
X170072271Y-98185385D01*
X170077613Y-98181504D01*
X170082035Y-98176593D01*
X170193948Y-98052301D01*
X170193949Y-98052300D01*
X170198367Y-98047393D01*
X170288599Y-97891107D01*
X170312257Y-97818295D01*
X170342325Y-97725754D01*
X170342325Y-97725753D01*
X170344365Y-97719475D01*
X170358773Y-97582400D01*
X170362539Y-97546565D01*
X170363229Y-97540000D01*
X170349793Y-97412170D01*
X170345055Y-97367089D01*
X170345055Y-97367088D01*
X170344365Y-97360525D01*
X170288599Y-97188893D01*
X170198367Y-97032607D01*
X170190869Y-97024279D01*
X170082035Y-96903407D01*
X170082034Y-96903406D01*
X170077613Y-96898496D01*
X169970296Y-96820525D01*
X169936957Y-96796303D01*
X169936956Y-96796302D01*
X169931615Y-96792422D01*
X169925587Y-96789738D01*
X169925585Y-96789737D01*
X169772783Y-96721705D01*
X169772781Y-96721705D01*
X169766752Y-96719020D01*
X169678492Y-96700260D01*
X169596689Y-96682872D01*
X169596685Y-96682872D01*
X169590232Y-96681500D01*
X169409768Y-96681500D01*
X169403315Y-96682872D01*
X169403311Y-96682872D01*
X169321508Y-96700260D01*
X169233248Y-96719020D01*
X169227219Y-96721704D01*
X169227217Y-96721705D01*
X169074416Y-96789737D01*
X169074414Y-96789738D01*
X169068386Y-96792422D01*
X169063045Y-96796302D01*
X169063044Y-96796303D01*
X168927731Y-96894613D01*
X168927729Y-96894615D01*
X168922387Y-96898496D01*
X168917966Y-96903406D01*
X168917965Y-96903407D01*
X168809132Y-97024279D01*
X168801633Y-97032607D01*
X168711401Y-97188893D01*
X168655635Y-97360525D01*
X168654945Y-97367088D01*
X168654945Y-97367089D01*
X168650207Y-97412170D01*
X168636771Y-97540000D01*
X164669008Y-97540000D01*
X164693948Y-97512301D01*
X164693949Y-97512300D01*
X164698367Y-97507393D01*
X164788599Y-97351107D01*
X164844365Y-97179475D01*
X164852100Y-97105888D01*
X164862539Y-97006565D01*
X164863229Y-97000000D01*
X164844365Y-96820525D01*
X164834362Y-96789737D01*
X164799639Y-96682872D01*
X164788599Y-96648893D01*
X164698367Y-96492607D01*
X164630831Y-96417600D01*
X164582035Y-96363407D01*
X164582034Y-96363406D01*
X164577613Y-96358496D01*
X164501987Y-96303550D01*
X164436957Y-96256303D01*
X164436956Y-96256302D01*
X164431615Y-96252422D01*
X164425587Y-96249738D01*
X164425585Y-96249737D01*
X164272783Y-96181705D01*
X164272781Y-96181705D01*
X164266752Y-96179020D01*
X164159015Y-96156120D01*
X164096689Y-96142872D01*
X164096685Y-96142872D01*
X164090232Y-96141500D01*
X163909768Y-96141500D01*
X163903315Y-96142872D01*
X163903311Y-96142872D01*
X163840985Y-96156120D01*
X163733248Y-96179020D01*
X163727219Y-96181704D01*
X163727217Y-96181705D01*
X163574416Y-96249737D01*
X163574414Y-96249738D01*
X163568386Y-96252422D01*
X163563045Y-96256302D01*
X163563044Y-96256303D01*
X163427731Y-96354613D01*
X163427729Y-96354615D01*
X163422387Y-96358496D01*
X163417966Y-96363406D01*
X163417965Y-96363407D01*
X163369170Y-96417600D01*
X163301633Y-96492607D01*
X163211401Y-96648893D01*
X163200361Y-96682872D01*
X163165639Y-96789737D01*
X163155635Y-96820525D01*
X163154945Y-96827088D01*
X163154945Y-96827089D01*
X163141120Y-96958622D01*
X163114106Y-97024279D01*
X163104905Y-97034546D01*
X163070468Y-97068983D01*
X163008156Y-97103009D01*
X162981373Y-97105888D01*
X160109500Y-97105888D01*
X160041379Y-97085886D01*
X159994886Y-97032230D01*
X159983500Y-96979888D01*
X159983499Y-96536249D01*
X159983499Y-96533366D01*
X159976753Y-96459938D01*
X159963485Y-96417600D01*
X159927744Y-96303550D01*
X159927743Y-96303548D01*
X159925472Y-96296301D01*
X159836639Y-96149619D01*
X159715381Y-96028361D01*
X159715947Y-96027795D01*
X159678207Y-95974951D01*
X159672298Y-95950024D01*
X159668916Y-95924336D01*
X159668915Y-95924334D01*
X159667838Y-95916150D01*
X159664115Y-95907162D01*
X159606524Y-95768124D01*
X159533478Y-95672929D01*
X159533474Y-95672925D01*
X159516673Y-95651029D01*
X159514016Y-95647566D01*
X159514013Y-95647563D01*
X159508987Y-95641013D01*
X159502432Y-95635983D01*
X159483621Y-95621548D01*
X159471230Y-95610681D01*
X159149644Y-95289095D01*
X159115618Y-95226783D01*
X159120683Y-95155968D01*
X159149644Y-95110905D01*
X159471234Y-94789315D01*
X159483625Y-94778448D01*
X159502437Y-94764013D01*
X159508987Y-94758987D01*
X159533474Y-94727075D01*
X159533478Y-94727071D01*
X159561714Y-94690273D01*
X159619051Y-94648407D01*
X159689922Y-94644186D01*
X159751825Y-94678951D01*
X159770793Y-94703977D01*
X159801633Y-94757393D01*
X159806051Y-94762300D01*
X159806052Y-94762301D01*
X159820591Y-94778448D01*
X159922387Y-94891504D01*
X159927729Y-94895385D01*
X159927731Y-94895387D01*
X160063043Y-94993697D01*
X160068385Y-94997578D01*
X160074413Y-95000262D01*
X160074415Y-95000263D01*
X160227215Y-95068294D01*
X160233248Y-95070980D01*
X160321508Y-95089740D01*
X160403311Y-95107128D01*
X160403315Y-95107128D01*
X160409768Y-95108500D01*
X160590232Y-95108500D01*
X160596685Y-95107128D01*
X160596689Y-95107128D01*
X160678492Y-95089740D01*
X160766752Y-95070980D01*
X160772785Y-95068294D01*
X160925585Y-95000263D01*
X160925587Y-95000262D01*
X160931615Y-94997578D01*
X160936957Y-94993697D01*
X161072269Y-94895387D01*
X161072271Y-94895385D01*
X161077613Y-94891504D01*
X161179409Y-94778448D01*
X161193948Y-94762301D01*
X161193949Y-94762300D01*
X161198367Y-94757393D01*
X161266831Y-94638810D01*
X161285295Y-94606830D01*
X161285296Y-94606829D01*
X161288599Y-94601107D01*
X161344365Y-94429475D01*
X161360747Y-94273619D01*
X161362539Y-94256565D01*
X161363229Y-94250000D01*
X161357263Y-94193236D01*
X161345055Y-94077089D01*
X161345055Y-94077088D01*
X161344365Y-94070525D01*
X161334287Y-94039506D01*
X161290641Y-93905178D01*
X161288599Y-93898893D01*
X161198367Y-93742607D01*
X161077613Y-93608496D01*
X161066593Y-93600489D01*
X160936957Y-93506303D01*
X160936956Y-93506302D01*
X160931615Y-93502422D01*
X160925587Y-93499738D01*
X160925585Y-93499737D01*
X160772783Y-93431705D01*
X160772781Y-93431705D01*
X160766752Y-93429020D01*
X160678492Y-93410260D01*
X160596689Y-93392872D01*
X160596685Y-93392872D01*
X160590232Y-93391500D01*
X160554239Y-93391500D01*
X160486118Y-93371498D01*
X160465144Y-93354595D01*
X160419925Y-93309376D01*
X160385899Y-93247064D01*
X160383020Y-93220281D01*
X160383020Y-90772664D01*
X160384098Y-90756218D01*
X160387193Y-90732708D01*
X160388271Y-90724520D01*
X160367358Y-90565669D01*
X160306044Y-90417644D01*
X160232998Y-90322449D01*
X160232994Y-90322445D01*
X160225805Y-90313076D01*
X160213536Y-90297086D01*
X160213533Y-90297083D01*
X160208507Y-90290533D01*
X160201952Y-90285503D01*
X160183141Y-90271068D01*
X160170750Y-90260201D01*
X160020405Y-90109856D01*
X159986379Y-90047544D01*
X159983500Y-90020761D01*
X159983499Y-89696249D01*
X159983499Y-89693366D01*
X159983236Y-89690499D01*
X159977365Y-89626594D01*
X159977364Y-89626589D01*
X159976753Y-89619938D01*
X159974753Y-89613557D01*
X159974082Y-89610206D01*
X159980316Y-89539483D01*
X160023795Y-89483358D01*
X160097628Y-89459460D01*
X160378173Y-89459460D01*
X160446294Y-89479462D01*
X160467268Y-89496365D01*
X163827137Y-92856234D01*
X163838004Y-92868625D01*
X163857465Y-92893987D01*
X163889377Y-92918474D01*
X163889380Y-92918477D01*
X163953129Y-92967393D01*
X163984577Y-92991524D01*
X164132602Y-93052838D01*
X164251567Y-93068500D01*
X164251572Y-93068500D01*
X164251581Y-93068501D01*
X164283264Y-93072672D01*
X164291452Y-93073750D01*
X164323145Y-93069578D01*
X164339588Y-93068500D01*
X164838397Y-93068500D01*
X164906518Y-93088502D01*
X164919836Y-93098671D01*
X164922387Y-93101504D01*
X165068385Y-93207578D01*
X165074413Y-93210262D01*
X165074415Y-93210263D01*
X165227217Y-93278295D01*
X165233248Y-93280980D01*
X165321508Y-93299740D01*
X165403311Y-93317128D01*
X165403315Y-93317128D01*
X165409768Y-93318500D01*
X165590232Y-93318500D01*
X165596685Y-93317128D01*
X165596689Y-93317128D01*
X165678492Y-93299740D01*
X165766752Y-93280980D01*
X165772783Y-93278295D01*
X165925585Y-93210263D01*
X165925587Y-93210262D01*
X165931615Y-93207578D01*
X166077613Y-93101504D01*
X166102603Y-93073750D01*
X166193948Y-92972301D01*
X166193949Y-92972300D01*
X166198367Y-92967393D01*
X166288599Y-92811107D01*
X166344365Y-92639475D01*
X166363229Y-92460000D01*
X166344365Y-92280525D01*
X166288599Y-92108893D01*
X166198367Y-91952607D01*
X166077613Y-91818496D01*
X166044699Y-91794582D01*
X165936957Y-91716303D01*
X165936956Y-91716302D01*
X165931615Y-91712422D01*
X165925587Y-91709738D01*
X165925585Y-91709737D01*
X165772783Y-91641705D01*
X165772781Y-91641705D01*
X165766752Y-91639020D01*
X165678492Y-91620260D01*
X165596689Y-91602872D01*
X165596685Y-91602872D01*
X165590232Y-91601500D01*
X165409768Y-91601500D01*
X165403315Y-91602872D01*
X165403311Y-91602872D01*
X165321508Y-91620260D01*
X165233248Y-91639020D01*
X165227219Y-91641704D01*
X165227217Y-91641705D01*
X165074416Y-91709737D01*
X165074414Y-91709738D01*
X165068386Y-91712422D01*
X165063045Y-91716302D01*
X165063044Y-91716303D01*
X164955302Y-91794582D01*
X164888434Y-91818441D01*
X164819282Y-91802360D01*
X164769802Y-91751446D01*
X164755703Y-91681863D01*
X164772122Y-91629646D01*
X164785295Y-91606830D01*
X164785296Y-91606829D01*
X164788599Y-91601107D01*
X164844365Y-91429475D01*
X164856552Y-91313531D01*
X164862539Y-91256565D01*
X164863229Y-91250000D01*
X164862474Y-91242814D01*
X164845055Y-91077089D01*
X164845055Y-91077088D01*
X164844365Y-91070525D01*
X164788599Y-90898893D01*
X164698367Y-90742607D01*
X164682082Y-90724520D01*
X164582035Y-90613407D01*
X164582034Y-90613406D01*
X164577613Y-90608496D01*
X164561151Y-90596535D01*
X164436957Y-90506303D01*
X164436956Y-90506302D01*
X164431615Y-90502422D01*
X164425587Y-90499738D01*
X164425585Y-90499737D01*
X164272783Y-90431705D01*
X164272781Y-90431705D01*
X164266752Y-90429020D01*
X164178492Y-90410260D01*
X164096689Y-90392872D01*
X164096685Y-90392872D01*
X164090232Y-90391500D01*
X163909768Y-90391500D01*
X163903315Y-90392872D01*
X163903311Y-90392872D01*
X163821508Y-90410260D01*
X163733248Y-90429020D01*
X163727219Y-90431704D01*
X163727217Y-90431705D01*
X163574416Y-90499737D01*
X163574414Y-90499738D01*
X163568386Y-90502422D01*
X163438849Y-90596536D01*
X163371983Y-90620393D01*
X163302832Y-90604313D01*
X163275695Y-90583694D01*
X161146727Y-88454726D01*
X161135860Y-88442335D01*
X161121425Y-88423523D01*
X161116399Y-88416973D01*
X161084487Y-88392486D01*
X161084481Y-88392480D01*
X160995841Y-88324464D01*
X160995839Y-88324463D01*
X160989288Y-88319436D01*
X160841263Y-88258122D01*
X160833076Y-88257044D01*
X160833075Y-88257044D01*
X160821870Y-88255569D01*
X160790674Y-88251462D01*
X160722297Y-88242460D01*
X160722294Y-88242460D01*
X160722286Y-88242459D01*
X160690601Y-88238288D01*
X160682412Y-88237210D01*
X160650719Y-88241382D01*
X160634276Y-88242460D01*
X156019712Y-88242460D01*
X155951591Y-88222458D01*
X155905098Y-88168802D01*
X155894994Y-88098528D01*
X155926074Y-88032152D01*
X155948367Y-88007393D01*
X156038599Y-87851107D01*
X156094365Y-87679475D01*
X156113229Y-87500000D01*
X156109368Y-87463269D01*
X156122139Y-87393433D01*
X156170641Y-87341585D01*
X156239473Y-87324190D01*
X156260872Y-87326852D01*
X156307568Y-87336777D01*
X156403311Y-87357128D01*
X156403315Y-87357128D01*
X156409768Y-87358500D01*
X156590232Y-87358500D01*
X156596685Y-87357128D01*
X156596689Y-87357128D01*
X156678492Y-87339740D01*
X156766752Y-87320980D01*
X156781877Y-87314246D01*
X156925585Y-87250263D01*
X156925587Y-87250262D01*
X156931615Y-87247578D01*
X156962690Y-87225001D01*
X160886770Y-87225001D01*
X160887460Y-87231566D01*
X160904271Y-87391504D01*
X160905634Y-87404476D01*
X160961400Y-87576108D01*
X160964703Y-87581830D01*
X160964704Y-87581831D01*
X160983879Y-87615043D01*
X161051632Y-87732394D01*
X161056050Y-87737301D01*
X161056051Y-87737302D01*
X161167964Y-87861594D01*
X161172386Y-87866505D01*
X161177728Y-87870386D01*
X161177730Y-87870388D01*
X161276020Y-87941800D01*
X161318384Y-87972579D01*
X161324412Y-87975263D01*
X161324414Y-87975264D01*
X161427033Y-88020953D01*
X161483247Y-88045981D01*
X161571507Y-88064741D01*
X161653310Y-88082129D01*
X161653314Y-88082129D01*
X161659767Y-88083501D01*
X161840231Y-88083501D01*
X161846684Y-88082129D01*
X161846688Y-88082129D01*
X161928491Y-88064741D01*
X162016751Y-88045981D01*
X162072965Y-88020953D01*
X162175584Y-87975264D01*
X162175586Y-87975263D01*
X162181614Y-87972579D01*
X162223978Y-87941800D01*
X162322268Y-87870388D01*
X162322270Y-87870386D01*
X162327612Y-87866505D01*
X162332034Y-87861594D01*
X162443947Y-87737302D01*
X162443948Y-87737301D01*
X162448366Y-87732394D01*
X162516119Y-87615043D01*
X162535294Y-87581831D01*
X162535295Y-87581830D01*
X162538598Y-87576108D01*
X162594364Y-87404476D01*
X162595728Y-87391504D01*
X162612538Y-87231566D01*
X162613228Y-87225001D01*
X164886770Y-87225001D01*
X164887460Y-87231566D01*
X164904271Y-87391504D01*
X164905634Y-87404476D01*
X164961400Y-87576108D01*
X164964703Y-87581830D01*
X164964704Y-87581831D01*
X164983879Y-87615043D01*
X165051632Y-87732394D01*
X165056050Y-87737301D01*
X165056051Y-87737302D01*
X165167964Y-87861594D01*
X165172386Y-87866505D01*
X165177728Y-87870386D01*
X165177730Y-87870388D01*
X165276020Y-87941800D01*
X165318384Y-87972579D01*
X165324412Y-87975263D01*
X165324414Y-87975264D01*
X165427033Y-88020953D01*
X165483247Y-88045981D01*
X165571507Y-88064741D01*
X165653310Y-88082129D01*
X165653314Y-88082129D01*
X165659767Y-88083501D01*
X165840231Y-88083501D01*
X165846684Y-88082129D01*
X165846688Y-88082129D01*
X165928491Y-88064741D01*
X166016751Y-88045981D01*
X166072965Y-88020953D01*
X166175584Y-87975264D01*
X166175586Y-87975263D01*
X166181614Y-87972579D01*
X166223978Y-87941800D01*
X166322268Y-87870388D01*
X166322270Y-87870386D01*
X166327612Y-87866505D01*
X166332034Y-87861594D01*
X166443947Y-87737302D01*
X166443948Y-87737301D01*
X166448366Y-87732394D01*
X166516119Y-87615043D01*
X166535294Y-87581831D01*
X166535295Y-87581830D01*
X166538598Y-87576108D01*
X166594364Y-87404476D01*
X166595728Y-87391504D01*
X166612538Y-87231566D01*
X166613228Y-87225001D01*
X166603936Y-87136593D01*
X166595054Y-87052090D01*
X166595054Y-87052089D01*
X166594364Y-87045526D01*
X166585660Y-87018736D01*
X166540640Y-86880179D01*
X166538598Y-86873894D01*
X166448366Y-86717608D01*
X166426024Y-86692794D01*
X166332034Y-86588408D01*
X166332033Y-86588407D01*
X166327612Y-86583497D01*
X166318793Y-86577089D01*
X166186956Y-86481304D01*
X166186955Y-86481303D01*
X166181614Y-86477423D01*
X166175586Y-86474739D01*
X166175584Y-86474738D01*
X166022782Y-86406706D01*
X166022780Y-86406706D01*
X166016751Y-86404021D01*
X165928491Y-86385261D01*
X165846688Y-86367873D01*
X165846684Y-86367873D01*
X165840231Y-86366501D01*
X165659767Y-86366501D01*
X165653314Y-86367873D01*
X165653310Y-86367873D01*
X165571507Y-86385261D01*
X165483247Y-86404021D01*
X165477218Y-86406705D01*
X165477216Y-86406706D01*
X165324415Y-86474738D01*
X165324413Y-86474739D01*
X165318385Y-86477423D01*
X165313044Y-86481303D01*
X165313043Y-86481304D01*
X165177730Y-86579614D01*
X165177728Y-86579616D01*
X165172386Y-86583497D01*
X165167965Y-86588407D01*
X165167964Y-86588408D01*
X165073975Y-86692794D01*
X165051632Y-86717608D01*
X164961400Y-86873894D01*
X164959358Y-86880179D01*
X164914339Y-87018736D01*
X164905634Y-87045526D01*
X164904944Y-87052089D01*
X164904944Y-87052090D01*
X164896062Y-87136593D01*
X164886770Y-87225001D01*
X162613228Y-87225001D01*
X162603936Y-87136593D01*
X162595054Y-87052090D01*
X162595054Y-87052089D01*
X162594364Y-87045526D01*
X162585660Y-87018736D01*
X162540640Y-86880179D01*
X162538598Y-86873894D01*
X162448366Y-86717608D01*
X162426024Y-86692794D01*
X162332034Y-86588408D01*
X162332033Y-86588407D01*
X162327612Y-86583497D01*
X162318793Y-86577089D01*
X162186956Y-86481304D01*
X162186955Y-86481303D01*
X162181614Y-86477423D01*
X162175586Y-86474739D01*
X162175584Y-86474738D01*
X162022782Y-86406706D01*
X162022780Y-86406706D01*
X162016751Y-86404021D01*
X161928491Y-86385261D01*
X161846688Y-86367873D01*
X161846684Y-86367873D01*
X161840231Y-86366501D01*
X161659767Y-86366501D01*
X161653314Y-86367873D01*
X161653310Y-86367873D01*
X161571507Y-86385261D01*
X161483247Y-86404021D01*
X161477218Y-86406705D01*
X161477216Y-86406706D01*
X161324415Y-86474738D01*
X161324413Y-86474739D01*
X161318385Y-86477423D01*
X161313044Y-86481303D01*
X161313043Y-86481304D01*
X161177730Y-86579614D01*
X161177728Y-86579616D01*
X161172386Y-86583497D01*
X161167965Y-86588407D01*
X161167964Y-86588408D01*
X161073975Y-86692794D01*
X161051632Y-86717608D01*
X160961400Y-86873894D01*
X160959358Y-86880179D01*
X160914339Y-87018736D01*
X160905634Y-87045526D01*
X160904944Y-87052089D01*
X160904944Y-87052090D01*
X160896062Y-87136593D01*
X160886770Y-87225001D01*
X156962690Y-87225001D01*
X157072269Y-87145387D01*
X157072271Y-87145385D01*
X157077613Y-87141504D01*
X157180236Y-87027530D01*
X157193948Y-87012301D01*
X157193949Y-87012300D01*
X157198367Y-87007393D01*
X157253311Y-86912227D01*
X157285295Y-86856830D01*
X157285296Y-86856829D01*
X157288599Y-86851107D01*
X157333570Y-86712700D01*
X157342325Y-86685754D01*
X157342325Y-86685753D01*
X157344365Y-86679475D01*
X157363229Y-86500000D01*
X157352602Y-86398893D01*
X157345055Y-86327089D01*
X157345055Y-86327088D01*
X157344365Y-86320525D01*
X157317454Y-86237699D01*
X157290641Y-86155178D01*
X157288599Y-86148893D01*
X157198367Y-85992607D01*
X157077613Y-85858496D01*
X156941443Y-85759562D01*
X156936957Y-85756303D01*
X156936956Y-85756302D01*
X156931615Y-85752422D01*
X156925587Y-85749738D01*
X156925585Y-85749737D01*
X156772783Y-85681705D01*
X156772781Y-85681705D01*
X156766752Y-85679020D01*
X156678492Y-85660260D01*
X156596689Y-85642872D01*
X156596685Y-85642872D01*
X156590232Y-85641500D01*
X156409768Y-85641500D01*
X156403315Y-85642872D01*
X156403311Y-85642872D01*
X156321508Y-85660260D01*
X156233248Y-85679020D01*
X156227219Y-85681704D01*
X156227217Y-85681705D01*
X156074416Y-85749737D01*
X156074414Y-85749738D01*
X156068386Y-85752422D01*
X156058559Y-85759562D01*
X155991691Y-85783419D01*
X155922540Y-85767337D01*
X155873060Y-85716422D01*
X155858500Y-85657624D01*
X155858500Y-84750000D01*
X162636771Y-84750000D01*
X162637461Y-84756565D01*
X162646489Y-84842454D01*
X162655635Y-84929475D01*
X162711401Y-85101107D01*
X162801633Y-85257393D01*
X162922387Y-85391504D01*
X163068385Y-85497578D01*
X163074413Y-85500262D01*
X163074415Y-85500263D01*
X163227217Y-85568295D01*
X163233248Y-85570980D01*
X163321508Y-85589740D01*
X163403311Y-85607128D01*
X163403315Y-85607128D01*
X163409768Y-85608500D01*
X163590232Y-85608500D01*
X163596685Y-85607128D01*
X163596689Y-85607128D01*
X163678492Y-85589740D01*
X163766752Y-85570980D01*
X163772783Y-85568295D01*
X163925585Y-85500263D01*
X163925587Y-85500262D01*
X163931615Y-85497578D01*
X164077613Y-85391504D01*
X164198367Y-85257393D01*
X164288599Y-85101107D01*
X164344365Y-84929475D01*
X164353512Y-84842454D01*
X164362539Y-84756565D01*
X164363229Y-84750000D01*
X164344365Y-84570525D01*
X164288599Y-84398893D01*
X164198367Y-84242607D01*
X164077613Y-84108496D01*
X164068584Y-84101936D01*
X164025230Y-84045713D01*
X164019155Y-83974977D01*
X164052287Y-83912186D01*
X164068584Y-83898064D01*
X164068875Y-83897853D01*
X164077613Y-83891504D01*
X164198367Y-83757393D01*
X164288599Y-83601107D01*
X164344365Y-83429475D01*
X164363229Y-83250000D01*
X169136526Y-83250000D01*
X169156391Y-83502403D01*
X169157545Y-83507210D01*
X169157546Y-83507216D01*
X169181461Y-83606830D01*
X169215495Y-83748591D01*
X169217388Y-83753162D01*
X169217389Y-83753164D01*
X169277409Y-83898064D01*
X169312384Y-83982502D01*
X169444672Y-84198376D01*
X169609102Y-84390898D01*
X169801624Y-84555328D01*
X170017498Y-84687616D01*
X170022068Y-84689509D01*
X170022072Y-84689511D01*
X170246836Y-84782611D01*
X170251409Y-84784505D01*
X170336032Y-84804821D01*
X170492784Y-84842454D01*
X170492790Y-84842455D01*
X170497597Y-84843609D01*
X170597416Y-84851465D01*
X170684345Y-84858307D01*
X170684352Y-84858307D01*
X170686801Y-84858500D01*
X170813199Y-84858500D01*
X170815648Y-84858307D01*
X170815655Y-84858307D01*
X170902584Y-84851465D01*
X171002403Y-84843609D01*
X171007210Y-84842455D01*
X171007216Y-84842454D01*
X171163968Y-84804821D01*
X171248591Y-84784505D01*
X171253164Y-84782611D01*
X171477928Y-84689511D01*
X171477932Y-84689509D01*
X171482502Y-84687616D01*
X171698376Y-84555328D01*
X171890898Y-84390898D01*
X172055328Y-84198376D01*
X172187616Y-83982502D01*
X172222592Y-83898064D01*
X172282611Y-83753164D01*
X172282612Y-83753162D01*
X172284505Y-83748591D01*
X172318539Y-83606830D01*
X172342454Y-83507216D01*
X172342455Y-83507210D01*
X172343609Y-83502403D01*
X172363474Y-83250000D01*
X172343609Y-82997597D01*
X172321422Y-82905178D01*
X172285660Y-82756221D01*
X172284505Y-82751409D01*
X172187616Y-82517498D01*
X172055328Y-82301624D01*
X171890898Y-82109102D01*
X171698376Y-81944672D01*
X171482502Y-81812384D01*
X171477932Y-81810491D01*
X171477928Y-81810489D01*
X171253164Y-81717389D01*
X171253162Y-81717388D01*
X171248591Y-81715495D01*
X171098556Y-81679475D01*
X171007216Y-81657546D01*
X171007210Y-81657545D01*
X171002403Y-81656391D01*
X170902584Y-81648535D01*
X170815655Y-81641693D01*
X170815648Y-81641693D01*
X170813199Y-81641500D01*
X170686801Y-81641500D01*
X170684352Y-81641693D01*
X170684345Y-81641693D01*
X170597416Y-81648535D01*
X170497597Y-81656391D01*
X170492790Y-81657545D01*
X170492784Y-81657546D01*
X170401444Y-81679475D01*
X170251409Y-81715495D01*
X170246838Y-81717388D01*
X170246836Y-81717389D01*
X170022072Y-81810489D01*
X170022068Y-81810491D01*
X170017498Y-81812384D01*
X169801624Y-81944672D01*
X169609102Y-82109102D01*
X169444672Y-82301624D01*
X169312384Y-82517498D01*
X169215495Y-82751409D01*
X169214340Y-82756221D01*
X169178579Y-82905178D01*
X169156391Y-82997597D01*
X169136526Y-83250000D01*
X164363229Y-83250000D01*
X164344365Y-83070525D01*
X164288599Y-82898893D01*
X164198367Y-82742607D01*
X164077613Y-82608496D01*
X163952366Y-82517498D01*
X163936957Y-82506303D01*
X163936956Y-82506302D01*
X163931615Y-82502422D01*
X163925587Y-82499738D01*
X163925585Y-82499737D01*
X163772783Y-82431705D01*
X163772781Y-82431705D01*
X163766752Y-82429020D01*
X163678492Y-82410260D01*
X163596689Y-82392872D01*
X163596685Y-82392872D01*
X163590232Y-82391500D01*
X163409768Y-82391500D01*
X163403315Y-82392872D01*
X163403311Y-82392872D01*
X163321508Y-82410260D01*
X163233248Y-82429020D01*
X163227219Y-82431704D01*
X163227217Y-82431705D01*
X163074416Y-82499737D01*
X163074414Y-82499738D01*
X163068386Y-82502422D01*
X163063045Y-82506302D01*
X163063044Y-82506303D01*
X162927731Y-82604613D01*
X162927729Y-82604615D01*
X162922387Y-82608496D01*
X162801633Y-82742607D01*
X162711401Y-82898893D01*
X162655635Y-83070525D01*
X162636771Y-83250000D01*
X162655635Y-83429475D01*
X162711401Y-83601107D01*
X162801633Y-83757393D01*
X162922387Y-83891504D01*
X162931125Y-83897853D01*
X162931416Y-83898064D01*
X162974770Y-83954287D01*
X162980845Y-84025023D01*
X162947713Y-84087814D01*
X162931415Y-84101936D01*
X162922387Y-84108496D01*
X162801633Y-84242607D01*
X162711401Y-84398893D01*
X162655635Y-84570525D01*
X162636771Y-84750000D01*
X155858500Y-84750000D01*
X155858500Y-84304239D01*
X155878502Y-84236118D01*
X155895405Y-84215144D01*
X157965143Y-82145405D01*
X158027455Y-82111380D01*
X158054238Y-82108500D01*
X158338397Y-82108500D01*
X158406518Y-82128502D01*
X158419836Y-82138671D01*
X158422387Y-82141504D01*
X158568385Y-82247578D01*
X158574413Y-82250262D01*
X158574415Y-82250263D01*
X158727217Y-82318295D01*
X158733248Y-82320980D01*
X158821508Y-82339740D01*
X158903311Y-82357128D01*
X158903315Y-82357128D01*
X158909768Y-82358500D01*
X159090232Y-82358500D01*
X159096685Y-82357128D01*
X159096689Y-82357128D01*
X159178492Y-82339740D01*
X159266752Y-82320980D01*
X159272783Y-82318295D01*
X159425585Y-82250263D01*
X159425587Y-82250262D01*
X159431615Y-82247578D01*
X159577613Y-82141504D01*
X159698367Y-82007393D01*
X159788599Y-81851107D01*
X159844365Y-81679475D01*
X159863229Y-81500000D01*
X159844365Y-81320525D01*
X159788599Y-81148893D01*
X159698367Y-80992607D01*
X159676640Y-80968476D01*
X159582035Y-80863407D01*
X159582034Y-80863406D01*
X159577613Y-80858496D01*
X159541298Y-80832111D01*
X159436957Y-80756303D01*
X159436956Y-80756302D01*
X159431615Y-80752422D01*
X159425590Y-80749740D01*
X159425584Y-80749736D01*
X159425295Y-80749608D01*
X159425155Y-80749489D01*
X159419862Y-80746433D01*
X159420421Y-80745465D01*
X159371198Y-80703629D01*
X159350547Y-80635703D01*
X159369898Y-80567394D01*
X159423107Y-80520391D01*
X159476541Y-80508500D01*
X171950633Y-80508500D01*
X171970018Y-80510000D01*
X171984851Y-80512310D01*
X171984855Y-80512310D01*
X171993724Y-80513691D01*
X172008981Y-80511696D01*
X172034302Y-80510953D01*
X172203285Y-80523039D01*
X172221064Y-80525596D01*
X172411392Y-80566999D01*
X172428641Y-80572063D01*
X172611150Y-80640136D01*
X172627502Y-80647604D01*
X172798458Y-80740952D01*
X172813582Y-80750672D01*
X172969514Y-80867402D01*
X172983100Y-80879175D01*
X173120825Y-81016900D01*
X173132598Y-81030486D01*
X173249328Y-81186418D01*
X173259048Y-81201542D01*
X173352396Y-81372498D01*
X173359864Y-81388850D01*
X173427937Y-81571359D01*
X173433001Y-81588607D01*
X173474404Y-81778936D01*
X173476961Y-81796715D01*
X173487773Y-81947883D01*
X173488540Y-81958601D01*
X173487793Y-81976565D01*
X173487692Y-81984845D01*
X173486309Y-81993724D01*
X173488771Y-82012552D01*
X173490436Y-82025283D01*
X173491500Y-82041621D01*
X173491500Y-112950633D01*
X173490000Y-112970018D01*
X173487690Y-112984851D01*
X173487690Y-112984855D01*
X173486309Y-112993724D01*
X173488136Y-113007693D01*
X173488304Y-113008976D01*
X173489047Y-113034302D01*
X173477947Y-113189511D01*
X173476962Y-113203279D01*
X173474404Y-113221064D01*
X173433001Y-113411392D01*
X173427937Y-113428641D01*
X173359864Y-113611150D01*
X173352396Y-113627502D01*
X173259048Y-113798458D01*
X173249328Y-113813582D01*
X173132598Y-113969514D01*
X173120825Y-113983100D01*
X172983100Y-114120825D01*
X172969514Y-114132598D01*
X172813582Y-114249328D01*
X172798458Y-114259048D01*
X172627502Y-114352396D01*
X172611150Y-114359864D01*
X172428641Y-114427937D01*
X172411393Y-114433001D01*
X172221064Y-114474404D01*
X172203285Y-114476961D01*
X172041395Y-114488540D01*
X172023435Y-114487793D01*
X172015155Y-114487692D01*
X172006276Y-114486309D01*
X171974714Y-114490436D01*
X171958379Y-114491500D01*
X158135371Y-114491500D01*
X158067250Y-114471498D01*
X158020757Y-114417842D01*
X158010653Y-114347568D01*
X158040147Y-114282988D01*
X158046276Y-114276405D01*
X158352658Y-113970023D01*
X158414970Y-113935997D01*
X158485785Y-113941062D01*
X158498008Y-113946652D01*
X158503295Y-113950615D01*
X158511700Y-113953766D01*
X158511702Y-113953767D01*
X158572943Y-113976725D01*
X158639684Y-114001745D01*
X158701866Y-114008500D01*
X160798134Y-114008500D01*
X160860316Y-114001745D01*
X160996705Y-113950615D01*
X161113261Y-113863261D01*
X161200615Y-113746705D01*
X161251745Y-113610316D01*
X161258500Y-113548134D01*
X161258500Y-110950000D01*
X164636771Y-110950000D01*
X164637461Y-110956565D01*
X164651270Y-111087941D01*
X164655635Y-111129475D01*
X164657675Y-111135753D01*
X164657675Y-111135754D01*
X164688825Y-111231625D01*
X164711401Y-111301107D01*
X164801633Y-111457393D01*
X164806051Y-111462300D01*
X164806052Y-111462301D01*
X164917965Y-111586593D01*
X164922387Y-111591504D01*
X164927729Y-111595385D01*
X164927731Y-111595387D01*
X165063043Y-111693697D01*
X165068385Y-111697578D01*
X165074413Y-111700262D01*
X165074415Y-111700263D01*
X165084336Y-111704680D01*
X165233248Y-111770980D01*
X165292678Y-111783612D01*
X165403311Y-111807128D01*
X165403315Y-111807128D01*
X165409768Y-111808500D01*
X165590232Y-111808500D01*
X165596685Y-111807128D01*
X165596689Y-111807128D01*
X165707322Y-111783612D01*
X165766752Y-111770980D01*
X165915664Y-111704680D01*
X165925585Y-111700263D01*
X165925587Y-111700262D01*
X165931615Y-111697578D01*
X165936957Y-111693697D01*
X166072269Y-111595387D01*
X166072271Y-111595385D01*
X166077613Y-111591504D01*
X166082035Y-111586593D01*
X166193948Y-111462301D01*
X166193949Y-111462300D01*
X166198367Y-111457393D01*
X166264298Y-111343198D01*
X168062892Y-111343198D01*
X168063249Y-111350015D01*
X168063249Y-111350019D01*
X168068151Y-111443539D01*
X168072370Y-111524047D01*
X168074181Y-111530620D01*
X168074181Y-111530623D01*
X168097551Y-111615466D01*
X168120461Y-111698641D01*
X168204922Y-111858836D01*
X168209327Y-111864049D01*
X168209330Y-111864053D01*
X168317406Y-111991943D01*
X168317410Y-111991947D01*
X168321813Y-111997157D01*
X168327237Y-112001304D01*
X168327238Y-112001305D01*
X168460257Y-112103006D01*
X168460261Y-112103009D01*
X168465678Y-112107150D01*
X168552372Y-112147576D01*
X168623631Y-112180805D01*
X168623634Y-112180806D01*
X168629808Y-112183685D01*
X168636456Y-112185171D01*
X168636459Y-112185172D01*
X168742421Y-112208857D01*
X168806543Y-112223190D01*
X168812088Y-112223500D01*
X168945244Y-112223500D01*
X169080037Y-112208857D01*
X169198190Y-112169094D01*
X169245204Y-112153272D01*
X169245206Y-112153271D01*
X169251675Y-112151094D01*
X169406905Y-112057823D01*
X169411862Y-112053135D01*
X169411865Y-112053133D01*
X169533527Y-111938082D01*
X169533529Y-111938080D01*
X169538485Y-111933393D01*
X169542317Y-111927755D01*
X169542320Y-111927751D01*
X169636442Y-111789255D01*
X169640277Y-111783612D01*
X169707530Y-111615466D01*
X169708644Y-111608738D01*
X169708645Y-111608734D01*
X169735993Y-111443539D01*
X169735993Y-111443536D01*
X169737108Y-111436802D01*
X169732203Y-111343198D01*
X169727987Y-111262766D01*
X169727630Y-111255953D01*
X169704304Y-111171266D01*
X169681352Y-111087941D01*
X169679539Y-111081359D01*
X169595078Y-110921164D01*
X169590673Y-110915951D01*
X169590670Y-110915947D01*
X169482594Y-110788057D01*
X169482590Y-110788053D01*
X169478187Y-110782843D01*
X169462076Y-110770525D01*
X169339743Y-110676994D01*
X169339739Y-110676991D01*
X169334322Y-110672850D01*
X169224210Y-110621504D01*
X169176369Y-110599195D01*
X169176366Y-110599194D01*
X169170192Y-110596315D01*
X169163544Y-110594829D01*
X169163541Y-110594828D01*
X168998494Y-110557936D01*
X168998495Y-110557936D01*
X168993457Y-110556810D01*
X168987912Y-110556500D01*
X168854756Y-110556500D01*
X168719963Y-110571143D01*
X168607171Y-110609102D01*
X168554796Y-110626728D01*
X168554794Y-110626729D01*
X168548325Y-110628906D01*
X168393095Y-110722177D01*
X168388138Y-110726865D01*
X168388135Y-110726867D01*
X168266473Y-110841918D01*
X168261515Y-110846607D01*
X168257683Y-110852245D01*
X168257680Y-110852249D01*
X168186787Y-110956565D01*
X168159723Y-110996388D01*
X168092470Y-111164534D01*
X168091356Y-111171262D01*
X168091355Y-111171266D01*
X168064007Y-111336461D01*
X168062892Y-111343198D01*
X166264298Y-111343198D01*
X166288599Y-111301107D01*
X166311175Y-111231625D01*
X166342325Y-111135754D01*
X166342325Y-111135753D01*
X166344365Y-111129475D01*
X166348731Y-111087941D01*
X166362539Y-110956565D01*
X166363229Y-110950000D01*
X166344365Y-110770525D01*
X166288599Y-110598893D01*
X166273835Y-110573320D01*
X166201668Y-110448325D01*
X166198367Y-110442607D01*
X166077613Y-110308496D01*
X165952216Y-110217389D01*
X165936957Y-110206303D01*
X165936956Y-110206302D01*
X165931615Y-110202422D01*
X165925587Y-110199738D01*
X165925585Y-110199737D01*
X165772783Y-110131705D01*
X165772781Y-110131705D01*
X165766752Y-110129020D01*
X165678492Y-110110260D01*
X165596689Y-110092872D01*
X165596685Y-110092872D01*
X165590232Y-110091500D01*
X165409768Y-110091500D01*
X165403315Y-110092872D01*
X165403311Y-110092872D01*
X165321508Y-110110260D01*
X165233248Y-110129020D01*
X165227219Y-110131704D01*
X165227217Y-110131705D01*
X165074416Y-110199737D01*
X165074414Y-110199738D01*
X165068386Y-110202422D01*
X165063045Y-110206302D01*
X165063044Y-110206303D01*
X164927731Y-110304613D01*
X164927729Y-110304615D01*
X164922387Y-110308496D01*
X164801633Y-110442607D01*
X164798332Y-110448325D01*
X164726166Y-110573320D01*
X164711401Y-110598893D01*
X164655635Y-110770525D01*
X164636771Y-110950000D01*
X161258500Y-110950000D01*
X161258500Y-109451866D01*
X161251745Y-109389684D01*
X161200615Y-109253295D01*
X161113261Y-109136739D01*
X160996705Y-109049385D01*
X160860316Y-108998255D01*
X160798134Y-108991500D01*
X158701866Y-108991500D01*
X158639684Y-108998255D01*
X158503295Y-109049385D01*
X158386739Y-109136739D01*
X158299385Y-109253295D01*
X158248255Y-109389684D01*
X158241500Y-109451866D01*
X158241500Y-111883629D01*
X158221498Y-111951750D01*
X158204595Y-111972724D01*
X156988201Y-113189118D01*
X156925889Y-113223144D01*
X156855074Y-113218079D01*
X156847858Y-113215130D01*
X156772787Y-113181706D01*
X156772779Y-113181703D01*
X156766752Y-113179020D01*
X156678492Y-113160260D01*
X156596689Y-113142872D01*
X156596685Y-113142872D01*
X156590232Y-113141500D01*
X156409768Y-113141500D01*
X156403315Y-113142872D01*
X156403311Y-113142872D01*
X156321508Y-113160260D01*
X156233248Y-113179020D01*
X156227219Y-113181704D01*
X156227217Y-113181705D01*
X156074416Y-113249737D01*
X156074414Y-113249738D01*
X156068386Y-113252422D01*
X156063045Y-113256302D01*
X156063044Y-113256303D01*
X155927731Y-113354613D01*
X155927729Y-113354615D01*
X155922387Y-113358496D01*
X155801633Y-113492607D01*
X155767613Y-113551531D01*
X155728319Y-113619591D01*
X155711401Y-113648893D01*
X155655635Y-113820525D01*
X155636771Y-114000000D01*
X155637461Y-114006565D01*
X155650141Y-114127200D01*
X155655635Y-114179475D01*
X155657675Y-114185753D01*
X155657675Y-114185754D01*
X155703427Y-114326564D01*
X155705454Y-114397532D01*
X155668792Y-114458329D01*
X155605080Y-114489655D01*
X155583594Y-114491500D01*
X141049367Y-114491500D01*
X141029982Y-114490000D01*
X141015149Y-114487690D01*
X141015145Y-114487690D01*
X141006276Y-114486309D01*
X140991019Y-114488304D01*
X140965698Y-114489047D01*
X140796715Y-114476961D01*
X140778936Y-114474404D01*
X140588607Y-114433001D01*
X140571359Y-114427937D01*
X140388850Y-114359864D01*
X140372498Y-114352396D01*
X140201542Y-114259048D01*
X140186418Y-114249328D01*
X140030486Y-114132598D01*
X140016900Y-114120825D01*
X139879175Y-113983100D01*
X139867402Y-113969514D01*
X139750672Y-113813582D01*
X139740952Y-113798458D01*
X139647604Y-113627502D01*
X139640136Y-113611150D01*
X139572063Y-113428641D01*
X139566999Y-113411392D01*
X139525596Y-113221064D01*
X139523038Y-113203278D01*
X139522054Y-113189511D01*
X139511719Y-113045011D01*
X139512805Y-113022245D01*
X139512334Y-113022203D01*
X139512770Y-113017345D01*
X139513576Y-113012552D01*
X139513729Y-113000000D01*
X139509773Y-112972376D01*
X139508500Y-112954514D01*
X139508500Y-111750000D01*
X140636526Y-111750000D01*
X140656391Y-112002403D01*
X140715495Y-112248591D01*
X140812384Y-112482502D01*
X140944672Y-112698376D01*
X141109102Y-112890898D01*
X141301624Y-113055328D01*
X141517498Y-113187616D01*
X141522068Y-113189509D01*
X141522072Y-113189511D01*
X141683323Y-113256303D01*
X141751409Y-113284505D01*
X141836032Y-113304821D01*
X141992784Y-113342454D01*
X141992790Y-113342455D01*
X141997597Y-113343609D01*
X142097416Y-113351465D01*
X142184345Y-113358307D01*
X142184352Y-113358307D01*
X142186801Y-113358500D01*
X142313199Y-113358500D01*
X142315648Y-113358307D01*
X142315655Y-113358307D01*
X142402584Y-113351465D01*
X142502403Y-113343609D01*
X142507210Y-113342455D01*
X142507216Y-113342454D01*
X142663968Y-113304821D01*
X142748591Y-113284505D01*
X142816677Y-113256303D01*
X142977928Y-113189511D01*
X142977932Y-113189509D01*
X142982502Y-113187616D01*
X143198376Y-113055328D01*
X143390898Y-112890898D01*
X143555328Y-112698376D01*
X143687616Y-112482502D01*
X143784505Y-112248591D01*
X143843609Y-112002403D01*
X143863474Y-111750000D01*
X143843609Y-111497597D01*
X143835136Y-111462301D01*
X143794927Y-111294822D01*
X143784505Y-111251409D01*
X143751309Y-111171266D01*
X143689511Y-111022072D01*
X143689509Y-111022068D01*
X143687616Y-111017498D01*
X143555328Y-110801624D01*
X143390898Y-110609102D01*
X143198376Y-110444672D01*
X142982502Y-110312384D01*
X142977932Y-110310491D01*
X142977928Y-110310489D01*
X142753164Y-110217389D01*
X142753162Y-110217388D01*
X142748591Y-110215495D01*
X142663968Y-110195179D01*
X142507216Y-110157546D01*
X142507210Y-110157545D01*
X142502403Y-110156391D01*
X142402584Y-110148535D01*
X142315655Y-110141693D01*
X142315648Y-110141693D01*
X142313199Y-110141500D01*
X142186801Y-110141500D01*
X142184352Y-110141693D01*
X142184345Y-110141693D01*
X142097416Y-110148535D01*
X141997597Y-110156391D01*
X141992790Y-110157545D01*
X141992784Y-110157546D01*
X141836032Y-110195179D01*
X141751409Y-110215495D01*
X141746838Y-110217388D01*
X141746836Y-110217389D01*
X141522072Y-110310489D01*
X141522068Y-110310491D01*
X141517498Y-110312384D01*
X141301624Y-110444672D01*
X141109102Y-110609102D01*
X140944672Y-110801624D01*
X140812384Y-111017498D01*
X140810491Y-111022068D01*
X140810489Y-111022072D01*
X140748691Y-111171266D01*
X140715495Y-111251409D01*
X140705073Y-111294822D01*
X140664865Y-111462301D01*
X140656391Y-111497597D01*
X140636526Y-111750000D01*
X139508500Y-111750000D01*
X139508500Y-109980000D01*
X148636771Y-109980000D01*
X148655635Y-110159475D01*
X148657675Y-110165753D01*
X148657675Y-110165754D01*
X148673837Y-110215495D01*
X148711401Y-110331107D01*
X148801633Y-110487393D01*
X148922387Y-110621504D01*
X148927729Y-110625385D01*
X148927731Y-110625387D01*
X148998762Y-110676994D01*
X149068385Y-110727578D01*
X149074413Y-110730262D01*
X149074415Y-110730263D01*
X149227217Y-110798295D01*
X149233248Y-110800980D01*
X149321508Y-110819740D01*
X149403311Y-110837128D01*
X149403315Y-110837128D01*
X149409768Y-110838500D01*
X149590232Y-110838500D01*
X149596685Y-110837128D01*
X149596689Y-110837128D01*
X149678492Y-110819740D01*
X149766752Y-110800980D01*
X149772783Y-110798295D01*
X149925585Y-110730263D01*
X149925587Y-110730262D01*
X149931615Y-110727578D01*
X150001238Y-110676994D01*
X150072269Y-110625387D01*
X150072271Y-110625385D01*
X150077613Y-110621504D01*
X150198367Y-110487393D01*
X150288599Y-110331107D01*
X150326163Y-110215495D01*
X150342325Y-110165754D01*
X150342325Y-110165753D01*
X150344365Y-110159475D01*
X150363229Y-109980000D01*
X150344365Y-109800525D01*
X150288599Y-109628893D01*
X150198367Y-109472607D01*
X150182769Y-109455283D01*
X150082035Y-109343407D01*
X150082034Y-109343406D01*
X150077613Y-109338496D01*
X149950454Y-109246109D01*
X149936957Y-109236303D01*
X149936956Y-109236302D01*
X149931615Y-109232422D01*
X149925587Y-109229738D01*
X149925585Y-109229737D01*
X149772783Y-109161705D01*
X149772781Y-109161705D01*
X149766752Y-109159020D01*
X149661927Y-109136739D01*
X149596689Y-109122872D01*
X149596685Y-109122872D01*
X149590232Y-109121500D01*
X149409768Y-109121500D01*
X149403315Y-109122872D01*
X149403311Y-109122872D01*
X149338073Y-109136739D01*
X149233248Y-109159020D01*
X149227219Y-109161704D01*
X149227217Y-109161705D01*
X149074416Y-109229737D01*
X149074414Y-109229738D01*
X149068386Y-109232422D01*
X149063045Y-109236302D01*
X149063044Y-109236303D01*
X148927731Y-109334613D01*
X148927729Y-109334615D01*
X148922387Y-109338496D01*
X148917966Y-109343406D01*
X148917965Y-109343407D01*
X148817232Y-109455283D01*
X148801633Y-109472607D01*
X148711401Y-109628893D01*
X148655635Y-109800525D01*
X148636771Y-109980000D01*
X139508500Y-109980000D01*
X139508500Y-107750000D01*
X156636771Y-107750000D01*
X156655635Y-107929475D01*
X156711401Y-108101107D01*
X156801633Y-108257393D01*
X156922387Y-108391504D01*
X157068385Y-108497578D01*
X157074413Y-108500262D01*
X157074415Y-108500263D01*
X157227217Y-108568295D01*
X157233248Y-108570980D01*
X157321508Y-108589740D01*
X157403311Y-108607128D01*
X157403315Y-108607128D01*
X157409768Y-108608500D01*
X157590232Y-108608500D01*
X157596685Y-108607128D01*
X157596689Y-108607128D01*
X157678492Y-108589740D01*
X157766752Y-108570980D01*
X157772783Y-108568295D01*
X157925585Y-108500263D01*
X157925587Y-108500262D01*
X157931615Y-108497578D01*
X158077613Y-108391504D01*
X158198367Y-108257393D01*
X158288599Y-108101107D01*
X158344365Y-107929475D01*
X158363229Y-107750000D01*
X158344365Y-107570525D01*
X158335136Y-107542119D01*
X158290641Y-107405178D01*
X158288599Y-107398893D01*
X158283378Y-107389849D01*
X158233749Y-107303891D01*
X158198367Y-107242607D01*
X158077613Y-107108496D01*
X158051866Y-107089789D01*
X157936957Y-107006303D01*
X157936956Y-107006302D01*
X157931615Y-107002422D01*
X157925587Y-106999738D01*
X157925585Y-106999737D01*
X157772783Y-106931705D01*
X157772781Y-106931705D01*
X157766752Y-106929020D01*
X157661974Y-106906749D01*
X157596689Y-106892872D01*
X157596685Y-106892872D01*
X157590232Y-106891500D01*
X157409768Y-106891500D01*
X157403315Y-106892872D01*
X157403311Y-106892872D01*
X157338026Y-106906749D01*
X157233248Y-106929020D01*
X157227219Y-106931704D01*
X157227217Y-106931705D01*
X157074416Y-106999737D01*
X157074414Y-106999738D01*
X157068386Y-107002422D01*
X157063045Y-107006302D01*
X157063044Y-107006303D01*
X156927731Y-107104613D01*
X156927729Y-107104615D01*
X156922387Y-107108496D01*
X156801633Y-107242607D01*
X156766251Y-107303891D01*
X156716623Y-107389849D01*
X156711401Y-107398893D01*
X156709359Y-107405178D01*
X156664865Y-107542119D01*
X156655635Y-107570525D01*
X156636771Y-107750000D01*
X139508500Y-107750000D01*
X139508500Y-107444186D01*
X139528502Y-107376065D01*
X139582158Y-107329572D01*
X139652432Y-107319468D01*
X139706771Y-107340973D01*
X139773251Y-107387523D01*
X139778233Y-107389846D01*
X139778238Y-107389849D01*
X139975775Y-107481961D01*
X139980757Y-107484284D01*
X139986065Y-107485706D01*
X139986067Y-107485707D01*
X140196598Y-107542119D01*
X140196600Y-107542119D01*
X140201913Y-107543543D01*
X140430000Y-107563498D01*
X140658087Y-107543543D01*
X140663400Y-107542119D01*
X140663402Y-107542119D01*
X140873933Y-107485707D01*
X140873935Y-107485706D01*
X140879243Y-107484284D01*
X140884225Y-107481961D01*
X141081762Y-107389849D01*
X141081767Y-107389846D01*
X141086749Y-107387523D01*
X141228458Y-107288297D01*
X141269789Y-107259357D01*
X141269792Y-107259355D01*
X141274300Y-107256198D01*
X141432364Y-107098134D01*
X146741500Y-107098134D01*
X146748255Y-107160316D01*
X146799385Y-107296705D01*
X146886739Y-107413261D01*
X147003295Y-107500615D01*
X147139684Y-107551745D01*
X147201866Y-107558500D01*
X148898134Y-107558500D01*
X148960316Y-107551745D01*
X149096705Y-107500615D01*
X149213261Y-107413261D01*
X149300615Y-107296705D01*
X149351745Y-107160316D01*
X149358500Y-107098134D01*
X149358500Y-106050000D01*
X164636771Y-106050000D01*
X164655635Y-106229475D01*
X164711401Y-106401107D01*
X164714704Y-106406829D01*
X164714705Y-106406830D01*
X164727848Y-106429594D01*
X164801633Y-106557393D01*
X164922387Y-106691504D01*
X164927729Y-106695385D01*
X164927731Y-106695387D01*
X165063043Y-106793697D01*
X165068385Y-106797578D01*
X165074413Y-106800262D01*
X165074415Y-106800263D01*
X165227217Y-106868295D01*
X165233248Y-106870980D01*
X165321508Y-106889740D01*
X165403311Y-106907128D01*
X165403315Y-106907128D01*
X165409768Y-106908500D01*
X165590232Y-106908500D01*
X165596685Y-106907128D01*
X165596689Y-106907128D01*
X165678492Y-106889740D01*
X165766752Y-106870980D01*
X165772783Y-106868295D01*
X165925585Y-106800263D01*
X165925587Y-106800262D01*
X165931615Y-106797578D01*
X165936957Y-106793697D01*
X166072269Y-106695387D01*
X166072271Y-106695385D01*
X166077613Y-106691504D01*
X166198367Y-106557393D01*
X166272152Y-106429594D01*
X166285295Y-106406830D01*
X166285296Y-106406829D01*
X166288599Y-106401107D01*
X166344365Y-106229475D01*
X166363229Y-106050000D01*
X166349422Y-105918641D01*
X166345055Y-105877089D01*
X166345055Y-105877088D01*
X166344365Y-105870525D01*
X166330787Y-105828734D01*
X166290641Y-105705178D01*
X166288599Y-105698893D01*
X166210255Y-105563198D01*
X168062892Y-105563198D01*
X168063249Y-105570015D01*
X168063249Y-105570019D01*
X168070333Y-105705178D01*
X168072370Y-105744047D01*
X168074181Y-105750620D01*
X168074181Y-105750623D01*
X168097551Y-105835466D01*
X168120461Y-105918641D01*
X168204922Y-106078836D01*
X168209327Y-106084049D01*
X168209330Y-106084053D01*
X168317406Y-106211943D01*
X168317410Y-106211947D01*
X168321813Y-106217157D01*
X168327237Y-106221304D01*
X168327238Y-106221305D01*
X168460257Y-106323006D01*
X168460261Y-106323009D01*
X168465678Y-106327150D01*
X168552372Y-106367576D01*
X168623631Y-106400805D01*
X168623634Y-106400806D01*
X168629808Y-106403685D01*
X168636456Y-106405171D01*
X168636459Y-106405172D01*
X168742421Y-106428857D01*
X168806543Y-106443190D01*
X168812088Y-106443500D01*
X168945244Y-106443500D01*
X169080037Y-106428857D01*
X169198190Y-106389094D01*
X169245204Y-106373272D01*
X169245206Y-106373271D01*
X169251675Y-106371094D01*
X169406905Y-106277823D01*
X169411862Y-106273135D01*
X169411865Y-106273133D01*
X169533527Y-106158082D01*
X169533529Y-106158080D01*
X169538485Y-106153393D01*
X169542317Y-106147755D01*
X169542320Y-106147751D01*
X169636442Y-106009255D01*
X169640277Y-106003612D01*
X169707530Y-105835466D01*
X169708644Y-105828738D01*
X169708645Y-105828734D01*
X169735993Y-105663539D01*
X169735993Y-105663536D01*
X169737108Y-105656802D01*
X169733778Y-105593251D01*
X169727987Y-105482766D01*
X169727630Y-105475953D01*
X169709050Y-105408496D01*
X169681352Y-105307941D01*
X169679539Y-105301359D01*
X169595078Y-105141164D01*
X169590673Y-105135951D01*
X169590670Y-105135947D01*
X169482594Y-105008057D01*
X169482590Y-105008053D01*
X169478187Y-105002843D01*
X169472762Y-104998695D01*
X169339743Y-104896994D01*
X169339739Y-104896991D01*
X169334322Y-104892850D01*
X169229186Y-104843825D01*
X169176369Y-104819195D01*
X169176366Y-104819194D01*
X169170192Y-104816315D01*
X169163544Y-104814829D01*
X169163541Y-104814828D01*
X168998494Y-104777936D01*
X168998495Y-104777936D01*
X168993457Y-104776810D01*
X168987912Y-104776500D01*
X168854756Y-104776500D01*
X168719963Y-104791143D01*
X168636609Y-104819195D01*
X168554796Y-104846728D01*
X168554794Y-104846729D01*
X168548325Y-104848906D01*
X168393095Y-104942177D01*
X168388138Y-104946865D01*
X168388135Y-104946867D01*
X168272928Y-105055814D01*
X168261515Y-105066607D01*
X168257683Y-105072245D01*
X168257680Y-105072249D01*
X168206740Y-105147205D01*
X168159723Y-105216388D01*
X168092470Y-105384534D01*
X168091356Y-105391262D01*
X168091355Y-105391266D01*
X168067113Y-105537699D01*
X168062892Y-105563198D01*
X166210255Y-105563198D01*
X166198367Y-105542607D01*
X166132431Y-105469377D01*
X166082035Y-105413407D01*
X166082034Y-105413406D01*
X166077613Y-105408496D01*
X166063813Y-105398469D01*
X165936957Y-105306303D01*
X165936956Y-105306302D01*
X165931615Y-105302422D01*
X165925587Y-105299738D01*
X165925585Y-105299737D01*
X165772783Y-105231705D01*
X165772781Y-105231705D01*
X165766752Y-105229020D01*
X165678492Y-105210260D01*
X165596689Y-105192872D01*
X165596685Y-105192872D01*
X165590232Y-105191500D01*
X165409768Y-105191500D01*
X165403315Y-105192872D01*
X165403311Y-105192872D01*
X165321508Y-105210260D01*
X165233248Y-105229020D01*
X165227219Y-105231704D01*
X165227217Y-105231705D01*
X165074416Y-105299737D01*
X165074414Y-105299738D01*
X165068386Y-105302422D01*
X165063045Y-105306302D01*
X165063044Y-105306303D01*
X164927731Y-105404613D01*
X164927729Y-105404615D01*
X164922387Y-105408496D01*
X164917966Y-105413406D01*
X164917965Y-105413407D01*
X164867570Y-105469377D01*
X164801633Y-105542607D01*
X164711401Y-105698893D01*
X164709359Y-105705178D01*
X164669214Y-105828734D01*
X164655635Y-105870525D01*
X164654945Y-105877088D01*
X164654945Y-105877089D01*
X164650578Y-105918641D01*
X164636771Y-106050000D01*
X149358500Y-106050000D01*
X149358500Y-105401866D01*
X149351745Y-105339684D01*
X149300615Y-105203295D01*
X149213261Y-105086739D01*
X149096705Y-104999385D01*
X148960316Y-104948255D01*
X148898134Y-104941500D01*
X147201866Y-104941500D01*
X147139684Y-104948255D01*
X147003295Y-104999385D01*
X146886739Y-105086739D01*
X146799385Y-105203295D01*
X146748255Y-105339684D01*
X146741500Y-105401866D01*
X146741500Y-107098134D01*
X141432364Y-107098134D01*
X141436198Y-107094300D01*
X141567523Y-106906749D01*
X141569846Y-106901767D01*
X141569849Y-106901762D01*
X141661961Y-106704225D01*
X141661961Y-106704224D01*
X141664284Y-106699243D01*
X141723543Y-106478087D01*
X141743498Y-106250000D01*
X141723543Y-106021913D01*
X141695871Y-105918641D01*
X141665707Y-105806067D01*
X141665706Y-105806065D01*
X141664284Y-105800757D01*
X141661961Y-105795775D01*
X141569849Y-105598238D01*
X141569846Y-105598233D01*
X141567523Y-105593251D01*
X141436198Y-105405700D01*
X141274300Y-105243802D01*
X141269792Y-105240645D01*
X141269789Y-105240643D01*
X141153229Y-105159027D01*
X141086749Y-105112477D01*
X141081767Y-105110154D01*
X141081762Y-105110151D01*
X140884225Y-105018039D01*
X140884224Y-105018039D01*
X140879243Y-105015716D01*
X140873935Y-105014294D01*
X140873933Y-105014293D01*
X140663402Y-104957881D01*
X140663400Y-104957881D01*
X140658087Y-104956457D01*
X140430000Y-104936502D01*
X140201913Y-104956457D01*
X140196600Y-104957881D01*
X140196598Y-104957881D01*
X139986067Y-105014293D01*
X139986065Y-105014294D01*
X139980757Y-105015716D01*
X139975776Y-105018039D01*
X139975775Y-105018039D01*
X139778238Y-105110151D01*
X139778233Y-105110154D01*
X139773251Y-105112477D01*
X139706771Y-105159027D01*
X139639497Y-105181715D01*
X139570637Y-105164430D01*
X139522052Y-105112660D01*
X139508500Y-105055814D01*
X139508500Y-100975000D01*
X146886771Y-100975000D01*
X146905635Y-101154475D01*
X146961401Y-101326107D01*
X147051633Y-101482393D01*
X147056051Y-101487300D01*
X147056052Y-101487301D01*
X147095871Y-101531524D01*
X147172387Y-101616504D01*
X147318385Y-101722578D01*
X147324413Y-101725262D01*
X147324415Y-101725263D01*
X147380566Y-101750263D01*
X147483248Y-101795980D01*
X147571508Y-101814740D01*
X147653311Y-101832128D01*
X147653315Y-101832128D01*
X147659768Y-101833500D01*
X147840232Y-101833500D01*
X147846685Y-101832128D01*
X147846689Y-101832128D01*
X147928492Y-101814740D01*
X148016752Y-101795980D01*
X148119434Y-101750263D01*
X148175585Y-101725263D01*
X148175587Y-101725262D01*
X148181615Y-101722578D01*
X148327613Y-101616504D01*
X148404129Y-101531524D01*
X148443948Y-101487301D01*
X148443949Y-101487300D01*
X148448367Y-101482393D01*
X148538599Y-101326107D01*
X148594365Y-101154475D01*
X148610601Y-101000000D01*
X150886771Y-101000000D01*
X150905635Y-101179475D01*
X150961401Y-101351107D01*
X151051633Y-101507393D01*
X151056051Y-101512300D01*
X151056052Y-101512301D01*
X151142670Y-101608500D01*
X151172387Y-101641504D01*
X151177729Y-101645385D01*
X151177731Y-101645387D01*
X151287671Y-101725263D01*
X151318385Y-101747578D01*
X151324413Y-101750262D01*
X151324415Y-101750263D01*
X151477217Y-101818295D01*
X151483248Y-101820980D01*
X151571508Y-101839740D01*
X151653311Y-101857128D01*
X151653315Y-101857128D01*
X151659768Y-101858500D01*
X151840232Y-101858500D01*
X151846685Y-101857128D01*
X151846689Y-101857128D01*
X151928492Y-101839740D01*
X152016752Y-101820980D01*
X152022783Y-101818295D01*
X152175585Y-101750263D01*
X152175587Y-101750262D01*
X152181615Y-101747578D01*
X152212329Y-101725263D01*
X152322269Y-101645387D01*
X152322271Y-101645385D01*
X152327613Y-101641504D01*
X152357330Y-101608500D01*
X152443948Y-101512301D01*
X152443949Y-101512300D01*
X152448367Y-101507393D01*
X152538599Y-101351107D01*
X152594365Y-101179475D01*
X152613229Y-101000000D01*
X152594365Y-100820525D01*
X152538599Y-100648893D01*
X152448367Y-100492607D01*
X152431006Y-100473325D01*
X152332035Y-100363407D01*
X152332034Y-100363406D01*
X152327613Y-100358496D01*
X152181615Y-100252422D01*
X152175587Y-100249738D01*
X152175585Y-100249737D01*
X152022783Y-100181705D01*
X152022781Y-100181705D01*
X152016752Y-100179020D01*
X151911767Y-100156705D01*
X151846689Y-100142872D01*
X151846685Y-100142872D01*
X151840232Y-100141500D01*
X151659768Y-100141500D01*
X151653315Y-100142872D01*
X151653311Y-100142872D01*
X151588233Y-100156705D01*
X151483248Y-100179020D01*
X151477219Y-100181704D01*
X151477217Y-100181705D01*
X151324416Y-100249737D01*
X151324414Y-100249738D01*
X151318386Y-100252422D01*
X151313045Y-100256302D01*
X151313044Y-100256303D01*
X151177731Y-100354613D01*
X151177729Y-100354615D01*
X151172387Y-100358496D01*
X151167966Y-100363406D01*
X151167965Y-100363407D01*
X151068995Y-100473325D01*
X151051633Y-100492607D01*
X150961401Y-100648893D01*
X150905635Y-100820525D01*
X150886771Y-101000000D01*
X148610601Y-101000000D01*
X148613229Y-100975000D01*
X148594365Y-100795525D01*
X148538599Y-100623893D01*
X148448367Y-100467607D01*
X148327613Y-100333496D01*
X148277080Y-100296781D01*
X148186957Y-100231303D01*
X148186956Y-100231302D01*
X148181615Y-100227422D01*
X148175587Y-100224738D01*
X148175585Y-100224737D01*
X148022783Y-100156705D01*
X148022781Y-100156705D01*
X148016752Y-100154020D01*
X147928492Y-100135260D01*
X147846689Y-100117872D01*
X147846685Y-100117872D01*
X147840232Y-100116500D01*
X147659768Y-100116500D01*
X147653315Y-100117872D01*
X147653311Y-100117872D01*
X147571508Y-100135260D01*
X147483248Y-100154020D01*
X147477219Y-100156704D01*
X147477217Y-100156705D01*
X147324416Y-100224737D01*
X147324414Y-100224738D01*
X147318386Y-100227422D01*
X147313045Y-100231302D01*
X147313044Y-100231303D01*
X147177731Y-100329613D01*
X147177729Y-100329615D01*
X147172387Y-100333496D01*
X147051633Y-100467607D01*
X146961401Y-100623893D01*
X146905635Y-100795525D01*
X146886771Y-100975000D01*
X139508500Y-100975000D01*
X139508500Y-96992575D01*
X141936404Y-96992575D01*
X141938313Y-97013554D01*
X141954271Y-97188893D01*
X141955218Y-97199303D01*
X141956956Y-97205209D01*
X141956957Y-97205213D01*
X141998046Y-97344822D01*
X142013827Y-97398440D01*
X142109999Y-97582400D01*
X142240071Y-97744177D01*
X142244788Y-97748135D01*
X142244790Y-97748137D01*
X142328401Y-97818295D01*
X142399089Y-97877609D01*
X142404481Y-97880573D01*
X142404485Y-97880576D01*
X142575598Y-97974646D01*
X142580995Y-97977613D01*
X142778861Y-98040379D01*
X142784978Y-98041065D01*
X142784982Y-98041066D01*
X142861598Y-98049659D01*
X142940413Y-98058500D01*
X143052237Y-98058500D01*
X143055293Y-98058200D01*
X143055300Y-98058200D01*
X143200466Y-98043966D01*
X143200469Y-98043965D01*
X143206592Y-98043365D01*
X143367725Y-97994717D01*
X143399407Y-97985152D01*
X143399410Y-97985151D01*
X143405315Y-97983368D01*
X143412635Y-97979476D01*
X143583153Y-97888809D01*
X143583155Y-97888808D01*
X143588599Y-97885913D01*
X143671507Y-97818295D01*
X143744689Y-97758610D01*
X143744692Y-97758607D01*
X143749464Y-97754715D01*
X143755369Y-97747578D01*
X143877855Y-97599518D01*
X143881783Y-97594770D01*
X143885876Y-97587201D01*
X143977584Y-97417590D01*
X143977586Y-97417585D01*
X143980514Y-97412170D01*
X144041898Y-97213871D01*
X144043863Y-97195178D01*
X144062952Y-97013554D01*
X144062952Y-97013552D01*
X144063596Y-97007425D01*
X144055777Y-96921515D01*
X144045341Y-96806836D01*
X144045340Y-96806833D01*
X144044782Y-96800697D01*
X144042298Y-96792255D01*
X143987912Y-96607469D01*
X143986173Y-96601560D01*
X143890001Y-96417600D01*
X143759929Y-96255823D01*
X143747371Y-96245285D01*
X143605629Y-96126350D01*
X143600911Y-96122391D01*
X143595519Y-96119427D01*
X143595515Y-96119424D01*
X143424402Y-96025354D01*
X143419005Y-96022387D01*
X143221139Y-95959621D01*
X143215022Y-95958935D01*
X143215018Y-95958934D01*
X143135580Y-95950024D01*
X143059587Y-95941500D01*
X142947763Y-95941500D01*
X142944707Y-95941800D01*
X142944700Y-95941800D01*
X142799534Y-95956034D01*
X142799531Y-95956035D01*
X142793408Y-95956635D01*
X142661454Y-95996474D01*
X142600593Y-96014848D01*
X142600590Y-96014849D01*
X142594685Y-96016632D01*
X142589240Y-96019527D01*
X142589238Y-96019528D01*
X142416847Y-96111191D01*
X142416845Y-96111192D01*
X142411401Y-96114087D01*
X142396365Y-96126350D01*
X142255311Y-96241390D01*
X142255308Y-96241393D01*
X142250536Y-96245285D01*
X142246608Y-96250033D01*
X142246607Y-96250034D01*
X142202335Y-96303550D01*
X142118217Y-96405230D01*
X142115288Y-96410647D01*
X142115286Y-96410650D01*
X142022416Y-96582410D01*
X142022414Y-96582415D01*
X142019486Y-96587830D01*
X141958102Y-96786129D01*
X141957458Y-96792254D01*
X141957458Y-96792255D01*
X141939795Y-96960316D01*
X141936404Y-96992575D01*
X139508500Y-96992575D01*
X139508500Y-90492551D01*
X148240234Y-90492551D01*
X148240924Y-90499116D01*
X148241272Y-90502422D01*
X148259098Y-90672026D01*
X148261138Y-90678304D01*
X148261138Y-90678305D01*
X148280436Y-90737699D01*
X148314864Y-90843658D01*
X148405096Y-90999944D01*
X148409514Y-91004851D01*
X148409515Y-91004852D01*
X148521428Y-91129144D01*
X148525850Y-91134055D01*
X148671848Y-91240129D01*
X148677876Y-91242813D01*
X148677878Y-91242814D01*
X148830680Y-91310846D01*
X148836711Y-91313531D01*
X148924971Y-91332291D01*
X149006774Y-91349679D01*
X149006778Y-91349679D01*
X149013231Y-91351051D01*
X149193695Y-91351051D01*
X149200148Y-91349679D01*
X149200152Y-91349679D01*
X149281955Y-91332291D01*
X149370215Y-91313531D01*
X149376246Y-91310846D01*
X149529048Y-91242814D01*
X149529050Y-91242813D01*
X149535078Y-91240129D01*
X149681076Y-91134055D01*
X149685498Y-91129144D01*
X149797411Y-91004852D01*
X149797412Y-91004851D01*
X149801830Y-90999944D01*
X149892062Y-90843658D01*
X149926490Y-90737699D01*
X149945788Y-90678305D01*
X149945788Y-90678304D01*
X149947828Y-90672026D01*
X149965655Y-90502422D01*
X149966002Y-90499116D01*
X149966692Y-90492551D01*
X149960297Y-90431705D01*
X149948518Y-90319640D01*
X149948518Y-90319639D01*
X149947828Y-90313076D01*
X149940504Y-90290533D01*
X149894104Y-90147729D01*
X149892062Y-90141444D01*
X149801830Y-89985158D01*
X149795037Y-89977613D01*
X149685498Y-89855958D01*
X149685497Y-89855957D01*
X149681076Y-89851047D01*
X149675563Y-89847041D01*
X149540420Y-89748854D01*
X149540419Y-89748853D01*
X149535078Y-89744973D01*
X149529050Y-89742289D01*
X149529048Y-89742288D01*
X149376246Y-89674256D01*
X149376244Y-89674256D01*
X149370215Y-89671571D01*
X149281955Y-89652811D01*
X149200152Y-89635423D01*
X149200148Y-89635423D01*
X149193695Y-89634051D01*
X149013231Y-89634051D01*
X149006778Y-89635423D01*
X149006774Y-89635423D01*
X148924971Y-89652811D01*
X148836711Y-89671571D01*
X148830682Y-89674255D01*
X148830680Y-89674256D01*
X148677879Y-89742288D01*
X148677877Y-89742289D01*
X148671849Y-89744973D01*
X148666508Y-89748853D01*
X148666507Y-89748854D01*
X148531194Y-89847164D01*
X148531192Y-89847166D01*
X148525850Y-89851047D01*
X148521429Y-89855957D01*
X148521428Y-89855958D01*
X148411890Y-89977613D01*
X148405096Y-89985158D01*
X148314864Y-90141444D01*
X148312822Y-90147729D01*
X148266423Y-90290533D01*
X148259098Y-90313076D01*
X148258408Y-90319639D01*
X148258408Y-90319640D01*
X148246629Y-90431705D01*
X148240234Y-90492551D01*
X139508500Y-90492551D01*
X139508500Y-88992575D01*
X141936404Y-88992575D01*
X141955218Y-89199303D01*
X141956956Y-89205209D01*
X141956957Y-89205213D01*
X142000473Y-89353068D01*
X142013827Y-89398440D01*
X142109999Y-89582400D01*
X142240071Y-89744177D01*
X142244788Y-89748135D01*
X142244790Y-89748137D01*
X142348681Y-89835312D01*
X142399089Y-89877609D01*
X142404481Y-89880573D01*
X142404485Y-89880576D01*
X142575598Y-89974646D01*
X142580995Y-89977613D01*
X142778861Y-90040379D01*
X142784978Y-90041065D01*
X142784982Y-90041066D01*
X142861598Y-90049659D01*
X142940413Y-90058500D01*
X143052237Y-90058500D01*
X143055293Y-90058200D01*
X143055300Y-90058200D01*
X143200466Y-90043966D01*
X143200469Y-90043965D01*
X143206592Y-90043365D01*
X143346109Y-90001243D01*
X143399407Y-89985152D01*
X143399410Y-89985151D01*
X143405315Y-89983368D01*
X143410762Y-89980472D01*
X143583153Y-89888809D01*
X143583155Y-89888808D01*
X143588599Y-89885913D01*
X143649585Y-89836174D01*
X143744689Y-89758610D01*
X143744692Y-89758607D01*
X143749464Y-89754715D01*
X143757524Y-89744973D01*
X143877855Y-89599518D01*
X143881783Y-89594770D01*
X143885876Y-89587201D01*
X143977584Y-89417590D01*
X143977586Y-89417585D01*
X143980514Y-89412170D01*
X144041898Y-89213871D01*
X144043429Y-89199303D01*
X144062952Y-89013554D01*
X144062952Y-89013552D01*
X144063596Y-89007425D01*
X144044782Y-88800697D01*
X144042298Y-88792255D01*
X143987912Y-88607469D01*
X143986173Y-88601560D01*
X143890001Y-88417600D01*
X143885454Y-88411944D01*
X143854985Y-88374049D01*
X143759929Y-88255823D01*
X143747371Y-88245285D01*
X143605629Y-88126350D01*
X143600911Y-88122391D01*
X143595519Y-88119427D01*
X143595515Y-88119424D01*
X143424402Y-88025354D01*
X143419005Y-88022387D01*
X143221139Y-87959621D01*
X143215022Y-87958935D01*
X143215018Y-87958934D01*
X143138402Y-87950341D01*
X143059587Y-87941500D01*
X142947763Y-87941500D01*
X142944707Y-87941800D01*
X142944700Y-87941800D01*
X142799534Y-87956034D01*
X142799531Y-87956035D01*
X142793408Y-87956635D01*
X142661454Y-87996474D01*
X142600593Y-88014848D01*
X142600590Y-88014849D01*
X142594685Y-88016632D01*
X142589240Y-88019527D01*
X142589238Y-88019528D01*
X142416847Y-88111191D01*
X142416845Y-88111192D01*
X142411401Y-88114087D01*
X142351529Y-88162917D01*
X142255311Y-88241390D01*
X142255308Y-88241393D01*
X142250536Y-88245285D01*
X142118217Y-88405230D01*
X142115288Y-88410647D01*
X142115286Y-88410650D01*
X142022416Y-88582410D01*
X142022414Y-88582415D01*
X142019486Y-88587830D01*
X141958102Y-88786129D01*
X141957458Y-88792254D01*
X141957458Y-88792255D01*
X141955926Y-88806836D01*
X141936404Y-88992575D01*
X139508500Y-88992575D01*
X139508500Y-87664123D01*
X151068662Y-87664123D01*
X151087526Y-87843598D01*
X151089566Y-87849876D01*
X151089566Y-87849877D01*
X151119336Y-87941500D01*
X151143292Y-88015230D01*
X151233524Y-88171516D01*
X151237942Y-88176423D01*
X151237943Y-88176424D01*
X151349856Y-88300716D01*
X151354278Y-88305627D01*
X151359620Y-88309508D01*
X151359622Y-88309510D01*
X151473829Y-88392486D01*
X151500276Y-88411701D01*
X151506304Y-88414385D01*
X151506306Y-88414386D01*
X151596911Y-88454726D01*
X151665139Y-88485103D01*
X151753399Y-88503863D01*
X151835202Y-88521251D01*
X151835206Y-88521251D01*
X151841659Y-88522623D01*
X152022123Y-88522623D01*
X152028576Y-88521251D01*
X152028580Y-88521251D01*
X152110383Y-88503863D01*
X152198643Y-88485103D01*
X152266871Y-88454726D01*
X152357476Y-88414386D01*
X152357478Y-88414385D01*
X152363506Y-88411701D01*
X152389953Y-88392486D01*
X152504160Y-88309510D01*
X152504162Y-88309508D01*
X152509504Y-88305627D01*
X152513926Y-88300716D01*
X152625839Y-88176424D01*
X152625840Y-88176423D01*
X152630258Y-88171516D01*
X152720490Y-88015230D01*
X152744446Y-87941500D01*
X152774216Y-87849877D01*
X152774216Y-87849876D01*
X152776256Y-87843598D01*
X152789107Y-87721328D01*
X152816120Y-87655673D01*
X152874342Y-87615043D01*
X152914417Y-87608500D01*
X153090232Y-87608500D01*
X153096685Y-87607128D01*
X153096689Y-87607128D01*
X153178492Y-87589740D01*
X153266752Y-87570980D01*
X153272783Y-87568295D01*
X153425585Y-87500263D01*
X153425587Y-87500262D01*
X153431615Y-87497578D01*
X153437315Y-87493437D01*
X153572269Y-87395387D01*
X153572271Y-87395385D01*
X153577613Y-87391504D01*
X153622560Y-87341585D01*
X153693948Y-87262301D01*
X153693949Y-87262300D01*
X153698367Y-87257393D01*
X153788599Y-87101107D01*
X153815363Y-87018736D01*
X153842325Y-86935754D01*
X153842325Y-86935753D01*
X153844365Y-86929475D01*
X153850809Y-86868171D01*
X153862539Y-86756565D01*
X153863229Y-86750000D01*
X153846245Y-86588408D01*
X153845055Y-86577089D01*
X153845055Y-86577088D01*
X153844365Y-86570525D01*
X153788599Y-86398893D01*
X153769898Y-86366501D01*
X153701668Y-86248325D01*
X153698367Y-86242607D01*
X153577613Y-86108496D01*
X153431615Y-86002422D01*
X153425587Y-85999738D01*
X153425585Y-85999737D01*
X153272783Y-85931705D01*
X153272781Y-85931705D01*
X153266752Y-85929020D01*
X153178492Y-85910260D01*
X153096689Y-85892872D01*
X153096685Y-85892872D01*
X153090232Y-85891500D01*
X152909768Y-85891500D01*
X152903315Y-85892872D01*
X152903311Y-85892872D01*
X152821508Y-85910260D01*
X152733248Y-85929020D01*
X152727219Y-85931704D01*
X152727217Y-85931705D01*
X152574416Y-85999737D01*
X152574414Y-85999738D01*
X152568386Y-86002422D01*
X152563045Y-86006302D01*
X152563044Y-86006303D01*
X152427731Y-86104613D01*
X152427729Y-86104615D01*
X152422387Y-86108496D01*
X152301633Y-86242607D01*
X152298332Y-86248325D01*
X152230103Y-86366501D01*
X152211401Y-86398893D01*
X152155635Y-86570525D01*
X152154945Y-86577088D01*
X152154945Y-86577089D01*
X152142784Y-86692794D01*
X152115771Y-86758450D01*
X152057549Y-86799080D01*
X152017474Y-86805623D01*
X151841659Y-86805623D01*
X151835206Y-86806995D01*
X151835202Y-86806995D01*
X151753399Y-86824383D01*
X151665139Y-86843143D01*
X151659110Y-86845827D01*
X151659108Y-86845828D01*
X151506307Y-86913860D01*
X151506305Y-86913861D01*
X151500277Y-86916545D01*
X151494936Y-86920425D01*
X151494935Y-86920426D01*
X151359622Y-87018736D01*
X151359620Y-87018738D01*
X151354278Y-87022619D01*
X151349857Y-87027529D01*
X151349856Y-87027530D01*
X151247234Y-87141504D01*
X151233524Y-87156730D01*
X151143292Y-87313016D01*
X151087526Y-87484648D01*
X151086836Y-87491211D01*
X151086836Y-87491212D01*
X151078452Y-87570980D01*
X151068662Y-87664123D01*
X139508500Y-87664123D01*
X139508500Y-86750000D01*
X146386771Y-86750000D01*
X146387461Y-86756565D01*
X146399192Y-86868171D01*
X146405635Y-86929475D01*
X146407675Y-86935753D01*
X146407675Y-86935754D01*
X146434637Y-87018736D01*
X146461401Y-87101107D01*
X146551633Y-87257393D01*
X146556051Y-87262300D01*
X146556052Y-87262301D01*
X146627440Y-87341585D01*
X146672387Y-87391504D01*
X146677729Y-87395385D01*
X146677731Y-87395387D01*
X146812685Y-87493437D01*
X146818385Y-87497578D01*
X146824413Y-87500262D01*
X146824415Y-87500263D01*
X146977217Y-87568295D01*
X146983248Y-87570980D01*
X147071508Y-87589740D01*
X147153311Y-87607128D01*
X147153315Y-87607128D01*
X147159768Y-87608500D01*
X147340232Y-87608500D01*
X147346685Y-87607128D01*
X147346689Y-87607128D01*
X147428492Y-87589740D01*
X147516752Y-87570980D01*
X147522783Y-87568295D01*
X147675585Y-87500263D01*
X147675587Y-87500262D01*
X147681615Y-87497578D01*
X147687315Y-87493437D01*
X147822269Y-87395387D01*
X147822271Y-87395385D01*
X147827613Y-87391504D01*
X147872560Y-87341585D01*
X147943948Y-87262301D01*
X147943949Y-87262300D01*
X147948367Y-87257393D01*
X148038599Y-87101107D01*
X148065363Y-87018736D01*
X148092325Y-86935754D01*
X148092325Y-86935753D01*
X148094365Y-86929475D01*
X148100809Y-86868171D01*
X148112539Y-86756565D01*
X148113229Y-86750000D01*
X148096245Y-86588408D01*
X148095055Y-86577089D01*
X148095055Y-86577088D01*
X148094365Y-86570525D01*
X148038599Y-86398893D01*
X148019898Y-86366501D01*
X147951668Y-86248325D01*
X147948367Y-86242607D01*
X147827613Y-86108496D01*
X147681615Y-86002422D01*
X147675587Y-85999738D01*
X147675585Y-85999737D01*
X147522783Y-85931705D01*
X147522781Y-85931705D01*
X147516752Y-85929020D01*
X147428492Y-85910260D01*
X147346689Y-85892872D01*
X147346685Y-85892872D01*
X147340232Y-85891500D01*
X147159768Y-85891500D01*
X147153315Y-85892872D01*
X147153311Y-85892872D01*
X147071508Y-85910260D01*
X146983248Y-85929020D01*
X146977219Y-85931704D01*
X146977217Y-85931705D01*
X146824416Y-85999737D01*
X146824414Y-85999738D01*
X146818386Y-86002422D01*
X146813045Y-86006302D01*
X146813044Y-86006303D01*
X146677731Y-86104613D01*
X146677729Y-86104615D01*
X146672387Y-86108496D01*
X146551633Y-86242607D01*
X146548332Y-86248325D01*
X146480103Y-86366501D01*
X146461401Y-86398893D01*
X146405635Y-86570525D01*
X146404945Y-86577088D01*
X146404945Y-86577089D01*
X146403755Y-86588408D01*
X146386771Y-86750000D01*
X139508500Y-86750000D01*
X139508500Y-82053250D01*
X139510246Y-82032345D01*
X139512770Y-82017344D01*
X139512770Y-82017341D01*
X139513576Y-82012552D01*
X139513729Y-82000000D01*
X139513040Y-81995186D01*
X139513039Y-81995176D01*
X139512157Y-81989017D01*
X139511206Y-81962172D01*
X139515914Y-81896341D01*
X139523039Y-81796718D01*
X139525596Y-81778934D01*
X139566999Y-81588607D01*
X139572063Y-81571359D01*
X139640136Y-81388850D01*
X139647604Y-81372498D01*
X139740952Y-81201542D01*
X139750672Y-81186418D01*
X139867402Y-81030486D01*
X139879175Y-81016900D01*
X140016900Y-80879175D01*
X140030486Y-80867402D01*
X140186418Y-80750672D01*
X140201542Y-80740952D01*
X140372498Y-80647604D01*
X140388850Y-80640136D01*
X140571359Y-80572063D01*
X140588608Y-80566999D01*
X140778936Y-80525596D01*
X140796715Y-80523039D01*
X140958605Y-80511460D01*
X140976565Y-80512207D01*
X140984845Y-80512308D01*
X140993724Y-80513691D01*
X141025286Y-80509564D01*
X141041621Y-80508500D01*
X152548460Y-80508500D01*
X152616581Y-80528502D01*
G37*
%TD.AperFunction*%
%TD*%
M02*
