%TF.GenerationSoftware,KiCad,Pcbnew,(6.0.4)*%
%TF.CreationDate,2023-08-29T14:34:22+02:00*%
%TF.ProjectId,big_black_box_pcb_cad,6269675f-626c-4616-936b-5f626f785f70,rev?*%
%TF.SameCoordinates,Original*%
%TF.FileFunction,Legend,Bot*%
%TF.FilePolarity,Positive*%
%FSLAX46Y46*%
G04 Gerber Fmt 4.6, Leading zero omitted, Abs format (unit mm)*
G04 Created by KiCad (PCBNEW (6.0.4)) date 2023-08-29 14:34:22*
%MOMM*%
%LPD*%
G01*
G04 APERTURE LIST*
%ADD10C,0.150000*%
%ADD11C,0.200000*%
%ADD12C,0.120000*%
G04 APERTURE END LIST*
D10*
X173200000Y-85600000D02*
X166800000Y-85600000D01*
X166800000Y-85600000D02*
X166800000Y-92000000D01*
X166800000Y-92000000D02*
X173200000Y-92000000D01*
X173200000Y-92000000D02*
X173200000Y-85600000D01*
G36*
X173200000Y-85600000D02*
G01*
X166800000Y-85600000D01*
X166800000Y-92000000D01*
X173200000Y-92000000D01*
X173200000Y-85600000D01*
G37*
D11*
X173004761Y-93333333D02*
X173052380Y-93476190D01*
X173052380Y-93714285D01*
X173004761Y-93809523D01*
X172957142Y-93857142D01*
X172861904Y-93904761D01*
X172766666Y-93904761D01*
X172671428Y-93857142D01*
X172623809Y-93809523D01*
X172576190Y-93714285D01*
X172528571Y-93523809D01*
X172480952Y-93428571D01*
X172433333Y-93380952D01*
X172338095Y-93333333D01*
X172242857Y-93333333D01*
X172147619Y-93380952D01*
X172100000Y-93428571D01*
X172052380Y-93523809D01*
X172052380Y-93761904D01*
X172100000Y-93904761D01*
X172052380Y-94190476D02*
X172052380Y-94761904D01*
X173052380Y-94476190D02*
X172052380Y-94476190D01*
X172528571Y-96190476D02*
X172528571Y-95857142D01*
X173052380Y-95857142D02*
X172052380Y-95857142D01*
X172052380Y-96333333D01*
X173052380Y-96857142D02*
X173004761Y-96761904D01*
X172909523Y-96714285D01*
X172052380Y-96714285D01*
X173052380Y-97380952D02*
X173004761Y-97285714D01*
X172957142Y-97238095D01*
X172861904Y-97190476D01*
X172576190Y-97190476D01*
X172480952Y-97238095D01*
X172433333Y-97285714D01*
X172385714Y-97380952D01*
X172385714Y-97523809D01*
X172433333Y-97619047D01*
X172480952Y-97666666D01*
X172576190Y-97714285D01*
X172861904Y-97714285D01*
X172957142Y-97666666D01*
X173004761Y-97619047D01*
X173052380Y-97523809D01*
X173052380Y-97380952D01*
X172385714Y-98047619D02*
X173052380Y-98238095D01*
X172576190Y-98428571D01*
X173052380Y-98619047D01*
X172385714Y-98809523D01*
X172385714Y-99857142D02*
X173052380Y-100095238D01*
X172385714Y-100333333D01*
X172052380Y-100904761D02*
X172052380Y-101000000D01*
X172100000Y-101095238D01*
X172147619Y-101142857D01*
X172242857Y-101190476D01*
X172433333Y-101238095D01*
X172671428Y-101238095D01*
X172861904Y-101190476D01*
X172957142Y-101142857D01*
X173004761Y-101095238D01*
X173052380Y-101000000D01*
X173052380Y-100904761D01*
X173004761Y-100809523D01*
X172957142Y-100761904D01*
X172861904Y-100714285D01*
X172671428Y-100666666D01*
X172433333Y-100666666D01*
X172242857Y-100714285D01*
X172147619Y-100761904D01*
X172100000Y-100809523D01*
X172052380Y-100904761D01*
X172957142Y-101666666D02*
X173004761Y-101714285D01*
X173052380Y-101666666D01*
X173004761Y-101619047D01*
X172957142Y-101666666D01*
X173052380Y-101666666D01*
X173052380Y-102666666D02*
X173052380Y-102095238D01*
X173052380Y-102380952D02*
X172052380Y-102380952D01*
X172195238Y-102285714D01*
X172290476Y-102190476D01*
X172338095Y-102095238D01*
D10*
X163380952Y-108571428D02*
X162619047Y-108571428D01*
X160130952Y-108571428D02*
X159369047Y-108571428D01*
X159750000Y-108952380D02*
X159750000Y-108190476D01*
D12*
%TO.C,U105*%
X145000000Y-99700000D02*
X151750000Y-99700000D01*
X153600000Y-89050000D02*
X153600000Y-86500000D01*
X139100000Y-99700000D02*
X139100000Y-84400000D01*
X139100000Y-99700000D02*
X141800000Y-99700000D01*
X139100000Y-84400000D02*
X141800000Y-84400000D01*
X151750000Y-84400000D02*
X145000000Y-84400000D01*
%TO.C,TP102*%
X160950000Y-113750000D02*
X160950000Y-109250000D01*
X160950000Y-109250000D02*
X158550000Y-109250000D01*
X158550000Y-109250000D02*
X158550000Y-113750000D01*
X158550000Y-113750000D02*
X160950000Y-113750000D01*
%TO.C,TP101*%
X164200000Y-113750000D02*
X164200000Y-109250000D01*
X161800000Y-109250000D02*
X161800000Y-113750000D01*
X164200000Y-109250000D02*
X161800000Y-109250000D01*
X161800000Y-113750000D02*
X164200000Y-113750000D01*
%TO.C,R117*%
X158487258Y-99097500D02*
X158012742Y-99097500D01*
X158487258Y-98052500D02*
X158012742Y-98052500D01*
%TO.C,R122*%
X158012742Y-90547500D02*
X158487258Y-90547500D01*
X158012742Y-89502500D02*
X158487258Y-89502500D01*
%TO.C,R120*%
X158487258Y-92922500D02*
X158012742Y-92922500D01*
X158487258Y-93967500D02*
X158012742Y-93967500D01*
%TO.C,R118*%
X158487258Y-97387500D02*
X158012742Y-97387500D01*
X158487258Y-96342500D02*
X158012742Y-96342500D01*
%TO.C,R121*%
X158487258Y-91212500D02*
X158012742Y-91212500D01*
X158487258Y-92257500D02*
X158012742Y-92257500D01*
%TD*%
M02*
