%TF.GenerationSoftware,KiCad,Pcbnew,(6.0.4)*%
%TF.CreationDate,2023-08-29T14:34:22+02:00*%
%TF.ProjectId,big_black_box_pcb_cad,6269675f-626c-4616-936b-5f626f785f70,rev?*%
%TF.SameCoordinates,Original*%
%TF.FileFunction,Copper,L3,Inr*%
%TF.FilePolarity,Positive*%
%FSLAX46Y46*%
G04 Gerber Fmt 4.6, Leading zero omitted, Abs format (unit mm)*
G04 Created by KiCad (PCBNEW (6.0.4)) date 2023-08-29 14:34:22*
%MOMM*%
%LPD*%
G01*
G04 APERTURE LIST*
%TA.AperFunction,ComponentPad*%
%ADD10R,1.600000X1.600000*%
%TD*%
%TA.AperFunction,ComponentPad*%
%ADD11O,1.600000X1.600000*%
%TD*%
%TA.AperFunction,ComponentPad*%
%ADD12O,2.100000X1.000000*%
%TD*%
%TA.AperFunction,ComponentPad*%
%ADD13O,1.600000X1.000000*%
%TD*%
%TA.AperFunction,ViaPad*%
%ADD14C,0.700000*%
%TD*%
%TA.AperFunction,ViaPad*%
%ADD15C,0.800000*%
%TD*%
G04 APERTURE END LIST*
D10*
%TO.N,Net-(Q101-Pad3)*%
%TO.C,SW102*%
X148050000Y-106250000D03*
D11*
%TO.N,VBAT*%
X140430000Y-106250000D03*
%TD*%
D12*
%TO.N,GND*%
%TO.C,J101*%
X168370000Y-112820000D03*
D13*
X172550000Y-112820000D03*
D12*
X168370000Y-104180000D03*
D13*
X172550000Y-104180000D03*
%TD*%
D14*
%TO.N,MCU_VBAT*%
X158200000Y-95200000D03*
%TO.N,SD_CD*%
X155750000Y-98700000D03*
%TO.N,SD_D0*%
X155750000Y-96500000D03*
%TO.N,GND*%
X155750000Y-95400000D03*
%TO.N,SD_CLK*%
X155750000Y-94300000D03*
%TO.N,MCU_VBAT*%
X155750000Y-93200000D03*
%TO.N,SD_CMD*%
X155750000Y-92100000D03*
%TO.N,SD_D3*%
X155750000Y-91000000D03*
%TO.N,SD_D2*%
X160500000Y-94250000D03*
%TO.N,SD_D1*%
X164000000Y-97000000D03*
%TO.N,GND*%
X160500000Y-91750000D03*
X169500000Y-96270000D03*
X153250000Y-109000000D03*
X148007449Y-89396537D03*
X150250000Y-83250000D03*
X152500000Y-98500000D03*
X161750000Y-88775000D03*
X150835877Y-86568109D03*
X165500000Y-101500000D03*
X144000000Y-96000000D03*
X150250000Y-84750000D03*
X157500000Y-106250000D03*
X165500000Y-112500000D03*
X143400000Y-83000000D03*
X143000000Y-91000000D03*
X165500000Y-104500000D03*
X145250000Y-96000000D03*
X145250000Y-97490000D03*
X163175000Y-106500000D03*
X156500000Y-110000000D03*
X165500000Y-102925000D03*
X151000000Y-109980000D03*
X143400000Y-98500000D03*
X150500000Y-99750000D03*
X160500000Y-99000000D03*
X140500000Y-103750000D03*
X152500000Y-91000000D03*
X165749999Y-88775000D03*
X165500000Y-100000000D03*
D15*
X165250000Y-114000000D03*
D14*
X159000000Y-83000000D03*
X147750000Y-102525000D03*
X156500000Y-84000000D03*
X169500000Y-92460000D03*
X169500000Y-95000000D03*
X152500000Y-96750000D03*
%TO.N,+5V*%
X157500000Y-107750000D03*
X165500000Y-106050000D03*
X165500000Y-110950000D03*
X149500000Y-109980000D03*
%TO.N,JTAG_NRST*%
X165500000Y-92460000D03*
X152500000Y-94250000D03*
%TO.N,GYRO_SDA*%
X155250000Y-87500000D03*
X159000000Y-81500000D03*
%TO.N,MCU_VBAT*%
X147250000Y-86750000D03*
X153025000Y-81500000D03*
X161749999Y-87225001D03*
X147750000Y-100975000D03*
X164000000Y-91250000D03*
X149103463Y-90492551D03*
X169500000Y-97540000D03*
X151931891Y-87664123D03*
X161250000Y-101000000D03*
X153000000Y-86750000D03*
X163500000Y-84750000D03*
X156000000Y-81500000D03*
X165749999Y-87225001D03*
X156500000Y-86500000D03*
X151750000Y-101000000D03*
X163500000Y-83250000D03*
%TO.N,CEL+*%
X156500000Y-114000000D03*
%TD*%
%TA.AperFunction,Conductor*%
%TO.N,MCU_VBAT*%
G36*
X158591581Y-80528502D02*
G01*
X158638074Y-80582158D01*
X158648178Y-80652432D01*
X158618684Y-80717012D01*
X158579795Y-80745836D01*
X158580139Y-80746433D01*
X158574939Y-80749435D01*
X158574706Y-80749608D01*
X158574417Y-80749736D01*
X158574411Y-80749739D01*
X158568386Y-80752422D01*
X158563045Y-80756302D01*
X158563044Y-80756303D01*
X158427731Y-80854613D01*
X158427729Y-80854615D01*
X158422387Y-80858496D01*
X158417966Y-80863406D01*
X158417965Y-80863407D01*
X158403768Y-80879175D01*
X158301633Y-80992607D01*
X158211401Y-81148893D01*
X158155635Y-81320525D01*
X158136771Y-81500000D01*
X158155635Y-81679475D01*
X158211401Y-81851107D01*
X158301633Y-82007393D01*
X158422387Y-82141504D01*
X158431125Y-82147853D01*
X158431416Y-82148064D01*
X158474770Y-82204287D01*
X158480845Y-82275023D01*
X158447713Y-82337814D01*
X158431415Y-82351936D01*
X158422387Y-82358496D01*
X158301633Y-82492607D01*
X158211401Y-82648893D01*
X158209359Y-82655178D01*
X158182547Y-82737699D01*
X158155635Y-82820525D01*
X158154945Y-82827088D01*
X158154945Y-82827089D01*
X158147398Y-82898893D01*
X158136771Y-83000000D01*
X158155635Y-83179475D01*
X158211401Y-83351107D01*
X158301633Y-83507393D01*
X158422387Y-83641504D01*
X158427729Y-83645385D01*
X158427731Y-83645387D01*
X158563043Y-83743697D01*
X158568385Y-83747578D01*
X158574413Y-83750262D01*
X158574415Y-83750263D01*
X158601453Y-83762301D01*
X158733248Y-83820980D01*
X158821508Y-83839740D01*
X158903311Y-83857128D01*
X158903315Y-83857128D01*
X158909768Y-83858500D01*
X159090232Y-83858500D01*
X159096685Y-83857128D01*
X159096689Y-83857128D01*
X159178492Y-83839740D01*
X159266752Y-83820980D01*
X159398547Y-83762301D01*
X159425585Y-83750263D01*
X159425587Y-83750262D01*
X159431615Y-83747578D01*
X159436957Y-83743697D01*
X159572269Y-83645387D01*
X159572271Y-83645385D01*
X159577613Y-83641504D01*
X159698367Y-83507393D01*
X159788599Y-83351107D01*
X159821450Y-83250000D01*
X169136526Y-83250000D01*
X169156391Y-83502403D01*
X169157545Y-83507210D01*
X169157546Y-83507216D01*
X169181461Y-83606830D01*
X169215495Y-83748591D01*
X169217388Y-83753162D01*
X169217389Y-83753164D01*
X169277409Y-83898064D01*
X169312384Y-83982502D01*
X169444672Y-84198376D01*
X169609102Y-84390898D01*
X169801624Y-84555328D01*
X170017498Y-84687616D01*
X170022068Y-84689509D01*
X170022072Y-84689511D01*
X170246836Y-84782611D01*
X170251409Y-84784505D01*
X170336032Y-84804821D01*
X170492784Y-84842454D01*
X170492790Y-84842455D01*
X170497597Y-84843609D01*
X170597416Y-84851465D01*
X170684345Y-84858307D01*
X170684352Y-84858307D01*
X170686801Y-84858500D01*
X170813199Y-84858500D01*
X170815648Y-84858307D01*
X170815655Y-84858307D01*
X170902584Y-84851465D01*
X171002403Y-84843609D01*
X171007210Y-84842455D01*
X171007216Y-84842454D01*
X171163968Y-84804821D01*
X171248591Y-84784505D01*
X171253164Y-84782611D01*
X171477928Y-84689511D01*
X171477932Y-84689509D01*
X171482502Y-84687616D01*
X171698376Y-84555328D01*
X171890898Y-84390898D01*
X172055328Y-84198376D01*
X172187616Y-83982502D01*
X172222592Y-83898064D01*
X172282611Y-83753164D01*
X172282612Y-83753162D01*
X172284505Y-83748591D01*
X172318539Y-83606830D01*
X172342454Y-83507216D01*
X172342455Y-83507210D01*
X172343609Y-83502403D01*
X172363474Y-83250000D01*
X172343609Y-82997597D01*
X172321422Y-82905178D01*
X172285660Y-82756221D01*
X172284505Y-82751409D01*
X172187616Y-82517498D01*
X172055328Y-82301624D01*
X171890898Y-82109102D01*
X171698376Y-81944672D01*
X171482502Y-81812384D01*
X171477932Y-81810491D01*
X171477928Y-81810489D01*
X171253164Y-81717389D01*
X171253162Y-81717388D01*
X171248591Y-81715495D01*
X171098556Y-81679475D01*
X171007216Y-81657546D01*
X171007210Y-81657545D01*
X171002403Y-81656391D01*
X170902584Y-81648535D01*
X170815655Y-81641693D01*
X170815648Y-81641693D01*
X170813199Y-81641500D01*
X170686801Y-81641500D01*
X170684352Y-81641693D01*
X170684345Y-81641693D01*
X170597416Y-81648535D01*
X170497597Y-81656391D01*
X170492790Y-81657545D01*
X170492784Y-81657546D01*
X170401444Y-81679475D01*
X170251409Y-81715495D01*
X170246838Y-81717388D01*
X170246836Y-81717389D01*
X170022072Y-81810489D01*
X170022068Y-81810491D01*
X170017498Y-81812384D01*
X169801624Y-81944672D01*
X169609102Y-82109102D01*
X169444672Y-82301624D01*
X169312384Y-82517498D01*
X169215495Y-82751409D01*
X169214340Y-82756221D01*
X169178579Y-82905178D01*
X169156391Y-82997597D01*
X169136526Y-83250000D01*
X159821450Y-83250000D01*
X159844365Y-83179475D01*
X159863229Y-83000000D01*
X159852602Y-82898893D01*
X159845055Y-82827089D01*
X159845055Y-82827088D01*
X159844365Y-82820525D01*
X159817454Y-82737699D01*
X159790641Y-82655178D01*
X159788599Y-82648893D01*
X159698367Y-82492607D01*
X159577613Y-82358496D01*
X159568584Y-82351936D01*
X159525230Y-82295713D01*
X159519155Y-82224977D01*
X159552287Y-82162186D01*
X159568584Y-82148064D01*
X159568875Y-82147853D01*
X159577613Y-82141504D01*
X159698367Y-82007393D01*
X159788599Y-81851107D01*
X159844365Y-81679475D01*
X159863229Y-81500000D01*
X159844365Y-81320525D01*
X159788599Y-81148893D01*
X159698367Y-80992607D01*
X159596233Y-80879175D01*
X159582035Y-80863407D01*
X159582034Y-80863406D01*
X159577613Y-80858496D01*
X159541298Y-80832111D01*
X159436957Y-80756303D01*
X159436956Y-80756302D01*
X159431615Y-80752422D01*
X159425590Y-80749740D01*
X159425584Y-80749736D01*
X159425295Y-80749608D01*
X159425155Y-80749489D01*
X159419862Y-80746433D01*
X159420421Y-80745465D01*
X159371198Y-80703629D01*
X159350547Y-80635703D01*
X159369898Y-80567394D01*
X159423107Y-80520391D01*
X159476541Y-80508500D01*
X171950633Y-80508500D01*
X171970018Y-80510000D01*
X171984851Y-80512310D01*
X171984855Y-80512310D01*
X171993724Y-80513691D01*
X172008981Y-80511696D01*
X172034302Y-80510953D01*
X172203285Y-80523039D01*
X172221064Y-80525596D01*
X172411392Y-80566999D01*
X172428641Y-80572063D01*
X172611150Y-80640136D01*
X172627502Y-80647604D01*
X172798458Y-80740952D01*
X172813582Y-80750672D01*
X172969514Y-80867402D01*
X172983100Y-80879175D01*
X173120825Y-81016900D01*
X173132598Y-81030486D01*
X173249328Y-81186418D01*
X173259048Y-81201542D01*
X173352396Y-81372498D01*
X173359864Y-81388850D01*
X173427937Y-81571359D01*
X173433001Y-81588607D01*
X173474404Y-81778936D01*
X173476961Y-81796715D01*
X173487773Y-81947883D01*
X173488540Y-81958601D01*
X173487793Y-81976565D01*
X173487692Y-81984845D01*
X173486309Y-81993724D01*
X173488771Y-82012552D01*
X173490436Y-82025283D01*
X173491500Y-82041621D01*
X173491500Y-101860500D01*
X173471498Y-101928621D01*
X173417842Y-101975114D01*
X173365500Y-101986500D01*
X166438013Y-101986500D01*
X166423183Y-101987136D01*
X166354270Y-101970071D01*
X166305521Y-101918457D01*
X166292416Y-101848680D01*
X166297954Y-101822317D01*
X166342324Y-101685757D01*
X166342325Y-101685754D01*
X166344365Y-101679475D01*
X166363229Y-101500000D01*
X166344365Y-101320525D01*
X166288599Y-101148893D01*
X166198367Y-100992607D01*
X166077613Y-100858496D01*
X166068584Y-100851936D01*
X166025230Y-100795713D01*
X166019155Y-100724977D01*
X166052287Y-100662186D01*
X166068584Y-100648064D01*
X166068875Y-100647853D01*
X166077613Y-100641504D01*
X166198367Y-100507393D01*
X166288599Y-100351107D01*
X166311175Y-100281625D01*
X166342325Y-100185754D01*
X166342325Y-100185753D01*
X166344365Y-100179475D01*
X166352001Y-100106830D01*
X166362539Y-100006565D01*
X166363229Y-100000000D01*
X166344365Y-99820525D01*
X166288599Y-99648893D01*
X166198367Y-99492607D01*
X166077613Y-99358496D01*
X166059571Y-99345387D01*
X165936957Y-99256303D01*
X165936956Y-99256302D01*
X165931615Y-99252422D01*
X165925587Y-99249738D01*
X165925585Y-99249737D01*
X165772783Y-99181705D01*
X165772781Y-99181705D01*
X165766752Y-99179020D01*
X165678492Y-99160260D01*
X165596689Y-99142872D01*
X165596685Y-99142872D01*
X165590232Y-99141500D01*
X165409768Y-99141500D01*
X165403315Y-99142872D01*
X165403311Y-99142872D01*
X165321508Y-99160260D01*
X165233248Y-99179020D01*
X165227219Y-99181704D01*
X165227217Y-99181705D01*
X165074416Y-99249737D01*
X165074414Y-99249738D01*
X165068386Y-99252422D01*
X165063045Y-99256302D01*
X165063044Y-99256303D01*
X164927731Y-99354613D01*
X164927729Y-99354615D01*
X164922387Y-99358496D01*
X164801633Y-99492607D01*
X164711401Y-99648893D01*
X164655635Y-99820525D01*
X164636771Y-100000000D01*
X164637461Y-100006565D01*
X164648000Y-100106830D01*
X164655635Y-100179475D01*
X164657675Y-100185753D01*
X164657675Y-100185754D01*
X164688825Y-100281625D01*
X164711401Y-100351107D01*
X164801633Y-100507393D01*
X164922387Y-100641504D01*
X164931125Y-100647853D01*
X164931416Y-100648064D01*
X164974770Y-100704287D01*
X164980845Y-100775023D01*
X164947713Y-100837814D01*
X164931415Y-100851936D01*
X164922387Y-100858496D01*
X164801633Y-100992607D01*
X164711401Y-101148893D01*
X164655635Y-101320525D01*
X164636771Y-101500000D01*
X164655635Y-101679475D01*
X164711401Y-101851107D01*
X164801633Y-102007393D01*
X164806051Y-102012300D01*
X164806052Y-102012301D01*
X164910399Y-102128190D01*
X164941117Y-102192197D01*
X164932352Y-102262651D01*
X164910399Y-102296810D01*
X164872190Y-102339246D01*
X164801633Y-102417607D01*
X164711401Y-102573893D01*
X164709359Y-102580178D01*
X164671106Y-102697911D01*
X164655635Y-102745525D01*
X164636771Y-102925000D01*
X164637461Y-102931565D01*
X164637461Y-102932340D01*
X164617459Y-103000461D01*
X164595171Y-103026514D01*
X161397791Y-105868630D01*
X161385801Y-105878053D01*
X161305359Y-105933743D01*
X161278417Y-105947921D01*
X161198580Y-105978275D01*
X161153802Y-105986500D01*
X158412994Y-105986500D01*
X158412138Y-105986524D01*
X158411182Y-105986538D01*
X158411178Y-105986237D01*
X158343591Y-105968488D01*
X158295572Y-105916193D01*
X158293512Y-105911122D01*
X158293325Y-105911205D01*
X158290640Y-105905174D01*
X158288599Y-105898893D01*
X158198367Y-105742607D01*
X158077613Y-105608496D01*
X158063495Y-105598238D01*
X157936957Y-105506303D01*
X157936956Y-105506302D01*
X157931615Y-105502422D01*
X157925587Y-105499738D01*
X157925585Y-105499737D01*
X157772783Y-105431705D01*
X157772781Y-105431705D01*
X157766752Y-105429020D01*
X157655077Y-105405283D01*
X157596689Y-105392872D01*
X157596685Y-105392872D01*
X157590232Y-105391500D01*
X157409768Y-105391500D01*
X157403315Y-105392872D01*
X157403311Y-105392872D01*
X157344923Y-105405283D01*
X157233248Y-105429020D01*
X157227219Y-105431704D01*
X157227217Y-105431705D01*
X157074416Y-105499737D01*
X157074414Y-105499738D01*
X157068386Y-105502422D01*
X157063045Y-105506302D01*
X157063044Y-105506303D01*
X156927731Y-105604613D01*
X156927729Y-105604615D01*
X156922387Y-105608496D01*
X156801633Y-105742607D01*
X156711401Y-105898893D01*
X156709360Y-105905174D01*
X156706675Y-105911205D01*
X156704089Y-105910054D01*
X156671003Y-105958388D01*
X156605592Y-105985992D01*
X156587006Y-105986387D01*
X156587006Y-105986500D01*
X156243400Y-105986500D01*
X156242253Y-105986542D01*
X156242247Y-105986542D01*
X156235910Y-105986774D01*
X156205937Y-105987868D01*
X156204787Y-105987952D01*
X156204771Y-105987953D01*
X156188751Y-105989125D01*
X156188742Y-105989126D01*
X156187605Y-105989209D01*
X156150357Y-105993305D01*
X156113950Y-105998659D01*
X156095618Y-106000000D01*
X155750000Y-106000000D01*
X155600077Y-106179908D01*
X155492155Y-106309414D01*
X155475916Y-106328901D01*
X155472908Y-106332379D01*
X155453481Y-106354034D01*
X155449695Y-106358253D01*
X154840082Y-107089789D01*
X153875192Y-108247656D01*
X153816216Y-108287183D01*
X153745233Y-108288550D01*
X153704335Y-108268929D01*
X153686957Y-108256303D01*
X153686956Y-108256302D01*
X153681615Y-108252422D01*
X153675587Y-108249738D01*
X153675585Y-108249737D01*
X153522783Y-108181705D01*
X153522781Y-108181705D01*
X153516752Y-108179020D01*
X153428492Y-108160260D01*
X153346689Y-108142872D01*
X153346685Y-108142872D01*
X153340232Y-108141500D01*
X153159768Y-108141500D01*
X153153315Y-108142872D01*
X153153311Y-108142872D01*
X153071508Y-108160260D01*
X152983248Y-108179020D01*
X152977219Y-108181704D01*
X152977217Y-108181705D01*
X152824416Y-108249737D01*
X152824414Y-108249738D01*
X152818386Y-108252422D01*
X152813045Y-108256302D01*
X152813044Y-108256303D01*
X152677731Y-108354613D01*
X152677729Y-108354615D01*
X152672387Y-108358496D01*
X152551633Y-108492607D01*
X152461401Y-108648893D01*
X152405635Y-108820525D01*
X152404945Y-108827088D01*
X152404945Y-108827089D01*
X152400049Y-108873671D01*
X152373036Y-108939328D01*
X152314814Y-108979957D01*
X152274739Y-108986500D01*
X151920143Y-108986500D01*
X151876208Y-108988383D01*
X151854723Y-108990228D01*
X151853390Y-108990400D01*
X151853383Y-108990401D01*
X151842726Y-108991778D01*
X151811099Y-108995865D01*
X151807300Y-108997099D01*
X151781192Y-109000000D01*
X150182767Y-109000000D01*
X150164836Y-108998718D01*
X150084304Y-108987139D01*
X150084299Y-108987139D01*
X150079857Y-108986500D01*
X139634500Y-108986500D01*
X139566379Y-108966498D01*
X139519886Y-108912842D01*
X139508500Y-108860500D01*
X139508500Y-107444186D01*
X139528502Y-107376065D01*
X139582158Y-107329572D01*
X139652432Y-107319468D01*
X139706771Y-107340973D01*
X139773251Y-107387523D01*
X139778233Y-107389846D01*
X139778238Y-107389849D01*
X139975775Y-107481961D01*
X139980757Y-107484284D01*
X139986065Y-107485706D01*
X139986067Y-107485707D01*
X140196598Y-107542119D01*
X140196600Y-107542119D01*
X140201913Y-107543543D01*
X140430000Y-107563498D01*
X140658087Y-107543543D01*
X140663400Y-107542119D01*
X140663402Y-107542119D01*
X140873933Y-107485707D01*
X140873935Y-107485706D01*
X140879243Y-107484284D01*
X140884225Y-107481961D01*
X141081762Y-107389849D01*
X141081767Y-107389846D01*
X141086749Y-107387523D01*
X141228458Y-107288297D01*
X141269789Y-107259357D01*
X141269792Y-107259355D01*
X141274300Y-107256198D01*
X141432364Y-107098134D01*
X146741500Y-107098134D01*
X146748255Y-107160316D01*
X146799385Y-107296705D01*
X146886739Y-107413261D01*
X147003295Y-107500615D01*
X147139684Y-107551745D01*
X147201866Y-107558500D01*
X148898134Y-107558500D01*
X148960316Y-107551745D01*
X149096705Y-107500615D01*
X149213261Y-107413261D01*
X149300615Y-107296705D01*
X149351745Y-107160316D01*
X149358500Y-107098134D01*
X149358500Y-105401866D01*
X149351745Y-105339684D01*
X149300615Y-105203295D01*
X149213261Y-105086739D01*
X149096705Y-104999385D01*
X148960316Y-104948255D01*
X148898134Y-104941500D01*
X147201866Y-104941500D01*
X147139684Y-104948255D01*
X147003295Y-104999385D01*
X146886739Y-105086739D01*
X146799385Y-105203295D01*
X146748255Y-105339684D01*
X146741500Y-105401866D01*
X146741500Y-107098134D01*
X141432364Y-107098134D01*
X141436198Y-107094300D01*
X141567523Y-106906749D01*
X141569846Y-106901767D01*
X141569849Y-106901762D01*
X141661961Y-106704225D01*
X141661961Y-106704224D01*
X141664284Y-106699243D01*
X141723543Y-106478087D01*
X141743498Y-106250000D01*
X141723543Y-106021913D01*
X141720468Y-106010436D01*
X141665707Y-105806067D01*
X141665706Y-105806065D01*
X141664284Y-105800757D01*
X141639835Y-105748325D01*
X141569849Y-105598238D01*
X141569846Y-105598233D01*
X141567523Y-105593251D01*
X141436198Y-105405700D01*
X141274300Y-105243802D01*
X141269792Y-105240645D01*
X141269789Y-105240643D01*
X141153229Y-105159027D01*
X141086749Y-105112477D01*
X141081767Y-105110154D01*
X141081762Y-105110151D01*
X140884225Y-105018039D01*
X140884224Y-105018039D01*
X140879243Y-105015716D01*
X140873935Y-105014294D01*
X140873933Y-105014293D01*
X140663402Y-104957881D01*
X140663400Y-104957881D01*
X140658087Y-104956457D01*
X140430000Y-104936502D01*
X140201913Y-104956457D01*
X140196600Y-104957881D01*
X140196598Y-104957881D01*
X139986067Y-105014293D01*
X139986065Y-105014294D01*
X139980757Y-105015716D01*
X139975776Y-105018039D01*
X139975775Y-105018039D01*
X139778238Y-105110151D01*
X139778233Y-105110154D01*
X139773251Y-105112477D01*
X139706771Y-105159027D01*
X139639497Y-105181715D01*
X139570637Y-105164430D01*
X139522052Y-105112660D01*
X139508500Y-105055814D01*
X139508500Y-104219910D01*
X139528502Y-104151789D01*
X139582158Y-104105296D01*
X139652432Y-104095192D01*
X139717012Y-104124686D01*
X139743619Y-104156910D01*
X139801633Y-104257393D01*
X139922387Y-104391504D01*
X140068385Y-104497578D01*
X140074413Y-104500262D01*
X140074415Y-104500263D01*
X140227217Y-104568295D01*
X140233248Y-104570980D01*
X140321508Y-104589740D01*
X140403311Y-104607128D01*
X140403315Y-104607128D01*
X140409768Y-104608500D01*
X140590232Y-104608500D01*
X140596685Y-104607128D01*
X140596689Y-104607128D01*
X140678492Y-104589740D01*
X140766752Y-104570980D01*
X140772783Y-104568295D01*
X140925585Y-104500263D01*
X140925587Y-104500262D01*
X140931615Y-104497578D01*
X141077613Y-104391504D01*
X141198367Y-104257393D01*
X141288599Y-104101107D01*
X141344365Y-103929475D01*
X141363229Y-103750000D01*
X141344365Y-103570525D01*
X141288599Y-103398893D01*
X141198367Y-103242607D01*
X141077613Y-103108496D01*
X141052605Y-103090326D01*
X140936957Y-103006303D01*
X140936956Y-103006302D01*
X140931615Y-103002422D01*
X140925587Y-102999738D01*
X140925585Y-102999737D01*
X140772783Y-102931705D01*
X140772781Y-102931705D01*
X140766752Y-102929020D01*
X140678492Y-102910260D01*
X140596689Y-102892872D01*
X140596685Y-102892872D01*
X140590232Y-102891500D01*
X140409768Y-102891500D01*
X140403315Y-102892872D01*
X140403311Y-102892872D01*
X140321508Y-102910260D01*
X140233248Y-102929020D01*
X140227219Y-102931704D01*
X140227217Y-102931705D01*
X140074416Y-102999737D01*
X140074414Y-102999738D01*
X140068386Y-103002422D01*
X140063045Y-103006302D01*
X140063044Y-103006303D01*
X139927731Y-103104613D01*
X139927729Y-103104615D01*
X139922387Y-103108496D01*
X139801633Y-103242607D01*
X139743619Y-103343090D01*
X139692236Y-103392083D01*
X139622523Y-103405519D01*
X139556612Y-103379133D01*
X139515430Y-103321300D01*
X139508500Y-103280090D01*
X139508500Y-102525000D01*
X146886771Y-102525000D01*
X146905635Y-102704475D01*
X146907675Y-102710753D01*
X146907675Y-102710754D01*
X146938825Y-102806625D01*
X146961401Y-102876107D01*
X147051633Y-103032393D01*
X147056051Y-103037300D01*
X147056052Y-103037301D01*
X147167965Y-103161593D01*
X147172387Y-103166504D01*
X147177729Y-103170385D01*
X147177731Y-103170387D01*
X147313043Y-103268697D01*
X147318385Y-103272578D01*
X147324413Y-103275262D01*
X147324415Y-103275263D01*
X147335257Y-103280090D01*
X147483248Y-103345980D01*
X147571508Y-103364740D01*
X147653311Y-103382128D01*
X147653315Y-103382128D01*
X147659768Y-103383500D01*
X147840232Y-103383500D01*
X147846685Y-103382128D01*
X147846689Y-103382128D01*
X147928492Y-103364740D01*
X148016752Y-103345980D01*
X148164743Y-103280090D01*
X148175585Y-103275263D01*
X148175587Y-103275262D01*
X148181615Y-103272578D01*
X148186957Y-103268697D01*
X148322269Y-103170387D01*
X148322271Y-103170385D01*
X148327613Y-103166504D01*
X148332035Y-103161593D01*
X148443948Y-103037301D01*
X148443949Y-103037300D01*
X148448367Y-103032393D01*
X148538599Y-102876107D01*
X148561175Y-102806625D01*
X148592325Y-102710754D01*
X148592325Y-102710753D01*
X148594365Y-102704475D01*
X148613229Y-102525000D01*
X148594365Y-102345525D01*
X148538599Y-102173893D01*
X148448367Y-102017607D01*
X148443590Y-102012301D01*
X148332035Y-101888407D01*
X148332034Y-101888406D01*
X148327613Y-101883496D01*
X148290911Y-101856830D01*
X148186957Y-101781303D01*
X148186956Y-101781302D01*
X148181615Y-101777422D01*
X148175587Y-101774738D01*
X148175585Y-101774737D01*
X148022783Y-101706705D01*
X148022781Y-101706705D01*
X148016752Y-101704020D01*
X147928492Y-101685260D01*
X147846689Y-101667872D01*
X147846685Y-101667872D01*
X147840232Y-101666500D01*
X147659768Y-101666500D01*
X147653315Y-101667872D01*
X147653311Y-101667872D01*
X147571508Y-101685260D01*
X147483248Y-101704020D01*
X147477219Y-101706704D01*
X147477217Y-101706705D01*
X147324416Y-101774737D01*
X147324414Y-101774738D01*
X147318386Y-101777422D01*
X147313045Y-101781302D01*
X147313044Y-101781303D01*
X147177731Y-101879613D01*
X147177729Y-101879615D01*
X147172387Y-101883496D01*
X147167966Y-101888406D01*
X147167965Y-101888407D01*
X147056411Y-102012301D01*
X147051633Y-102017607D01*
X146961401Y-102173893D01*
X146905635Y-102345525D01*
X146886771Y-102525000D01*
X139508500Y-102525000D01*
X139508500Y-99750000D01*
X149636771Y-99750000D01*
X149655635Y-99929475D01*
X149711401Y-100101107D01*
X149801633Y-100257393D01*
X149922387Y-100391504D01*
X150068385Y-100497578D01*
X150074413Y-100500262D01*
X150074415Y-100500263D01*
X150101453Y-100512301D01*
X150233248Y-100570980D01*
X150321508Y-100589740D01*
X150403311Y-100607128D01*
X150403315Y-100607128D01*
X150409768Y-100608500D01*
X150590232Y-100608500D01*
X150596685Y-100607128D01*
X150596689Y-100607128D01*
X150678492Y-100589740D01*
X150766752Y-100570980D01*
X150898547Y-100512301D01*
X150925585Y-100500263D01*
X150925587Y-100500262D01*
X150931615Y-100497578D01*
X151077613Y-100391504D01*
X151198367Y-100257393D01*
X151288599Y-100101107D01*
X151344365Y-99929475D01*
X151363229Y-99750000D01*
X151352602Y-99648893D01*
X151345055Y-99577089D01*
X151345055Y-99577088D01*
X151344365Y-99570525D01*
X151317454Y-99487699D01*
X151290641Y-99405178D01*
X151288599Y-99398893D01*
X151198367Y-99242607D01*
X151171080Y-99212301D01*
X151082035Y-99113407D01*
X151082034Y-99113406D01*
X151077613Y-99108496D01*
X150989974Y-99044822D01*
X150936957Y-99006303D01*
X150936956Y-99006302D01*
X150931615Y-99002422D01*
X150925587Y-98999738D01*
X150925585Y-98999737D01*
X150772783Y-98931705D01*
X150772781Y-98931705D01*
X150766752Y-98929020D01*
X150678492Y-98910260D01*
X150596689Y-98892872D01*
X150596685Y-98892872D01*
X150590232Y-98891500D01*
X150409768Y-98891500D01*
X150403315Y-98892872D01*
X150403311Y-98892872D01*
X150321508Y-98910260D01*
X150233248Y-98929020D01*
X150227219Y-98931704D01*
X150227217Y-98931705D01*
X150074416Y-98999737D01*
X150074414Y-98999738D01*
X150068386Y-99002422D01*
X150063045Y-99006302D01*
X150063044Y-99006303D01*
X149927731Y-99104613D01*
X149927729Y-99104615D01*
X149922387Y-99108496D01*
X149917966Y-99113406D01*
X149917965Y-99113407D01*
X149828921Y-99212301D01*
X149801633Y-99242607D01*
X149711401Y-99398893D01*
X149709359Y-99405178D01*
X149682547Y-99487699D01*
X149655635Y-99570525D01*
X149654945Y-99577088D01*
X149654945Y-99577089D01*
X149647398Y-99648893D01*
X149636771Y-99750000D01*
X139508500Y-99750000D01*
X139508500Y-96992575D01*
X141936404Y-96992575D01*
X141955218Y-97199303D01*
X141956956Y-97205209D01*
X141956957Y-97205213D01*
X141973759Y-97262301D01*
X142013827Y-97398440D01*
X142109999Y-97582400D01*
X142240071Y-97744177D01*
X142244788Y-97748135D01*
X142244790Y-97748137D01*
X142246697Y-97749737D01*
X142399089Y-97877609D01*
X142404481Y-97880573D01*
X142404485Y-97880576D01*
X142566387Y-97969582D01*
X142616446Y-98019928D01*
X142631339Y-98089345D01*
X142616704Y-98136837D01*
X142617389Y-98137142D01*
X142614859Y-98142825D01*
X142614806Y-98142995D01*
X142611401Y-98148893D01*
X142609359Y-98155178D01*
X142558291Y-98312352D01*
X142555635Y-98320525D01*
X142536771Y-98500000D01*
X142555635Y-98679475D01*
X142611401Y-98851107D01*
X142614704Y-98856829D01*
X142614705Y-98856830D01*
X142634722Y-98891500D01*
X142701633Y-99007393D01*
X142822387Y-99141504D01*
X142827729Y-99145385D01*
X142827731Y-99145387D01*
X142961543Y-99242607D01*
X142968385Y-99247578D01*
X142974413Y-99250262D01*
X142974415Y-99250263D01*
X143127217Y-99318295D01*
X143133248Y-99320980D01*
X143221508Y-99339740D01*
X143303311Y-99357128D01*
X143303315Y-99357128D01*
X143309768Y-99358500D01*
X143490232Y-99358500D01*
X143496685Y-99357128D01*
X143496689Y-99357128D01*
X143578492Y-99339740D01*
X143666752Y-99320980D01*
X143672783Y-99318295D01*
X143825585Y-99250263D01*
X143825587Y-99250262D01*
X143831615Y-99247578D01*
X143838457Y-99242607D01*
X143972269Y-99145387D01*
X143972271Y-99145385D01*
X143977613Y-99141504D01*
X144098367Y-99007393D01*
X144165278Y-98891500D01*
X144185295Y-98856830D01*
X144185296Y-98856829D01*
X144188599Y-98851107D01*
X144244365Y-98679475D01*
X144263229Y-98500000D01*
X151636771Y-98500000D01*
X151655635Y-98679475D01*
X151711401Y-98851107D01*
X151714704Y-98856829D01*
X151714705Y-98856830D01*
X151734722Y-98891500D01*
X151801633Y-99007393D01*
X151922387Y-99141504D01*
X151927729Y-99145385D01*
X151927731Y-99145387D01*
X152061543Y-99242607D01*
X152068385Y-99247578D01*
X152074413Y-99250262D01*
X152074415Y-99250263D01*
X152227217Y-99318295D01*
X152233248Y-99320980D01*
X152321508Y-99339740D01*
X152403311Y-99357128D01*
X152403315Y-99357128D01*
X152409768Y-99358500D01*
X152590232Y-99358500D01*
X152596685Y-99357128D01*
X152596689Y-99357128D01*
X152678492Y-99339740D01*
X152766752Y-99320980D01*
X152772783Y-99318295D01*
X152925585Y-99250263D01*
X152925587Y-99250262D01*
X152931615Y-99247578D01*
X152938457Y-99242607D01*
X153072269Y-99145387D01*
X153072271Y-99145385D01*
X153077613Y-99141504D01*
X153198367Y-99007393D01*
X153265278Y-98891500D01*
X153285295Y-98856830D01*
X153285296Y-98856829D01*
X153288599Y-98851107D01*
X153337696Y-98700000D01*
X154886771Y-98700000D01*
X154905635Y-98879475D01*
X154961401Y-99051107D01*
X155051633Y-99207393D01*
X155056051Y-99212300D01*
X155056052Y-99212301D01*
X155153907Y-99320980D01*
X155172387Y-99341504D01*
X155177729Y-99345385D01*
X155177731Y-99345387D01*
X155313043Y-99443697D01*
X155318385Y-99447578D01*
X155324413Y-99450262D01*
X155324415Y-99450263D01*
X155477217Y-99518295D01*
X155483248Y-99520980D01*
X155571508Y-99539740D01*
X155653311Y-99557128D01*
X155653315Y-99557128D01*
X155659768Y-99558500D01*
X155840232Y-99558500D01*
X155846685Y-99557128D01*
X155846689Y-99557128D01*
X155928492Y-99539740D01*
X156016752Y-99520980D01*
X156022783Y-99518295D01*
X156175585Y-99450263D01*
X156175587Y-99450262D01*
X156181615Y-99447578D01*
X156186957Y-99443697D01*
X156322269Y-99345387D01*
X156322271Y-99345385D01*
X156327613Y-99341504D01*
X156346093Y-99320980D01*
X156443948Y-99212301D01*
X156443949Y-99212300D01*
X156448367Y-99207393D01*
X156538599Y-99051107D01*
X156555204Y-99000000D01*
X159636771Y-99000000D01*
X159637461Y-99006565D01*
X159647767Y-99104613D01*
X159655635Y-99179475D01*
X159711401Y-99351107D01*
X159801633Y-99507393D01*
X159806051Y-99512300D01*
X159806052Y-99512301D01*
X159917965Y-99636593D01*
X159922387Y-99641504D01*
X159927729Y-99645385D01*
X159927731Y-99645387D01*
X160063043Y-99743697D01*
X160068385Y-99747578D01*
X160074413Y-99750262D01*
X160074415Y-99750263D01*
X160218123Y-99814246D01*
X160233248Y-99820980D01*
X160321508Y-99839740D01*
X160403311Y-99857128D01*
X160403315Y-99857128D01*
X160409768Y-99858500D01*
X160590232Y-99858500D01*
X160596685Y-99857128D01*
X160596689Y-99857128D01*
X160678492Y-99839740D01*
X160766752Y-99820980D01*
X160781877Y-99814246D01*
X160925585Y-99750263D01*
X160925587Y-99750262D01*
X160931615Y-99747578D01*
X160936957Y-99743697D01*
X161072269Y-99645387D01*
X161072271Y-99645385D01*
X161077613Y-99641504D01*
X161082035Y-99636593D01*
X161193948Y-99512301D01*
X161193949Y-99512300D01*
X161198367Y-99507393D01*
X161288599Y-99351107D01*
X161344365Y-99179475D01*
X161352234Y-99104613D01*
X161362539Y-99006565D01*
X161363229Y-99000000D01*
X161344365Y-98820525D01*
X161288599Y-98648893D01*
X161198367Y-98492607D01*
X161077613Y-98358496D01*
X161061967Y-98347128D01*
X160936957Y-98256303D01*
X160936956Y-98256302D01*
X160931615Y-98252422D01*
X160925587Y-98249738D01*
X160925585Y-98249737D01*
X160772783Y-98181705D01*
X160772781Y-98181705D01*
X160766752Y-98179020D01*
X160654583Y-98155178D01*
X160596689Y-98142872D01*
X160596685Y-98142872D01*
X160590232Y-98141500D01*
X160409768Y-98141500D01*
X160403315Y-98142872D01*
X160403311Y-98142872D01*
X160345417Y-98155178D01*
X160233248Y-98179020D01*
X160227219Y-98181704D01*
X160227217Y-98181705D01*
X160074416Y-98249737D01*
X160074414Y-98249738D01*
X160068386Y-98252422D01*
X160063045Y-98256302D01*
X160063044Y-98256303D01*
X159927731Y-98354613D01*
X159927729Y-98354615D01*
X159922387Y-98358496D01*
X159801633Y-98492607D01*
X159711401Y-98648893D01*
X159655635Y-98820525D01*
X159636771Y-99000000D01*
X156555204Y-99000000D01*
X156594365Y-98879475D01*
X156613229Y-98700000D01*
X156594365Y-98520525D01*
X156538599Y-98348893D01*
X156526011Y-98327089D01*
X156451668Y-98198325D01*
X156448367Y-98192607D01*
X156403857Y-98143173D01*
X156332035Y-98063407D01*
X156332034Y-98063406D01*
X156327613Y-98058496D01*
X156250268Y-98002301D01*
X156186957Y-97956303D01*
X156186956Y-97956302D01*
X156181615Y-97952422D01*
X156175587Y-97949738D01*
X156175585Y-97949737D01*
X156022783Y-97881705D01*
X156022781Y-97881705D01*
X156016752Y-97879020D01*
X155901925Y-97854613D01*
X155846689Y-97842872D01*
X155846685Y-97842872D01*
X155840232Y-97841500D01*
X155659768Y-97841500D01*
X155653315Y-97842872D01*
X155653311Y-97842872D01*
X155598075Y-97854613D01*
X155483248Y-97879020D01*
X155477219Y-97881704D01*
X155477217Y-97881705D01*
X155324416Y-97949737D01*
X155324414Y-97949738D01*
X155318386Y-97952422D01*
X155313045Y-97956302D01*
X155313044Y-97956303D01*
X155177731Y-98054613D01*
X155177729Y-98054615D01*
X155172387Y-98058496D01*
X155167966Y-98063406D01*
X155167965Y-98063407D01*
X155096144Y-98143173D01*
X155051633Y-98192607D01*
X155048332Y-98198325D01*
X154973990Y-98327089D01*
X154961401Y-98348893D01*
X154905635Y-98520525D01*
X154886771Y-98700000D01*
X153337696Y-98700000D01*
X153344365Y-98679475D01*
X153363229Y-98500000D01*
X153344365Y-98320525D01*
X153341710Y-98312352D01*
X153290641Y-98155178D01*
X153288599Y-98148893D01*
X153285195Y-98142996D01*
X153253311Y-98087773D01*
X153198367Y-97992607D01*
X153184867Y-97977613D01*
X153082035Y-97863407D01*
X153082034Y-97863406D01*
X153077613Y-97858496D01*
X153061557Y-97846830D01*
X152936957Y-97756303D01*
X152936956Y-97756302D01*
X152931615Y-97752422D01*
X152925587Y-97749738D01*
X152925585Y-97749737D01*
X152903955Y-97740107D01*
X152849859Y-97694127D01*
X152829210Y-97626200D01*
X152848562Y-97557892D01*
X152903955Y-97509893D01*
X152925585Y-97500263D01*
X152925587Y-97500262D01*
X152931615Y-97497578D01*
X153049169Y-97412170D01*
X153072269Y-97395387D01*
X153072271Y-97395385D01*
X153077613Y-97391504D01*
X153150527Y-97310525D01*
X153193948Y-97262301D01*
X153193949Y-97262300D01*
X153198367Y-97257393D01*
X153288599Y-97101107D01*
X153317046Y-97013554D01*
X153342325Y-96935754D01*
X153342325Y-96935753D01*
X153344365Y-96929475D01*
X153352001Y-96856830D01*
X153362539Y-96756565D01*
X153363229Y-96750000D01*
X153353263Y-96655178D01*
X153345055Y-96577089D01*
X153345055Y-96577088D01*
X153344365Y-96570525D01*
X153321451Y-96500000D01*
X154886771Y-96500000D01*
X154887461Y-96506565D01*
X154898840Y-96614822D01*
X154905635Y-96679475D01*
X154961401Y-96851107D01*
X155051633Y-97007393D01*
X155056051Y-97012300D01*
X155056052Y-97012301D01*
X155063221Y-97020263D01*
X155172387Y-97141504D01*
X155177729Y-97145385D01*
X155177731Y-97145387D01*
X155271991Y-97213871D01*
X155318385Y-97247578D01*
X155324413Y-97250262D01*
X155324415Y-97250263D01*
X155477217Y-97318295D01*
X155483248Y-97320980D01*
X155571508Y-97339740D01*
X155653311Y-97357128D01*
X155653315Y-97357128D01*
X155659768Y-97358500D01*
X155840232Y-97358500D01*
X155846685Y-97357128D01*
X155846689Y-97357128D01*
X155928492Y-97339740D01*
X156016752Y-97320980D01*
X156022783Y-97318295D01*
X156175585Y-97250263D01*
X156175587Y-97250262D01*
X156181615Y-97247578D01*
X156228009Y-97213871D01*
X156322269Y-97145387D01*
X156322271Y-97145385D01*
X156327613Y-97141504D01*
X156436779Y-97020263D01*
X156443948Y-97012301D01*
X156443949Y-97012300D01*
X156448367Y-97007393D01*
X156452635Y-97000000D01*
X163136771Y-97000000D01*
X163137461Y-97006565D01*
X163151370Y-97138893D01*
X163155635Y-97179475D01*
X163157675Y-97185753D01*
X163157675Y-97185754D01*
X163188825Y-97281625D01*
X163211401Y-97351107D01*
X163301633Y-97507393D01*
X163306051Y-97512300D01*
X163306052Y-97512301D01*
X163384579Y-97599514D01*
X163422387Y-97641504D01*
X163427729Y-97645385D01*
X163427731Y-97645387D01*
X163558102Y-97740107D01*
X163568385Y-97747578D01*
X163574413Y-97750262D01*
X163574415Y-97750263D01*
X163674606Y-97794871D01*
X163733248Y-97820980D01*
X163821508Y-97839740D01*
X163903311Y-97857128D01*
X163903315Y-97857128D01*
X163909768Y-97858500D01*
X164090232Y-97858500D01*
X164096685Y-97857128D01*
X164096689Y-97857128D01*
X164178492Y-97839740D01*
X164266752Y-97820980D01*
X164325394Y-97794871D01*
X164425585Y-97750263D01*
X164425587Y-97750262D01*
X164431615Y-97747578D01*
X164441898Y-97740107D01*
X164572269Y-97645387D01*
X164572271Y-97645385D01*
X164577613Y-97641504D01*
X164615421Y-97599514D01*
X164693948Y-97512301D01*
X164693949Y-97512300D01*
X164698367Y-97507393D01*
X164788599Y-97351107D01*
X164811175Y-97281625D01*
X164842325Y-97185754D01*
X164842325Y-97185753D01*
X164844365Y-97179475D01*
X164848631Y-97138893D01*
X164862539Y-97006565D01*
X164863229Y-97000000D01*
X164854336Y-96915387D01*
X164845055Y-96827089D01*
X164845055Y-96827088D01*
X164844365Y-96820525D01*
X164831946Y-96782301D01*
X164796403Y-96672911D01*
X164788599Y-96648893D01*
X164698367Y-96492607D01*
X164665185Y-96455754D01*
X164582035Y-96363407D01*
X164582034Y-96363406D01*
X164577613Y-96358496D01*
X164558793Y-96344822D01*
X164455809Y-96270000D01*
X168636771Y-96270000D01*
X168637461Y-96276565D01*
X168650985Y-96405230D01*
X168655635Y-96449475D01*
X168657675Y-96455753D01*
X168657675Y-96455754D01*
X168669649Y-96492607D01*
X168711401Y-96621107D01*
X168714704Y-96626829D01*
X168714705Y-96626830D01*
X168741310Y-96672911D01*
X168801633Y-96777393D01*
X168806051Y-96782300D01*
X168806052Y-96782301D01*
X168917965Y-96906593D01*
X168922387Y-96911504D01*
X168927729Y-96915385D01*
X168927731Y-96915387D01*
X169061122Y-97012301D01*
X169068385Y-97017578D01*
X169074413Y-97020262D01*
X169074415Y-97020263D01*
X169227217Y-97088295D01*
X169233248Y-97090980D01*
X169321508Y-97109740D01*
X169403311Y-97127128D01*
X169403315Y-97127128D01*
X169409768Y-97128500D01*
X169590232Y-97128500D01*
X169596685Y-97127128D01*
X169596689Y-97127128D01*
X169678492Y-97109740D01*
X169766752Y-97090980D01*
X169772783Y-97088295D01*
X169925585Y-97020263D01*
X169925587Y-97020262D01*
X169931615Y-97017578D01*
X169938878Y-97012301D01*
X170072269Y-96915387D01*
X170072271Y-96915385D01*
X170077613Y-96911504D01*
X170082035Y-96906593D01*
X170193948Y-96782301D01*
X170193949Y-96782300D01*
X170198367Y-96777393D01*
X170258690Y-96672911D01*
X170285295Y-96626830D01*
X170285296Y-96626829D01*
X170288599Y-96621107D01*
X170330351Y-96492607D01*
X170342325Y-96455754D01*
X170342325Y-96455753D01*
X170344365Y-96449475D01*
X170349016Y-96405230D01*
X170362539Y-96276565D01*
X170363229Y-96270000D01*
X170353024Y-96172911D01*
X170345055Y-96097089D01*
X170345055Y-96097088D01*
X170344365Y-96090525D01*
X170288599Y-95918893D01*
X170281960Y-95907393D01*
X170201670Y-95768328D01*
X170198367Y-95762607D01*
X170193166Y-95756830D01*
X170159383Y-95719311D01*
X170128666Y-95655303D01*
X170137430Y-95584849D01*
X170159383Y-95550689D01*
X170193948Y-95512301D01*
X170193949Y-95512300D01*
X170198367Y-95507393D01*
X170288599Y-95351107D01*
X170321536Y-95249737D01*
X170342325Y-95185754D01*
X170342325Y-95185753D01*
X170344365Y-95179475D01*
X170363229Y-95000000D01*
X170354085Y-94913000D01*
X170345055Y-94827089D01*
X170345055Y-94827088D01*
X170344365Y-94820525D01*
X170288599Y-94648893D01*
X170198367Y-94492607D01*
X170147177Y-94435754D01*
X170082035Y-94363407D01*
X170082034Y-94363406D01*
X170077613Y-94358496D01*
X170006137Y-94306565D01*
X169936957Y-94256303D01*
X169936956Y-94256302D01*
X169931615Y-94252422D01*
X169925587Y-94249738D01*
X169925585Y-94249737D01*
X169772783Y-94181705D01*
X169772781Y-94181705D01*
X169766752Y-94179020D01*
X169678492Y-94160260D01*
X169596689Y-94142872D01*
X169596685Y-94142872D01*
X169590232Y-94141500D01*
X169409768Y-94141500D01*
X169403315Y-94142872D01*
X169403311Y-94142872D01*
X169321508Y-94160260D01*
X169233248Y-94179020D01*
X169227219Y-94181704D01*
X169227217Y-94181705D01*
X169074416Y-94249737D01*
X169074414Y-94249738D01*
X169068386Y-94252422D01*
X169063045Y-94256302D01*
X169063044Y-94256303D01*
X168927731Y-94354613D01*
X168927729Y-94354615D01*
X168922387Y-94358496D01*
X168917966Y-94363406D01*
X168917965Y-94363407D01*
X168852824Y-94435754D01*
X168801633Y-94492607D01*
X168711401Y-94648893D01*
X168655635Y-94820525D01*
X168654945Y-94827088D01*
X168654945Y-94827089D01*
X168645915Y-94913000D01*
X168636771Y-95000000D01*
X168655635Y-95179475D01*
X168657675Y-95185753D01*
X168657675Y-95185754D01*
X168678464Y-95249737D01*
X168711401Y-95351107D01*
X168801633Y-95507393D01*
X168806051Y-95512300D01*
X168806052Y-95512301D01*
X168840617Y-95550689D01*
X168871334Y-95614697D01*
X168862570Y-95685151D01*
X168840617Y-95719311D01*
X168806835Y-95756830D01*
X168801633Y-95762607D01*
X168798330Y-95768328D01*
X168718041Y-95907393D01*
X168711401Y-95918893D01*
X168655635Y-96090525D01*
X168654945Y-96097088D01*
X168654945Y-96097089D01*
X168646976Y-96172911D01*
X168636771Y-96270000D01*
X164455809Y-96270000D01*
X164436957Y-96256303D01*
X164436956Y-96256302D01*
X164431615Y-96252422D01*
X164425587Y-96249738D01*
X164425585Y-96249737D01*
X164272783Y-96181705D01*
X164272781Y-96181705D01*
X164266752Y-96179020D01*
X164154583Y-96155178D01*
X164096689Y-96142872D01*
X164096685Y-96142872D01*
X164090232Y-96141500D01*
X163909768Y-96141500D01*
X163903315Y-96142872D01*
X163903311Y-96142872D01*
X163845417Y-96155178D01*
X163733248Y-96179020D01*
X163727219Y-96181704D01*
X163727217Y-96181705D01*
X163574416Y-96249737D01*
X163574414Y-96249738D01*
X163568386Y-96252422D01*
X163563045Y-96256302D01*
X163563044Y-96256303D01*
X163427731Y-96354613D01*
X163427729Y-96354615D01*
X163422387Y-96358496D01*
X163417966Y-96363406D01*
X163417965Y-96363407D01*
X163334816Y-96455754D01*
X163301633Y-96492607D01*
X163211401Y-96648893D01*
X163203597Y-96672911D01*
X163168055Y-96782301D01*
X163155635Y-96820525D01*
X163154945Y-96827088D01*
X163154945Y-96827089D01*
X163145664Y-96915387D01*
X163136771Y-97000000D01*
X156452635Y-97000000D01*
X156538599Y-96851107D01*
X156594365Y-96679475D01*
X156601161Y-96614822D01*
X156612539Y-96506565D01*
X156613229Y-96500000D01*
X156608578Y-96455754D01*
X156595055Y-96327089D01*
X156595055Y-96327088D01*
X156594365Y-96320525D01*
X156567454Y-96237699D01*
X156540641Y-96155178D01*
X156538599Y-96148893D01*
X156460141Y-96013000D01*
X156443403Y-95944005D01*
X156460141Y-95887000D01*
X156535295Y-95756830D01*
X156535296Y-95756829D01*
X156538599Y-95751107D01*
X156571810Y-95648893D01*
X156592325Y-95585754D01*
X156592325Y-95585753D01*
X156594365Y-95579475D01*
X156613229Y-95400000D01*
X156594365Y-95220525D01*
X156578895Y-95172911D01*
X156540641Y-95055178D01*
X156538599Y-95048893D01*
X156510523Y-95000263D01*
X156460141Y-94913000D01*
X156443403Y-94844005D01*
X156460141Y-94787000D01*
X156535295Y-94656830D01*
X156535296Y-94656829D01*
X156538599Y-94651107D01*
X156594365Y-94479475D01*
X156613229Y-94300000D01*
X156607974Y-94250000D01*
X159636771Y-94250000D01*
X159637461Y-94256565D01*
X159647767Y-94354613D01*
X159655635Y-94429475D01*
X159711401Y-94601107D01*
X159801633Y-94757393D01*
X159806051Y-94762300D01*
X159806052Y-94762301D01*
X159917965Y-94886593D01*
X159922387Y-94891504D01*
X159927729Y-94895385D01*
X159927731Y-94895387D01*
X160063043Y-94993697D01*
X160068385Y-94997578D01*
X160074413Y-95000262D01*
X160074415Y-95000263D01*
X160183640Y-95048893D01*
X160233248Y-95070980D01*
X160321508Y-95089740D01*
X160403311Y-95107128D01*
X160403315Y-95107128D01*
X160409768Y-95108500D01*
X160590232Y-95108500D01*
X160596685Y-95107128D01*
X160596689Y-95107128D01*
X160678492Y-95089740D01*
X160766752Y-95070980D01*
X160816360Y-95048893D01*
X160925585Y-95000263D01*
X160925587Y-95000262D01*
X160931615Y-94997578D01*
X160936957Y-94993697D01*
X161072269Y-94895387D01*
X161072271Y-94895385D01*
X161077613Y-94891504D01*
X161082035Y-94886593D01*
X161193948Y-94762301D01*
X161193949Y-94762300D01*
X161198367Y-94757393D01*
X161288599Y-94601107D01*
X161344365Y-94429475D01*
X161352234Y-94354613D01*
X161362539Y-94256565D01*
X161363229Y-94250000D01*
X161344365Y-94070525D01*
X161288599Y-93898893D01*
X161198367Y-93742607D01*
X161077613Y-93608496D01*
X160996739Y-93549737D01*
X160936957Y-93506303D01*
X160936956Y-93506302D01*
X160931615Y-93502422D01*
X160925587Y-93499738D01*
X160925585Y-93499737D01*
X160772783Y-93431705D01*
X160772781Y-93431705D01*
X160766752Y-93429020D01*
X160678492Y-93410260D01*
X160596689Y-93392872D01*
X160596685Y-93392872D01*
X160590232Y-93391500D01*
X160409768Y-93391500D01*
X160403315Y-93392872D01*
X160403311Y-93392872D01*
X160321508Y-93410260D01*
X160233248Y-93429020D01*
X160227219Y-93431704D01*
X160227217Y-93431705D01*
X160074416Y-93499737D01*
X160074414Y-93499738D01*
X160068386Y-93502422D01*
X160063045Y-93506302D01*
X160063044Y-93506303D01*
X159927731Y-93604613D01*
X159927729Y-93604615D01*
X159922387Y-93608496D01*
X159801633Y-93742607D01*
X159711401Y-93898893D01*
X159655635Y-94070525D01*
X159636771Y-94250000D01*
X156607974Y-94250000D01*
X156594365Y-94120525D01*
X156538599Y-93948893D01*
X156448367Y-93792607D01*
X156327613Y-93658496D01*
X156265554Y-93613407D01*
X156186957Y-93556303D01*
X156186956Y-93556302D01*
X156181615Y-93552422D01*
X156175587Y-93549738D01*
X156175585Y-93549737D01*
X156022783Y-93481705D01*
X156022781Y-93481705D01*
X156016752Y-93479020D01*
X155928492Y-93460260D01*
X155846689Y-93442872D01*
X155846685Y-93442872D01*
X155840232Y-93441500D01*
X155659768Y-93441500D01*
X155653315Y-93442872D01*
X155653311Y-93442872D01*
X155571508Y-93460260D01*
X155483248Y-93479020D01*
X155477219Y-93481704D01*
X155477217Y-93481705D01*
X155324416Y-93549737D01*
X155324414Y-93549738D01*
X155318386Y-93552422D01*
X155313045Y-93556302D01*
X155313044Y-93556303D01*
X155177731Y-93654613D01*
X155177729Y-93654615D01*
X155172387Y-93658496D01*
X155051633Y-93792607D01*
X154961401Y-93948893D01*
X154905635Y-94120525D01*
X154886771Y-94300000D01*
X154905635Y-94479475D01*
X154961401Y-94651107D01*
X154964704Y-94656829D01*
X154964705Y-94656830D01*
X155039859Y-94787000D01*
X155056597Y-94855995D01*
X155039859Y-94913000D01*
X154989478Y-95000263D01*
X154961401Y-95048893D01*
X154959359Y-95055178D01*
X154921106Y-95172911D01*
X154905635Y-95220525D01*
X154886771Y-95400000D01*
X154905635Y-95579475D01*
X154907675Y-95585753D01*
X154907675Y-95585754D01*
X154928190Y-95648893D01*
X154961401Y-95751107D01*
X154964704Y-95756829D01*
X154964705Y-95756830D01*
X155039859Y-95887000D01*
X155056597Y-95955995D01*
X155039859Y-96013000D01*
X154961401Y-96148893D01*
X154959359Y-96155178D01*
X154932547Y-96237699D01*
X154905635Y-96320525D01*
X154904945Y-96327088D01*
X154904945Y-96327089D01*
X154891422Y-96455754D01*
X154886771Y-96500000D01*
X153321451Y-96500000D01*
X153317454Y-96487699D01*
X153290641Y-96405178D01*
X153288599Y-96398893D01*
X153198367Y-96242607D01*
X153147177Y-96185754D01*
X153082035Y-96113407D01*
X153082034Y-96113406D01*
X153077613Y-96108496D01*
X153052879Y-96090525D01*
X152936957Y-96006303D01*
X152936956Y-96006302D01*
X152931615Y-96002422D01*
X152925587Y-95999738D01*
X152925585Y-95999737D01*
X152772783Y-95931705D01*
X152772781Y-95931705D01*
X152766752Y-95929020D01*
X152665004Y-95907393D01*
X152596689Y-95892872D01*
X152596685Y-95892872D01*
X152590232Y-95891500D01*
X152409768Y-95891500D01*
X152403315Y-95892872D01*
X152403311Y-95892872D01*
X152334996Y-95907393D01*
X152233248Y-95929020D01*
X152227219Y-95931704D01*
X152227217Y-95931705D01*
X152074416Y-95999737D01*
X152074414Y-95999738D01*
X152068386Y-96002422D01*
X152063045Y-96006302D01*
X152063044Y-96006303D01*
X151927731Y-96104613D01*
X151927729Y-96104615D01*
X151922387Y-96108496D01*
X151917966Y-96113406D01*
X151917965Y-96113407D01*
X151852824Y-96185754D01*
X151801633Y-96242607D01*
X151711401Y-96398893D01*
X151709359Y-96405178D01*
X151682547Y-96487699D01*
X151655635Y-96570525D01*
X151654945Y-96577088D01*
X151654945Y-96577089D01*
X151646737Y-96655178D01*
X151636771Y-96750000D01*
X151637461Y-96756565D01*
X151648000Y-96856830D01*
X151655635Y-96929475D01*
X151657675Y-96935753D01*
X151657675Y-96935754D01*
X151682954Y-97013554D01*
X151711401Y-97101107D01*
X151801633Y-97257393D01*
X151806051Y-97262300D01*
X151806052Y-97262301D01*
X151849473Y-97310525D01*
X151922387Y-97391504D01*
X151927729Y-97395385D01*
X151927731Y-97395387D01*
X151950831Y-97412170D01*
X152068385Y-97497578D01*
X152074413Y-97500262D01*
X152074415Y-97500263D01*
X152096045Y-97509893D01*
X152150141Y-97555873D01*
X152170790Y-97623800D01*
X152151438Y-97692108D01*
X152096046Y-97740106D01*
X152074421Y-97749734D01*
X152074413Y-97749738D01*
X152068386Y-97752422D01*
X152063045Y-97756302D01*
X152063044Y-97756303D01*
X151927731Y-97854613D01*
X151927729Y-97854615D01*
X151922387Y-97858496D01*
X151917966Y-97863406D01*
X151917965Y-97863407D01*
X151815134Y-97977613D01*
X151801633Y-97992607D01*
X151746689Y-98087773D01*
X151714806Y-98142996D01*
X151711401Y-98148893D01*
X151709359Y-98155178D01*
X151658291Y-98312352D01*
X151655635Y-98320525D01*
X151636771Y-98500000D01*
X144263229Y-98500000D01*
X144244365Y-98320525D01*
X144241710Y-98312352D01*
X144190641Y-98155178D01*
X144188599Y-98148893D01*
X144185195Y-98142996D01*
X144153311Y-98087773D01*
X144098367Y-97992607D01*
X144084867Y-97977613D01*
X143982035Y-97863407D01*
X143982034Y-97863406D01*
X143977613Y-97858496D01*
X143956109Y-97842872D01*
X143927865Y-97822352D01*
X143890039Y-97794870D01*
X143846686Y-97738649D01*
X143840611Y-97667913D01*
X143867016Y-97612620D01*
X143881783Y-97594770D01*
X143885876Y-97587201D01*
X143977584Y-97417590D01*
X143977586Y-97417585D01*
X143980514Y-97412170D01*
X144041898Y-97213871D01*
X144043429Y-97199303D01*
X144062952Y-97013554D01*
X144062952Y-97013552D01*
X144063596Y-97007425D01*
X144060944Y-96978288D01*
X144074689Y-96908637D01*
X144123909Y-96857472D01*
X144160229Y-96843622D01*
X144260294Y-96822353D01*
X144260297Y-96822352D01*
X144266752Y-96820980D01*
X144297709Y-96807197D01*
X144425585Y-96750263D01*
X144425587Y-96750262D01*
X144431615Y-96747578D01*
X144435502Y-96744754D01*
X144503849Y-96728172D01*
X144570941Y-96751391D01*
X144614830Y-96807197D01*
X144621579Y-96877872D01*
X144591492Y-96938339D01*
X144551633Y-96982607D01*
X144529892Y-97020263D01*
X144468194Y-97127128D01*
X144461401Y-97138893D01*
X144405635Y-97310525D01*
X144404945Y-97317088D01*
X144404945Y-97317089D01*
X144397640Y-97386593D01*
X144386771Y-97490000D01*
X144387461Y-97496565D01*
X144401087Y-97626200D01*
X144405635Y-97669475D01*
X144461401Y-97841107D01*
X144464704Y-97846829D01*
X144464705Y-97846830D01*
X144471443Y-97858500D01*
X144551633Y-97997393D01*
X144556051Y-98002300D01*
X144556052Y-98002301D01*
X144603154Y-98054613D01*
X144672387Y-98131504D01*
X144677729Y-98135385D01*
X144677731Y-98135387D01*
X144756488Y-98192607D01*
X144818385Y-98237578D01*
X144824413Y-98240262D01*
X144824415Y-98240263D01*
X144977217Y-98308295D01*
X144983248Y-98310980D01*
X145059036Y-98327089D01*
X145153311Y-98347128D01*
X145153315Y-98347128D01*
X145159768Y-98348500D01*
X145340232Y-98348500D01*
X145346685Y-98347128D01*
X145346689Y-98347128D01*
X145440964Y-98327089D01*
X145516752Y-98310980D01*
X145522783Y-98308295D01*
X145675585Y-98240263D01*
X145675587Y-98240262D01*
X145681615Y-98237578D01*
X145743512Y-98192607D01*
X145822269Y-98135387D01*
X145822271Y-98135385D01*
X145827613Y-98131504D01*
X145896846Y-98054613D01*
X145943948Y-98002301D01*
X145943949Y-98002300D01*
X145948367Y-97997393D01*
X146028557Y-97858500D01*
X146035295Y-97846830D01*
X146035296Y-97846829D01*
X146038599Y-97841107D01*
X146094365Y-97669475D01*
X146098914Y-97626200D01*
X146112539Y-97496565D01*
X146113229Y-97490000D01*
X146102360Y-97386593D01*
X146095055Y-97317089D01*
X146095055Y-97317088D01*
X146094365Y-97310525D01*
X146038599Y-97138893D01*
X146031807Y-97127128D01*
X145970108Y-97020263D01*
X145948367Y-96982607D01*
X145906181Y-96935754D01*
X145832035Y-96853407D01*
X145832034Y-96853406D01*
X145827613Y-96848496D01*
X145822269Y-96844613D01*
X145817362Y-96840195D01*
X145818927Y-96838457D01*
X145782111Y-96790710D01*
X145776037Y-96719973D01*
X145809171Y-96657183D01*
X145817504Y-96649963D01*
X145817362Y-96649805D01*
X145822269Y-96645387D01*
X145827613Y-96641504D01*
X145875941Y-96587830D01*
X145943948Y-96512301D01*
X145943949Y-96512300D01*
X145948367Y-96507393D01*
X146038599Y-96351107D01*
X146094365Y-96179475D01*
X146102234Y-96104613D01*
X146112539Y-96006565D01*
X146113229Y-96000000D01*
X146094365Y-95820525D01*
X146073670Y-95756830D01*
X146040641Y-95655178D01*
X146038599Y-95648893D01*
X145948367Y-95492607D01*
X145870895Y-95406565D01*
X145832035Y-95363407D01*
X145832034Y-95363406D01*
X145827613Y-95358496D01*
X145811645Y-95346894D01*
X145686957Y-95256303D01*
X145686956Y-95256302D01*
X145681615Y-95252422D01*
X145675587Y-95249738D01*
X145675585Y-95249737D01*
X145522783Y-95181705D01*
X145522781Y-95181705D01*
X145516752Y-95179020D01*
X145428492Y-95160260D01*
X145346689Y-95142872D01*
X145346685Y-95142872D01*
X145340232Y-95141500D01*
X145159768Y-95141500D01*
X145153315Y-95142872D01*
X145153311Y-95142872D01*
X145071508Y-95160260D01*
X144983248Y-95179020D01*
X144977219Y-95181704D01*
X144977217Y-95181705D01*
X144824416Y-95249737D01*
X144824414Y-95249738D01*
X144818386Y-95252422D01*
X144813045Y-95256302D01*
X144813044Y-95256303D01*
X144699061Y-95339116D01*
X144632193Y-95362975D01*
X144563041Y-95346894D01*
X144550939Y-95339116D01*
X144436957Y-95256303D01*
X144436956Y-95256302D01*
X144431615Y-95252422D01*
X144425587Y-95249738D01*
X144425585Y-95249737D01*
X144272783Y-95181705D01*
X144272781Y-95181705D01*
X144266752Y-95179020D01*
X144178492Y-95160260D01*
X144096689Y-95142872D01*
X144096685Y-95142872D01*
X144090232Y-95141500D01*
X143909768Y-95141500D01*
X143903315Y-95142872D01*
X143903311Y-95142872D01*
X143821508Y-95160260D01*
X143733248Y-95179020D01*
X143727219Y-95181704D01*
X143727217Y-95181705D01*
X143574416Y-95249737D01*
X143574414Y-95249738D01*
X143568386Y-95252422D01*
X143563045Y-95256302D01*
X143563044Y-95256303D01*
X143427731Y-95354613D01*
X143427729Y-95354615D01*
X143422387Y-95358496D01*
X143417966Y-95363406D01*
X143417965Y-95363407D01*
X143379106Y-95406565D01*
X143301633Y-95492607D01*
X143211401Y-95648893D01*
X143209359Y-95655178D01*
X143176331Y-95756830D01*
X143155635Y-95820525D01*
X143154945Y-95827089D01*
X143154945Y-95827090D01*
X143154779Y-95828668D01*
X143154428Y-95829521D01*
X143153571Y-95833553D01*
X143152834Y-95833396D01*
X143127767Y-95894325D01*
X143069547Y-95934956D01*
X143029469Y-95941500D01*
X142947763Y-95941500D01*
X142944707Y-95941800D01*
X142944700Y-95941800D01*
X142799534Y-95956034D01*
X142799531Y-95956035D01*
X142793408Y-95956635D01*
X142661454Y-95996474D01*
X142600593Y-96014848D01*
X142600590Y-96014849D01*
X142594685Y-96016632D01*
X142589240Y-96019527D01*
X142589238Y-96019528D01*
X142416847Y-96111191D01*
X142416845Y-96111192D01*
X142411401Y-96114087D01*
X142406622Y-96117985D01*
X142255311Y-96241390D01*
X142255308Y-96241393D01*
X142250536Y-96245285D01*
X142246608Y-96250033D01*
X142246607Y-96250034D01*
X142182861Y-96327089D01*
X142118217Y-96405230D01*
X142115288Y-96410647D01*
X142115286Y-96410650D01*
X142022416Y-96582410D01*
X142022414Y-96582415D01*
X142019486Y-96587830D01*
X141958102Y-96786129D01*
X141957458Y-96792254D01*
X141957458Y-96792255D01*
X141937452Y-96982607D01*
X141936404Y-96992575D01*
X139508500Y-96992575D01*
X139508500Y-94250000D01*
X151636771Y-94250000D01*
X151637461Y-94256565D01*
X151647767Y-94354613D01*
X151655635Y-94429475D01*
X151711401Y-94601107D01*
X151801633Y-94757393D01*
X151806051Y-94762300D01*
X151806052Y-94762301D01*
X151917965Y-94886593D01*
X151922387Y-94891504D01*
X151927729Y-94895385D01*
X151927731Y-94895387D01*
X152063043Y-94993697D01*
X152068385Y-94997578D01*
X152074413Y-95000262D01*
X152074415Y-95000263D01*
X152183640Y-95048893D01*
X152233248Y-95070980D01*
X152321508Y-95089740D01*
X152403311Y-95107128D01*
X152403315Y-95107128D01*
X152409768Y-95108500D01*
X152590232Y-95108500D01*
X152596685Y-95107128D01*
X152596689Y-95107128D01*
X152678492Y-95089740D01*
X152766752Y-95070980D01*
X152816360Y-95048893D01*
X152925585Y-95000263D01*
X152925587Y-95000262D01*
X152931615Y-94997578D01*
X152936957Y-94993697D01*
X153072269Y-94895387D01*
X153072271Y-94895385D01*
X153077613Y-94891504D01*
X153082035Y-94886593D01*
X153193948Y-94762301D01*
X153193949Y-94762300D01*
X153198367Y-94757393D01*
X153288599Y-94601107D01*
X153344365Y-94429475D01*
X153352234Y-94354613D01*
X153362539Y-94256565D01*
X153363229Y-94250000D01*
X153344365Y-94070525D01*
X153288599Y-93898893D01*
X153198367Y-93742607D01*
X153077613Y-93608496D01*
X152996739Y-93549737D01*
X152936957Y-93506303D01*
X152936956Y-93506302D01*
X152931615Y-93502422D01*
X152925587Y-93499738D01*
X152925585Y-93499737D01*
X152772783Y-93431705D01*
X152772781Y-93431705D01*
X152766752Y-93429020D01*
X152678492Y-93410260D01*
X152596689Y-93392872D01*
X152596685Y-93392872D01*
X152590232Y-93391500D01*
X152409768Y-93391500D01*
X152403315Y-93392872D01*
X152403311Y-93392872D01*
X152321508Y-93410260D01*
X152233248Y-93429020D01*
X152227219Y-93431704D01*
X152227217Y-93431705D01*
X152074416Y-93499737D01*
X152074414Y-93499738D01*
X152068386Y-93502422D01*
X152063045Y-93506302D01*
X152063044Y-93506303D01*
X151927731Y-93604613D01*
X151927729Y-93604615D01*
X151922387Y-93608496D01*
X151801633Y-93742607D01*
X151711401Y-93898893D01*
X151655635Y-94070525D01*
X151636771Y-94250000D01*
X139508500Y-94250000D01*
X139508500Y-92100000D01*
X154886771Y-92100000D01*
X154905635Y-92279475D01*
X154961401Y-92451107D01*
X155051633Y-92607393D01*
X155172387Y-92741504D01*
X155177729Y-92745385D01*
X155177731Y-92745387D01*
X155268187Y-92811107D01*
X155318385Y-92847578D01*
X155324413Y-92850262D01*
X155324415Y-92850263D01*
X155477217Y-92918295D01*
X155483248Y-92920980D01*
X155571508Y-92939740D01*
X155653311Y-92957128D01*
X155653315Y-92957128D01*
X155659768Y-92958500D01*
X155840232Y-92958500D01*
X155846685Y-92957128D01*
X155846689Y-92957128D01*
X155928492Y-92939740D01*
X156016752Y-92920980D01*
X156022783Y-92918295D01*
X156175585Y-92850263D01*
X156175587Y-92850262D01*
X156181615Y-92847578D01*
X156231813Y-92811107D01*
X156322269Y-92745387D01*
X156322271Y-92745385D01*
X156327613Y-92741504D01*
X156448367Y-92607393D01*
X156538599Y-92451107D01*
X156594365Y-92279475D01*
X156613229Y-92100000D01*
X156594365Y-91920525D01*
X156538959Y-91750000D01*
X159636771Y-91750000D01*
X159655635Y-91929475D01*
X159711401Y-92101107D01*
X159801633Y-92257393D01*
X159922387Y-92391504D01*
X159927729Y-92395385D01*
X159927731Y-92395387D01*
X160012300Y-92456830D01*
X160068385Y-92497578D01*
X160074413Y-92500262D01*
X160074415Y-92500263D01*
X160227217Y-92568295D01*
X160233248Y-92570980D01*
X160321508Y-92589740D01*
X160403311Y-92607128D01*
X160403315Y-92607128D01*
X160409768Y-92608500D01*
X160590232Y-92608500D01*
X160596685Y-92607128D01*
X160596689Y-92607128D01*
X160678492Y-92589740D01*
X160766752Y-92570980D01*
X160772783Y-92568295D01*
X160925585Y-92500263D01*
X160925587Y-92500262D01*
X160931615Y-92497578D01*
X160983337Y-92460000D01*
X164636771Y-92460000D01*
X164637461Y-92466565D01*
X164648154Y-92568295D01*
X164655635Y-92639475D01*
X164711401Y-92811107D01*
X164801633Y-92967393D01*
X164922387Y-93101504D01*
X165068385Y-93207578D01*
X165074413Y-93210262D01*
X165074415Y-93210263D01*
X165227217Y-93278295D01*
X165233248Y-93280980D01*
X165321508Y-93299740D01*
X165403311Y-93317128D01*
X165403315Y-93317128D01*
X165409768Y-93318500D01*
X165590232Y-93318500D01*
X165596685Y-93317128D01*
X165596689Y-93317128D01*
X165678492Y-93299740D01*
X165766752Y-93280980D01*
X165772783Y-93278295D01*
X165925585Y-93210263D01*
X165925587Y-93210262D01*
X165931615Y-93207578D01*
X166077613Y-93101504D01*
X166198367Y-92967393D01*
X166288599Y-92811107D01*
X166344365Y-92639475D01*
X166351847Y-92568295D01*
X166362539Y-92466565D01*
X166363229Y-92460000D01*
X168636771Y-92460000D01*
X168637461Y-92466565D01*
X168648154Y-92568295D01*
X168655635Y-92639475D01*
X168711401Y-92811107D01*
X168801633Y-92967393D01*
X168922387Y-93101504D01*
X169068385Y-93207578D01*
X169074413Y-93210262D01*
X169074415Y-93210263D01*
X169227217Y-93278295D01*
X169233248Y-93280980D01*
X169321508Y-93299740D01*
X169403311Y-93317128D01*
X169403315Y-93317128D01*
X169409768Y-93318500D01*
X169590232Y-93318500D01*
X169596685Y-93317128D01*
X169596689Y-93317128D01*
X169678492Y-93299740D01*
X169766752Y-93280980D01*
X169772783Y-93278295D01*
X169925585Y-93210263D01*
X169925587Y-93210262D01*
X169931615Y-93207578D01*
X170077613Y-93101504D01*
X170198367Y-92967393D01*
X170288599Y-92811107D01*
X170344365Y-92639475D01*
X170351847Y-92568295D01*
X170362539Y-92466565D01*
X170363229Y-92460000D01*
X170344365Y-92280525D01*
X170288599Y-92108893D01*
X170198367Y-91952607D01*
X170112398Y-91857128D01*
X170082035Y-91823407D01*
X170082034Y-91823406D01*
X170077613Y-91818496D01*
X169992373Y-91756565D01*
X169936957Y-91716303D01*
X169936956Y-91716302D01*
X169931615Y-91712422D01*
X169925587Y-91709738D01*
X169925585Y-91709737D01*
X169772783Y-91641705D01*
X169772781Y-91641705D01*
X169766752Y-91639020D01*
X169678492Y-91620260D01*
X169596689Y-91602872D01*
X169596685Y-91602872D01*
X169590232Y-91601500D01*
X169409768Y-91601500D01*
X169403315Y-91602872D01*
X169403311Y-91602872D01*
X169321508Y-91620260D01*
X169233248Y-91639020D01*
X169227219Y-91641704D01*
X169227217Y-91641705D01*
X169074416Y-91709737D01*
X169074414Y-91709738D01*
X169068386Y-91712422D01*
X169063045Y-91716302D01*
X169063044Y-91716303D01*
X168927731Y-91814613D01*
X168927729Y-91814615D01*
X168922387Y-91818496D01*
X168917966Y-91823406D01*
X168917965Y-91823407D01*
X168887603Y-91857128D01*
X168801633Y-91952607D01*
X168711401Y-92108893D01*
X168655635Y-92280525D01*
X168636771Y-92460000D01*
X166363229Y-92460000D01*
X166344365Y-92280525D01*
X166288599Y-92108893D01*
X166198367Y-91952607D01*
X166112398Y-91857128D01*
X166082035Y-91823407D01*
X166082034Y-91823406D01*
X166077613Y-91818496D01*
X165992373Y-91756565D01*
X165936957Y-91716303D01*
X165936956Y-91716302D01*
X165931615Y-91712422D01*
X165925587Y-91709738D01*
X165925585Y-91709737D01*
X165772783Y-91641705D01*
X165772781Y-91641705D01*
X165766752Y-91639020D01*
X165678492Y-91620260D01*
X165596689Y-91602872D01*
X165596685Y-91602872D01*
X165590232Y-91601500D01*
X165409768Y-91601500D01*
X165403315Y-91602872D01*
X165403311Y-91602872D01*
X165321508Y-91620260D01*
X165233248Y-91639020D01*
X165227219Y-91641704D01*
X165227217Y-91641705D01*
X165074416Y-91709737D01*
X165074414Y-91709738D01*
X165068386Y-91712422D01*
X165063045Y-91716302D01*
X165063044Y-91716303D01*
X164927731Y-91814613D01*
X164927729Y-91814615D01*
X164922387Y-91818496D01*
X164917966Y-91823406D01*
X164917965Y-91823407D01*
X164887603Y-91857128D01*
X164801633Y-91952607D01*
X164711401Y-92108893D01*
X164655635Y-92280525D01*
X164636771Y-92460000D01*
X160983337Y-92460000D01*
X160987700Y-92456830D01*
X161072269Y-92395387D01*
X161072271Y-92395385D01*
X161077613Y-92391504D01*
X161198367Y-92257393D01*
X161288599Y-92101107D01*
X161344365Y-91929475D01*
X161363229Y-91750000D01*
X161358997Y-91709737D01*
X161345055Y-91577089D01*
X161345055Y-91577088D01*
X161344365Y-91570525D01*
X161288599Y-91398893D01*
X161198367Y-91242607D01*
X161147177Y-91185754D01*
X161082035Y-91113407D01*
X161082034Y-91113406D01*
X161077613Y-91108496D01*
X160937318Y-91006565D01*
X160936957Y-91006303D01*
X160936956Y-91006302D01*
X160931615Y-91002422D01*
X160925587Y-90999738D01*
X160925585Y-90999737D01*
X160772783Y-90931705D01*
X160772781Y-90931705D01*
X160766752Y-90929020D01*
X160678492Y-90910260D01*
X160596689Y-90892872D01*
X160596685Y-90892872D01*
X160590232Y-90891500D01*
X160409768Y-90891500D01*
X160403315Y-90892872D01*
X160403311Y-90892872D01*
X160321508Y-90910260D01*
X160233248Y-90929020D01*
X160227219Y-90931704D01*
X160227217Y-90931705D01*
X160074416Y-90999737D01*
X160074414Y-90999738D01*
X160068386Y-91002422D01*
X160063045Y-91006302D01*
X160063044Y-91006303D01*
X159927731Y-91104613D01*
X159927729Y-91104615D01*
X159922387Y-91108496D01*
X159917966Y-91113406D01*
X159917965Y-91113407D01*
X159852824Y-91185754D01*
X159801633Y-91242607D01*
X159711401Y-91398893D01*
X159655635Y-91570525D01*
X159654945Y-91577088D01*
X159654945Y-91577089D01*
X159641003Y-91709737D01*
X159636771Y-91750000D01*
X156538959Y-91750000D01*
X156538599Y-91748893D01*
X156517543Y-91712422D01*
X156460141Y-91613000D01*
X156443403Y-91544005D01*
X156460141Y-91487000D01*
X156535295Y-91356830D01*
X156535296Y-91356829D01*
X156538599Y-91351107D01*
X156594365Y-91179475D01*
X156602234Y-91104613D01*
X156612539Y-91006565D01*
X156613229Y-91000000D01*
X156594365Y-90820525D01*
X156538599Y-90648893D01*
X156448367Y-90492607D01*
X156327613Y-90358496D01*
X156181615Y-90252422D01*
X156175587Y-90249738D01*
X156175585Y-90249737D01*
X156022783Y-90181705D01*
X156022781Y-90181705D01*
X156016752Y-90179020D01*
X155928492Y-90160260D01*
X155846689Y-90142872D01*
X155846685Y-90142872D01*
X155840232Y-90141500D01*
X155659768Y-90141500D01*
X155653315Y-90142872D01*
X155653311Y-90142872D01*
X155571508Y-90160260D01*
X155483248Y-90179020D01*
X155477219Y-90181704D01*
X155477217Y-90181705D01*
X155324416Y-90249737D01*
X155324414Y-90249738D01*
X155318386Y-90252422D01*
X155313045Y-90256302D01*
X155313044Y-90256303D01*
X155177731Y-90354613D01*
X155177729Y-90354615D01*
X155172387Y-90358496D01*
X155051633Y-90492607D01*
X154961401Y-90648893D01*
X154905635Y-90820525D01*
X154886771Y-91000000D01*
X154887461Y-91006565D01*
X154897767Y-91104613D01*
X154905635Y-91179475D01*
X154961401Y-91351107D01*
X154964704Y-91356829D01*
X154964705Y-91356830D01*
X155039859Y-91487000D01*
X155056597Y-91555995D01*
X155039859Y-91613000D01*
X154982458Y-91712422D01*
X154961401Y-91748893D01*
X154905635Y-91920525D01*
X154886771Y-92100000D01*
X139508500Y-92100000D01*
X139508500Y-88992575D01*
X141936404Y-88992575D01*
X141941214Y-89045430D01*
X141948557Y-89126107D01*
X141955218Y-89199303D01*
X141956956Y-89205209D01*
X141956957Y-89205213D01*
X141981117Y-89287301D01*
X142013827Y-89398440D01*
X142109999Y-89582400D01*
X142240071Y-89744177D01*
X142244788Y-89748135D01*
X142244790Y-89748137D01*
X142348681Y-89835312D01*
X142399089Y-89877609D01*
X142404481Y-89880573D01*
X142404485Y-89880576D01*
X142575598Y-89974646D01*
X142580995Y-89977613D01*
X142614363Y-89988198D01*
X142617891Y-89989317D01*
X142676775Y-90028981D01*
X142704867Y-90094183D01*
X142693249Y-90164223D01*
X142645609Y-90216862D01*
X142631041Y-90224526D01*
X142574416Y-90249737D01*
X142574414Y-90249738D01*
X142568386Y-90252422D01*
X142563045Y-90256302D01*
X142563044Y-90256303D01*
X142427731Y-90354613D01*
X142427729Y-90354615D01*
X142422387Y-90358496D01*
X142301633Y-90492607D01*
X142211401Y-90648893D01*
X142155635Y-90820525D01*
X142136771Y-91000000D01*
X142137461Y-91006565D01*
X142147767Y-91104613D01*
X142155635Y-91179475D01*
X142211401Y-91351107D01*
X142301633Y-91507393D01*
X142306051Y-91512300D01*
X142306052Y-91512301D01*
X142396722Y-91613000D01*
X142422387Y-91641504D01*
X142427729Y-91645385D01*
X142427731Y-91645387D01*
X142563043Y-91743697D01*
X142568385Y-91747578D01*
X142574413Y-91750262D01*
X142574415Y-91750263D01*
X142727217Y-91818295D01*
X142733248Y-91820980D01*
X142821508Y-91839740D01*
X142903311Y-91857128D01*
X142903315Y-91857128D01*
X142909768Y-91858500D01*
X143090232Y-91858500D01*
X143096685Y-91857128D01*
X143096689Y-91857128D01*
X143178492Y-91839740D01*
X143266752Y-91820980D01*
X143272783Y-91818295D01*
X143425585Y-91750263D01*
X143425587Y-91750262D01*
X143431615Y-91747578D01*
X143436957Y-91743697D01*
X143572269Y-91645387D01*
X143572271Y-91645385D01*
X143577613Y-91641504D01*
X143603278Y-91613000D01*
X143693948Y-91512301D01*
X143693949Y-91512300D01*
X143698367Y-91507393D01*
X143788599Y-91351107D01*
X143844365Y-91179475D01*
X143852234Y-91104613D01*
X143862539Y-91006565D01*
X143863229Y-91000000D01*
X151636771Y-91000000D01*
X151637461Y-91006565D01*
X151647767Y-91104613D01*
X151655635Y-91179475D01*
X151711401Y-91351107D01*
X151801633Y-91507393D01*
X151806051Y-91512300D01*
X151806052Y-91512301D01*
X151896722Y-91613000D01*
X151922387Y-91641504D01*
X151927729Y-91645385D01*
X151927731Y-91645387D01*
X152063043Y-91743697D01*
X152068385Y-91747578D01*
X152074413Y-91750262D01*
X152074415Y-91750263D01*
X152227217Y-91818295D01*
X152233248Y-91820980D01*
X152321508Y-91839740D01*
X152403311Y-91857128D01*
X152403315Y-91857128D01*
X152409768Y-91858500D01*
X152590232Y-91858500D01*
X152596685Y-91857128D01*
X152596689Y-91857128D01*
X152678492Y-91839740D01*
X152766752Y-91820980D01*
X152772783Y-91818295D01*
X152925585Y-91750263D01*
X152925587Y-91750262D01*
X152931615Y-91747578D01*
X152936957Y-91743697D01*
X153072269Y-91645387D01*
X153072271Y-91645385D01*
X153077613Y-91641504D01*
X153103278Y-91613000D01*
X153193948Y-91512301D01*
X153193949Y-91512300D01*
X153198367Y-91507393D01*
X153288599Y-91351107D01*
X153344365Y-91179475D01*
X153352234Y-91104613D01*
X153362539Y-91006565D01*
X153363229Y-91000000D01*
X153344365Y-90820525D01*
X153288599Y-90648893D01*
X153198367Y-90492607D01*
X153077613Y-90358496D01*
X152931615Y-90252422D01*
X152925587Y-90249738D01*
X152925585Y-90249737D01*
X152772783Y-90181705D01*
X152772781Y-90181705D01*
X152766752Y-90179020D01*
X152678492Y-90160260D01*
X152596689Y-90142872D01*
X152596685Y-90142872D01*
X152590232Y-90141500D01*
X152409768Y-90141500D01*
X152403315Y-90142872D01*
X152403311Y-90142872D01*
X152321508Y-90160260D01*
X152233248Y-90179020D01*
X152227219Y-90181704D01*
X152227217Y-90181705D01*
X152074416Y-90249737D01*
X152074414Y-90249738D01*
X152068386Y-90252422D01*
X152063045Y-90256302D01*
X152063044Y-90256303D01*
X151927731Y-90354613D01*
X151927729Y-90354615D01*
X151922387Y-90358496D01*
X151801633Y-90492607D01*
X151711401Y-90648893D01*
X151655635Y-90820525D01*
X151636771Y-91000000D01*
X143863229Y-91000000D01*
X143844365Y-90820525D01*
X143788599Y-90648893D01*
X143698367Y-90492607D01*
X143577613Y-90358496D01*
X143431615Y-90252422D01*
X143425587Y-90249738D01*
X143425585Y-90249737D01*
X143370391Y-90225163D01*
X143316295Y-90179182D01*
X143295646Y-90111255D01*
X143314999Y-90042947D01*
X143368209Y-89995946D01*
X143385223Y-89989434D01*
X143399407Y-89985152D01*
X143399410Y-89985151D01*
X143405315Y-89983368D01*
X143412637Y-89979475D01*
X143583153Y-89888809D01*
X143583155Y-89888808D01*
X143588599Y-89885913D01*
X143648471Y-89837083D01*
X143744689Y-89758610D01*
X143744692Y-89758607D01*
X143749464Y-89754715D01*
X143881783Y-89594770D01*
X143885876Y-89587201D01*
X143977584Y-89417590D01*
X143977586Y-89417585D01*
X143980514Y-89412170D01*
X143985353Y-89396537D01*
X147144220Y-89396537D01*
X147163084Y-89576012D01*
X147165124Y-89582290D01*
X147165124Y-89582291D01*
X147169179Y-89594770D01*
X147218850Y-89747644D01*
X147309082Y-89903930D01*
X147313500Y-89908837D01*
X147313501Y-89908838D01*
X147421678Y-90028981D01*
X147429836Y-90038041D01*
X147435178Y-90041922D01*
X147435180Y-90041924D01*
X147530606Y-90111255D01*
X147575834Y-90144115D01*
X147581862Y-90146799D01*
X147581864Y-90146800D01*
X147654595Y-90179182D01*
X147740697Y-90217517D01*
X147828957Y-90236277D01*
X147910760Y-90253665D01*
X147910764Y-90253665D01*
X147917217Y-90255037D01*
X148097681Y-90255037D01*
X148104134Y-90253665D01*
X148104138Y-90253665D01*
X148185941Y-90236277D01*
X148274201Y-90217517D01*
X148360303Y-90179182D01*
X148433034Y-90146800D01*
X148433036Y-90146799D01*
X148439064Y-90144115D01*
X148484292Y-90111255D01*
X148579718Y-90041924D01*
X148579720Y-90041922D01*
X148585062Y-90038041D01*
X148593220Y-90028981D01*
X148701397Y-89908838D01*
X148701398Y-89908837D01*
X148705816Y-89903930D01*
X148796048Y-89747644D01*
X148845719Y-89594770D01*
X148849774Y-89582291D01*
X148849774Y-89582290D01*
X148851814Y-89576012D01*
X148870678Y-89396537D01*
X148851814Y-89217062D01*
X148796048Y-89045430D01*
X148705816Y-88889144D01*
X148603040Y-88775000D01*
X160886771Y-88775000D01*
X160905635Y-88954475D01*
X160961401Y-89126107D01*
X161051633Y-89282393D01*
X161172387Y-89416504D01*
X161318385Y-89522578D01*
X161324413Y-89525262D01*
X161324415Y-89525263D01*
X161477217Y-89593295D01*
X161483248Y-89595980D01*
X161571508Y-89614740D01*
X161653311Y-89632128D01*
X161653315Y-89632128D01*
X161659768Y-89633500D01*
X161840232Y-89633500D01*
X161846685Y-89632128D01*
X161846689Y-89632128D01*
X161928492Y-89614740D01*
X162016752Y-89595980D01*
X162022783Y-89593295D01*
X162175585Y-89525263D01*
X162175587Y-89525262D01*
X162181615Y-89522578D01*
X162327613Y-89416504D01*
X162448367Y-89282393D01*
X162538599Y-89126107D01*
X162594365Y-88954475D01*
X162613229Y-88775000D01*
X164886770Y-88775000D01*
X164905634Y-88954475D01*
X164961400Y-89126107D01*
X165051632Y-89282393D01*
X165172386Y-89416504D01*
X165318384Y-89522578D01*
X165324412Y-89525262D01*
X165324414Y-89525263D01*
X165477216Y-89593295D01*
X165483247Y-89595980D01*
X165571507Y-89614740D01*
X165653310Y-89632128D01*
X165653314Y-89632128D01*
X165659767Y-89633500D01*
X165840231Y-89633500D01*
X165846684Y-89632128D01*
X165846688Y-89632128D01*
X165928491Y-89614740D01*
X166016751Y-89595980D01*
X166022782Y-89593295D01*
X166175584Y-89525263D01*
X166175586Y-89525262D01*
X166181614Y-89522578D01*
X166327612Y-89416504D01*
X166448366Y-89282393D01*
X166538598Y-89126107D01*
X166594364Y-88954475D01*
X166613228Y-88775000D01*
X166594364Y-88595525D01*
X166588749Y-88578242D01*
X166540640Y-88430178D01*
X166538598Y-88423893D01*
X166448366Y-88267607D01*
X166432750Y-88250263D01*
X166332034Y-88138407D01*
X166332033Y-88138406D01*
X166327612Y-88133496D01*
X166317777Y-88126350D01*
X166186956Y-88031303D01*
X166186955Y-88031302D01*
X166181614Y-88027422D01*
X166175586Y-88024738D01*
X166175584Y-88024737D01*
X166022782Y-87956705D01*
X166022780Y-87956705D01*
X166016751Y-87954020D01*
X165928491Y-87935260D01*
X165846688Y-87917872D01*
X165846684Y-87917872D01*
X165840231Y-87916500D01*
X165659767Y-87916500D01*
X165653314Y-87917872D01*
X165653310Y-87917872D01*
X165571507Y-87935260D01*
X165483247Y-87954020D01*
X165477218Y-87956704D01*
X165477216Y-87956705D01*
X165324415Y-88024737D01*
X165324413Y-88024738D01*
X165318385Y-88027422D01*
X165313044Y-88031302D01*
X165313043Y-88031303D01*
X165177730Y-88129613D01*
X165177728Y-88129615D01*
X165172386Y-88133496D01*
X165167965Y-88138406D01*
X165167964Y-88138407D01*
X165067249Y-88250263D01*
X165051632Y-88267607D01*
X164961400Y-88423893D01*
X164959358Y-88430178D01*
X164911250Y-88578242D01*
X164905634Y-88595525D01*
X164886770Y-88775000D01*
X162613229Y-88775000D01*
X162594365Y-88595525D01*
X162588750Y-88578242D01*
X162540641Y-88430178D01*
X162538599Y-88423893D01*
X162448367Y-88267607D01*
X162432751Y-88250263D01*
X162332035Y-88138407D01*
X162332034Y-88138406D01*
X162327613Y-88133496D01*
X162317778Y-88126350D01*
X162186957Y-88031303D01*
X162186956Y-88031302D01*
X162181615Y-88027422D01*
X162175587Y-88024738D01*
X162175585Y-88024737D01*
X162022783Y-87956705D01*
X162022781Y-87956705D01*
X162016752Y-87954020D01*
X161928492Y-87935260D01*
X161846689Y-87917872D01*
X161846685Y-87917872D01*
X161840232Y-87916500D01*
X161659768Y-87916500D01*
X161653315Y-87917872D01*
X161653311Y-87917872D01*
X161571508Y-87935260D01*
X161483248Y-87954020D01*
X161477219Y-87956704D01*
X161477217Y-87956705D01*
X161324416Y-88024737D01*
X161324414Y-88024738D01*
X161318386Y-88027422D01*
X161313045Y-88031302D01*
X161313044Y-88031303D01*
X161177731Y-88129613D01*
X161177729Y-88129615D01*
X161172387Y-88133496D01*
X161167966Y-88138406D01*
X161167965Y-88138407D01*
X161067250Y-88250263D01*
X161051633Y-88267607D01*
X160961401Y-88423893D01*
X160959359Y-88430178D01*
X160911251Y-88578242D01*
X160905635Y-88595525D01*
X160886771Y-88775000D01*
X148603040Y-88775000D01*
X148585062Y-88755033D01*
X148439064Y-88648959D01*
X148433036Y-88646275D01*
X148433034Y-88646274D01*
X148280232Y-88578242D01*
X148280230Y-88578242D01*
X148274201Y-88575557D01*
X148185941Y-88556797D01*
X148104138Y-88539409D01*
X148104134Y-88539409D01*
X148097681Y-88538037D01*
X147917217Y-88538037D01*
X147910764Y-88539409D01*
X147910760Y-88539409D01*
X147828957Y-88556797D01*
X147740697Y-88575557D01*
X147734668Y-88578241D01*
X147734666Y-88578242D01*
X147581865Y-88646274D01*
X147581863Y-88646275D01*
X147575835Y-88648959D01*
X147570494Y-88652839D01*
X147570493Y-88652840D01*
X147435180Y-88751150D01*
X147435178Y-88751152D01*
X147429836Y-88755033D01*
X147309082Y-88889144D01*
X147218850Y-89045430D01*
X147163084Y-89217062D01*
X147144220Y-89396537D01*
X143985353Y-89396537D01*
X144041898Y-89213871D01*
X144043429Y-89199303D01*
X144062952Y-89013554D01*
X144062952Y-89013552D01*
X144063596Y-89007425D01*
X144053352Y-88894862D01*
X144045341Y-88806836D01*
X144045340Y-88806833D01*
X144044782Y-88800697D01*
X144042298Y-88792255D01*
X143987912Y-88607469D01*
X143986173Y-88601560D01*
X143890001Y-88417600D01*
X143759929Y-88255823D01*
X143747371Y-88245285D01*
X143651319Y-88164688D01*
X143600911Y-88122391D01*
X143595519Y-88119427D01*
X143595515Y-88119424D01*
X143424402Y-88025354D01*
X143419005Y-88022387D01*
X143221139Y-87959621D01*
X143215022Y-87958935D01*
X143215018Y-87958934D01*
X143138402Y-87950341D01*
X143059587Y-87941500D01*
X142947763Y-87941500D01*
X142944707Y-87941800D01*
X142944700Y-87941800D01*
X142799534Y-87956034D01*
X142799531Y-87956035D01*
X142793408Y-87956635D01*
X142661454Y-87996474D01*
X142600593Y-88014848D01*
X142600590Y-88014849D01*
X142594685Y-88016632D01*
X142589240Y-88019527D01*
X142589238Y-88019528D01*
X142416847Y-88111191D01*
X142416845Y-88111192D01*
X142411401Y-88114087D01*
X142373023Y-88145387D01*
X142255311Y-88241390D01*
X142255308Y-88241393D01*
X142250536Y-88245285D01*
X142118217Y-88405230D01*
X142115288Y-88410647D01*
X142115286Y-88410650D01*
X142022416Y-88582410D01*
X142022414Y-88582415D01*
X142019486Y-88587830D01*
X141958102Y-88786129D01*
X141957458Y-88792254D01*
X141957458Y-88792255D01*
X141955926Y-88806836D01*
X141936404Y-88992575D01*
X139508500Y-88992575D01*
X139508500Y-87500000D01*
X154386771Y-87500000D01*
X154405635Y-87679475D01*
X154461401Y-87851107D01*
X154551633Y-88007393D01*
X154556051Y-88012300D01*
X154556052Y-88012301D01*
X154667965Y-88136593D01*
X154672387Y-88141504D01*
X154818385Y-88247578D01*
X154824413Y-88250262D01*
X154824415Y-88250263D01*
X154977217Y-88318295D01*
X154983248Y-88320980D01*
X155071508Y-88339740D01*
X155153311Y-88357128D01*
X155153315Y-88357128D01*
X155159768Y-88358500D01*
X155340232Y-88358500D01*
X155346685Y-88357128D01*
X155346689Y-88357128D01*
X155428492Y-88339740D01*
X155516752Y-88320980D01*
X155522783Y-88318295D01*
X155675585Y-88250263D01*
X155675587Y-88250262D01*
X155681615Y-88247578D01*
X155827613Y-88141504D01*
X155832035Y-88136593D01*
X155943948Y-88012301D01*
X155943949Y-88012300D01*
X155948367Y-88007393D01*
X156038599Y-87851107D01*
X156094365Y-87679475D01*
X156113229Y-87500000D01*
X156094365Y-87320525D01*
X156038599Y-87148893D01*
X155948367Y-86992607D01*
X155882286Y-86919216D01*
X155832035Y-86863407D01*
X155832034Y-86863406D01*
X155827613Y-86858496D01*
X155681615Y-86752422D01*
X155675587Y-86749738D01*
X155675585Y-86749737D01*
X155522783Y-86681705D01*
X155522781Y-86681705D01*
X155516752Y-86679020D01*
X155428492Y-86660260D01*
X155346689Y-86642872D01*
X155346685Y-86642872D01*
X155340232Y-86641500D01*
X155159768Y-86641500D01*
X155153315Y-86642872D01*
X155153311Y-86642872D01*
X155071508Y-86660260D01*
X154983248Y-86679020D01*
X154977219Y-86681704D01*
X154977217Y-86681705D01*
X154824416Y-86749737D01*
X154824414Y-86749738D01*
X154818386Y-86752422D01*
X154813045Y-86756302D01*
X154813044Y-86756303D01*
X154677731Y-86854613D01*
X154677729Y-86854615D01*
X154672387Y-86858496D01*
X154667966Y-86863406D01*
X154667965Y-86863407D01*
X154617715Y-86919216D01*
X154551633Y-86992607D01*
X154461401Y-87148893D01*
X154405635Y-87320525D01*
X154386771Y-87500000D01*
X139508500Y-87500000D01*
X139508500Y-84750000D01*
X149386771Y-84750000D01*
X149387461Y-84756565D01*
X149396489Y-84842454D01*
X149405635Y-84929475D01*
X149461401Y-85101107D01*
X149551633Y-85257393D01*
X149672387Y-85391504D01*
X149677729Y-85395385D01*
X149677731Y-85395387D01*
X149813043Y-85493697D01*
X149818385Y-85497578D01*
X149824413Y-85500262D01*
X149824415Y-85500263D01*
X149971337Y-85565677D01*
X149983248Y-85570980D01*
X150071508Y-85589740D01*
X150153311Y-85607128D01*
X150153315Y-85607128D01*
X150159768Y-85608500D01*
X150308311Y-85608500D01*
X150376432Y-85628502D01*
X150422925Y-85682158D01*
X150433029Y-85752432D01*
X150403535Y-85817012D01*
X150382372Y-85836436D01*
X150263608Y-85922722D01*
X150263606Y-85922724D01*
X150258264Y-85926605D01*
X150137510Y-86060716D01*
X150047278Y-86217002D01*
X149991512Y-86388634D01*
X149972648Y-86568109D01*
X149991512Y-86747584D01*
X150047278Y-86919216D01*
X150137510Y-87075502D01*
X150141928Y-87080409D01*
X150141929Y-87080410D01*
X150253842Y-87204702D01*
X150258264Y-87209613D01*
X150404262Y-87315687D01*
X150410290Y-87318371D01*
X150410292Y-87318372D01*
X150415128Y-87320525D01*
X150569125Y-87389089D01*
X150657385Y-87407849D01*
X150739188Y-87425237D01*
X150739192Y-87425237D01*
X150745645Y-87426609D01*
X150926109Y-87426609D01*
X150932562Y-87425237D01*
X150932566Y-87425237D01*
X151014369Y-87407849D01*
X151102629Y-87389089D01*
X151256626Y-87320525D01*
X151261462Y-87318372D01*
X151261464Y-87318371D01*
X151267492Y-87315687D01*
X151413490Y-87209613D01*
X151417912Y-87204702D01*
X151529825Y-87080410D01*
X151529826Y-87080409D01*
X151534244Y-87075502D01*
X151624476Y-86919216D01*
X151680242Y-86747584D01*
X151699106Y-86568109D01*
X151680242Y-86388634D01*
X151624476Y-86217002D01*
X151534244Y-86060716D01*
X151413490Y-85926605D01*
X151289384Y-85836436D01*
X151272834Y-85824412D01*
X151272833Y-85824411D01*
X151267492Y-85820531D01*
X151261464Y-85817847D01*
X151261462Y-85817846D01*
X151108660Y-85749814D01*
X151108658Y-85749814D01*
X151102629Y-85747129D01*
X151014369Y-85728369D01*
X150932566Y-85710981D01*
X150932562Y-85710981D01*
X150926109Y-85709609D01*
X150777567Y-85709609D01*
X150709446Y-85689607D01*
X150662953Y-85635951D01*
X150652849Y-85565677D01*
X150682343Y-85501097D01*
X150703506Y-85481673D01*
X150822269Y-85395387D01*
X150822271Y-85395385D01*
X150827613Y-85391504D01*
X150948367Y-85257393D01*
X151038599Y-85101107D01*
X151094365Y-84929475D01*
X151103512Y-84842454D01*
X151112539Y-84756565D01*
X151113229Y-84750000D01*
X151106400Y-84685030D01*
X151095055Y-84577089D01*
X151095055Y-84577088D01*
X151094365Y-84570525D01*
X151038599Y-84398893D01*
X150948367Y-84242607D01*
X150897177Y-84185754D01*
X150832035Y-84113407D01*
X150832034Y-84113406D01*
X150827613Y-84108496D01*
X150818584Y-84101936D01*
X150775230Y-84045713D01*
X150771304Y-84000000D01*
X155636771Y-84000000D01*
X155637461Y-84006565D01*
X155647767Y-84104613D01*
X155655635Y-84179475D01*
X155657675Y-84185753D01*
X155657675Y-84185754D01*
X155674553Y-84237699D01*
X155711401Y-84351107D01*
X155714704Y-84356829D01*
X155714705Y-84356830D01*
X155738990Y-84398893D01*
X155801633Y-84507393D01*
X155806051Y-84512300D01*
X155806052Y-84512301D01*
X155917965Y-84636593D01*
X155922387Y-84641504D01*
X155927729Y-84645385D01*
X155927731Y-84645387D01*
X156063043Y-84743697D01*
X156068385Y-84747578D01*
X156074413Y-84750262D01*
X156074415Y-84750263D01*
X156147070Y-84782611D01*
X156233248Y-84820980D01*
X156321508Y-84839740D01*
X156403311Y-84857128D01*
X156403315Y-84857128D01*
X156409768Y-84858500D01*
X156590232Y-84858500D01*
X156596685Y-84857128D01*
X156596689Y-84857128D01*
X156678492Y-84839740D01*
X156766752Y-84820980D01*
X156852930Y-84782611D01*
X156925585Y-84750263D01*
X156925587Y-84750262D01*
X156931615Y-84747578D01*
X156936957Y-84743697D01*
X157072269Y-84645387D01*
X157072271Y-84645385D01*
X157077613Y-84641504D01*
X157082035Y-84636593D01*
X157193948Y-84512301D01*
X157193949Y-84512300D01*
X157198367Y-84507393D01*
X157261010Y-84398893D01*
X157285295Y-84356830D01*
X157285296Y-84356829D01*
X157288599Y-84351107D01*
X157325447Y-84237699D01*
X157342325Y-84185754D01*
X157342325Y-84185753D01*
X157344365Y-84179475D01*
X157352234Y-84104613D01*
X157362539Y-84006565D01*
X157363229Y-84000000D01*
X157352515Y-83898064D01*
X157345055Y-83827089D01*
X157345055Y-83827088D01*
X157344365Y-83820525D01*
X157320993Y-83748591D01*
X157290641Y-83655178D01*
X157288599Y-83648893D01*
X157198367Y-83492607D01*
X157147177Y-83435754D01*
X157082035Y-83363407D01*
X157082034Y-83363406D01*
X157077613Y-83358496D01*
X157058793Y-83344822D01*
X156936957Y-83256303D01*
X156936956Y-83256302D01*
X156931615Y-83252422D01*
X156925587Y-83249738D01*
X156925585Y-83249737D01*
X156772783Y-83181705D01*
X156772781Y-83181705D01*
X156766752Y-83179020D01*
X156678492Y-83160260D01*
X156596689Y-83142872D01*
X156596685Y-83142872D01*
X156590232Y-83141500D01*
X156409768Y-83141500D01*
X156403315Y-83142872D01*
X156403311Y-83142872D01*
X156321508Y-83160260D01*
X156233248Y-83179020D01*
X156227219Y-83181704D01*
X156227217Y-83181705D01*
X156074416Y-83249737D01*
X156074414Y-83249738D01*
X156068386Y-83252422D01*
X156063045Y-83256302D01*
X156063044Y-83256303D01*
X155927731Y-83354613D01*
X155927729Y-83354615D01*
X155922387Y-83358496D01*
X155917966Y-83363406D01*
X155917965Y-83363407D01*
X155852824Y-83435754D01*
X155801633Y-83492607D01*
X155711401Y-83648893D01*
X155709359Y-83655178D01*
X155679008Y-83748591D01*
X155655635Y-83820525D01*
X155654945Y-83827088D01*
X155654945Y-83827089D01*
X155647485Y-83898064D01*
X155636771Y-84000000D01*
X150771304Y-84000000D01*
X150769155Y-83974977D01*
X150802287Y-83912186D01*
X150818584Y-83898064D01*
X150818875Y-83897853D01*
X150827613Y-83891504D01*
X150858565Y-83857128D01*
X150943948Y-83762301D01*
X150943949Y-83762300D01*
X150948367Y-83757393D01*
X151038599Y-83601107D01*
X151061175Y-83531624D01*
X151092325Y-83435754D01*
X151092325Y-83435753D01*
X151094365Y-83429475D01*
X151102001Y-83356830D01*
X151112539Y-83256565D01*
X151113229Y-83250000D01*
X151094365Y-83070525D01*
X151038599Y-82898893D01*
X150948367Y-82742607D01*
X150827613Y-82608496D01*
X150702366Y-82517498D01*
X150686957Y-82506303D01*
X150686956Y-82506302D01*
X150681615Y-82502422D01*
X150675587Y-82499738D01*
X150675585Y-82499737D01*
X150522783Y-82431705D01*
X150522781Y-82431705D01*
X150516752Y-82429020D01*
X150428492Y-82410260D01*
X150346689Y-82392872D01*
X150346685Y-82392872D01*
X150340232Y-82391500D01*
X150159768Y-82391500D01*
X150153315Y-82392872D01*
X150153311Y-82392872D01*
X150071508Y-82410260D01*
X149983248Y-82429020D01*
X149977219Y-82431704D01*
X149977217Y-82431705D01*
X149824416Y-82499737D01*
X149824414Y-82499738D01*
X149818386Y-82502422D01*
X149813045Y-82506302D01*
X149813044Y-82506303D01*
X149677731Y-82604613D01*
X149677729Y-82604615D01*
X149672387Y-82608496D01*
X149551633Y-82742607D01*
X149461401Y-82898893D01*
X149405635Y-83070525D01*
X149386771Y-83250000D01*
X149387461Y-83256565D01*
X149398000Y-83356830D01*
X149405635Y-83429475D01*
X149407675Y-83435753D01*
X149407675Y-83435754D01*
X149438825Y-83531625D01*
X149461401Y-83601107D01*
X149551633Y-83757393D01*
X149556051Y-83762300D01*
X149556052Y-83762301D01*
X149641435Y-83857128D01*
X149672387Y-83891504D01*
X149681125Y-83897853D01*
X149681416Y-83898064D01*
X149724770Y-83954287D01*
X149730845Y-84025023D01*
X149697713Y-84087814D01*
X149681415Y-84101936D01*
X149672387Y-84108496D01*
X149667966Y-84113406D01*
X149667965Y-84113407D01*
X149602824Y-84185754D01*
X149551633Y-84242607D01*
X149461401Y-84398893D01*
X149405635Y-84570525D01*
X149404945Y-84577088D01*
X149404945Y-84577089D01*
X149393600Y-84685030D01*
X149386771Y-84750000D01*
X139508500Y-84750000D01*
X139508500Y-83000000D01*
X142536771Y-83000000D01*
X142555635Y-83179475D01*
X142611401Y-83351107D01*
X142701633Y-83507393D01*
X142822387Y-83641504D01*
X142827729Y-83645385D01*
X142827731Y-83645387D01*
X142963043Y-83743697D01*
X142968385Y-83747578D01*
X142974413Y-83750262D01*
X142974415Y-83750263D01*
X143001453Y-83762301D01*
X143133248Y-83820980D01*
X143221508Y-83839740D01*
X143303311Y-83857128D01*
X143303315Y-83857128D01*
X143309768Y-83858500D01*
X143490232Y-83858500D01*
X143496685Y-83857128D01*
X143496689Y-83857128D01*
X143578492Y-83839740D01*
X143666752Y-83820980D01*
X143798547Y-83762301D01*
X143825585Y-83750263D01*
X143825587Y-83750262D01*
X143831615Y-83747578D01*
X143836957Y-83743697D01*
X143972269Y-83645387D01*
X143972271Y-83645385D01*
X143977613Y-83641504D01*
X144098367Y-83507393D01*
X144188599Y-83351107D01*
X144244365Y-83179475D01*
X144263229Y-83000000D01*
X144252602Y-82898893D01*
X144245055Y-82827089D01*
X144245055Y-82827088D01*
X144244365Y-82820525D01*
X144217454Y-82737699D01*
X144190641Y-82655178D01*
X144188599Y-82648893D01*
X144098367Y-82492607D01*
X143977613Y-82358496D01*
X143831615Y-82252422D01*
X143825587Y-82249738D01*
X143825585Y-82249737D01*
X143672783Y-82181705D01*
X143672781Y-82181705D01*
X143666752Y-82179020D01*
X143578492Y-82160260D01*
X143496689Y-82142872D01*
X143496685Y-82142872D01*
X143490232Y-82141500D01*
X143309768Y-82141500D01*
X143303315Y-82142872D01*
X143303311Y-82142872D01*
X143221508Y-82160260D01*
X143133248Y-82179020D01*
X143127219Y-82181704D01*
X143127217Y-82181705D01*
X142974416Y-82249737D01*
X142974414Y-82249738D01*
X142968386Y-82252422D01*
X142963045Y-82256302D01*
X142963044Y-82256303D01*
X142827731Y-82354613D01*
X142827729Y-82354615D01*
X142822387Y-82358496D01*
X142701633Y-82492607D01*
X142611401Y-82648893D01*
X142609359Y-82655178D01*
X142582547Y-82737699D01*
X142555635Y-82820525D01*
X142554945Y-82827088D01*
X142554945Y-82827089D01*
X142547398Y-82898893D01*
X142536771Y-83000000D01*
X139508500Y-83000000D01*
X139508500Y-82053250D01*
X139510246Y-82032345D01*
X139512770Y-82017344D01*
X139512770Y-82017341D01*
X139513576Y-82012552D01*
X139513729Y-82000000D01*
X139513040Y-81995186D01*
X139513039Y-81995176D01*
X139512157Y-81989017D01*
X139511206Y-81962172D01*
X139515914Y-81896341D01*
X139523039Y-81796718D01*
X139525596Y-81778934D01*
X139566999Y-81588607D01*
X139572063Y-81571359D01*
X139640136Y-81388850D01*
X139647604Y-81372498D01*
X139740952Y-81201542D01*
X139750672Y-81186418D01*
X139867402Y-81030486D01*
X139879175Y-81016900D01*
X140016900Y-80879175D01*
X140030486Y-80867402D01*
X140186418Y-80750672D01*
X140201542Y-80740952D01*
X140372498Y-80647604D01*
X140388850Y-80640136D01*
X140571359Y-80572063D01*
X140588608Y-80566999D01*
X140778936Y-80525596D01*
X140796715Y-80523039D01*
X140958605Y-80511460D01*
X140976565Y-80512207D01*
X140984845Y-80512308D01*
X140993724Y-80513691D01*
X141025286Y-80509564D01*
X141041621Y-80508500D01*
X158523460Y-80508500D01*
X158591581Y-80528502D01*
G37*
%TD.AperFunction*%
%TD*%
%TA.AperFunction,Conductor*%
%TO.N,+5V*%
G36*
X173433621Y-102520002D02*
G01*
X173480114Y-102573658D01*
X173491500Y-102626000D01*
X173491500Y-103168710D01*
X173471498Y-103236831D01*
X173417842Y-103283324D01*
X173347568Y-103293428D01*
X173304800Y-103279125D01*
X173254613Y-103251535D01*
X173254608Y-103251533D01*
X173249213Y-103248567D01*
X173243346Y-103246706D01*
X173243344Y-103246705D01*
X173066564Y-103190627D01*
X173066563Y-103190627D01*
X173060694Y-103188765D01*
X172906773Y-103171500D01*
X172200231Y-103171500D01*
X172197175Y-103171800D01*
X172197168Y-103171800D01*
X172138660Y-103177537D01*
X172053167Y-103185920D01*
X172047266Y-103187702D01*
X172047264Y-103187702D01*
X171973947Y-103209838D01*
X171863831Y-103243084D01*
X171689204Y-103335934D01*
X171612009Y-103398893D01*
X171540713Y-103457040D01*
X171540710Y-103457043D01*
X171535938Y-103460935D01*
X171532011Y-103465682D01*
X171532009Y-103465684D01*
X171413799Y-103608575D01*
X171413797Y-103608579D01*
X171409870Y-103613325D01*
X171315802Y-103787299D01*
X171257318Y-103976232D01*
X171236645Y-104172925D01*
X171237204Y-104179065D01*
X171250078Y-104320525D01*
X171254570Y-104369888D01*
X171310410Y-104559619D01*
X171313263Y-104565077D01*
X171313265Y-104565081D01*
X171360720Y-104655853D01*
X171402040Y-104734890D01*
X171525968Y-104889025D01*
X171530692Y-104892989D01*
X171537933Y-104899065D01*
X171677474Y-105016154D01*
X171682872Y-105019121D01*
X171682877Y-105019125D01*
X171792886Y-105079602D01*
X171850787Y-105111433D01*
X171856654Y-105113294D01*
X171856656Y-105113295D01*
X171945582Y-105141504D01*
X172039306Y-105171235D01*
X172193227Y-105188500D01*
X172899769Y-105188500D01*
X172902825Y-105188200D01*
X172902832Y-105188200D01*
X172961340Y-105182463D01*
X173046833Y-105174080D01*
X173052734Y-105172298D01*
X173052736Y-105172298D01*
X173126053Y-105150162D01*
X173236169Y-105116916D01*
X173306347Y-105079602D01*
X173375884Y-105065283D01*
X173442125Y-105090831D01*
X173484038Y-105148136D01*
X173491500Y-105190854D01*
X173491500Y-111808710D01*
X173471498Y-111876831D01*
X173417842Y-111923324D01*
X173347568Y-111933428D01*
X173304800Y-111919125D01*
X173254613Y-111891535D01*
X173254608Y-111891533D01*
X173249213Y-111888567D01*
X173243346Y-111886706D01*
X173243344Y-111886705D01*
X173066564Y-111830627D01*
X173066563Y-111830627D01*
X173060694Y-111828765D01*
X172906773Y-111811500D01*
X172200231Y-111811500D01*
X172197175Y-111811800D01*
X172197168Y-111811800D01*
X172138660Y-111817537D01*
X172053167Y-111825920D01*
X172047266Y-111827702D01*
X172047264Y-111827702D01*
X171973947Y-111849838D01*
X171863831Y-111883084D01*
X171689204Y-111975934D01*
X171650849Y-112007216D01*
X171540713Y-112097040D01*
X171540710Y-112097043D01*
X171535938Y-112100935D01*
X171532011Y-112105682D01*
X171532009Y-112105684D01*
X171413799Y-112248575D01*
X171413797Y-112248579D01*
X171409870Y-112253325D01*
X171315802Y-112427299D01*
X171257318Y-112616232D01*
X171236645Y-112812925D01*
X171237204Y-112819065D01*
X171253823Y-113001675D01*
X171254570Y-113009888D01*
X171256308Y-113015794D01*
X171256309Y-113015798D01*
X171268703Y-113057910D01*
X171310410Y-113199619D01*
X171313263Y-113205077D01*
X171313265Y-113205081D01*
X171336611Y-113249737D01*
X171402040Y-113374890D01*
X171525968Y-113529025D01*
X171530692Y-113532989D01*
X171537933Y-113539065D01*
X171677474Y-113656154D01*
X171682872Y-113659121D01*
X171682877Y-113659125D01*
X171798665Y-113722779D01*
X171850787Y-113751433D01*
X171856654Y-113753294D01*
X171856656Y-113753295D01*
X171999028Y-113798458D01*
X172039306Y-113811235D01*
X172193227Y-113828500D01*
X172899769Y-113828500D01*
X172902825Y-113828200D01*
X172902832Y-113828200D01*
X172945984Y-113823968D01*
X172966039Y-113822002D01*
X173035786Y-113835261D01*
X173087293Y-113884124D01*
X173104206Y-113953076D01*
X173081156Y-114020227D01*
X173067429Y-114036496D01*
X172983100Y-114120825D01*
X172969514Y-114132598D01*
X172813582Y-114249328D01*
X172798458Y-114259048D01*
X172627502Y-114352396D01*
X172611150Y-114359864D01*
X172428641Y-114427937D01*
X172411393Y-114433001D01*
X172221064Y-114474404D01*
X172203285Y-114476961D01*
X172041395Y-114488540D01*
X172023435Y-114487793D01*
X172015155Y-114487692D01*
X172006276Y-114486309D01*
X171974714Y-114490436D01*
X171958379Y-114491500D01*
X166218979Y-114491500D01*
X166150858Y-114471498D01*
X166104365Y-114417842D01*
X166094261Y-114347568D01*
X166099146Y-114326564D01*
X166141502Y-114196206D01*
X166143542Y-114189928D01*
X166145859Y-114167889D01*
X166162814Y-114006565D01*
X166163504Y-114000000D01*
X166151325Y-113884124D01*
X166144232Y-113816635D01*
X166144232Y-113816633D01*
X166143542Y-113810072D01*
X166084527Y-113628444D01*
X165989040Y-113463056D01*
X165942676Y-113411563D01*
X165911960Y-113347558D01*
X165920723Y-113277105D01*
X165962252Y-113225319D01*
X166057478Y-113156133D01*
X166077613Y-113141504D01*
X166155206Y-113055328D01*
X166193948Y-113012301D01*
X166193949Y-113012300D01*
X166198367Y-113007393D01*
X166253311Y-112912227D01*
X166285295Y-112856830D01*
X166285296Y-112856829D01*
X166288599Y-112851107D01*
X166301005Y-112812925D01*
X166806645Y-112812925D01*
X166807204Y-112819065D01*
X166823823Y-113001675D01*
X166824570Y-113009888D01*
X166826308Y-113015794D01*
X166826309Y-113015798D01*
X166838703Y-113057910D01*
X166880410Y-113199619D01*
X166883263Y-113205077D01*
X166883265Y-113205081D01*
X166906611Y-113249737D01*
X166972040Y-113374890D01*
X167095968Y-113529025D01*
X167100692Y-113532989D01*
X167107933Y-113539065D01*
X167247474Y-113656154D01*
X167252872Y-113659121D01*
X167252877Y-113659125D01*
X167368665Y-113722779D01*
X167420787Y-113751433D01*
X167426654Y-113753294D01*
X167426656Y-113753295D01*
X167569028Y-113798458D01*
X167609306Y-113811235D01*
X167763227Y-113828500D01*
X168969769Y-113828500D01*
X168972825Y-113828200D01*
X168972832Y-113828200D01*
X169031340Y-113822463D01*
X169116833Y-113814080D01*
X169122734Y-113812298D01*
X169122736Y-113812298D01*
X169196053Y-113790162D01*
X169306169Y-113756916D01*
X169480796Y-113664066D01*
X169567062Y-113593709D01*
X169629287Y-113542960D01*
X169629290Y-113542957D01*
X169634062Y-113539065D01*
X169667765Y-113498325D01*
X169756201Y-113391425D01*
X169756203Y-113391421D01*
X169760130Y-113386675D01*
X169854198Y-113212701D01*
X169912682Y-113023768D01*
X169915840Y-112993724D01*
X169932711Y-112833204D01*
X169932711Y-112833202D01*
X169933355Y-112827075D01*
X169921985Y-112702135D01*
X169915989Y-112636251D01*
X169915988Y-112636248D01*
X169915430Y-112630112D01*
X169859590Y-112440381D01*
X169849919Y-112421881D01*
X169770813Y-112270568D01*
X169767960Y-112265110D01*
X169644032Y-112110975D01*
X169587171Y-112063263D01*
X169547846Y-112004154D01*
X169546720Y-111933167D01*
X169563952Y-111895920D01*
X169636442Y-111789255D01*
X169640277Y-111783612D01*
X169707530Y-111615466D01*
X169708644Y-111608738D01*
X169708645Y-111608734D01*
X169735993Y-111443539D01*
X169735993Y-111443536D01*
X169737108Y-111436802D01*
X169732203Y-111343198D01*
X169727987Y-111262766D01*
X169727630Y-111255953D01*
X169704304Y-111171266D01*
X169681352Y-111087941D01*
X169679539Y-111081359D01*
X169595078Y-110921164D01*
X169590673Y-110915951D01*
X169590670Y-110915947D01*
X169482594Y-110788057D01*
X169482590Y-110788053D01*
X169478187Y-110782843D01*
X169472762Y-110778695D01*
X169339743Y-110676994D01*
X169339739Y-110676991D01*
X169334322Y-110672850D01*
X169224210Y-110621504D01*
X169176369Y-110599195D01*
X169176366Y-110599194D01*
X169170192Y-110596315D01*
X169163544Y-110594829D01*
X169163541Y-110594828D01*
X168998494Y-110557936D01*
X168998495Y-110557936D01*
X168993457Y-110556810D01*
X168987912Y-110556500D01*
X168854756Y-110556500D01*
X168719963Y-110571143D01*
X168607171Y-110609102D01*
X168554796Y-110626728D01*
X168554794Y-110626729D01*
X168548325Y-110628906D01*
X168393095Y-110722177D01*
X168388138Y-110726865D01*
X168388135Y-110726867D01*
X168266473Y-110841918D01*
X168261515Y-110846607D01*
X168257683Y-110852245D01*
X168257680Y-110852249D01*
X168206740Y-110927205D01*
X168159723Y-110996388D01*
X168092470Y-111164534D01*
X168091356Y-111171262D01*
X168091355Y-111171266D01*
X168064007Y-111336461D01*
X168062892Y-111343198D01*
X168063249Y-111350015D01*
X168063249Y-111350019D01*
X168068151Y-111443539D01*
X168072370Y-111524047D01*
X168074181Y-111530620D01*
X168074181Y-111530623D01*
X168107625Y-111652040D01*
X168106431Y-111723027D01*
X168067048Y-111782099D01*
X168001981Y-111810501D01*
X167986149Y-111811500D01*
X167770231Y-111811500D01*
X167767175Y-111811800D01*
X167767168Y-111811800D01*
X167708660Y-111817537D01*
X167623167Y-111825920D01*
X167617266Y-111827702D01*
X167617264Y-111827702D01*
X167543947Y-111849838D01*
X167433831Y-111883084D01*
X167259204Y-111975934D01*
X167220849Y-112007216D01*
X167110713Y-112097040D01*
X167110710Y-112097043D01*
X167105938Y-112100935D01*
X167102011Y-112105682D01*
X167102009Y-112105684D01*
X166983799Y-112248575D01*
X166983797Y-112248579D01*
X166979870Y-112253325D01*
X166885802Y-112427299D01*
X166827318Y-112616232D01*
X166806645Y-112812925D01*
X166301005Y-112812925D01*
X166311175Y-112781625D01*
X166342325Y-112685754D01*
X166342325Y-112685753D01*
X166344365Y-112679475D01*
X166363229Y-112500000D01*
X166344365Y-112320525D01*
X166320993Y-112248591D01*
X166290641Y-112155178D01*
X166288599Y-112148893D01*
X166198367Y-111992607D01*
X166107362Y-111891535D01*
X166082035Y-111863407D01*
X166082034Y-111863406D01*
X166077613Y-111858496D01*
X166032777Y-111825920D01*
X165936957Y-111756303D01*
X165936956Y-111756302D01*
X165931615Y-111752422D01*
X165925587Y-111749738D01*
X165925585Y-111749737D01*
X165772783Y-111681705D01*
X165772781Y-111681705D01*
X165766752Y-111679020D01*
X165678492Y-111660260D01*
X165596689Y-111642872D01*
X165596685Y-111642872D01*
X165590232Y-111641500D01*
X165409768Y-111641500D01*
X165403315Y-111642872D01*
X165403311Y-111642872D01*
X165321508Y-111660260D01*
X165233248Y-111679020D01*
X165227219Y-111681704D01*
X165227217Y-111681705D01*
X165074416Y-111749737D01*
X165074414Y-111749738D01*
X165068386Y-111752422D01*
X165063045Y-111756302D01*
X165063044Y-111756303D01*
X164927731Y-111854613D01*
X164927729Y-111854615D01*
X164922387Y-111858496D01*
X164917966Y-111863406D01*
X164917965Y-111863407D01*
X164892639Y-111891535D01*
X164801633Y-111992607D01*
X164711401Y-112148893D01*
X164709359Y-112155178D01*
X164679008Y-112248591D01*
X164655635Y-112320525D01*
X164636771Y-112500000D01*
X164655635Y-112679475D01*
X164657675Y-112685753D01*
X164657675Y-112685754D01*
X164688825Y-112781625D01*
X164711401Y-112851107D01*
X164714704Y-112856829D01*
X164714705Y-112856830D01*
X164746689Y-112912227D01*
X164801633Y-113007393D01*
X164806051Y-113012300D01*
X164806052Y-113012301D01*
X164814490Y-113021672D01*
X164845208Y-113085679D01*
X164836445Y-113156133D01*
X164792885Y-113208382D01*
X164793248Y-113208882D01*
X164638747Y-113321134D01*
X164634326Y-113326044D01*
X164634325Y-113326045D01*
X164605103Y-113358500D01*
X164510960Y-113463056D01*
X164415473Y-113628444D01*
X164356458Y-113810072D01*
X164355768Y-113816633D01*
X164355768Y-113816635D01*
X164348675Y-113884124D01*
X164336496Y-114000000D01*
X164337186Y-114006565D01*
X164354142Y-114167889D01*
X164356458Y-114189928D01*
X164358498Y-114196206D01*
X164400854Y-114326564D01*
X164402882Y-114397531D01*
X164366219Y-114458329D01*
X164302507Y-114489655D01*
X164281021Y-114491500D01*
X157416406Y-114491500D01*
X157348285Y-114471498D01*
X157301792Y-114417842D01*
X157291688Y-114347568D01*
X157296573Y-114326564D01*
X157342325Y-114185754D01*
X157342325Y-114185753D01*
X157344365Y-114179475D01*
X157349860Y-114127200D01*
X157362539Y-114006565D01*
X157363229Y-114000000D01*
X157344365Y-113820525D01*
X157341570Y-113811921D01*
X157292263Y-113660170D01*
X157288599Y-113648893D01*
X157280422Y-113634729D01*
X157227438Y-113542960D01*
X157198367Y-113492607D01*
X157125398Y-113411566D01*
X157082035Y-113363407D01*
X157082034Y-113363406D01*
X157077613Y-113358496D01*
X157062559Y-113347558D01*
X156936957Y-113256303D01*
X156936956Y-113256302D01*
X156931615Y-113252422D01*
X156925587Y-113249738D01*
X156925585Y-113249737D01*
X156772783Y-113181705D01*
X156772781Y-113181705D01*
X156766752Y-113179020D01*
X156659076Y-113156133D01*
X156596689Y-113142872D01*
X156596685Y-113142872D01*
X156590232Y-113141500D01*
X156409768Y-113141500D01*
X156403315Y-113142872D01*
X156403311Y-113142872D01*
X156340924Y-113156133D01*
X156233248Y-113179020D01*
X156227219Y-113181704D01*
X156227217Y-113181705D01*
X156074416Y-113249737D01*
X156074414Y-113249738D01*
X156068386Y-113252422D01*
X156063045Y-113256302D01*
X156063044Y-113256303D01*
X155927731Y-113354613D01*
X155927729Y-113354615D01*
X155922387Y-113358496D01*
X155917966Y-113363406D01*
X155917965Y-113363407D01*
X155874603Y-113411566D01*
X155801633Y-113492607D01*
X155772562Y-113542960D01*
X155719579Y-113634729D01*
X155711401Y-113648893D01*
X155707737Y-113660170D01*
X155658431Y-113811921D01*
X155655635Y-113820525D01*
X155636771Y-114000000D01*
X155637461Y-114006565D01*
X155650141Y-114127200D01*
X155655635Y-114179475D01*
X155657675Y-114185753D01*
X155657675Y-114185754D01*
X155703427Y-114326564D01*
X155705454Y-114397532D01*
X155668792Y-114458329D01*
X155605080Y-114489655D01*
X155583594Y-114491500D01*
X141049367Y-114491500D01*
X141029982Y-114490000D01*
X141015149Y-114487690D01*
X141015145Y-114487690D01*
X141006276Y-114486309D01*
X140991019Y-114488304D01*
X140965698Y-114489047D01*
X140796715Y-114476961D01*
X140778936Y-114474404D01*
X140588607Y-114433001D01*
X140571359Y-114427937D01*
X140388850Y-114359864D01*
X140372498Y-114352396D01*
X140201542Y-114259048D01*
X140186418Y-114249328D01*
X140030486Y-114132598D01*
X140016900Y-114120825D01*
X139879175Y-113983100D01*
X139867402Y-113969514D01*
X139750672Y-113813582D01*
X139740952Y-113798458D01*
X139647604Y-113627502D01*
X139640136Y-113611150D01*
X139572063Y-113428641D01*
X139566999Y-113411392D01*
X139560443Y-113381254D01*
X139525596Y-113221064D01*
X139523038Y-113203278D01*
X139522777Y-113199619D01*
X139511719Y-113045011D01*
X139512805Y-113022245D01*
X139512334Y-113022203D01*
X139512770Y-113017345D01*
X139513576Y-113012552D01*
X139513729Y-113000000D01*
X139509773Y-112972376D01*
X139508500Y-112954514D01*
X139508500Y-111750000D01*
X140636526Y-111750000D01*
X140656391Y-112002403D01*
X140657545Y-112007210D01*
X140657546Y-112007216D01*
X140683610Y-112115781D01*
X140715495Y-112248591D01*
X140717388Y-112253162D01*
X140717389Y-112253164D01*
X140791957Y-112433186D01*
X140812384Y-112482502D01*
X140944672Y-112698376D01*
X141109102Y-112890898D01*
X141301624Y-113055328D01*
X141517498Y-113187616D01*
X141522068Y-113189509D01*
X141522072Y-113189511D01*
X141746836Y-113282611D01*
X141751409Y-113284505D01*
X141836032Y-113304821D01*
X141992784Y-113342454D01*
X141992790Y-113342455D01*
X141997597Y-113343609D01*
X142097416Y-113351465D01*
X142184345Y-113358307D01*
X142184352Y-113358307D01*
X142186801Y-113358500D01*
X142313199Y-113358500D01*
X142315648Y-113358307D01*
X142315655Y-113358307D01*
X142402584Y-113351465D01*
X142502403Y-113343609D01*
X142507210Y-113342455D01*
X142507216Y-113342454D01*
X142663968Y-113304821D01*
X142748591Y-113284505D01*
X142753164Y-113282611D01*
X142977928Y-113189511D01*
X142977932Y-113189509D01*
X142982502Y-113187616D01*
X143198376Y-113055328D01*
X143390898Y-112890898D01*
X143555328Y-112698376D01*
X143687616Y-112482502D01*
X143708044Y-112433186D01*
X143782611Y-112253164D01*
X143782612Y-112253162D01*
X143784505Y-112248591D01*
X143816390Y-112115781D01*
X143842454Y-112007216D01*
X143842455Y-112007210D01*
X143843609Y-112002403D01*
X143863474Y-111750000D01*
X143843609Y-111497597D01*
X143784505Y-111251409D01*
X143751309Y-111171266D01*
X143689511Y-111022072D01*
X143689509Y-111022068D01*
X143687616Y-111017498D01*
X143555328Y-110801624D01*
X143390898Y-110609102D01*
X143198376Y-110444672D01*
X142982502Y-110312384D01*
X142977932Y-110310491D01*
X142977928Y-110310489D01*
X142753164Y-110217389D01*
X142753162Y-110217388D01*
X142748591Y-110215495D01*
X142598556Y-110179475D01*
X142507216Y-110157546D01*
X142507210Y-110157545D01*
X142502403Y-110156391D01*
X142402584Y-110148535D01*
X142315655Y-110141693D01*
X142315648Y-110141693D01*
X142313199Y-110141500D01*
X142186801Y-110141500D01*
X142184352Y-110141693D01*
X142184345Y-110141693D01*
X142097416Y-110148535D01*
X141997597Y-110156391D01*
X141992790Y-110157545D01*
X141992784Y-110157546D01*
X141901444Y-110179475D01*
X141751409Y-110215495D01*
X141746838Y-110217388D01*
X141746836Y-110217389D01*
X141522072Y-110310489D01*
X141522068Y-110310491D01*
X141517498Y-110312384D01*
X141301624Y-110444672D01*
X141109102Y-110609102D01*
X140944672Y-110801624D01*
X140812384Y-111017498D01*
X140810491Y-111022068D01*
X140810489Y-111022072D01*
X140748691Y-111171266D01*
X140715495Y-111251409D01*
X140656391Y-111497597D01*
X140636526Y-111750000D01*
X139508500Y-111750000D01*
X139508500Y-109626000D01*
X139528502Y-109557879D01*
X139582158Y-109511386D01*
X139634500Y-109500000D01*
X150079857Y-109500000D01*
X150147978Y-109520002D01*
X150194471Y-109573658D01*
X150204575Y-109643932D01*
X150199690Y-109664936D01*
X150155635Y-109800525D01*
X150136771Y-109980000D01*
X150155635Y-110159475D01*
X150157675Y-110165753D01*
X150157675Y-110165754D01*
X150173837Y-110215495D01*
X150211401Y-110331107D01*
X150301633Y-110487393D01*
X150306051Y-110492300D01*
X150306052Y-110492301D01*
X150319641Y-110507393D01*
X150422387Y-110621504D01*
X150427729Y-110625385D01*
X150427731Y-110625387D01*
X150498762Y-110676994D01*
X150568385Y-110727578D01*
X150574413Y-110730262D01*
X150574415Y-110730263D01*
X150727217Y-110798295D01*
X150733248Y-110800980D01*
X150814710Y-110818295D01*
X150903311Y-110837128D01*
X150903315Y-110837128D01*
X150909768Y-110838500D01*
X151090232Y-110838500D01*
X151096685Y-110837128D01*
X151096689Y-110837128D01*
X151185290Y-110818295D01*
X151266752Y-110800980D01*
X151272783Y-110798295D01*
X151425585Y-110730263D01*
X151425587Y-110730262D01*
X151431615Y-110727578D01*
X151501238Y-110676994D01*
X151572269Y-110625387D01*
X151572271Y-110625385D01*
X151577613Y-110621504D01*
X151680359Y-110507393D01*
X151693948Y-110492301D01*
X151693949Y-110492300D01*
X151698367Y-110487393D01*
X151788599Y-110331107D01*
X151826163Y-110215495D01*
X151842325Y-110165754D01*
X151842325Y-110165753D01*
X151844365Y-110159475D01*
X151861127Y-110000000D01*
X155636771Y-110000000D01*
X155655635Y-110179475D01*
X155711401Y-110351107D01*
X155801633Y-110507393D01*
X155922387Y-110641504D01*
X155927729Y-110645385D01*
X155927731Y-110645387D01*
X156039879Y-110726867D01*
X156068385Y-110747578D01*
X156074413Y-110750262D01*
X156074415Y-110750263D01*
X156227217Y-110818295D01*
X156233248Y-110820980D01*
X156315674Y-110838500D01*
X156403311Y-110857128D01*
X156403315Y-110857128D01*
X156409768Y-110858500D01*
X156590232Y-110858500D01*
X156596685Y-110857128D01*
X156596689Y-110857128D01*
X156684326Y-110838500D01*
X156766752Y-110820980D01*
X156772783Y-110818295D01*
X156925585Y-110750263D01*
X156925587Y-110750262D01*
X156931615Y-110747578D01*
X156960121Y-110726867D01*
X157072269Y-110645387D01*
X157072271Y-110645385D01*
X157077613Y-110641504D01*
X157198367Y-110507393D01*
X157288599Y-110351107D01*
X157344365Y-110179475D01*
X157363229Y-110000000D01*
X157344365Y-109820525D01*
X157340000Y-109807089D01*
X157290641Y-109655178D01*
X157288599Y-109648893D01*
X157198367Y-109492607D01*
X157077613Y-109358496D01*
X157058793Y-109344822D01*
X156936957Y-109256303D01*
X156936956Y-109256302D01*
X156931615Y-109252422D01*
X156925587Y-109249738D01*
X156925585Y-109249737D01*
X156772783Y-109181705D01*
X156772781Y-109181705D01*
X156766752Y-109179020D01*
X156672658Y-109159020D01*
X156596689Y-109142872D01*
X156596685Y-109142872D01*
X156590232Y-109141500D01*
X156409768Y-109141500D01*
X156403315Y-109142872D01*
X156403311Y-109142872D01*
X156327342Y-109159020D01*
X156233248Y-109179020D01*
X156227219Y-109181704D01*
X156227217Y-109181705D01*
X156074416Y-109249737D01*
X156074414Y-109249738D01*
X156068386Y-109252422D01*
X156063045Y-109256302D01*
X156063044Y-109256303D01*
X155927731Y-109354613D01*
X155927729Y-109354615D01*
X155922387Y-109358496D01*
X155801633Y-109492607D01*
X155711401Y-109648893D01*
X155709359Y-109655178D01*
X155660001Y-109807089D01*
X155655635Y-109820525D01*
X155636771Y-110000000D01*
X151861127Y-110000000D01*
X151863229Y-109980000D01*
X151844365Y-109800525D01*
X151800310Y-109664936D01*
X151798283Y-109593968D01*
X151834945Y-109533170D01*
X151898658Y-109501845D01*
X151920143Y-109500000D01*
X152488878Y-109500000D01*
X152556999Y-109520002D01*
X152582515Y-109541690D01*
X152672387Y-109641504D01*
X152677729Y-109645385D01*
X152677731Y-109645387D01*
X152704638Y-109664936D01*
X152818385Y-109747578D01*
X152824413Y-109750262D01*
X152824415Y-109750263D01*
X152937305Y-109800525D01*
X152983248Y-109820980D01*
X153071508Y-109839740D01*
X153153311Y-109857128D01*
X153153315Y-109857128D01*
X153159768Y-109858500D01*
X153340232Y-109858500D01*
X153346685Y-109857128D01*
X153346689Y-109857128D01*
X153428492Y-109839740D01*
X153516752Y-109820980D01*
X153562695Y-109800525D01*
X153675585Y-109750263D01*
X153675587Y-109750262D01*
X153681615Y-109747578D01*
X153795362Y-109664936D01*
X153822269Y-109645387D01*
X153822271Y-109645385D01*
X153827613Y-109641504D01*
X153948367Y-109507393D01*
X154038599Y-109351107D01*
X154094365Y-109179475D01*
X154113229Y-109000000D01*
X154096778Y-108843483D01*
X154109550Y-108773645D01*
X154125290Y-108749652D01*
X155844177Y-106686988D01*
X155856943Y-106673763D01*
X155944682Y-106595236D01*
X155975268Y-106575020D01*
X156073465Y-106529027D01*
X156108577Y-106518472D01*
X156225068Y-106501341D01*
X156243400Y-106500000D01*
X156587006Y-106500000D01*
X156655127Y-106520002D01*
X156701620Y-106573658D01*
X156706837Y-106587060D01*
X156711401Y-106601107D01*
X156801633Y-106757393D01*
X156922387Y-106891504D01*
X156927729Y-106895385D01*
X156927731Y-106895387D01*
X157063043Y-106993697D01*
X157068385Y-106997578D01*
X157074413Y-107000262D01*
X157074415Y-107000263D01*
X157101453Y-107012301D01*
X157233248Y-107070980D01*
X157321508Y-107089740D01*
X157403311Y-107107128D01*
X157403315Y-107107128D01*
X157409768Y-107108500D01*
X157590232Y-107108500D01*
X157596685Y-107107128D01*
X157596689Y-107107128D01*
X157678492Y-107089740D01*
X157766752Y-107070980D01*
X157898547Y-107012301D01*
X157925585Y-107000263D01*
X157925587Y-107000262D01*
X157931615Y-106997578D01*
X157936957Y-106993697D01*
X158072269Y-106895387D01*
X158072271Y-106895385D01*
X158077613Y-106891504D01*
X158198367Y-106757393D01*
X158288599Y-106601107D01*
X158293161Y-106587067D01*
X158333231Y-106528461D01*
X158398627Y-106500822D01*
X158412994Y-106500000D01*
X161500000Y-106500000D01*
X162311771Y-106500000D01*
X162312461Y-106506565D01*
X162313713Y-106518472D01*
X162330635Y-106679475D01*
X162332675Y-106685753D01*
X162332675Y-106685754D01*
X162363825Y-106781625D01*
X162386401Y-106851107D01*
X162476633Y-107007393D01*
X162481051Y-107012300D01*
X162481052Y-107012301D01*
X162566435Y-107107128D01*
X162597387Y-107141504D01*
X162743385Y-107247578D01*
X162749413Y-107250262D01*
X162749415Y-107250263D01*
X162902217Y-107318295D01*
X162908248Y-107320980D01*
X162996508Y-107339740D01*
X163078311Y-107357128D01*
X163078315Y-107357128D01*
X163084768Y-107358500D01*
X163265232Y-107358500D01*
X163271685Y-107357128D01*
X163271689Y-107357128D01*
X163353492Y-107339740D01*
X163441752Y-107320980D01*
X163447783Y-107318295D01*
X163600585Y-107250263D01*
X163600587Y-107250262D01*
X163606615Y-107247578D01*
X163752613Y-107141504D01*
X163783565Y-107107128D01*
X163868948Y-107012301D01*
X163868949Y-107012300D01*
X163873367Y-107007393D01*
X163963599Y-106851107D01*
X163986175Y-106781625D01*
X164017325Y-106685754D01*
X164017325Y-106685753D01*
X164019365Y-106679475D01*
X164036288Y-106518472D01*
X164037539Y-106506565D01*
X164038229Y-106500000D01*
X164035926Y-106478087D01*
X164020055Y-106327089D01*
X164020055Y-106327088D01*
X164019365Y-106320525D01*
X164005491Y-106277823D01*
X163965641Y-106155178D01*
X163963599Y-106148893D01*
X163873367Y-105992607D01*
X163762419Y-105869386D01*
X163757035Y-105863407D01*
X163757034Y-105863406D01*
X163752613Y-105858496D01*
X163743410Y-105851809D01*
X163611957Y-105756303D01*
X163611956Y-105756302D01*
X163606615Y-105752422D01*
X163600587Y-105749738D01*
X163600585Y-105749737D01*
X163447783Y-105681705D01*
X163447781Y-105681705D01*
X163441752Y-105679020D01*
X163353492Y-105660260D01*
X163271689Y-105642872D01*
X163271685Y-105642872D01*
X163265232Y-105641500D01*
X163084768Y-105641500D01*
X163078315Y-105642872D01*
X163078311Y-105642872D01*
X162996508Y-105660260D01*
X162908248Y-105679020D01*
X162902219Y-105681704D01*
X162902217Y-105681705D01*
X162749416Y-105749737D01*
X162749414Y-105749738D01*
X162743386Y-105752422D01*
X162738045Y-105756302D01*
X162738044Y-105756303D01*
X162612169Y-105847756D01*
X162600809Y-105851809D01*
X162600798Y-105851850D01*
X162587590Y-105869377D01*
X162476633Y-105992607D01*
X162386401Y-106148893D01*
X162384359Y-106155178D01*
X162344510Y-106277823D01*
X162330635Y-106320525D01*
X162329945Y-106327088D01*
X162329945Y-106327089D01*
X162314074Y-106478087D01*
X162311771Y-106500000D01*
X161500000Y-106500000D01*
X161901434Y-106143170D01*
X162410237Y-105690901D01*
X162434149Y-105679613D01*
X162438329Y-105668878D01*
X162454398Y-105651646D01*
X162456272Y-105649981D01*
X164779383Y-103584994D01*
X164843585Y-103554687D01*
X164913981Y-103563902D01*
X164937148Y-103577229D01*
X164983032Y-103610565D01*
X165026384Y-103666787D01*
X165032459Y-103737523D01*
X164999327Y-103800315D01*
X164983030Y-103814436D01*
X164951079Y-103837650D01*
X164922387Y-103858496D01*
X164801633Y-103992607D01*
X164711401Y-104148893D01*
X164655635Y-104320525D01*
X164636771Y-104500000D01*
X164655635Y-104679475D01*
X164711401Y-104851107D01*
X164801633Y-105007393D01*
X164806051Y-105012300D01*
X164806052Y-105012301D01*
X164897644Y-105114024D01*
X164922387Y-105141504D01*
X164927729Y-105145385D01*
X164927731Y-105145387D01*
X165063043Y-105243697D01*
X165068385Y-105247578D01*
X165074413Y-105250262D01*
X165074415Y-105250263D01*
X165203962Y-105307941D01*
X165233248Y-105320980D01*
X165321245Y-105339684D01*
X165403311Y-105357128D01*
X165403315Y-105357128D01*
X165409768Y-105358500D01*
X165590232Y-105358500D01*
X165596685Y-105357128D01*
X165596689Y-105357128D01*
X165678755Y-105339684D01*
X165766752Y-105320980D01*
X165796038Y-105307941D01*
X165925585Y-105250263D01*
X165925587Y-105250262D01*
X165931615Y-105247578D01*
X165936957Y-105243697D01*
X166072269Y-105145387D01*
X166072271Y-105145385D01*
X166077613Y-105141504D01*
X166102356Y-105114024D01*
X166193948Y-105012301D01*
X166193949Y-105012300D01*
X166198367Y-105007393D01*
X166288599Y-104851107D01*
X166344365Y-104679475D01*
X166363229Y-104500000D01*
X166344365Y-104320525D01*
X166296407Y-104172925D01*
X166806645Y-104172925D01*
X166807204Y-104179065D01*
X166820078Y-104320525D01*
X166824570Y-104369888D01*
X166880410Y-104559619D01*
X166883263Y-104565077D01*
X166883265Y-104565081D01*
X166930720Y-104655853D01*
X166972040Y-104734890D01*
X167095968Y-104889025D01*
X167100692Y-104892989D01*
X167107933Y-104899065D01*
X167247474Y-105016154D01*
X167252872Y-105019121D01*
X167252877Y-105019125D01*
X167362886Y-105079602D01*
X167420787Y-105111433D01*
X167426654Y-105113294D01*
X167426656Y-105113295D01*
X167515582Y-105141504D01*
X167609306Y-105171235D01*
X167763227Y-105188500D01*
X167984777Y-105188500D01*
X168052898Y-105208502D01*
X168099391Y-105262158D01*
X168109495Y-105332432D01*
X168101766Y-105361292D01*
X168092470Y-105384534D01*
X168091356Y-105391262D01*
X168091355Y-105391266D01*
X168064007Y-105556461D01*
X168062892Y-105563198D01*
X168063249Y-105570015D01*
X168063249Y-105570019D01*
X168068890Y-105677648D01*
X168072370Y-105744047D01*
X168074181Y-105750620D01*
X168074181Y-105750623D01*
X168118648Y-105912059D01*
X168120461Y-105918641D01*
X168204922Y-106078836D01*
X168209327Y-106084049D01*
X168209330Y-106084053D01*
X168317406Y-106211943D01*
X168317410Y-106211947D01*
X168321813Y-106217157D01*
X168327237Y-106221304D01*
X168327238Y-106221305D01*
X168460257Y-106323006D01*
X168460261Y-106323009D01*
X168465678Y-106327150D01*
X168552372Y-106367576D01*
X168623631Y-106400805D01*
X168623634Y-106400806D01*
X168629808Y-106403685D01*
X168636456Y-106405171D01*
X168636459Y-106405172D01*
X168745718Y-106429594D01*
X168806543Y-106443190D01*
X168812088Y-106443500D01*
X168945244Y-106443500D01*
X169080037Y-106428857D01*
X169198190Y-106389094D01*
X169245204Y-106373272D01*
X169245206Y-106373271D01*
X169251675Y-106371094D01*
X169406905Y-106277823D01*
X169411862Y-106273135D01*
X169411865Y-106273133D01*
X169533527Y-106158082D01*
X169533529Y-106158080D01*
X169538485Y-106153393D01*
X169542317Y-106147755D01*
X169542320Y-106147751D01*
X169636442Y-106009255D01*
X169640277Y-106003612D01*
X169707530Y-105835466D01*
X169708644Y-105828738D01*
X169708645Y-105828734D01*
X169735993Y-105663539D01*
X169735993Y-105663536D01*
X169737108Y-105656802D01*
X169734577Y-105608496D01*
X169727987Y-105482766D01*
X169727630Y-105475953D01*
X169704304Y-105391266D01*
X169681352Y-105307941D01*
X169679539Y-105301359D01*
X169595078Y-105141164D01*
X169572628Y-105114598D01*
X169543937Y-105049657D01*
X169554910Y-104979514D01*
X169589232Y-104935628D01*
X169629282Y-104902964D01*
X169629285Y-104902961D01*
X169634062Y-104899065D01*
X169669002Y-104856830D01*
X169756201Y-104751425D01*
X169756203Y-104751421D01*
X169760130Y-104746675D01*
X169854198Y-104572701D01*
X169912682Y-104383768D01*
X169919989Y-104314246D01*
X169932711Y-104193204D01*
X169932711Y-104193202D01*
X169933355Y-104187075D01*
X169925531Y-104101107D01*
X169915989Y-103996251D01*
X169915988Y-103996248D01*
X169915430Y-103990112D01*
X169859590Y-103800381D01*
X169849919Y-103781881D01*
X169770813Y-103630568D01*
X169767960Y-103625110D01*
X169644032Y-103470975D01*
X169637727Y-103465684D01*
X169591237Y-103426675D01*
X169492526Y-103343846D01*
X169487128Y-103340879D01*
X169487123Y-103340875D01*
X169324608Y-103251533D01*
X169324609Y-103251533D01*
X169319213Y-103248567D01*
X169313346Y-103246706D01*
X169313344Y-103246705D01*
X169136564Y-103190627D01*
X169136563Y-103190627D01*
X169130694Y-103188765D01*
X168976773Y-103171500D01*
X167770231Y-103171500D01*
X167767175Y-103171800D01*
X167767168Y-103171800D01*
X167708660Y-103177537D01*
X167623167Y-103185920D01*
X167617266Y-103187702D01*
X167617264Y-103187702D01*
X167543947Y-103209838D01*
X167433831Y-103243084D01*
X167259204Y-103335934D01*
X167182009Y-103398893D01*
X167110713Y-103457040D01*
X167110710Y-103457043D01*
X167105938Y-103460935D01*
X167102011Y-103465682D01*
X167102009Y-103465684D01*
X166983799Y-103608575D01*
X166983797Y-103608579D01*
X166979870Y-103613325D01*
X166885802Y-103787299D01*
X166827318Y-103976232D01*
X166806645Y-104172925D01*
X166296407Y-104172925D01*
X166288599Y-104148893D01*
X166198367Y-103992607D01*
X166077613Y-103858496D01*
X166016970Y-103814436D01*
X165973616Y-103758213D01*
X165967541Y-103687477D01*
X166000673Y-103624686D01*
X166016970Y-103610564D01*
X166062847Y-103577232D01*
X166077613Y-103566504D01*
X166198367Y-103432393D01*
X166288599Y-103276107D01*
X166317902Y-103185920D01*
X166342325Y-103110754D01*
X166342325Y-103110753D01*
X166344365Y-103104475D01*
X166363229Y-102925000D01*
X166344365Y-102745525D01*
X166318180Y-102664935D01*
X166316152Y-102593969D01*
X166352815Y-102533171D01*
X166416527Y-102501845D01*
X166438013Y-102500000D01*
X173365500Y-102500000D01*
X173433621Y-102520002D01*
G37*
%TD.AperFunction*%
%TD*%
M02*
